<?xml version="1.0" encoding="utf-8"?>
<!-- Generator: Adobe Illustrator 24.3.0, SVG Export Plug-In . SVG Version: 6.00 Build 0)  -->
<svg version="1.1" id="Layer_1" xmlns="http://www.w3.org/2000/svg" xmlns:xlink="http://www.w3.org/1999/xlink" x="0px" y="0px"
	 viewBox="0 0 500 500" style="enable-background:new 0 0 500 500;" xml:space="preserve">
<style type="text/css">
	.st0{fill:#F5F5F5;}
	.st1{fill:#EBEBEB;}
	.st2{fill:#E0E0E0;}
	.st3{fill:#FFFFFF;}
	.st4{fill:#263238;}
	.st5{fill:#455A64;}
	.st6{fill:#009EE5;}
	.st7{fill:#FAFAFA;}
	.st8{opacity:0.3;}
	.st9{fill:#C17560;}
	.st10{fill:#6F4439;}
	.st11{opacity:0.6;}
</style>
<g id="freepik--background-complete--inject-17">
	<ellipse class="st0" cx="270.4" cy="462.3" rx="95.2" ry="17.4"/>
	<path class="st1" d="M346.4,461.4c0-0.3-0.1-0.5-0.2-0.8c-0.4-0.7-1-1.3-1.7-1.7c-2.7-1.5-5.6-2.6-8.6-3.2
		c-7.8-1.9-19.3-3.5-33.6-4.5c-16.7-1.1-33.5-1.3-50.3-0.7c-9.5,0.3-19.4,0.9-29.6,2.1c-5.1,0.6-10.3,1.3-15.5,2.4
		c-2.6,0.5-5.2,1.2-7.7,2c-1.3,0.4-2.5,0.9-3.7,1.6c-0.6,0.3-1.1,0.7-1.6,1.1c-0.5,0.4-0.8,1-0.9,1.6c0.1,0.6,0.4,1.2,0.8,1.6
		c0.5,0.4,1,0.8,1.6,1.1c1.2,0.6,2.4,1.1,3.7,1.6c2.5,0.8,5.1,1.5,7.8,2c5.2,1.1,10.4,1.8,15.5,2.4c10.2,1.2,20.2,1.8,29.6,2.1
		c16.8,0.6,33.5,0.4,50.3-0.7c14.3-1,25.8-2.5,33.6-4.5c3-0.6,5.9-1.7,8.6-3.2c0.7-0.4,1.3-1,1.7-1.7
		C346.3,461.8,346.3,461.5,346.4,461.4c0,0.2,0,0.5-0.2,0.7c-0.4,0.7-1,1.3-1.7,1.7c-2.7,1.5-5.6,2.7-8.6,3.3
		c-7.8,2-19.3,3.6-33.6,4.6c-16.8,1.1-33.5,1.4-50.3,0.8c-9.5-0.3-19.4-0.9-29.7-2.1c-5.1-0.6-10.3-1.3-15.6-2.4
		c-2.6-0.5-5.2-1.2-7.8-2c-1.3-0.4-2.6-1-3.8-1.6c-0.6-0.3-1.2-0.7-1.7-1.2c-1.1-0.8-1.3-2.3-0.6-3.3c0.2-0.2,0.3-0.4,0.6-0.6
		c0.5-0.5,1.1-0.9,1.7-1.2c1.2-0.6,2.5-1.2,3.8-1.6c2.6-0.8,5.2-1.5,7.8-2c5.2-1.1,10.4-1.8,15.6-2.4c10.2-1.2,20.2-1.8,29.7-2.1
		c16.8-0.6,33.6-0.3,50.3,0.8c14.3,1,25.8,2.6,33.6,4.6c3,0.6,5.9,1.8,8.6,3.3c0.7,0.4,1.3,1,1.7,1.7
		C346.3,460.8,346.4,461.1,346.4,461.4z"/>
	<path class="st1" d="M319,460.5c0-0.2-0.1-0.3-0.1-0.5c-0.2-0.4-0.6-0.8-1-1c-1.7-0.9-3.5-1.6-5.4-2c-7-1.5-14.1-2.4-21.3-2.8
		c-9-0.6-19.9-0.9-31.8-0.4c-6,0.2-12.3,0.6-18.7,1.3c-3.2,0.4-6.5,0.8-9.8,1.5c-1.7,0.3-3.3,0.8-4.9,1.3c-0.8,0.3-1.6,0.6-2.3,1
		c-0.7,0.4-1.5,0.9-1.5,1.6s0.8,1.2,1.5,1.6c0.7,0.4,1.5,0.7,2.3,1c1.6,0.5,3.2,1,4.9,1.3c3.3,0.7,6.6,1.1,9.8,1.5
		c6.5,0.7,12.8,1.1,18.8,1.3c12,0.4,22.8,0.2,31.8-0.4c7.2-0.4,14.3-1.3,21.3-2.8c1.9-0.4,3.7-1.1,5.4-2c0.4-0.2,0.8-0.6,1-1
		C318.9,461,319,460.8,319,460.5c0,0.3,0,0.4-0.1,0.6c-0.2,0.5-0.6,0.8-1,1.1c-1.7,1-3.5,1.7-5.5,2.1c-7,1.6-14.1,2.6-21.3,3
		c-10.6,0.7-21.2,0.9-31.9,0.5c-6-0.2-12.3-0.6-18.8-1.3c-3.2-0.4-6.5-0.8-9.9-1.5c-1.7-0.3-3.3-0.8-4.9-1.3c-0.8-0.3-1.6-0.6-2.4-1
		c-0.4-0.2-0.8-0.5-1.1-0.8c-0.7-0.5-0.9-1.5-0.4-2.2c0.1-0.1,0.2-0.3,0.4-0.4c0.3-0.3,0.7-0.6,1.1-0.8c0.8-0.4,1.6-0.7,2.4-1
		c1.6-0.5,3.3-1,5-1.3c3.3-0.7,6.6-1.1,9.9-1.5c6.5-0.7,12.8-1.1,18.8-1.3c10.6-0.4,21.3-0.2,31.9,0.5c7.2,0.4,14.3,1.4,21.3,3
		c1.9,0.4,3.8,1.1,5.5,2.1c0.4,0.3,0.8,0.7,1,1.1C319,460.4,319,460.5,319,460.5z"/>
	<path class="st1" d="M296.9,460.5c-0.1-0.3-0.3-0.6-0.6-0.7c-0.9-0.5-1.8-0.8-2.7-1c-3.5-0.7-7-1.2-10.6-1.3
		c-4.5-0.3-9.9-0.4-15.9-0.2c-3,0.1-6.1,0.3-9.4,0.7c-1.6,0.2-3.3,0.4-4.9,0.8c-0.8,0.2-1.6,0.4-2.4,0.6c-0.4,0.1-0.8,0.3-1.1,0.5
		c-0.4,0.2-0.7,0.5-0.7,0.7s0.3,0.5,0.7,0.7c0.4,0.2,0.7,0.3,1.1,0.5c0.8,0.3,1.6,0.5,2.4,0.6c1.6,0.3,3.3,0.6,4.9,0.8
		c3.2,0.4,6.4,0.6,9.4,0.7c6,0.2,11.4,0.1,15.9-0.2c3.6-0.2,7.1-0.6,10.6-1.4c0.9-0.2,1.9-0.5,2.7-1
		C296.7,461.1,296.9,460.8,296.9,460.5c0.1,0.1,0.1,0.1,0,0.2c-0.1,0.2-0.3,0.4-0.5,0.6c-0.8,0.5-1.8,0.9-2.7,1.1
		c-3.5,0.8-7.1,1.4-10.7,1.6c-5.3,0.4-10.7,0.5-16,0.3c-3-0.1-6.1-0.3-9.4-0.6c-1.6-0.2-3.3-0.4-4.9-0.8c-0.8-0.2-1.7-0.4-2.5-0.6
		c-0.4-0.1-0.8-0.3-1.2-0.5c-0.5-0.2-0.9-0.6-1-1.2c0.1-0.7,0.6-0.9,1-1.1c0.4-0.2,0.8-0.4,1.2-0.5c0.8-0.3,1.6-0.5,2.5-0.6
		c1.7-0.3,3.3-0.6,4.9-0.8c3.2-0.4,6.4-0.5,9.4-0.6c5.3-0.2,10.7-0.1,16,0.3c3.6,0.2,7.1,0.7,10.6,1.5c1,0.2,1.9,0.6,2.7,1.1
		c0.2,0.1,0.4,0.3,0.5,0.6C296.9,460.4,296.9,460.5,296.9,460.5z"/>
	<rect x="30.7" y="129.4" class="st0" width="30.2" height="11.9"/>
	<path class="st2" d="M48.8,153.1c0-0.1,0-0.1,0-0.2c0-0.2,0-0.4,0-0.6c0-0.6,0-1.3,0-2.4c0-2.1,0-5-0.1-8.8l0.1,0.1l-37.3,0.1
		l0.2-0.2l0,0v11.9l-0.2-0.2l26.5,0.1L46,153h2.1h0.5L48.8,153.1c0-0.1,0-0.1-0.1-0.1h-0.5h-2.1l-7.8,0.1l-26.7,0.1h-0.2v-12l0,0
		c0.4-0.5,0.1-0.1,0.2-0.2l37.3,0.1H49v0.1c0,3.8,0,6.8-0.1,8.9c0,1,0,1.8,0,2.3c0,0.2,0,0.4,0,0.6C48.9,153,48.9,153,48.8,153.1z"
		/>
	<rect x="293.6" y="391.6" class="st1" width="48.6" height="12.9"/>
	<path class="st2" d="M321.7,418c0,0,0-0.1,0-0.2v-0.7c0-0.6,0-1.5,0-2.5c0-2.2,0-5.4-0.1-9.5l0.1,0.2l-48.6,0.1l0.2-0.2l0,0v6.5
		c0,2.1,0,4.3,0,6.3l-0.2-0.2l34.7,0.1L318,418h2.8h0.7C321.6,418,321.7,418,321.7,418h-0.2h-0.7h-2.7l-10.2,0.1l-34.8,0.1h-0.2V418
		c0-2.1,0-4.2,0-6.3v-6.5l0,0l0.2-0.2l48.6,0.1h0.1v0.1c0,4.1-0.1,7.3-0.1,9.5c0,1.1,0,1.9,0,2.5c0,0.3,0,0.5,0,0.6
		C321.8,417.9,321.8,417.9,321.7,418z"/>
	<rect x="203.4" y="133.9" class="st0" width="48.7" height="12.9"/>
	<path class="st2" d="M231.4,160.3c0,0,0-0.1,0-0.2v-0.7c0-0.6,0-1.5,0-2.5c0-2.2,0-5.4-0.1-9.4l0.1,0.1l-48.6,0.1
		c0.1-0.1-0.2,0.2,0.2-0.2l0,0v6.5c0,2.1,0,4.3,0,6.3l-0.2-0.2l34.7,0.1l10.2,0.1h2.8h0.7L231.4,160.3l-0.2-0.1h-0.7h-2.7l-10.2,0.1
		l-34.8,0.1h-0.2V154c0-1.1,0-2.2,0-3.2v-3.3l0,0c0.5-0.5,0.1-0.1,0.3-0.2l48.6,0.1h0.2v0.1c0,4.1-0.1,7.3-0.1,9.5
		c0,1.1,0,1.9,0,2.5c0,0.3,0,0.5,0,0.6S231.4,160.3,231.4,160.3z"/>
	<path class="st2" d="M346.7,46.3c0-0.1,0-0.2,0-0.2v-0.7c0-0.6,0-1.5,0-2.5c0-2.2,0-5.4-0.1-9.5l0.1,0.2l-48.6,0.1l0.2-0.2l0,0V40
		c0,2.2,0,4.3,0,6.3l-0.2-0.2l34.7,0.1l10.2,0.1h2.8h0.7L346.7,46.3l-0.1,0h-0.7h-2.7L333,46.3l-34.8,0.1h-0.2V40c0-1.1,0-2.2,0-3.2
		v-3.3l0,0c0.5-0.5,0.1-0.1,0.3-0.2l48.6,0.1h0.2v0.2c0,4.1-0.1,7.3-0.1,9.5c0,1.1,0,1.9,0,2.5c0,0.3,0,0.5,0,0.6
		C346.8,46.2,346.8,46.2,346.7,46.3z"/>
	<rect x="431.4" y="194.1" class="st0" width="48.6" height="12.9"/>
	<path class="st2" d="M467,220.5c0-0.1,0-0.2,0-0.2v-0.7c0-0.6,0-1.4,0-2.5c0-2.2,0-5.4-0.1-9.4l0.1,0.1l-48.6,0.1l0.2-0.2l0,0v6.5
		c0,2.1,0,4.3,0,6.3l-0.2-0.2l34.7,0.1l10.2,0.1h2.8h0.7L467,220.5c0-0.1-0.1-0.1-0.2-0.1h-0.7h-2.7l-10.2,0.1l-34.8,0.1h-0.2v-0.2
		c0-2.1,0-4.2,0-6.3v-6.5l0,0l0.2-0.2l48.6,0.1h0.1v0.1c0,4.1-0.1,7.3-0.1,9.5c0,1.1,0,1.9,0,2.5c0,0.3,0,0.5,0,0.6
		S467,220.5,467,220.5z"/>
	<rect x="81.1" y="60.2" class="st2" width="90.8" height="150.3"/>
	<rect x="78" y="60.2" class="st1" width="90.8" height="150.3"/>
	<rect x="81.9" y="63.3" class="st3" width="83" height="144.2"/>
	<rect x="97.7" y="82" class="st1" width="51.1" height="106.7"/>
	<path class="st2" d="M97.7,150.9c-0.1-10,8.8-19.7,18.7-21.1c4.7-0.7,9.7,0.3,14.1-1.5c7.9-3.2,10.4-13.6,18.2-16.7l0.4,77.1H97.7
		V150.9z"/>
	<path class="st2" d="M147.2,39.4c0-0.1,0-0.2,0-0.2v-0.7c0-0.6,0-1.5,0-2.5c0-2.2,0-5.4-0.1-9.4l0.1,0.1l-48.7,0.1l0.2-0.2l0,0
		v12.9l-0.2-0.2l34.7,0.1l10.2,0.1h2.8h0.7L147.2,39.4l-0.2-0.1h-0.7h-2.7l-10.2,0.1l-34.8,0.1h-0.2v-13l0,0
		c0.5-0.5,0.1-0.1,0.2-0.2l48.7,0.1h0.1v0.2c0,4.1-0.1,7.3-0.1,9.5c0,1.1,0,1.9,0,2.5v0.6C147.3,39.3,147.2,39.3,147.2,39.4z"/>
	<path class="st2" d="M153.8,26.5c0-0.1,0-0.2,0-0.2c0-0.2,0-0.4,0-0.7c0-0.6,0-1.5-0.1-2.6c0-2.3-0.1-5.4-0.1-9.4l0.2,0.2
		l-29.2,0.1c-0.2,0.2,0.3-0.3,0.2-0.2l0,0v6.6c0,2.2,0,4.2,0,6.2l-0.2-0.2l20.9,0.1l6.1,0.1h1.6L153.8,26.5c0.1-0.1-0.1-0.1-0.5-0.1
		h-1.6l-6,0.1l-21.1,0.1h-0.2v-0.2c0-2,0-4.1,0-6.2v-6.6l0,0l0.2-0.2l29.2,0.1h0.1v0.2c0,4-0.1,7.2-0.1,9.5c0,1.1,0,1.9,0,2.5
		S153.8,26.5,153.8,26.5z"/>
	<path class="st2" d="M476.1,118.3c0-0.1,0-0.2,0-0.3c0-0.2,0-0.4,0-0.7c0-0.7,0-1.6,0-2.8c0-2.5-0.1-6-0.1-10.5l0.2,0.2l-54,0.1
		c0.1-0.1-0.3,0.3,0.3-0.3l0,0v14.3l-0.3-0.3l38.5,0.1l11.4,0.1h3.1h0.8L476.1,118.3c0-0.1-0.1-0.1-0.2-0.1h-0.8h-3l-11.3,0.1
		l-38.7,0.1h-0.3v-0.3c0-2.3,0-4.6,0-7v-7.2l0,0c0.5-0.6,0.2-0.2,0.3-0.3l54,0.1h0.2v0.2c0,4.5-0.1,8.1-0.1,10.6c0,1.2,0,2.1,0,2.8
		c0,0.3,0,0.5,0,0.7S476.1,118.3,476.1,118.3z"/>
	<path class="st2" d="M483.4,104c0-0.1,0-0.2,0-0.3c0-0.2,0-0.5,0-0.8c0-0.7,0-1.7,0-2.9c0-2.5-0.1-6.1-0.1-10.4l0.2,0.2L450.9,90
		l0.3-0.3l0,0v7.3c0,2.4,0,4.7,0,6.9l-0.3-0.3l23.2,0.1l6.8,0.1h1.8L483.4,104c-0.2,0-0.4,0-0.6,0h-1.8l-6.7,0.1l-23.4,0.1h-0.3V104
		c0-2.2,0-4.5,0-6.9v-7.3l0,0l0.3-0.3l32.5,0.1h0.2v0.2c0,4.4-0.1,8-0.1,10.5c0,1.2,0,2.1,0,2.8S483.4,104.1,483.4,104z"/>
</g>
<g id="freepik--Floor--inject-17">
	<path class="st4" d="M467.5,435c0,0.1-97,0.3-216.5,0.3S34.5,435.2,34.5,435s96.9-0.3,216.6-0.3S467.5,434.9,467.5,435z"/>
</g>
<path class="st4" d="M214.6,38.2h214.1c5.8,0,10.5,4.7,10.5,10.5v316.4c0,5.8-4.7,10.5-10.5,10.5H214.6c-5.8,0-10.5-4.7-10.5-10.5
	V48.7C204.1,42.9,208.8,38.2,214.6,38.2z"/>
<path class="st4" d="M428.8,375.6l0.7,0c0.3,0,0.6,0,0.9-0.1c0.4-0.1,0.8-0.2,1.2-0.3c2.8-0.8,5.1-2.7,6.4-5.2
	c0.5-0.9,0.8-1.8,1-2.8c0.2-1.1,0.2-2.2,0.2-3.3c0-2.3,0-4.9,0-7.6c0-5.5,0-11.8,0-19c0-28.5,0-69.8-0.1-120.8c0-25.5,0-53.4,0-83.4
	c0-15,0-30.5,0-46.4c0-8,0-16.1,0-24.3V50c0-1,0-2.1-0.2-3.1c-0.2-1-0.5-2-1-2.9c-0.9-1.8-2.4-3.4-4.2-4.4c-0.9-0.5-1.9-0.8-2.9-1
	c-1-0.2-2.1-0.2-3.1-0.2h-213c-4.9,0-9.2,3.5-10.1,8.3c-0.2,1.2-0.2,2.4-0.2,3.6v95.4c0,36.7,0,72.1,0,105.8s0,65.8,0,95.7v16.6
	c0,0.9,0,1.8,0.1,2.7c0.1,0.9,0.4,1.7,0.7,2.6c1.4,3.3,4.5,5.6,8,6.1c0.9,0.1,1.8,0.1,2.6,0.1h47.9l120.8,0.1h32.8h8.5L428.8,375.6
	l-2.8-0.1h-8.5h-32.8l-120.8,0.1h-47.9c-0.9,0-1.8,0-2.7-0.1c-4.7-0.6-8.4-4.3-9.1-9c-0.1-0.9-0.2-1.8-0.1-2.8c0-1.8,0-3.7,0-5.5
	v-11c0-30,0-62,0-95.7s0-69.1,0-105.8c0-18.4,0-37,0-56V50.3c-0.1-1.2,0-2.4,0.2-3.7c1-5.1,5.4-8.7,10.6-8.7h213
	c1.1,0,2.1,0,3.2,0.2c1,0.2,2.1,0.6,3,1.1c1.9,1,3.4,2.6,4.4,4.5c0.5,0.9,0.8,2,1,3c0.2,1,0.2,2.1,0.2,3.2v12.4c0,8.2,0,16.3,0,24.3
	c0,16,0,31.4,0,46.4c0,30,0,57.9,0,83.4c0,51,0,92.2-0.1,120.8c0,7.1,0,13.5,0,19c0,2.7,0,5.3,0,7.6c0,1.1,0,2.2-0.2,3.3
	c-0.2,1-0.5,1.9-1,2.8c-0.8,1.5-1.9,2.7-3.2,3.7c-1,0.7-2.1,1.2-3.2,1.5c-0.4,0.1-0.8,0.2-1.2,0.3c-0.3,0-0.6,0.1-0.9,0.1
	L428.8,375.6z"/>
<circle class="st5" cx="321.7" cy="358.6" r="9"/>
<path class="st5" d="M345.8,56h-48c-1.8,0-3.3-1.5-3.3-3.3c0,0,0,0,0,0l0,0c0-1.8,1.5-3.3,3.3-3.3c0,0,0,0,0,0h48
	c1.9,0,3.4,1.5,3.4,3.3v0l0,0C349.1,54.5,347.6,56,345.8,56L345.8,56z"/>
<rect x="211.4" y="62.2" class="st3" width="220.3" height="281.8"/>
<path class="st0" d="M248.6,195.4h145.9c0.8,0,1.5,0.6,1.5,1.4v22.8c0,0.8-0.6,1.4-1.5,1.4H248.6c-0.8,0-1.4-0.6-1.4-1.4v-22.8
	C247.1,196,247.8,195.4,248.6,195.4z"/>
<path class="st4" d="M394.5,221.1c0.3,0,0.6-0.1,0.8-0.3c0.3-0.2,0.5-0.5,0.6-0.9c0-0.5,0-1,0-1.5c0-2.3,0-5.7,0-10.1
	c0-2.2,0-4.6,0-7.3c0-1.3,0-2.7,0-4.2c0-0.7-0.6-1.3-1.3-1.3h-2.3h-21.1l-122.5,0.1c-0.6,0-1.2,0.5-1.2,1.1v22c0,0.3,0,0.8,0,1
	c0.1,0.6,0.7,1,1.3,1h40l55.1,0.1l37.1,0.1L391,221h2.6L394.5,221.1l-0.9-0.1H391h-10.1l-37.1,0.1l-55.1,0.1h-32.5h-7.5
	c-0.4,0-0.8-0.1-1.2-0.4c-0.3-0.3-0.6-0.6-0.6-1.1c0-0.4,0-0.7,0-1.1v-6.5c0-2.9,0-5.9,0-8.8v-6.7c0-0.9,0.8-1.7,1.7-1.7l122.5,0.1
	h21.1h2.3c0.8,0,1.5,0.7,1.5,1.6c0,1.4,0,2.8,0,4.2c0,2.7,0,5.1,0,7.3c0,4.4,0,7.8,0,10.1c0,0.6,0,1.1,0,1.5
	c-0.1,0.4-0.3,0.7-0.6,0.9c-0.2,0.1-0.4,0.2-0.6,0.2C394.7,220.9,394.6,221,394.5,221.1z"/>
<path class="st0" d="M248.7,230.7h145.9c0.8,0,1.5,0.6,1.5,1.4v22.8c0,0.8-0.6,1.4-1.5,1.4H248.7c-0.8,0-1.4-0.6-1.4-1.4v-22.8
	C247.3,231.3,247.9,230.7,248.7,230.7z"/>
<path class="st4" d="M394.6,256.4c0.3,0,0.6-0.1,0.8-0.3c0.3-0.2,0.5-0.5,0.6-0.9c0-0.5,0-1,0-1.5c0-2.3,0-5.7,0-10.1
	c0-2.2,0-4.6,0-7.3c0-1.3,0-2.7,0-4.2c0-0.7-0.6-1.3-1.3-1.3h-2.3h-21.2l-122.5,0.1c-0.6,0-1.2,0.5-1.2,1.1v22c0,0.3,0,0.8,0,1
	c0.1,0.3,0.2,0.6,0.4,0.8c0.2,0.2,0.5,0.3,0.8,0.3h7.5h32.5l55.1,0l37.1,0.1l10.1,0h2.6h0.9h-0.9h-2.6l-10.1,0l-37.1,0.1l-55.1,0.1
	h-40c-0.4,0-0.8-0.1-1.2-0.4c-0.3-0.3-0.6-0.6-0.6-1.1c0-0.4,0-0.7,0-1.1v-22c0-0.9,0.8-1.6,1.7-1.6l122.5,0.1h21.2h2.3
	c0.8,0,1.5,0.7,1.5,1.6c0,1.4,0,2.8,0,4.2c0,2.7,0,5.1,0,7.3c0,4.4,0,7.8,0,10.1c0,0.5,0,1,0,1.5c-0.1,0.6-0.6,1.1-1.2,1.2
	C394.9,256.2,394.8,256.3,394.6,256.4z"/>
<path class="st4" d="M262.5,204.7v5.9h-0.7l-3.6-4.4v4.4h-0.9v-5.9h0.7l3.6,4.4v-4.4H262.5z"/>
<path class="st4" d="M267.7,207.9v2.7h-0.8V210c-0.3,0.5-0.9,0.7-1.5,0.6c-1,0-1.7-0.6-1.7-1.3s0.5-1.3,1.8-1.3h1.3v-0.2
	c0-0.7-0.4-1.1-1.2-1.1c-0.5,0-1,0.2-1.4,0.5l-0.3-0.6c0.5-0.4,1.2-0.6,1.9-0.6C267,206.1,267.7,206.7,267.7,207.9z M266.9,209.2
	v-0.6h-1.2c-0.8,0-1,0.3-1,0.7s0.4,0.7,1,0.7C266.2,210.1,266.7,209.7,266.9,209.2L266.9,209.2z"/>
<path class="st4" d="M276.7,208v2.6h-0.8v-2.5c0-0.9-0.4-1.3-1.2-1.3c-0.7,0-1.3,0.5-1.4,1.2c0,0.1,0,0.2,0,0.3v2.3h-0.8v-2.5
	c0-0.9-0.4-1.3-1.2-1.3s-1.4,0.5-1.4,1.5v2.3h-0.8v-4.5h0.8v0.7c0.4-0.5,1-0.7,1.6-0.7c0.6,0,1.2,0.3,1.6,0.8c0.4-0.6,1-0.9,1.7-0.8
	c0.9-0.1,1.8,0.6,1.9,1.6C276.7,207.8,276.7,207.9,276.7,208z"/>
<path class="st4" d="M282.3,208.6h-3.6c0.1,0.8,0.8,1.4,1.6,1.3c0.5,0,1-0.2,1.3-0.5l0.5,0.5c-0.5,0.5-1.1,0.8-1.8,0.7
	c-1.2,0.1-2.3-0.8-2.4-2.1c0-0.1,0-0.2,0-0.2c-0.1-1.2,0.9-2.2,2.1-2.3c0.1,0,0.1,0,0.2,0c1.3,0.1,2.3,1.2,2.2,2.5
	C282.3,208.6,282.3,208.6,282.3,208.6z M278.6,208h2.9c-0.1-0.8-0.8-1.4-1.6-1.3C279.2,206.8,278.7,207.4,278.6,208z"/>
<path class="st6" d="M248.9,270.5h145.9c0.8,0,1.5,0.6,1.5,1.5v22.8c0,0.8-0.6,1.5-1.5,1.5H248.9c-0.8,0-1.4-0.6-1.4-1.5v-22.8
	C247.5,271.1,248.1,270.5,248.9,270.5z"/>
<path class="st3" d="M308.5,280.6h1.7v4.6h2.8v1.3h-4.5V280.6z"/>
<path class="st3" d="M313.3,284.2c-0.1-1.4,0.9-2.7,2.4-2.8c1.4-0.1,2.7,0.9,2.8,2.4s-0.9,2.7-2.4,2.8c-0.1,0-0.1,0-0.2,0
	c-1.3,0.1-2.5-0.9-2.6-2.2C313.3,284.3,313.3,284.3,313.3,284.2z M316.8,284.2c0-0.6-0.4-1-0.9-1.1c0,0-0.1,0-0.1,0
	c-0.6,0-1,0.4-1,1c0,0,0,0.1,0,0.1c-0.1,0.5,0.3,1,0.9,1.1c0,0,0.1,0,0.1,0c0.6,0,1-0.4,1-1C316.8,284.3,316.8,284.2,316.8,284.2z"
	/>
<path class="st3" d="M324.2,281.9v3.8c0,1.7-1,2.6-2.7,2.6c-0.8,0-1.6-0.2-2.3-0.6l0.6-1.1c0.5,0.3,1,0.5,1.6,0.5
	c0.9,0,1.2-0.4,1.2-1.1v-0.1c-0.4,0.4-0.9,0.6-1.4,0.5c-1.2,0-2.2-1-2.2-2.2s1-2.2,2.2-2.2c0.6,0,1.1,0.2,1.5,0.6v-0.6L324.2,281.9z
	 M322.6,284.1c0-0.6-0.4-1-0.9-1.1s-1,0.4-1.1,0.9s0.4,1,0.9,1.1c0,0,0,0,0.1,0C322.1,285,322.5,284.6,322.6,284.1
	C322.6,284.1,322.6,284.1,322.6,284.1L322.6,284.1z"/>
<path class="st3" d="M327.8,280.6h1.7v6h-1.7V280.6z"/>
<path class="st3" d="M335.5,283.9v2.6h-1.6v-2.4c0-0.7-0.3-0.9-0.8-0.9s-0.9,0.3-0.9,1.1v2.2h-1.6v-4.6h1.5v0.5
	c0.4-0.4,0.9-0.6,1.5-0.6c1-0.1,1.8,0.7,1.9,1.7C335.5,283.6,335.5,283.8,335.5,283.9z"/>
<path class="st4" d="M258.9,243.7c0,1.2-1,2.2-2.2,2.2s-2.2-1-2.2-2.2c0-1.2,1-2.2,2.2-2.2c0,0,0,0,0,0
	C257.9,241.4,258.9,242.4,258.9,243.7C258.9,243.7,258.9,243.7,258.9,243.7z"/>
<path class="st4" d="M265.9,243.7c0,1.2-1,2.2-2.2,2.2c-1.2,0-2.2-1-2.2-2.2c0-1.2,1-2.2,2.2-2.2l0,0
	C264.9,241.4,265.9,242.4,265.9,243.7z"/>
<path class="st4" d="M272.9,243.7c0,1.2-1,2.2-2.2,2.2s-2.2-1-2.2-2.2c0-1.2,1-2.2,2.2-2.2c0,0,0,0,0,0
	C271.9,241.4,272.9,242.4,272.9,243.7C272.9,243.7,272.9,243.7,272.9,243.7z"/>
<path class="st4" d="M280,243.7c0,1.2-1,2.2-2.2,2.2c-1.2,0-2.2-1-2.2-2.2c0-1.2,1-2.2,2.2-2.2l0,0C279,241.4,280,242.4,280,243.7z"
	/>
<path class="st4" d="M287,243.7c0,1.2-1,2.2-2.2,2.2c-1.2,0-2.2-1-2.2-2.2c0-1.2,1-2.2,2.2-2.2l0,0C286,241.4,287,242.4,287,243.7z"
	/>
<path class="st4" d="M294,243.7c0,1.2-1,2.2-2.2,2.2c-1.2,0-2.2-1-2.2-2.2c0-1.2,1-2.2,2.2-2.2l0,0C293,241.4,294,242.4,294,243.7z"
	/>
<path class="st4" d="M301.1,243.7c0,1.2-1,2.2-2.2,2.2c-1.2,0-2.2-1-2.2-2.2c0-1.2,1-2.2,2.2-2.2l0,0
	C300.1,241.4,301.1,242.4,301.1,243.7z"/>
<path class="st4" d="M308.1,243.7c0,1.2-1,2.2-2.2,2.2s-2.2-1-2.2-2.2c0-1.2,1-2.2,2.2-2.2c0,0,0,0,0,0
	C307.1,241.4,308.1,242.4,308.1,243.7C308.1,243.7,308.1,243.7,308.1,243.7z"/>
<path class="st2" d="M384.5,242.1h-0.6v-0.8c0-1.5-1.2-2.8-2.8-2.8c-1.5,0-2.8,1.2-2.8,2.8l0,0v0.8h-0.8c-0.6,0-1,0.4-1,1v4.5
	c0,0.6,0.4,1,1,1h7c0.6,0,1-0.4,1-1v-4.5C385.5,242.5,385.1,242,384.5,242.1C384.5,242,384.5,242,384.5,242.1z M382.1,247.1H380
	l0.5-1.4c-0.4-0.2-0.6-0.6-0.6-1c0.1-0.6,0.6-1.1,1.3-1c0.6,0.1,1,0.5,1,1c0,0.4-0.3,0.8-0.7,1L382.1,247.1z M383.1,242.1h-3.9v-0.8
	c0-1.1,0.9-1.9,1.9-1.9c1.1,0,1.9,0.9,1.9,1.9V242.1z"/>
<circle class="st7" cx="321.9" cy="137.3" r="44.5"/>
<path class="st4" d="M366.4,137.3c0,0,0-0.2-0.1-0.7s-0.1-1.2-0.1-2.1c0-0.5-0.1-1-0.1-1.6s-0.2-1.2-0.3-1.9s-0.2-1.4-0.3-2.2
	s-0.4-1.6-0.6-2.4c-1-4.2-2.7-8.1-4.9-11.8c-2.9-4.9-6.7-9.1-11.3-12.6l-1.9-1.4c-0.7-0.4-1.4-0.8-2.1-1.3s-1.4-0.9-2.2-1.2
	l-2.3-1.1l-1.2-0.6l-1.3-0.4l-2.5-0.9c-0.9-0.3-1.7-0.5-2.6-0.7c-0.9-0.3-1.8-0.5-2.7-0.6c-1.8-0.3-3.7-0.6-5.6-0.7
	c-1,0-1.9-0.1-2.9-0.1l-2.9,0.2c-0.5,0-1,0-1.5,0.1l-1.5,0.2c-1,0.2-2,0.3-3,0.5c-4.1,0.9-8,2.3-11.7,4.3c-0.9,0.5-1.8,1.1-2.8,1.6
	c-0.5,0.3-0.9,0.5-1.4,0.9l-1.3,1c-1.8,1.3-3.4,2.7-5,4.3c-0.7,0.8-1.5,1.7-2.2,2.5l-0.6,0.6l-0.5,0.7l-1,1.3l-1,1.4l-0.9,1.5
	l-0.9,1.5l-0.4,0.7l-0.4,0.8c-0.5,1-1,2.1-1.5,3.1l-1.2,3.2c-3,9.1-3,18.9,0,27.9l1.2,3.3c0.5,1,1,2.1,1.5,3.1l0.4,0.8l0.5,0.7
	l0.9,1.5l0.9,1.5l1,1.4l1,1.4l0.5,0.7l0.6,0.6l2.2,2.5c1.6,1.5,3.2,3,5,4.3l1.3,1c0.4,0.3,0.9,0.6,1.4,0.9c0.9,0.6,1.8,1.1,2.8,1.6
	c3.7,1.9,7.6,3.3,11.7,4.3c1,0.2,2,0.3,3,0.5l1.5,0.2c0.5,0.1,1,0.1,1.5,0.1l2.9,0.1c1,0,1.9-0.1,2.9-0.1c1.9-0.1,3.8-0.3,5.6-0.6
	c0.9-0.1,1.8-0.4,2.7-0.6c0.9-0.2,1.8-0.4,2.6-0.7l2.5-0.9l1.2-0.4l1.2-0.6l2.3-1.1c0.8-0.4,1.5-0.8,2.2-1.2s1.4-0.8,2.1-1.3
	l1.9-1.4c4.5-3.4,8.4-7.7,11.3-12.6c2.2-3.7,3.9-7.6,4.9-11.8c0.2-0.9,0.5-1.6,0.6-2.4s0.2-1.5,0.3-2.2s0.2-1.3,0.3-1.9
	s0.1-1.1,0.1-1.6c0.1-0.9,0.1-1.6,0.1-2.1S366.4,137.3,366.4,137.3c0,0,0,0.2,0,0.7s0,1.2-0.1,2.1c0,0.5,0,1-0.1,1.6
	c0,0.6-0.2,1.2-0.3,1.9s-0.2,1.4-0.3,2.2c-0.1,0.8-0.3,1.6-0.6,2.4c-1,4.2-2.6,8.2-4.9,11.9c-2.9,4.9-6.7,9.2-11.3,12.7l-2,1.5
	c-0.7,0.4-1.4,0.9-2.1,1.3c-0.7,0.5-1.4,0.9-2.2,1.3l-2.3,1.1l-1.2,0.6l-1.2,0.5l-2.5,0.9c-0.9,0.3-1.8,0.5-2.6,0.7
	c-0.9,0.3-1.8,0.5-2.7,0.6c-1.9,0.3-3.8,0.6-5.6,0.7c-1,0-1.9,0.1-2.9,0.1l-3-0.1c-0.5,0-1,0-1.5-0.1l-1.5-0.2c-1-0.2-2-0.3-3-0.5
	c-4.1-0.9-8.1-2.4-11.8-4.3c-0.9-0.5-1.9-1.1-2.8-1.7c-0.5-0.3-0.9-0.5-1.4-0.9l-1.3-1c-1.8-1.3-3.5-2.8-5.1-4.3l-2.3-2.5l-0.6-0.6
	l-0.5-0.7l-1-1.4l-1-1.4l-0.9-1.5l-0.9-1.5l-0.5-0.7l-0.4-0.8c-0.5-1-1-2.1-1.5-3.2s-0.8-2.2-1.2-3.3c-3.1-9.2-3.1-19.1,0-28.2
	c0.4-1.1,0.8-2.2,1.2-3.3s1-2.1,1.5-3.2l0.4-0.8l0.5-0.7l0.9-1.5l0.9-1.5l1-1.4l1-1.4l0.5-0.7l0.6-0.6l2.3-2.5
	c1.6-1.5,3.3-3,5.1-4.3l1.3-1c0.4-0.3,0.9-0.6,1.4-0.9c0.9-0.6,1.8-1.1,2.8-1.7c1.9-1,3.8-1.8,5.8-2.6c2-0.7,4-1.3,6-1.7
	c1-0.2,2-0.3,3-0.5l1.5-0.2c0.5-0.1,1-0.1,1.5-0.1l3-0.2c1,0,2,0.1,2.9,0.1c1.9,0.1,3.8,0.3,5.6,0.7c0.9,0.2,1.8,0.4,2.7,0.6
	c0.9,0.2,1.8,0.4,2.6,0.7l2.5,0.9l1.2,0.5l1.2,0.6l2.3,1.1c0.8,0.3,1.5,0.9,2.2,1.3s1.4,0.8,2.1,1.3l1.9,1.4
	c4.5,3.5,8.4,7.8,11.3,12.7c2.2,3.7,3.9,7.7,4.9,11.9c0.2,0.8,0.4,1.6,0.6,2.4c0.1,0.8,0.2,1.5,0.3,2.2s0.2,1.3,0.3,1.9l0.1,1.6
	l0.1,2.1C366.4,137,366.4,137.3,366.4,137.3z"/>
<path class="st2" d="M326.3,137.9c5.2-2,7.8-7.9,5.8-13.2c-2-5.2-7.9-7.8-13.2-5.8s-7.8,7.9-5.8,13.2c1,2.7,3.1,4.8,5.8,5.8
	c-15.6,2.2-14.9,18.2-14.9,18.2l37,0.2C341,156.3,341.8,140.1,326.3,137.9z"/>
<path class="st4" d="M252.9,315.2H248c-0.7,0-1.2-0.6-1.2-1.2l0,0v-4.8c0-0.7,0.6-1.2,1.2-1.2h4.8c0.7,0,1.2,0.6,1.2,1.2l0,0v4.8
	C254.1,314.7,253.5,315.2,252.9,315.2z M248,308.5c-0.4,0-0.7,0.3-0.7,0.7l0,0v4.8c0,0.4,0.3,0.7,0.7,0.7c0,0,0,0,0,0h4.8
	c0.4,0,0.7-0.3,0.7-0.7c0,0,0,0,0,0v-4.8c0-0.4-0.3-0.7-0.7-0.7l0,0L248,308.5z"/>
<path class="st4" d="M261,313.5l-0.9-1.2h-1.3v1.2h-0.6v-4.1h1.6c1.1,0,1.7,0.5,1.7,1.4c0,0.6-0.3,1.1-0.9,1.3l1,1.4L261,313.5z
	 M261,310.9c0-0.6-0.4-0.9-1.1-0.9h-1v1.8h1C260.6,311.8,261,311.5,261,310.9z"/>
<path class="st4" d="M265.2,312.2h-2.5c0,0.6,0.5,1,1.1,0.9c0,0,0,0,0,0c0.3,0,0.7-0.1,0.9-0.4l0.3,0.4c-0.7,0.7-1.7,0.7-2.4,0
	c-0.3-0.3-0.5-0.7-0.5-1.1c0-0.8,0.6-1.5,1.5-1.6c0,0,0.1,0,0.1,0c0.8,0,1.5,0.6,1.5,1.4c0,0,0,0.1,0,0.1
	C265.2,312,265.2,312.1,265.2,312.2z M262.7,311.8h2c0-0.6-0.4-1-1-1S262.7,311.2,262.7,311.8z"/>
<path class="st4" d="M271.1,311.7v1.8h-0.6v-1.7c0-0.6-0.3-0.9-0.8-0.9s-0.9,0.4-0.9,1v1.6h-0.6v-1.7c0-0.6-0.3-0.9-0.8-0.9
	c-0.5,0-0.9,0.4-0.9,0.9c0,0,0,0.1,0,0.1v1.6H266v-3.1h0.5v0.5c0.3-0.3,0.6-0.5,1.1-0.5c0.4,0,0.9,0.2,1.1,0.6
	c0.3-0.4,0.7-0.6,1.2-0.6c0.6-0.1,1.2,0.4,1.3,1.1C271.2,311.5,271.2,311.6,271.1,311.7z"/>
<path class="st4" d="M275,312.2h-2.5c0,0.6,0.5,1,1.1,0.9c0,0,0,0,0,0c0.3,0,0.7-0.1,0.9-0.4l0.3,0.4c-0.7,0.7-1.7,0.7-2.4,0
	c-0.3-0.3-0.5-0.7-0.5-1.1c0-0.8,0.6-1.5,1.5-1.6c0,0,0.1,0,0.1,0c0.8,0,1.5,0.6,1.5,1.5c0,0,0,0.1,0,0.1
	C275,312,275,312.1,275,312.2z M272.5,311.8h2c0-0.6-0.4-1-1-1S272.5,311.2,272.5,311.8z"/>
<path class="st4" d="M280.9,311.7v1.8h-0.6v-1.7c0-0.6-0.3-0.9-0.8-0.9c-0.5,0-0.9,0.4-0.9,0.9c0,0,0,0.1,0,0.1v1.6h-0.5v-1.7
	c0-0.6-0.3-0.9-0.8-0.9c-0.5,0-0.9,0.4-0.9,0.9c0,0,0,0.1,0,0.1v1.6h-0.6v-3.1h0.5v0.5c0.3-0.3,0.6-0.5,1.1-0.5
	c0.4,0,0.9,0.2,1.1,0.6c0.3-0.4,0.7-0.6,1.2-0.6c0.6-0.1,1.2,0.4,1.3,1.1C280.9,311.5,280.9,311.6,280.9,311.7z"/>
<path class="st4" d="M285.1,312c0,0.8-0.6,1.5-1.4,1.6c0,0-0.1,0-0.1,0c-0.4,0-0.8-0.2-1.1-0.5v0.5H282v-4.3h0.6v1.7
	c0.3-0.3,0.7-0.5,1.1-0.5c0.8,0,1.5,0.7,1.5,1.5C285.2,311.9,285.2,312,285.1,312z M284.6,312c0-0.6-0.5-1-1.1-0.9s-1,0.5-0.9,1.1
	c0,0.5,0.5,0.9,1,0.9C284.1,313.1,284.6,312.6,284.6,312C284.6,312.1,284.6,312,284.6,312z"/>
<path class="st4" d="M288.7,312.2h-2.5c0,0.6,0.5,1,1.1,0.9c0,0,0,0,0,0c0.3,0,0.7-0.1,0.9-0.4l0.3,0.4c-0.7,0.7-1.7,0.7-2.4,0
	c-0.3-0.3-0.5-0.7-0.5-1.1c0-0.8,0.6-1.5,1.5-1.6c0,0,0.1,0,0.1,0c0.8,0,1.5,0.6,1.5,1.4c0,0,0,0.1,0,0.1
	C288.7,312,288.7,312.1,288.7,312.2z M286.2,311.8h2c-0.1-0.5-0.5-0.9-1-0.9C286.7,310.9,286.3,311.3,286.2,311.8L286.2,311.8z"/>
<path class="st4" d="M291.2,310.4v0.6H291c-0.5,0-1,0.3-1,0.8c0,0.1,0,0.1,0,0.2v1.5h-0.6v-3.1h0.6v0.5
	C290.2,310.6,290.7,310.3,291.2,310.4z"/>
<path class="st4" d="M298.6,311.7v1.8H298v-1.7c0-0.6-0.3-0.9-0.8-0.9c-0.5,0-0.9,0.4-0.9,0.9c0,0,0,0.1,0,0.1v1.6h-0.6v-1.7
	c0-0.6-0.3-0.9-0.8-0.9c-0.5,0-0.9,0.4-0.9,0.9c0,0,0,0.1,0,0.1v1.6h-0.6v-3.1h0.6v0.5c0.3-0.3,0.7-0.5,1.1-0.5
	c0.4,0,0.9,0.2,1.1,0.6c0.3-0.4,0.7-0.6,1.2-0.6c0.6-0.1,1.2,0.4,1.3,1.1C298.6,311.5,298.6,311.6,298.6,311.7z"/>
<path class="st4" d="M302.4,312.2h-2.5c0,0.6,0.5,1,1.1,0.9c0,0,0,0,0,0c0.3,0,0.7-0.1,0.9-0.4l0.3,0.4c-0.7,0.7-1.7,0.7-2.4,0
	c-0.3-0.3-0.5-0.7-0.5-1.1c0-0.8,0.6-1.5,1.5-1.6c0,0,0.1,0,0.1,0c0.8,0,1.5,0.6,1.5,1.4c0,0,0,0.1,0,0.1
	C302.4,312,302.4,312.1,302.4,312.2z M299.9,311.8h2c-0.1-0.5-0.5-0.9-1-0.9C300.4,310.9,300,311.3,299.9,311.8L299.9,311.8z"/>
<path class="st6" d="M342.4,310v1.4h2v0.5h-2v1.6h-0.6v-4.1h2.9v0.5H342.4z"/>
<path class="st6" d="M345.1,312c0-0.9,0.7-1.6,1.6-1.6c0.9,0,1.6,0.7,1.6,1.6c0,0.9-0.7,1.6-1.6,1.6c0,0,0,0,0,0
	c-0.8,0-1.6-0.6-1.6-1.5C345.1,312.1,345.1,312,345.1,312z M347.7,312c0-0.6-0.5-1-1.1-0.9s-1,0.5-0.9,1.1c0,0.5,0.5,0.9,1,0.9
	C347.3,313.1,347.7,312.6,347.7,312C347.7,312.1,347.7,312,347.7,312z"/>
<path class="st6" d="M350.7,310.4v0.6h-0.1c-0.5,0-1,0.3-1,0.8c0,0.1,0,0.1,0,0.2v1.5H349v-3.1h0.5v0.5
	C349.8,310.6,350.2,310.4,350.7,310.4z"/>
<path class="st6" d="M354.3,310.4v2.7c0.1,0.8-0.4,1.5-1.2,1.6c-0.1,0-0.3,0-0.4,0c-0.5,0-1-0.1-1.5-0.5l0.3-0.4
	c0.3,0.3,0.8,0.4,1.2,0.4c0.7,0,1.1-0.3,1.1-1V313c-0.3,0.3-0.7,0.5-1.1,0.5c-0.8,0-1.5-0.7-1.5-1.5s0.7-1.5,1.5-1.5
	c0.4,0,0.9,0.2,1.1,0.5v-0.5L354.3,310.4z M353.8,311.9c0-0.6-0.4-1.1-1-1.1c-0.6,0-1.1,0.4-1.1,1c0,0.6,0.4,1.1,1,1.1
	c0,0,0.1,0,0.1,0C353.3,312.9,353.7,312.5,353.8,311.9C353.8,311.9,353.8,311.9,353.8,311.9z"/>
<path class="st6" d="M355.1,312c0-0.9,0.7-1.6,1.6-1.6c0.9,0,1.6,0.7,1.6,1.6c0,0.9-0.7,1.6-1.6,1.6c0,0,0,0,0,0
	c-0.8,0-1.6-0.6-1.6-1.5C355.1,312.1,355.1,312,355.1,312z M357.8,312c0-0.6-0.5-1-1.1-0.9s-1,0.5-0.9,1.1c0,0.5,0.5,0.9,1,0.9
	C357.3,313.1,357.8,312.6,357.8,312C357.8,312.1,357.8,312,357.8,312L357.8,312z"/>
<path class="st6" d="M360.8,313.3c-0.2,0.2-0.4,0.2-0.7,0.2c-0.5,0.1-0.9-0.3-1-0.7c0-0.1,0-0.2,0-0.3v-1.7h-0.5v-0.5h0.5v-0.7h0.6
	v0.7h0.9v0.5h-0.9v1.7c0,0.2,0.1,0.5,0.4,0.5c0,0,0.1,0,0.1,0c0.2,0,0.3,0,0.4-0.1L360.8,313.3z"/>
<path class="st6" d="M366.5,310.9c0,0.9-0.6,1.4-1.7,1.4h-1v1.2h-0.6v-4.1h1.6C365.8,309.4,366.5,310,366.5,310.9z M365.9,310.9
	c0-0.6-0.4-0.9-1.1-0.9h-1v1.8h1C365.5,311.8,365.9,311.5,365.9,310.9z"/>
<path class="st6" d="M369.7,311.7v1.9h-0.5v-0.4c-0.2,0.3-0.6,0.5-1,0.5c-0.7,0-1.1-0.4-1.1-0.9s0.3-0.9,1.2-0.9h0.9v-0.1
	c0-0.5-0.3-0.7-0.8-0.7c-0.4,0-0.7,0.1-1,0.3l-0.2-0.4c0.4-0.3,0.8-0.4,1.3-0.4c0.6-0.1,1.2,0.3,1.3,0.9
	C369.7,311.5,369.7,311.6,369.7,311.7z M369.1,312.6v-0.4h-0.9c-0.5,0-0.7,0.2-0.7,0.5s0.3,0.5,0.7,0.5
	C368.6,313.2,369,312.9,369.1,312.6L369.1,312.6z"/>
<path class="st6" d="M370.3,313.2l0.2-0.5c0.3,0.2,0.7,0.3,1.1,0.3c0.5,0,0.7-0.1,0.7-0.4c0-0.7-2-0.1-2-1.3c0-0.5,0.5-0.9,1.3-0.9
	c0.4,0,0.8,0.1,1.1,0.3l-0.2,0.5c-0.3-0.2-0.6-0.3-0.9-0.2c-0.5,0-0.7,0.2-0.7,0.4c0,0.7,2,0.1,2,1.3c0,0.6-0.5,0.9-1.3,0.9
	C371.2,313.6,370.7,313.5,370.3,313.2z"/>
<path class="st6" d="M373.2,313.2l0.2-0.5c0.3,0.2,0.7,0.3,1.1,0.3c0.5,0,0.7-0.1,0.7-0.4c0-0.7-2-0.1-2-1.3c0-0.5,0.5-0.9,1.3-0.9
	c0.4,0,0.8,0.1,1.1,0.3l-0.2,0.5c-0.3-0.2-0.6-0.3-0.9-0.2c-0.5,0-0.7,0.2-0.7,0.4c0,0.7,2,0.1,2,1.3c0,0.6-0.5,0.9-1.3,0.9
	C374.1,313.6,373.6,313.4,373.2,313.2z"/>
<path class="st6" d="M381.2,310.4l-1.2,3.1h-0.5l-0.9-2.3l-0.9,2.3h-0.5l-1.1-3.1h0.5l0.9,2.5l0.9-2.5h0.5l0.9,2.5l0.9-2.5H381.2z"
	/>
<path class="st6" d="M381.4,312c0-0.9,0.7-1.6,1.6-1.6c0.9,0,1.6,0.7,1.6,1.6c0,0.9-0.7,1.6-1.6,1.6c0,0,0,0,0,0
	c-0.8,0-1.6-0.6-1.6-1.5C381.4,312.1,381.4,312,381.4,312z M384,312c0-0.6-0.5-1-1.1-0.9s-1,0.5-0.9,1.1c0,0.5,0.5,0.9,1,0.9
	C383.6,313.1,384,312.6,384,312C384,312,384,312,384,312L384,312z"/>
<path class="st6" d="M387,310.4v0.6h-0.1c-0.5,0-1,0.3-1,0.8c0,0.1,0,0.1,0,0.2v1.5h-0.6v-3.1h0.5v0.5
	C386.1,310.6,386.5,310.4,387,310.4z"/>
<path class="st6" d="M390.6,309.2v4.3h-0.5V313c-0.3,0.3-0.7,0.5-1.1,0.5c-0.9,0-1.6-0.7-1.6-1.6c0-0.9,0.7-1.6,1.6-1.6
	c0.4,0,0.8,0.2,1.1,0.5v-1.7L390.6,309.2z M390,312c0-0.6-0.5-1-1.1-0.9s-1,0.5-0.9,1.1c0,0.5,0.5,0.9,1,0.9
	C389.6,313.1,390,312.6,390,312C390,312.1,390,312,390,312z"/>
<path class="st6" d="M393.5,310.5c0-0.4-0.3-0.6-0.8-0.6c-0.4,0-0.8,0.1-1,0.5l-0.4-0.3c0.4-0.5,0.9-0.7,1.5-0.7
	c0.8,0,1.4,0.4,1.4,1c0,1-1,1-1,1.8h-0.6C392.5,311.3,393.5,311.2,393.5,310.5z M392.4,313.2c0-0.2,0.2-0.4,0.4-0.4c0,0,0,0,0,0
	c0.2,0,0.4,0.2,0.4,0.3c0,0,0,0,0,0c0,0.2-0.2,0.4-0.4,0.4c0,0,0,0,0,0C392.6,313.6,392.4,313.4,392.4,313.2
	C392.4,313.2,392.4,313.2,392.4,313.2z"/>
<path class="st4" d="M250.1,313.1c-0.1,0-0.2,0-0.2-0.1l-1.1-0.9c-0.2-0.1-0.2-0.4-0.1-0.5c0,0,0,0,0,0c0.1-0.2,0.4-0.2,0.5,0
	l0.8,0.6l1.8-2c0.2-0.1,0.4-0.1,0.5,0.1c0.1,0.1,0.1,0.3,0,0.4l-2.1,2.3C250.3,313.1,250.2,313.1,250.1,313.1z"/>
<path class="st2" d="M383.3,208.4c1.1-0.5,1.9-1.6,1.9-2.9c0.1-1.6-1.1-3-2.8-3.1c-1.6-0.1-3,1.1-3.1,2.8c0,0.1,0,0.2,0,0.3
	c0,1.3,0.7,2.4,1.9,2.9c-4.5,0.7-4.3,5.6-4.3,5.6h10.6C387.5,214,387.7,209.1,383.3,208.4z"/>
<path class="st4" d="M406.5,79.1h10.7c0.3,0,0.6-0.4,0.5-0.7c0-0.3-0.3-0.5-0.5-0.5h-10.7c-0.3,0-0.6,0.4-0.5,0.7
	C406,78.9,406.2,79.1,406.5,79.1z"/>
<path class="st4" d="M406.5,82.5h10.7c0.3,0,0.6-0.4,0.5-0.7c0-0.3-0.3-0.5-0.5-0.5h-10.7c-0.3,0-0.6,0.4-0.5,0.7
	C406,82.2,406.2,82.5,406.5,82.5z"/>
<path class="st4" d="M406.5,85.9h10.7c0.3,0,0.6-0.4,0.5-0.7c0-0.3-0.3-0.5-0.5-0.5h-10.7c-0.3,0-0.6,0.4-0.5,0.7
	C406,85.6,406.2,85.8,406.5,85.9z"/>
<path class="st6" d="M400.4,350.8c0.3,0.9,0.5,1.8,0.4,2.7c0.2-1.1,0.6-2.2,1.2-3.1c0.2-0.4,0.6-0.7,1-0.6s0.5,0.6,0.5,1
	c0,1.2-0.2,2.3-0.8,3.3c0.7-0.9,1.7-1.7,2.8-2.2c0.2-0.1,0.4-0.1,0.6,0c0.2,0.2,0.3,0.4,0.2,0.7c-0.3,2-1.7,3.6-3.5,4.4l-0.6,0.1
	c-2.7-0.7-4.3-3.4-3.8-6.1c0.1-0.5,0.4-1.1,0.9-1.1S400.3,350.4,400.4,350.8z"/>
<path class="st5" d="M413.8,377.6c-1.7-1.1-3.7-1.9-5.7-2.3c1.2-4.1,1.3-8.4,0.2-12.5c-0.4-1.6-1.1-3.2-2.1-4.5
	c-1-1.3-2.6-2.2-4.3-2.4c-1.8,0-3.6,0.8-4.7,2.2l-2.1,4.8c-0.1,0.7-0.2,1.4-0.2,2.1c-0.2,4.7,0.8,9.4,3.1,13.5
	c-2.2,2.4-4.5,6.5-3.8,11.4h24.9C419.4,385.3,417.6,380.3,413.8,377.6z"/>
<path class="st4" d="M396.8,380.1c0-0.1,0.1-0.2,0.2-0.3c0.2-0.3,0.4-0.5,0.6-0.7c0.8-0.8,1.7-1.6,2.8-2.1c1.5-0.8,3.2-1.4,4.9-1.6
	c4.3-0.6,8.6,1.3,11.2,4.8c1,1.4,1.8,3,2.2,4.6c0.3,1.1,0.4,2.3,0.4,3.5c0,0.3-0.1,0.6-0.1,0.9c0,0.1,0,0.2-0.1,0.3
	c0.1-1.6-0.1-3.1-0.5-4.6c-0.5-1.6-1.2-3.2-2.2-4.5c-2.5-3.4-6.6-5.2-10.8-4.7c-1.7,0.2-3.3,0.7-4.8,1.5
	C399.1,378,397.9,379,396.8,380.1z"/>
<path class="st4" d="M394.7,366.8c-0.1-0.5-0.1-1.1,0-1.6c0-1.3,0.3-2.7,0.7-3.9c0.4-1.3,1.1-2.5,2.1-3.4c0.4-0.4,0.9-0.7,1.4-0.9
	c0,0-0.5,0.4-1.2,1.1c-0.9,0.9-1.6,2.1-2,3.3c-0.4,1.2-0.6,2.5-0.8,3.8C394.9,365.7,394.8,366.2,394.7,366.8z"/>
<path class="st4" d="M409.1,386.8c1.5-1.6,3.1-3.2,4.7-4.7C412.6,383.9,411,385.5,409.1,386.8z"/>
<path class="st4" d="M406.3,385.3c0-0.8,0.1-1.7,0.4-2.5c0.1-0.8,0.4-1.6,0.8-2.4c0,0.8-0.1,1.7-0.4,2.5
	C407,383.7,406.7,384.5,406.3,385.3z"/>
<path class="st4" d="M398.9,382.5c0.6,0.6,1.1,1.4,1.4,2.2c0.4,0.8,0.7,1.7,0.8,2.5c-0.4-0.8-0.8-1.6-1.1-2.4
	C399.6,384.2,399.2,383.4,398.9,382.5z"/>
<path class="st4" d="M406.9,370.9c1-1.8,2.2-3.4,3.7-4.9c-0.5,0.9-1,1.8-1.7,2.5C408.3,369.5,407.7,370.2,406.9,370.9z"/>
<path class="st4" d="M405.2,363.1c1.2-2.1,2.5-4.1,4.1-6c-0.5,1.1-1.2,2.1-1.9,3.1C406.7,361.3,406,362.3,405.2,363.1z"/>
<path class="st4" d="M402.4,365.2c0.2,0.9,0.4,1.7,0.4,2.6c0.1,0.9,0.1,1.8,0,2.7C402.4,368.7,402.3,367,402.4,365.2L402.4,365.2z"
	/>
<path class="st4" d="M391.2,368.7c1.2,0.5,2.4,1.1,3.5,1.8c1.2,0.6,2.2,1.4,3.2,2.3c-1.2-0.6-2.3-1.3-3.4-2
	C393.4,370.2,392.2,369.5,391.2,368.7z"/>
<g class="st8">
	<path d="M400.1,375.4c1.2-0.6,2.6-1,4-1c1.5-0.1,3.1,0.1,4,1.1v0c-3.7-0.2-7.3,0.9-10.2,3.2C398.1,377.4,398.9,376.1,400.1,375.4z"
		/>
</g>
<path class="st6" d="M412,326.6c0.7-0.2,1.5-0.2,2.2-0.1c-0.8-0.3-1.6-0.7-2.3-1.3c-0.3-0.2-0.5-0.5-0.4-0.8s0.5-0.4,0.9-0.3
	c0.9,0.1,1.8,0.4,2.5,0.9c-0.7-0.7-1.2-1.5-1.4-2.4c-0.1-0.1-0.1-0.3,0-0.5c0.1-0.1,0.4-0.1,0.5-0.1c1.5,0.4,2.7,1.6,3.1,3.1v0.5
	c-0.8,2-3,3-5.1,2.4c-0.4-0.1-0.8-0.4-0.8-0.8S411.6,326.7,412,326.6z"/>
<path class="st6" d="M462.1,294.8c0.1,0.7,0.1,1.5-0.1,2.2c0.3-0.8,0.8-1.6,1.5-2.2c0.2-0.2,0.6-0.5,0.9-0.3s0.3,0.6,0.3,0.9
	c-0.2,0.9-0.5,1.7-1.1,2.5c0.7-0.6,1.6-1,2.5-1.2c0.2-0.1,0.3,0,0.5,0.1c0.1,0.2,0.1,0.4,0,0.5c-0.5,1.5-1.8,2.6-3.4,2.9h-0.5
	c-0.9-0.5-1.6-1.3-2-2.3c-0.4-1-0.3-2,0.1-3c0.1-0.4,0.5-0.8,0.8-0.7S462.1,294.4,462.1,294.8z"/>
<path class="st5" d="M427.2,359.8c0.4,0,0.7,0.1,1.1,0.1c0.6-7.1-1.5-14.3,0.7-21.1l-0.3,0.4c-2.6,0.4-5.3,0.2-7.8-0.7
	c-2.5-0.9-4.6-2.8-5.6-5.2c-1.1-2.5-0.6-5.4,1.2-7.4c2.5-2.6,6.8-2.4,9.9-0.7s5.1,4.6,7,7.4c1-0.8,2.2-1.5,3.4-2
	c-3.4-4.7-6.8-9.7-7.8-15.4c-1.1-6.2,1.1-13.6,7-16.2c4.9-2.2,11.1-0.2,14.6,3.9c0.3,0.3,0.5,0.7,0.7,1l-0.1-0.3
	c0.9-2.2,2.5-4,4.7-4.9c2.2-0.9,4.7-0.8,6.7,0.3c2.1,1.2,3.3,3.4,3.3,5.8c-0.2,2.7-1.8,5-4.3,6.1c-2.3,1-4.9,1.3-7.4,0.7
	c0.3,2.2,0.3,4.4,0,6.6c-0.9,4.9-2.8,9.7-5.6,13.9c0.7,0.5,1.4,1,2,1.7c4.5,4.7,4.8,12.2,2.4,18.2s-8.7,10.5-13.1,15.2l0,0
	c1.8,3.3,2.9,6.9,3.4,10.6c1.6-3.3,4.9-5.4,8.5-5.5c1.9,0,4.1,0.9,4.7,2.7c0.5,1.6-0.4,3.4-1.5,4.6c-2.9,2.9-7.2,4.2-11.3,3.3v-1.2
	c0.2,2.7,0.1,5.4-0.2,8.1H415C415,389.9,407.4,359.1,427.2,359.8z"/>
<rect x="382.4" y="389.9" class="st6" width="67.1" height="11.9"/>
<polygon class="st6" points="444.6,399.5 436.4,435 396.4,435 387.5,399.5 "/>
<path class="st4" d="M382.5,401.8c0,0.1,15.1,0.2,33.8,0.2s33.8-0.1,33.8-0.2s-15.1-0.2-33.8-0.2S382.5,401.7,382.5,401.8z"/>
<path class="st4" d="M421.9,361c0.1-0.1,0.3-0.2,0.4-0.2c0.4-0.2,0.8-0.4,1.2-0.5c1.5-0.5,3.1-0.7,4.7-0.5c2.3,0.2,4.6,1,6.6,2.3
	c2.4,1.6,4.3,3.8,5.6,6.4c1.3,2.5,2.3,5.3,2.7,8.1c0.3,2.3,0.5,4.7,0.5,7c0,2-0.1,3.6-0.1,4.7c0,0.5,0,0.9-0.1,1.3
	c0,0.1,0,0.3,0,0.4c0-0.1,0-0.3,0-0.4c0-0.3,0-0.8,0-1.3v-4.7c0-2.3-0.2-4.6-0.5-6.9c-0.5-2.8-1.4-5.5-2.7-8
	c-1.3-2.5-3.2-4.7-5.5-6.3c-1.9-1.3-4.1-2.1-6.4-2.3c-1.5-0.2-3.1,0-4.6,0.4C422.5,360.7,422,361,421.9,361z"/>
<path class="st4" d="M427.9,345.9c0-0.1,0-0.2,0-0.3c0-0.2,0-0.5,0-1c0-3,0.9-5.9,2.4-8.5c0.5-0.9,1.2-1.8,1.9-2.5
	c0.8-0.8,1.7-1.5,2.7-2.1c1-0.6,2.1-1,3.2-1.2c1-0.2,2.1-0.3,3.1-0.2c1.8,0.1,3.5,0.5,5.2,1.2c1.1,0.5,2.2,1,3.1,1.7
	c0.4,0.2,0.6,0.4,0.8,0.6s0.3,0.2,0.2,0.2c-0.4-0.2-0.8-0.4-1.1-0.7c-1-0.6-2.1-1.2-3.2-1.6c-1.6-0.7-3.3-1-5.1-1.1
	c-1,0-2.1,0-3.1,0.2c-1.1,0.2-2.1,0.6-3.1,1.2c-1,0.5-1.8,1.2-2.6,2c-0.7,0.7-1.3,1.6-1.9,2.4c-0.9,1.5-1.6,3.1-2,4.8
	c-0.3,1.1-0.5,2.3-0.5,3.5C428,345.5,428,345.9,427.9,345.9z"/>
<path class="st4" d="M454.3,315.9c-0.1-0.8-0.2-1.5-0.2-2.3c0-0.7-0.1-1.5-0.3-2.5c-0.1-1-0.4-2-0.8-2.9c-0.7-1.7-1.6-3.3-2.6-4.8
	c-0.8-1.2-1.4-1.8-1.3-1.9s0.2,0.1,0.5,0.4c0.4,0.4,0.7,0.8,1.1,1.3c1.1,1.5,2,3.1,2.7,4.8c0.4,1,0.7,2,0.8,3
	c0.1,0.8,0.2,1.7,0.2,2.5C454.4,314.4,454.4,315.1,454.3,315.9z"/>
<path class="st4" d="M450.7,379.7c1.4,0.9,2.6,1.9,3.6,3.1c-0.7-0.4-1.4-0.9-1.9-1.4C451.7,380.9,451.1,380.4,450.7,379.7z"/>
<path class="st4" d="M453,377.3c0.8-0.3,1.6-0.4,2.4-0.4c0.8-0.1,1.6-0.1,2.4,0C456.3,377.3,454.6,377.5,453,377.3L453,377.3z"/>
<path class="st4" d="M451.2,373.1c0.4-0.7,0.9-1.3,1.4-1.9c0.4-0.7,0.9-1.3,1.4-1.9c-0.2,0.8-0.5,1.5-1,2.1
	C452.5,372.2,451.9,372.7,451.2,373.1z"/>
<path class="st4" d="M448.1,371.2c0,0.9-0.2,1.9-0.4,2.8c-0.2,0.9-0.4,1.8-0.8,2.7c0-0.9,0.2-1.9,0.4-2.8
	C447.4,373,447.7,372.1,448.1,371.2z"/>
<path class="st4" d="M445.9,380.8c-0.1-0.1,0.4-0.6,1-1.1s1.2-1,1.3-0.9s-0.4,0.6-1,1.2S446,380.9,445.9,380.8z"/>
<path class="st4" d="M436.1,379c0.3-0.6,0.7-1.1,1.2-1.5c0.8-0.8,1.4-1.4,1.5-1.3c-0.3,0.6-0.7,1.1-1.2,1.5
	C436.8,378.5,436.1,379,436.1,379z"/>
<path class="st4" d="M433.9,369.9c0.2-0.7,0.5-1.3,0.9-1.8c0.3-0.6,0.7-1.2,1.2-1.7c-0.2,0.7-0.5,1.3-0.9,1.9
	C434.8,368.8,434.4,369.4,433.9,369.9z"/>
<path class="st4" d="M427.6,362.4c0.2,0.8,0.3,1.6,0.2,2.4c0.1,0.8,0,1.6-0.2,2.4c-0.2-0.8-0.3-1.6-0.2-2.4
	C427.4,364,427.5,363.2,427.6,362.4z"/>
<path class="st4" d="M414.5,365c0.7,0.7,1.3,1.4,1.9,2.2c0.7,0.7,1.3,1.5,1.8,2.2c-0.8-0.5-1.5-1.2-2.1-2
	C415.4,366.7,414.8,365.9,414.5,365z"/>
<path class="st4" d="M412.8,377.9c0.8,0,1.6,0,2.4,0.3c0.8,0.1,1.6,0.3,2.3,0.6c-0.8,0-1.6,0-2.4-0.3
	C414.3,378.4,413.5,378.2,412.8,377.9z"/>
<path class="st4" d="M426.4,382.4c0.1-0.9,0.4-1.8,0.9-2.6c0.4-0.9,0.9-1.6,1.5-2.3C428.1,379.2,427.3,380.8,426.4,382.4z"/>
<path class="st4" d="M421.9,376.2c-0.2-0.6-0.3-1.3-0.2-1.9c-0.1-0.6,0-1.3,0.1-1.9c0.2,0.6,0.3,1.3,0.2,1.9
	C422.1,374.9,422.1,375.6,421.9,376.2z"/>
<path class="st4" d="M436.6,387.1c0.1-0.7,0.4-1.4,0.8-2c0.3-0.7,0.8-1.2,1.4-1.6c-0.3,0.6-0.7,1.3-1.1,1.8
	C437.4,386,437,386.6,436.6,387.1z"/>
<path class="st4" d="M421,388c-0.4-0.6-0.8-1.2-1-1.8c-0.3-0.6-0.6-1.3-0.7-2C420.1,385.4,420.7,386.7,421,388L421,388z"/>
<path class="st4" d="M445.2,359.2c0.9-0.2,1.7-0.2,2.6-0.1c0.9,0,1.7,0.1,2.6,0.3c-0.9,0.2-1.7,0.2-2.6,0.1
	C447,359.5,446.1,359.4,445.2,359.2z"/>
<path class="st4" d="M450.9,349.5c0.7-0.8,1.6-1.4,2.5-2c0.8-0.7,1.8-1.2,2.7-1.7c-0.7,0.8-1.6,1.4-2.5,2
	C452.8,348.5,451.9,349,450.9,349.5z"/>
<path class="st4" d="M450.3,337c0.6-0.5,1.3-0.9,2-1.3c0.6-0.5,1.3-1,2-1.4C453.3,335.6,451.9,336.5,450.3,337L450.3,337z"/>
<path class="st4" d="M444,332.6c0.2-2.1,0.7-4.1,1.5-6c-0.1,1-0.2,2-0.5,3C444.7,330.7,444.4,331.7,444,332.6z"/>
<path class="st4" d="M433.4,329.5c0.5,0.5,0.9,1.1,1.2,1.8c0.4,0.6,0.7,1.3,0.9,2c-0.5-0.5-0.9-1.1-1.2-1.8
	C433.9,330.9,433.6,330.2,433.4,329.5z"/>
<path class="st4" d="M424.2,350.5c0.1-0.1,1.3,0.9,2.9,1.8s3,1.7,2.9,1.8c-1.1-0.3-2.2-0.8-3.1-1.4
	C425.9,352.1,425,351.4,424.2,350.5z"/>
<path class="st4" d="M439.1,355.2c1.1-1,2.4-1.8,3.8-2.4C441.8,353.9,440.5,354.7,439.1,355.2z"/>
<path class="st4" d="M441.5,345.2c-0.1-0.1,0.9-1,1.8-2.4s1.4-2.6,1.5-2.6c-0.2,1-0.6,2-1.2,2.8
	C443.1,343.9,442.4,344.6,441.5,345.2z"/>
<path class="st4" d="M436.7,342.9c-0.2-0.8-0.2-1.6-0.1-2.4c0-0.8,0.1-1.6,0.3-2.4c0.2,0.8,0.2,1.6,0.1,2.4
	C437,341.3,436.9,342.1,436.7,342.9z"/>
<path class="st4" d="M434,352.8c-0.3-0.8-0.4-1.6-0.5-2.5c-0.2-0.8-0.2-1.7-0.1-2.5c0.3,0.8,0.4,1.6,0.5,2.5
	C434.1,351.2,434.1,352,434,352.8z"/>
<path class="st4" d="M426.5,322.9c0.3,0.9,0.6,1.8,0.8,2.8c0.3,0.9,0.6,1.8,0.8,2.8c-0.6-0.8-1-1.7-1.2-2.7
	C426.6,324.9,426.4,323.9,426.5,322.9z"/>
<path class="st4" d="M421.2,340.4c0.7-0.6,1.4-1.1,2.2-1.6c0.7-0.6,1.4-1.1,2.2-1.6c-0.5,0.8-1.2,1.4-2,1.9
	C422.9,339.7,422.1,340.1,421.2,340.4z"/>
<path class="st4" d="M414,335c0.9-0.3,1.8-0.4,2.6-0.5c0.9-0.2,1.8-0.4,2.7-0.5C417.7,334.8,415.8,335.1,414,335L414,335z"/>
<path class="st4" d="M421,329c0-0.1,0.7,0.2,1.5,0.7s1.4,1,1.3,1.1c-0.6-0.1-1.1-0.4-1.5-0.8C421.5,329.6,420.9,329.1,421,329z"/>
<path class="st4" d="M417.5,322.6c0.7,0.3,1.3,0.8,1.7,1.4c0.5,0.5,0.9,1.2,1.2,1.9c-0.5-0.5-1-1.1-1.5-1.6
	C418.4,323.7,417.9,323.2,417.5,322.6z"/>
<path class="st4" d="M412.8,328.7c0.8,0.1,1.6,0.3,2.4,0.6c0.8,0.2,1.6,0.4,2.4,0.7c-0.9,0.1-1.7,0-2.5-0.3
	C414.3,329.5,413.5,329.2,412.8,328.7z"/>
<path class="st4" d="M445.7,320.5c-0.1-0.1,1-1.5,2.1-3.3c0.7-1.1,1.4-2.2,2.2-3.2c-0.5,1.2-1.1,2.4-1.9,3.5
	C447.5,318.5,446.7,319.6,445.7,320.5z"/>
<path class="st4" d="M443.6,312.9c-0.1-0.9,0-1.9,0.2-2.8c0.1-0.9,0.2-1.9,0.6-2.8c0.1,0.9,0,1.9-0.2,2.8
	C444.1,311.1,443.9,312,443.6,312.9z"/>
<path class="st4" d="M436.3,314.1c0.1,0,0.4,1.4,1.1,3.1s1.6,2.9,1.5,3c-0.8-0.8-1.4-1.7-1.8-2.8
	C436.6,316.3,436.3,315.2,436.3,314.1z"/>
<path class="st4" d="M427.7,315.9c0.1-0.1,1.1,1.2,2.6,2.6s2.8,2.4,2.7,2.5c-1.1-0.6-2.1-1.3-3-2.2C429.1,318,428.3,317,427.7,315.9
	z"/>
<path class="st4" d="M431,300.3c0.1,0,0.4,1.6,1,3.5s1.2,3.4,1.1,3.5c-0.7-1-1.2-2.2-1.5-3.3C431.2,302.7,431,301.5,431,300.3z"/>
<path class="st4" d="M440.9,295.1c0.2,0.9,0.4,1.8,0.4,2.8c0.1,0.9,0.1,1.9,0,2.8c-0.2-0.9-0.4-1.8-0.4-2.8
	C440.8,297,440.8,296.1,440.9,295.1z"/>
<path class="st4" d="M461.4,308.4c0.7,0,1.4,0,2.1,0.1c0.7,0,1.4,0.1,2.1,0.2c-0.7,0.2-1.4,0.3-2.2,0.2
	C462.7,308.9,462,308.7,461.4,308.4z"/>
<path class="st4" d="M460.8,303.2c0.9-0.7,1.9-1.3,2.9-1.8c1-0.6,2-1.1,3.1-1.4c-0.9,0.7-1.9,1.3-2.9,1.8
	C462.9,302.4,461.8,302.8,460.8,303.2z"/>
<path class="st4" d="M455.2,303.4c0.3-1.8,0.8-3.5,1.6-5.1c-0.1,0.9-0.3,1.8-0.6,2.6C456,301.7,455.7,302.6,455.2,303.4z"/>
<g class="st8">
	<path d="M439.7,367.3c-0.1-2.8-1.5-5.3-3.8-6.9c-2.2-1.5-6.3-1.6-7.8-0.5c2.5,0.1,4.9,0.9,6.9,2.4
		C436.9,363.6,438.5,365.3,439.7,367.3"/>
</g>
<g class="st8">
	<path d="M448.5,332.6c-1-2.2-3-3.7-5.4-4.2c-2.3-0.4-5.5,0.9-6.4,2.3c2-0.8,4.2-1,6.3-0.5C444.9,330.7,446.8,331.5,448.5,332.6"/>
</g>
<g class="st8">
	<path d="M454.3,312c0.9-1.6,1-3.5,0.4-5.2c-0.7-1.6-2.1-2.7-3.7-3c1.8,2.6,3.2,5.2,3.3,8.3"/>
</g>
<path class="st4" d="M418.5,362.6c0,0-0.3,0.3-0.8,0.8c-0.6,0.8-1.2,1.7-1.7,2.6c-1.4,3.1-2.2,6.4-2.5,9.7c-0.2,3.4,0,6.7,0.5,10.1
	c0.2,1.3,0.4,2.3,0.5,3c0.1,0.4,0.1,0.7,0.2,1.1c-0.1-0.3-0.3-0.7-0.3-1.1c-0.2-0.7-0.4-1.7-0.7-3c-0.6-3.3-0.8-6.8-0.6-10.2
	c0.2-3.4,1.1-6.8,2.6-9.8c0.5-0.9,1.1-1.7,1.9-2.5C417.8,363.1,418.1,362.8,418.5,362.6z"/>
<path class="st4" d="M449.6,389.9h-0.2h-0.6h-2.3L438,390l-28,0.1l-27.6,0l0.1-0.1c0,3.7,0,6.6,0,8.7c0,1,0,1.8,0,2.4
	c0,0.2,0,0.5,0,0.6s0,0.2,0,0.2s0-0.1,0-0.2V401c0-0.6,0-1.4,0-2.4c0-2.1,0-5.1-0.1-8.7v-0.1h0.1l27.6-0.1l28,0.1l8.5,0.1h2.3h0.6
	C449.5,389.8,449.6,389.9,449.6,389.9z"/>
<path class="st3" d="M98.9,215.6c0,2.3-1.8,4.1-4.1,4.1c-2.3,0-4.1-1.8-4.1-4.1s1.8-4.1,4.1-4.1c0,0,0,0,0,0
	C97,211.5,98.9,213.3,98.9,215.6L98.9,215.6z"/>
<path class="st4" d="M98.9,215.6c0,0,0-0.4-0.2-1c-0.3-0.9-0.8-1.6-1.5-2.1c-1.7-1.3-4.2-0.9-5.4,0.8c-1.3,1.7-0.9,4.2,0.8,5.4
	c1.4,1,3.3,1,4.6,0c0.7-0.5,1.3-1.3,1.5-2.1C98.8,216,98.8,215.6,98.9,215.6c0.1,0.3,0.1,0.6,0,1c-0.2,1-0.7,1.8-1.5,2.4
	c-1.2,0.9-2.7,1.2-4.1,0.7c-2.3-0.8-3.5-3.3-2.7-5.5c0.4-1.3,1.4-2.2,2.7-2.7c1.4-0.5,2.9-0.2,4.1,0.7c0.8,0.6,1.3,1.4,1.5,2.4
	C99,214.9,99,215.3,98.9,215.6z"/>
<path class="st3" d="M68.5,220.6c12.9-1.2,22.5-12.6,21.3-25.6s-12.6-22.5-25.6-21.3c-12.9,1.2-22.5,12.6-21.3,25.6c0,0,0,0,0,0
	C44.1,212.2,55.5,221.8,68.5,220.6C68.4,220.6,68.4,220.6,68.5,220.6z"/>
<path class="st4" d="M68.5,220.6c-0.1,0-0.3,0-0.4,0.1l-1.1,0.1h-0.8c-0.3,0-0.6,0-1,0c-0.8,0-1.7-0.1-2.5-0.2c-2.3-0.3-4.5-1-6.5-2
	c-10.3-4.9-15.7-16.4-12.8-27.4c0.3-1.1,0.6-2.2,1.1-3.2c1.4-3.3,3.5-6.2,6.2-8.5c1.8-1.7,3.9-3,6.2-4c4.7-2.1,10-2.6,15-1.4
	c2.4,0.6,4.7,1.5,6.8,2.8c2.1,1.2,3.9,2.8,5.5,4.6c0.8,0.9,1.5,1.8,2.1,2.7c0.6,1,1.2,2,1.6,3c1.8,3.9,2.5,8.1,2.1,12.3
	c-0.7,6.8-4.2,12.9-9.8,16.9c-1.9,1.3-3.9,2.4-6.1,3.1c-0.8,0.3-1.6,0.5-2.4,0.7c-0.3,0.1-0.7,0.2-1,0.2l-0.8,0.1l-1.1,0.1
	L68.5,220.6l0.4-0.1l1.1-0.2l0.8-0.1c0.3-0.1,0.6-0.1,1-0.2c0.8-0.2,1.6-0.4,2.4-0.7c2.1-0.7,4.2-1.8,6-3.2c2.4-1.8,4.4-4,6-6.5
	c1.9-3.1,3.1-6.6,3.4-10.2c0.4-4.2-0.4-8.3-2.1-12.1c-0.5-1-1-2-1.6-2.9c-0.6-0.9-1.3-1.8-2.1-2.7c-0.8-0.9-1.6-1.7-2.5-2.4
	c-0.9-0.7-1.9-1.4-2.9-2c-2.1-1.3-4.3-2.2-6.7-2.7c-2.4-0.5-4.9-0.7-7.4-0.5c-2.5,0.2-4.9,0.9-7.3,1.9c-2.2,1-4.2,2.3-6,3.9
	c-0.9,0.8-1.7,1.6-2.5,2.5c-0.7,0.9-1.4,1.9-2,2.8c-1.2,1.9-2.1,4-2.6,6.1c-2,7.7,0,15.8,5.3,21.7c2,2.2,4.4,4,7.1,5.3
	c2,1,4.2,1.7,6.4,2c0.8,0.2,1.6,0.2,2.5,0.3c0.3,0,0.7,0.1,1,0.1H67h1.1L68.5,220.6z"/>
<polygon class="st6" points="66.4,205.6 56.8,198.6 59.3,195.2 65.7,200 74.5,189.5 77.6,192.1 "/>
<polygon class="st2" points="73.7,408.2 68.6,451.4 76.4,451.4 90.4,408.2 "/>
<polygon class="st2" points="102.2,391.6 97.2,434.9 105,434.9 119,391.6 "/>
<polygon class="st2" points="208.1,408.2 213.7,451.4 205.1,451.4 189.8,408.2 "/>
<polygon class="st2" points="181.5,392.7 187.1,435.9 178.6,435.9 163.3,392.7 "/>
<path class="st5" d="M97.1,249.2c0,0-21.4,1.5-35.8,8.9c-11.3,5.8-16.7,13.9-19,34.4s-16.6,24.6-17,31.6c-0.4,6.8,3.1,36,28.3,94.4
	c1.2,2.7,3.8,4.4,6.7,4.4h87.2V247.8L97.1,249.2z"/>
<path class="st5" d="M180.2,249.2c0,0,21.4,1.5,35.8,8.9c11.3,5.8,16.7,13.9,19,34.4s16.6,24.6,16.9,31.6c0.4,6.9-3.2,36.2-28.6,95
	c-1,2.3-3.3,3.8-5.8,3.8h-87.9V247.8L180.2,249.2z"/>
<path class="st4" d="M201.8,393.5c0.5-0.1,1-0.2,1.6-0.3c1.4-0.1,2.9-0.1,4.3,0.2c2.1,0.4,4.1,1.5,5.6,3.1c1.8,1.9,3.1,4.2,3.9,6.8
	c0.8,2.5,1.4,5,1.7,7.6c0.3,2.4,0.4,4.5,0.5,6.3s0,3.3,0,4.3c0,0.5,0,1-0.1,1.6c-0.1-0.5-0.1-1-0.1-1.6c0-1-0.1-2.5-0.2-4.3
	s-0.3-3.9-0.6-6.3c-0.3-2.6-0.9-5.1-1.7-7.5c-0.8-2.4-2.1-4.7-3.8-6.6c-1.4-1.5-3.3-2.5-5.3-3C205.6,393.5,203.7,393.4,201.8,393.5z
	"/>
<path class="st4" d="M210.5,368.6c0,0.1-32.4,0.3-72.3,0.3s-72.3-0.1-72.3-0.3s32.4-0.3,72.3-0.3S210.5,368.5,210.5,368.6z"/>
<path class="st4" d="M72.2,392.3c-0.5,0.1-1,0.2-1.5,0.2c-0.5,0-1.1,0.2-1.7,0.3c-0.3,0.1-0.7,0.2-1,0.3c-0.4,0.1-0.8,0.2-1.2,0.4
	c-1.8,0.7-3.5,2-4.7,3.5c-1.5,1.9-2.6,4.2-3.2,6.5c-0.6,2.4-0.9,4.8-1,7.3c-0.1,2,0,4,0.1,6c0.1,1.7,0.3,3.1,0.4,4.1
	c0.1,0.5,0.1,1,0.2,1.5c-0.2-0.5-0.3-1-0.4-1.5c-0.2-1-0.4-2.3-0.6-4.1c-0.2-2-0.3-4-0.2-6.1c0.1-2.5,0.4-5,1-7.4
	c0.6-2.4,1.7-4.7,3.2-6.7c1.3-1.6,3-2.8,5-3.5c0.4-0.2,0.8-0.3,1.2-0.4c0.4-0.1,0.7-0.2,1.1-0.2c0.7-0.1,1.3-0.2,1.8-0.2
	C71.3,392.2,71.8,392.2,72.2,392.3z"/>
<path class="st4" d="M72.2,392.3c0-0.1-0.1-0.1-0.1-0.2c-0.1-0.2-0.2-0.4-0.3-0.7c-0.2-0.6-0.6-1.5-0.9-2.7
	c-0.8-2.4-1.7-5.9-2.8-10.2s-2.4-9.5-3.9-15.1s-3.1-12-5.1-18.5c-1-3.2-2-6.4-3.3-9.3c-0.3-0.7-0.6-1.4-1-2.1
	c-0.3-0.7-0.7-1.4-1.1-2c-0.8-1.3-1.5-2.6-2.3-3.9c-1.4-2.4-3.2-4.5-5.4-6.2c-2-1.3-4.3-2.2-6.7-2.5c-3.5-0.5-7,0-10.2,1.5
	c-1.2,0.6-2.3,1.2-3.3,2c0,0,0.1-0.1,0.2-0.2l0.6-0.5c0.8-0.6,1.6-1.1,2.5-1.5c3.2-1.6,6.8-2.1,10.4-1.7c2.5,0.3,4.8,1.2,6.9,2.5
	c2.3,1.7,4.2,3.8,5.6,6.3c0.8,1.2,1.5,2.6,2.3,3.9c0.4,0.7,0.8,1.3,1.1,2.1c0.4,0.7,0.7,1.4,1,2.2c1.3,3.1,2.4,6.2,3.3,9.4
	c2,6.5,3.6,12.8,5.1,18.5c1.5,5.7,2.7,10.8,3.8,15.1s2,7.8,2.7,10.2c0.3,1.2,0.6,2.1,0.8,2.8l0.2,0.7
	C72.2,392.1,72.2,392.2,72.2,392.3z"/>
<path class="st4" d="M185.7,349.6c0,0-0.3,0-0.9,0h-2.6h-10.1h-37.2l-25.7,0L95,349.5c-2.5,0-4.9,0-7.5,0.1c-0.6,0-1.2,0.1-1.8,0.2
	c-0.6,0.2-1.2,0.5-1.7,0.8c-1.1,0.6-2.2,1.3-3.3,2c-2.2,1.4-4.3,2.9-6.4,4.5c-2.1,1.6-4.2,3.3-6.1,5.2c-1,0.9-1.8,2-2.4,3.2
	c-0.1,0.3-0.2,0.6-0.2,0.9c0,0.3,0.1,0.6,0.2,1l0.5,2c0.7,2.7,1.4,5.4,2.1,8.1s1.5,5.5,2.2,8.2c0.4,1.4,0.8,2.8,1.2,4.1
	c0.2,0.7,0.4,1.4,0.7,2c0,0.1,0.1,0.1,0.1,0.2s0,0.1,0,0.1l0,0c0,0,0.3,0,0.5,0.1c0.3,0,0.7,0.1,1.1,0.1c5.8,0.3,11.7,0.3,17.7,0.4
	c23.9,0.3,46.8,0.3,67.5,0.3c10.4,0,20.2-0.1,29.4-0.2c4.6-0.1,9.1-0.1,13.3-0.3c1.1,0,2.1-0.1,3.2-0.2l0.8-0.1c0.1,0,0.2,0,0.4-0.1
	c0.1,0,0.2-0.1,0.2-0.1c0.3-0.4,0.5-0.8,0.7-1.3c0.7-1.9,1.3-3.8,1.7-5.7c1-3.8,1.7-7.5,2.5-10.9c0.2-0.9,0.4-1.7,0.5-2.6
	c0.2-0.8,0.3-1.6,0.4-2.5c-0.3-1.6-1.1-3-2.2-4.1c-1.9-2.1-4.1-4.1-6.4-5.8c-2.1-1.6-4.1-3.1-5.8-4.4c-1.5-1.2-3.1-2.3-4.8-3.3
	c-1.3-0.6-2.6-1.1-4-1.4c-0.9-0.2-1.7-0.3-2.6-0.4h-0.7L185.7,349.6c0,0.1,0.3,0.1,0.9,0.1c0.9,0,1.8,0.1,2.6,0.3
	c1.4,0.3,2.7,0.8,4,1.4c1.7,0.9,3.3,2,4.8,3.3c1.8,1.3,3.8,2.7,5.9,4.3c2.3,1.7,4.5,3.7,6.4,5.8c1.1,1.2,1.9,2.7,2.3,4.3
	c0,0.9-0.1,1.7-0.3,2.5c-0.2,0.9-0.4,1.7-0.5,2.6c-0.7,3.5-1.5,7.1-2.4,10.9c-0.5,2-1.1,3.9-1.8,5.8c-0.2,0.5-0.5,1-0.8,1.4
	c-0.1,0.1-0.3,0.2-0.4,0.2c-0.1,0-0.3,0.1-0.4,0.1l-0.8,0.1c-1.1,0.1-2.1,0.1-3.2,0.2c-4.3,0.2-8.7,0.2-13.4,0.3
	c-9.2,0.1-19.1,0.2-29.4,0.3c-20.8,0.1-43.6,0.1-67.5-0.2c-6-0.1-11.9-0.1-17.7-0.4c-0.4,0-0.7,0-1.1-0.1l-0.6-0.1
	c-0.1,0-0.2-0.1-0.2-0.1c-0.1,0-0.1-0.1-0.1-0.2c-0.1-0.1-0.1-0.2-0.1-0.3c-0.3-0.7-0.5-1.4-0.7-2.1c-0.4-1.4-0.8-2.8-1.2-4.2
	l-2.2-8.2c-0.7-2.7-1.4-5.4-2.1-8.1l-0.5-2c-0.1-0.4-0.2-0.7-0.2-1.1c0-0.4,0.1-0.7,0.3-1.1c0.7-1.2,1.5-2.3,2.5-3.3
	c1.9-1.9,4-3.7,6.1-5.3c2.1-1.6,4.3-3.1,6.5-4.5c1.1-0.7,2.2-1.4,3.3-2c0.6-0.3,1.2-0.6,1.8-0.8c0.7-0.1,1.3-0.2,2-0.2
	C90,349,92.5,349,95,349l14.3,0.1l25.7,0.1l37.2,0.2l10.1,0.1h2.6L185.7,349.6z"/>
<path class="st4" d="M207.3,392.3c0-0.1,0-0.2,0.1-0.2c0.1-0.2,0.1-0.4,0.2-0.7c0.2-0.6,0.5-1.5,0.8-2.8c0.6-2.4,1.4-5.9,2.3-10.2
	s1.9-9.5,3.1-15.3s2.5-12,4.2-18.6c0.8-3.2,1.8-6.3,3.1-9.4c0.3-0.7,0.7-1.4,1.1-2.1s0.8-1.4,1.2-2c0.8-1.3,1.7-2.5,2.6-3.7
	c1.7-2.2,3.8-4.1,6.2-5.6c2.1-1.3,4.4-2.1,6.9-2.4c3.5-0.5,7.1,0.1,10.3,1.7c0.9,0.4,1.7,0.9,2.4,1.5l0.6,0.5
	c0.1,0.1,0.2,0.2,0.2,0.2c-1-0.8-2.1-1.4-3.3-2c-3.2-1.4-6.7-2-10.1-1.5c-2.4,0.3-4.7,1.2-6.7,2.4c-2.3,1.5-4.3,3.4-6,5.6
	c-0.9,1.2-1.8,2.4-2.6,3.7c-0.4,0.6-0.8,1.3-1.2,2s-0.7,1.4-1,2.1c-1.2,3-2.2,6.2-3,9.3c-1.7,6.5-3,12.8-4.2,18.6
	s-2.2,10.9-3.2,15.2s-1.8,7.8-2.4,10.2c-0.3,1.2-0.6,2.1-0.9,2.7c-0.1,0.3-0.2,0.5-0.3,0.7C207.4,392.1,207.4,392.2,207.3,392.3z"/>
<path class="st4" d="M209.7,263.6c0.1,0-4.4,19.3-10.2,43.1s-10.6,43-10.7,43s4.4-19.3,10.2-43.1S209.5,263.6,209.7,263.6z"/>
<path class="st4" d="M66.5,269.8c0.1,0.3,0.2,0.5,0.3,0.8c0.2,0.6,0.4,1.3,0.7,2.3c0.6,2.1,1.5,5,2.5,8.5c2.1,7.2,5,17.1,8,28.2
	s5.7,21,7.6,28.3c0.9,3.6,1.7,6.5,2.2,8.6c0.2,1,0.4,1.8,0.6,2.4c0.1,0.3,0.1,0.5,0.2,0.8c-0.1-0.3-0.2-0.5-0.3-0.8
	c-0.2-0.6-0.4-1.3-0.7-2.3c-0.6-2.1-1.4-5-2.3-8.5c-2-7.3-4.7-17.2-7.7-28.2l-7.8-28.2l-2.4-8.5c-0.3-1-0.5-1.8-0.6-2.3
	C66.6,270.3,66.5,270,66.5,269.8z"/>
<path class="st4" d="M105.6,153.6c0.3-3,2.7-5.4,5.7-5.6c-1.7-2.8-0.3-6.8,2.6-8.4c3-1.4,6.6-0.9,9.1,1.4c1.8-3,5.7-3.9,8.6-2.1
	c2,1.2,3.1,3.3,3,5.6c2.6-0.9,5.6,1.3,6.2,4.1c0.4,2.8-0.9,5.6-3.3,7.2c1.4,1,1.2,3.3,0.1,4.6c-1.2,1.2-2.8,2-4.5,2.1l-10.5,3.1
	c-2.5,1.4-5.6,2.1-8.3,1.1s-4.7-4.2-3.6-6.9C107.6,159.3,105.5,156.7,105.6,153.6z"/>
<path class="st5" d="M105.6,152.5c0.1-0.1,0.2-0.2,0.4-0.4c0.4-0.3,0.9-0.5,1.3-0.7c0.8-0.2,1.6-0.3,2.4-0.1c1.1,0.2,2,0.8,2.7,1.6
	l-0.3,0.1c0.1-1.4,0.7-2.8,1.7-3.8c1.1-1.2,2.6-2.1,4.2-2.4c1.8-0.3,3.7-0.1,5.4,0.6c1.8,0.8,3.5,1.9,4.8,3.4
	c0.7,0.7,1.2,1.6,1.5,2.5c0.3,1,0.1,2-0.4,2.8c-0.3,0.4-0.6,0.8-1.1,1c-0.5,0.2-1,0.3-1.4,0.1c-0.9-0.3-1.6-1-1.9-1.9
	c-0.2-0.9,0-1.8,0.5-2.5c0.4-0.7,1.1-1.2,1.8-1.5c1.3-0.5,2.7-0.6,4.1-0.3c2,0.4,3.8,1.4,5.2,2.8c0.4,0.4,0.7,0.8,1,1.3
	c0.1,0.2,0.2,0.3,0.2,0.5c-0.4-0.6-0.9-1.1-1.4-1.6c-1.4-1.4-3.2-2.3-5.1-2.6c-1.3-0.2-2.7-0.1-3.9,0.4c-0.7,0.3-1.2,0.8-1.6,1.4
	c-0.4,0.6-0.6,1.4-0.4,2.1c0.2,0.7,0.8,1.3,1.5,1.6c0.8,0.2,1.6-0.2,2-0.9c0.5-0.7,0.6-1.6,0.4-2.4c-0.3-0.9-0.7-1.6-1.4-2.3
	c-2.6-2.9-6.4-4.6-9.7-3.9c-1.5,0.3-2.9,1.1-4,2.2c-0.9,1-1.5,2.2-1.6,3.6v0.5l-0.3-0.4c-0.6-0.8-1.5-1.3-2.5-1.6
	c-0.7-0.2-1.5-0.2-2.2,0C106.8,151.8,106.2,152.1,105.6,152.5z"/>
<path class="st4" d="M115.4,163.3c0,0.1-0.1,0.2-0.1,0.3c-0.1,0.2-0.3,0.5-0.5,0.6c-0.4,0.3-0.8,0.5-1.2,0.6c-0.6,0.1-1.3,0-1.8-0.3
	l-1-0.6l1.1,0.3l1.1,0.3l1.4,0.4l-1.5-0.1c-1.6-0.1-2.7-1.5-2.6-3.1c0.1-0.7,0.3-1.3,0.8-1.8l0.3,0.3c-2,2.8-5.8,3.4-8.6,1.4
	c-1.1-0.8-1.9-1.9-2.3-3.2c-0.6-1.6-0.4-3.4,0.4-4.9c0.8-1.5,2.7-2,4.2-1.2l-0.3,0.4c-0.9-0.8-1.4-1.8-1.5-3c-0.1-1,0.1-2.1,0.7-2.9
	c0.5-0.8,1.2-1.4,2.1-1.7c0.7-0.2,1.5-0.3,2.3-0.1c1.1,0.2,2,0.8,2.7,1.6c0.2,0.3,0.4,0.6,0.5,1c0,0-0.2-0.4-0.7-0.9
	c-0.7-0.8-1.6-1.3-2.7-1.4c-0.7-0.1-1.4-0.1-2.1,0.2c-0.8,0.3-1.5,0.8-1.9,1.6c-0.5,0.8-0.7,1.8-0.6,2.7c0.1,1,0.6,2,1.3,2.7
	l-0.3,0.4c-1.3-0.6-2.8-0.2-3.5,1.1c-0.8,1.4-0.9,3-0.4,4.4c0.7,2.2,2.6,3.8,4.9,4c2,0.2,4-0.7,5.2-2.3l0.3,0.3
	c-0.7,0.7-0.9,1.8-0.5,2.8c0.4,0.8,1.1,1.3,2,1.4l-0.1,0.3l-1.1-0.4l0.1-0.3c0.5,0.3,1,0.4,1.6,0.3c0.4-0.1,0.8-0.2,1.2-0.4
	C114.9,163.9,115.2,163.6,115.4,163.3z"/>
<path class="st4" d="M145.3,157.1c0.3-0.4,0.6-0.9,0.9-1.3c0.7-1.3,0.9-2.7,0.6-4.1c-0.6-2.7-3.1-4.6-5.8-4.5
	c-0.6,0-1.1,0.2-1.5,0.6c-0.3,0.3-0.3,0.9,0,1.2c0.1,0.1,0.1,0.1,0.2,0.2c0.6,0.2,1.3,0.1,1.8-0.1c1.2-0.5,2.2-1.4,2.7-2.6
	c0.4-1.1,0.3-2.4-0.3-3.5c-1.1-1.8-3-3-5.2-2.9c-1.4,0-2.8,0.5-3.9,1.4c-0.8,0.6-1.1,1.1-1.1,1.1s0-0.1,0.2-0.4
	c0.2-0.3,0.5-0.6,0.8-0.9c1.1-1,2.5-1.6,4.1-1.6c1,0,2.1,0.2,3,0.7c1.1,0.5,2,1.4,2.6,2.4c0.7,1.2,0.8,2.6,0.3,3.9
	c-0.6,1.3-1.6,2.4-3,2.9c-0.7,0.3-1.5,0.4-2.2,0.1c-0.4-0.2-0.7-0.5-0.8-0.9c-0.1-0.4,0-0.8,0.3-1.1c0.5-0.6,1.2-0.9,1.9-0.9
	c3-0.1,5.6,2,6.2,4.9c0.3,1.5,0,3-0.8,4.3c-0.2,0.3-0.5,0.7-0.7,0.9C145.6,157,145.5,157.1,145.3,157.1z"/>
<path class="st6" d="M113.7,165.6c1.2-2.3,4.5-2.6,6.8-1.6c-0.3-2.5,1.5-4.9,4-5.2c1.1-0.1,2.2,0.1,3.2,0.8c0.6,0.4,1.1,0.9,1.8,0.9
	s1.2-0.7,1.7-1.2c1.8-1.8,4.8-1.8,6.6,0c1.8,1.8,1.8,4.8,0,6.6c-0.2,0.2-0.4,0.4-0.6,0.5l-0.3-1.2c-4,3.8-9,6.2-14.4,7
	c-2.3,0.5-4.6,0.2-6.7-0.8C113.8,170.2,112.6,167.6,113.7,165.6z"/>
<path class="st4" d="M107.9,185.6c-2-3-1.8-6.9,0.4-9.8c0.9-1.1,2-1.9,3.2-2.4c0.1-2.2,0.9-4.2,2.3-5.9c2.1-2.4,6.1-3.1,8.4-1
	c1.9-3.8,6.5-5.3,10.3-3.3c0.1,0,0.1,0.1,0.2,0.1c3-3.6,9.4-3.3,12.2,0.4c2.6-1.8,6.1-1.1,7.9,1.5c0.8,1.2,1.1,2.6,0.9,4.1
	c3.4-0.6,6.6,1.7,7.1,5.1c0.2,1.1,0.1,2.2-0.3,3.2c2.5,0.2,4.4,2.3,4.3,4.9c-0.1,1.2-0.6,2.3-1.6,3.1c2.2,2.8,1.8,6.9-1.1,9.1
	c-0.1,0.1-0.2,0.2-0.3,0.2c0.6,2.7-1,5.4-3.6,6.2l-37.8,11.2c-6.3-0.4-8.1-4.6-8.3-8.4c-3-1.1-4.6-4.4-3.6-7.4
	c0.1-0.3,0.2-0.6,0.4-0.8c-3.1-1.9-4-5.9-2.1-9C107.1,186.4,107.5,186,107.9,185.6L107.9,185.6z"/>
<path class="st9" d="M122.6,177.1l23.2-5.1c7.4-0.6,12,8.7,12.3,16.1c0.3,8.2,0.3,18.3-0.9,24.4c-2.3,12.2-11.8,13.5-11.8,13.5
	s0,0.2-0.2,3.8l-0.2,6c0,2.4-0.9,4.7-2.5,6.6c-3.6,4.1-9.8,4.3-16.8,1.1c-4.1-1.8-3.8-4.1-4.3-9.8l-3.3-53.7
	C119.1,178.4,120.8,177.4,122.6,177.1z"/>
<path class="st4" d="M153.3,199.1c0,0.9-0.7,1.6-1.6,1.6c-0.8,0-1.5-0.6-1.6-1.4c0,0,0,0,0-0.1c0-0.9,0.7-1.5,1.6-1.6
	C152.5,197.6,153.2,198.3,153.3,199.1C153.3,199.1,153.3,199.1,153.3,199.1z"/>
<path class="st4" d="M155.2,194.4c-0.2,0.2-1.4-0.7-3.1-0.8s-3,0.8-3.1,0.6s0.1-0.5,0.7-0.8c0.8-0.5,1.6-0.7,2.5-0.7
	c0.9,0,1.7,0.3,2.4,0.9C155.1,193.9,155.3,194.3,155.2,194.4z"/>
<path class="st4" d="M138.5,198.7c0,0.9-0.7,1.5-1.6,1.6c-0.8,0-1.6-0.6-1.6-1.4c0,0,0,0,0,0c0-0.9,0.7-1.5,1.6-1.6
	C137.7,197.1,138.4,197.8,138.5,198.7C138.5,198.6,138.5,198.7,138.5,198.7z"/>
<path class="st4" d="M139.1,194.4c-0.2,0.2-1.4-0.7-3.1-0.8s-3,0.8-3.2,0.6s0.1-0.5,0.7-0.8c0.8-0.5,1.6-0.7,2.5-0.7
	c0.9,0,1.7,0.3,2.4,0.9C139,193.9,139.2,194.3,139.1,194.4z"/>
<path class="st4" d="M143.9,205.8c0.9-0.3,1.8-0.4,2.8-0.4c0.4,0,0.9-0.1,0.9-0.4c0.1-0.4,0-0.9-0.2-1.3c-0.4-1.1-0.8-2.2-1.2-3.3
	c-1.6-4.8-2.8-8.7-2.6-8.7s1.7,3.7,3.3,8.5c0.4,1.2,0.8,2.3,1.1,3.4c0.3,0.5,0.3,1.1,0.2,1.7c-0.1,0.3-0.4,0.5-0.7,0.6
	c-0.2,0.1-0.5,0.1-0.7,0.1C145.8,205.9,144.8,205.9,143.9,205.8z"/>
<path class="st10" d="M145.5,226c-5.8-0.1-11.5-1.8-16.4-4.9c0,0,3.8,8.8,16.2,8L145.5,226z"/>
<path class="st10" d="M138.2,209.1c0.5-0.7,1.3-1.1,2.1-1.1c1.2-0.1,2.3,0.5,2.9,1.5c0.2,0.5,0.2,1,0.1,1.4c-0.1,0.2,0,0.1-0.2,0.3
	c-0.7,0.6-1.5,1.1-2.3,1.4c-1,0.2-2-0.2-2.5-1C137.7,210.9,137.7,209.9,138.2,209.1z"/>
<path class="st4" d="M138.6,206.8c0.3,0,0.2,1.8,1.8,3.2s3.5,1.2,3.5,1.4s-0.4,0.4-1.3,0.4c-1.1,0-2.2-0.4-3-1.1
	c-0.8-0.7-1.3-1.6-1.4-2.7C138.2,207.3,138.4,206.8,138.6,206.8z"/>
<path class="st4" d="M139.4,186.9c-0.1,0.5-1.9,0.3-3.9,0.6s-3.6,0.9-3.9,0.5c-0.1-0.2,0.1-0.6,0.8-1.1c0.8-0.6,1.8-1,2.8-1.1
	c1-0.1,2,0,3,0.3C139.1,186.4,139.4,186.7,139.4,186.9z"/>
<path class="st4" d="M154.9,188.3c-0.4,0.4-1.6-0.1-3.2-0.2s-2.9,0.1-3.2-0.3c-0.1-0.2,0.1-0.6,0.7-0.9c0.8-0.4,1.7-0.6,2.6-0.5
	c0.9,0.1,1.8,0.4,2.5,0.9C154.9,187.7,155,188.1,154.9,188.3z"/>
<path class="st4" d="M146,170.6c0,0.1,0,0.2,0,0.3l0,0V170.6z"/>
<path class="st9" d="M121.4,199.1c0.1-0.8-0.5-1.5-1.3-1.7c-2-0.4-5.5-0.4-5.9,4.6c-0.5,6.9,6.6,6,6.6,5.8S121.3,201.8,121.4,199.1z
	"/>
<path class="st10" d="M119,205c0,0-0.1,0.1-0.3,0.1c-0.3,0.1-0.6,0.1-0.9,0c-0.9-0.6-1.3-1.7-1.2-2.8c0-0.6,0.2-1.2,0.5-1.7
	c0.2-0.4,0.5-0.8,1-0.9c0.3-0.1,0.6,0.1,0.7,0.4c0.1,0.2,0,0.3,0.1,0.4s0.2-0.1,0.1-0.4c0-0.2-0.1-0.3-0.2-0.4
	c-0.2-0.2-0.4-0.2-0.7-0.2c-0.6,0.1-1.1,0.5-1.3,1c-0.3,0.6-0.5,1.2-0.6,1.9c0,1.4,0.6,2.8,1.6,3.1c0.4,0.1,0.8,0.1,1.1-0.1
	C118.9,205.2,119,205.1,119,205z"/>
<path class="st4" d="M160.5,192.1c-2.4,0-4.3-1.8-4.4-4.2c0-0.3,0-0.6,0.1-1c-2.5,0.1-4.5-1.9-4.6-4.4c0-0.4,0-0.9,0.2-1.3
	c-2.8,1.4-6.1,0.2-7.5-2.6c-0.2-0.4-0.3-0.8-0.4-1.2c0,0.6-0.4,1.1-0.9,1.3c-0.5,0.2-1.1,0.4-1.6,0.3c-1.9-0.2-3.5-1.3-4.3-3
	c-1.2,1.9-3.6,2.7-5.7,1.8c-0.7-0.3-1.4-1-1.3-1.8c0.1-0.3,0.2-0.6,0.4-0.8c2.1-3.2,5.9-5,9.7-5.3c3.8-0.2,7.7,0.4,11.2,1.8
	c2.2,0.6,4.2,1.7,5.9,3.2c1.7,1.7,2.6,4,3.4,6.3c0.7,1.6,1.2,3.3,1.5,5.1c0.3,1.7,0.1,3.5-0.5,5.2h-0.5"/>
<path class="st4" d="M131.4,176c-0.1,3.1-2.3,5.7-5.4,6.2c1.7,0.6,2.5,2.5,1.9,4.2c-0.6,1.5-2.1,2.4-3.7,2c0.5,1,0.8,2.1,0.8,3.1
	c0,1.1-0.6,2.1-1.7,2.6c0.7,0.7,1,1.7,0.8,2.7c-0.3,1.2-1.3,2-2.5,2c-1,0-1.8-1.3-2.9-1.4c-1.5-0.3-3.1,0.2-4.2,1.3l-1.3-12.9
	l1.6-10.4l6.1-4.4l11.7,2.1L131.4,176z"/>
<path class="st5" d="M112,176.4c0.4,0,0.8-0.1,1.2-0.1c1-0.3,1.9-1,2.3-2l0.3-0.8l0.1,0.8c0.2,1,0.7,1.9,1.5,2.5
	c0.9,0.7,2.1,1,3.3,0.6c0.7-0.2,1.4-0.6,1.9-1.2l0.2-0.3l0.2,0.3c0.6,1,1.6,1.7,2.7,2.1c0.9,0.3,1.8,0.4,2.7,0.2
	c0.8-0.2,1.6-0.5,2.4-0.9c0,0-0.1,0.2-0.5,0.5c-0.5,0.4-1.2,0.6-1.8,0.8c-1,0.2-2,0.2-2.9-0.1c-1.2-0.4-2.2-1.2-2.9-2.3h0.4
	c-0.6,0.7-1.3,1.1-2.2,1.3c-1.3,0.4-2.7,0.1-3.7-0.8c-0.9-0.7-1.5-1.7-1.6-2.9l0.4,0.1c-0.5,1.1-1.5,1.9-2.7,2.1
	C112.9,176.6,112.4,176.5,112,176.4z"/>
<path class="st5" d="M130.1,162.8c-0.9,0.4-1.7,0.9-2.6,1.4c-0.9,0.6-1.5,1.4-1.9,2.4c-0.5,1.2-0.3,2.5,0.5,3.4
	c0.3,0.3,0.6,0.6,1,0.7l0.3,0.1l-0.2,0.3c-0.5,1-0.5,2.1,0,3.1c0.4,0.8,1,1.5,1.7,2c1.2,0.9,2.1,1.4,2,1.5s-0.2-0.1-0.6-0.3
	c-0.6-0.3-1.1-0.6-1.6-1c-0.8-0.5-1.5-1.3-1.9-2.1c-0.6-1.1-0.6-2.4,0-3.6l0.1,0.4c-0.5-0.2-0.9-0.5-1.2-0.8c-1-1.1-1.2-2.7-0.6-4
	c0.4-1,1.2-1.9,2.1-2.5c0.6-0.4,1.3-0.7,2-0.9C129.9,162.8,130.1,162.8,130.1,162.8z"/>
<path class="st4" d="M167.8,204.2c0,0-0.1,0.1-0.2,0.1c-0.2,0.1-0.5,0.2-0.8,0.2c-1,0.1-2-0.2-2.8-0.8c-1.7-1.4-1.9-3.9-0.5-5.5
	c0.2-0.2,0.4-0.5,0.7-0.6c0.4-0.3,0.9-0.5,1.4-0.5c0.5,0,1.1,0.2,1.4,0.7c0.3,0.5,0.4,1.1,0.1,1.6c-0.2,0.4-0.6,0.8-1,1.1
	c-0.8,0.4-1.7,0.6-2.6,0.3c-1.5-0.3-2.7-1.4-3.2-2.8c-0.3-0.9-0.4-1.9-0.3-2.9c0-0.4,0.1-0.7,0.3-1c0,0-0.1,0.4-0.1,1
	c-0.1,0.9,0.1,1.9,0.4,2.7c0.2,0.6,0.6,1.1,1.1,1.5c0.5,0.5,1.2,0.8,1.9,0.9c0.8,0.2,1.5,0.1,2.2-0.3c0.7-0.4,1.2-1.2,0.8-1.9
	c-0.2-0.3-0.6-0.5-1-0.5c-0.4,0-0.8,0.1-1.1,0.4c-0.6,0.5-1.1,1.1-1.3,1.9c-0.4,1.3,0,2.7,1.1,3.6c0.7,0.6,1.6,0.9,2.5,0.9
	C167.4,204.3,167.8,204.1,167.8,204.2z"/>
<path class="st4" d="M113.2,195.5c-0.3,0.2-0.6,0.4-0.9,0.5c-0.9,0.3-1.8,0.5-2.7,0.5c-1.4,0-2.8-0.2-4.1-0.8
	c-0.8-0.3-1.5-1-1.8-1.8c-0.2-0.5-0.2-1,0-1.4c0.2-0.5,0.6-0.8,1.1-1c0.3-0.1,0.6-0.1,0.9,0l-0.2,0.5c-1.5-0.8-2.4-2.4-2.3-4.1
	c0.1-0.7,0.3-1.4,0.8-2c1-1.2,2.6-1.7,4.1-1.4c0.3,0.1,0.6,0.2,0.9,0.4c0,0-0.3-0.1-0.9-0.2c-0.8-0.1-1.7,0-2.4,0.4
	c-1.1,0.5-1.9,1.6-2,2.8c-0.1,1.5,0.7,2.9,2,3.6l-0.2,0.5c-0.2-0.1-0.4-0.1-0.6,0c-0.3,0.1-0.6,0.4-0.8,0.7c-0.1,0.3-0.1,0.7,0,1.1
	c0.3,0.7,0.8,1.3,1.5,1.5c1.2,0.5,2.5,0.8,3.9,0.8C110.8,196.1,112,195.9,113.2,195.5z"/>
<path class="st9" d="M160.9,288.3c0.3,0.5,11.5,15.5,11.5,15.5l13.5-12.5l-8.6-21.8l-5.2-8.9L160.9,288.3z"/>
<g class="st8">
	<polygon points="116.9,422.9 111.3,422.8 109.3,373.8 97.1,368.6 119.3,355 178.6,396.9 190.4,422.9 	"/>
</g>
<path class="st9" d="M156,406.1l10.5,19.8l15.5-8.6l-6.8-21.6L156,406.1z"/>
<path class="st4" d="M164.7,423.2c0,0,16,0.5,16.3-9.8l0.9,2.1l23.9,15.7c3.8,2.7,3.5,5.8,2.5,7.4c-0.7,1.2-2.1,1.8-3.5,1.7
	c-7.4-0.9-34.7-4.6-36.1-6.8l-1.4-1.9c-2.3-2.7-3-6-2.3-7.2L164.7,423.2z"/>
<g class="st11">
	<path class="st3" d="M207.8,439.1l-40.6-7.5l0.9,1.2c0.9,1.4,1.8,1.5,3,1.9c3.7,1.1,12.9,2.9,33.5,5.7
		C205.8,440.4,207,440,207.8,439.1L207.8,439.1z"/>
</g>
<g class="st11">
	<path class="st3" d="M170.1,426.4c1.1,0,2.1,0.8,2.2,1.9c0,1.1-0.8,2.1-1.9,2.2c-1.2,0-2.2-0.9-2.3-2.1c0.1-1.2,1.1-2.1,2.2-2"/>
</g>
<path class="st3" d="M188.9,429.5c0.2,0-0.2-2,0.9-4.1s2.9-2.9,2.8-3s-0.6,0-1.3,0.4c-1.9,1.1-3,3.3-2.8,5.5
	C188.5,429.1,188.8,429.6,188.9,429.5z"/>
<path class="st3" d="M193.4,431.2c0.2,0,0.5-1.6,1.6-3.1s2.6-2.2,2.5-2.4s-1.9,0.2-3.1,1.9S193.2,431.3,193.4,431.2z"/>
<path class="st3" d="M183.7,427.7c0.2,0,0.5-2.1,1.9-4.3s3.1-3.4,3-3.6s-2.1,0.9-3.6,3.2S183.6,427.7,183.7,427.7z"/>
<path class="st3" d="M184.3,421.4c0,0-0.3-0.4-0.9-0.9c-1-0.8-2.1-1.3-3.3-1.6c-0.9-0.3-1.8-0.3-2.6-0.1c-0.6,0.2-0.9,0.8-0.9,1.4
	c0.1,0.6,0.4,1.1,0.8,1.5c1.9,1.6,4.6,1.6,6.5,0c1.8-1.6,2.5-4.1,1.7-6.4c-0.2-0.6-0.6-1-1.2-1.2c-0.6-0.2-1.2,0.1-1.6,0.6
	c-0.5,0.8-0.7,1.6-0.7,2.5c-0.1,1.2,0,2.5,0.4,3.6c0.1,0.4,0.3,0.9,0.6,1.2c-0.3-1.6-0.5-3.2-0.3-4.8c0-0.8,0.3-1.5,0.7-2.2
	c0.2-0.3,0.5-0.4,0.9-0.3c0.4,0.2,0.6,0.5,0.7,0.9c0.6,2,0,4.1-1.6,5.5c-1.6,1.3-3.9,1.4-5.5,0.1c-0.3-0.3-0.5-0.6-0.6-1
	c0-0.3,0.2-0.7,0.5-0.8c0.7-0.2,1.5-0.2,2.2,0C181.5,419.8,183,420.5,184.3,421.4z"/>
<path class="st9" d="M122.3,432.1c0.1,0,0.2,24.4,0.2,24.4s16.9,2.6,16.9,2.2s5-23.8,5-23.8L122.3,432.1z"/>
<path class="st4" d="M140.8,452c0,0-12.3,9.3-18.3,0.9l-0.2,2.2l-11.1,26.3c-1.7,4.4,0.3,6.8,2,7.5c1.3,0.6,2.8,0.4,3.9-0.6
	c5.6-4.9,26.3-23.1,26.2-25.7l0.1-2.4c0.4-3.5-0.8-6.7-2.1-7.2L140.8,452z"/>
<g class="st11">
	<path class="st3" d="M113.8,489.2l29.5-28.9l-0.1,1.5c0.1,1.6-0.7,2.2-1.5,3.2c-2.4,3-9,9.6-24.6,23.4
		C116.3,489.2,115,489.5,113.8,489.2z"/>
</g>
<g class="st11">
	<path class="st3" d="M138.1,457.6c-0.9,0.6-1.3,1.8-0.7,2.8c0.6,1,1.8,1.3,2.8,0.8c1-0.7,1.3-2,0.8-3c-0.7-0.9-2-1.1-3-0.5"/>
</g>
<path class="st3" d="M124.3,470.7c-0.2,0.1-0.9-1.8-3-2.9s-4-0.8-4-1s0.4-0.3,1.3-0.4c2.2-0.1,4.3,1,5.4,3
	C124.3,470.2,124.4,470.7,124.3,470.7z"/>
<path class="st3" d="M121.5,474.6c-0.2,0.1-1.2-1.1-3-1.7s-3.4-0.4-3.4-0.6s1.6-0.9,3.7-0.1S121.7,474.5,121.5,474.6z"/>
<path class="st3" d="M127.5,466.3c-0.2,0.1-1.6-1.5-4-2.5s-4.5-1.1-4.5-1.3s2.2-0.5,4.8,0.7S127.7,466.2,127.5,466.3z"/>
<path class="st3" d="M123.5,461.4c0-0.5,0.1-0.9,0.3-1.3c0.4-1.2,1-2.2,1.8-3.2c0.5-0.7,1.3-1.3,2.2-1.5c0.6-0.1,1.2,0.2,1.5,0.7
	c0.3,0.5,0.3,1.1,0.2,1.7c-0.7,2.4-3,3.9-5.4,3.6c-2.4-0.3-4.4-2-5-4.4c-0.2-0.6,0-1.2,0.3-1.7c0.4-0.5,1.1-0.6,1.6-0.4
	c0.8,0.4,1.5,1,2,1.7c0.8,1,1.4,2.1,1.7,3.2c0.2,0.4,0.3,0.9,0.2,1.3c-0.6-1.5-1.4-2.9-2.4-4.2c-0.5-0.6-1.1-1.1-1.8-1.4
	c-0.3-0.1-0.7-0.1-0.9,0.2c-0.2,0.3-0.2,0.7-0.1,1.1c0.6,2,2.3,3.4,4.4,3.7c2.1,0.2,4-1,4.7-3c0.1-0.4,0.1-0.8-0.1-1.2
	c-0.2-0.3-0.5-0.5-0.8-0.4c-0.7,0.2-1.4,0.7-1.9,1.2C124.9,458.5,124.1,459.8,123.5,461.4z"/>
<path class="st6" d="M100.2,238.8l21.1-8.1c0,0,5.3,9.2,14.7,8.4c9.6-0.8,9.3-7.8,9.3-7.8l26.5,7.5c0,0,1.8,35.9,0,41.5
	s-6.7,12.9-6.7,12.9s5.2,12.2,5.4,15.5s-1.3,2.5-1.3,2.5l-64,0.8L100.2,238.8z"/>
<g class="st8">
	<path d="M156.4,275.6c-0.8-0.7-2.1-0.2-3.1,0.3c-5.5,3-11,6-16.3,9.4c-6.6,4.4-12.7,9.4-19.2,14c-3.8,2.7-7.7,5.2-11.8,7.5
		l-1.4,2.4c1.4,2.4,4.5,3.4,7.2,3.2c2.8-0.4,5.4-1.4,7.7-3c10.9-6.9,18.5-18,29.4-24.9c2.7-1.7,5.7-3.2,7.3-6
		C156.9,277.6,157.2,276.3,156.4,275.6z"/>
</g>
<path class="st4" d="M158.9,292.6c-0.9,0.1-1.8,0.2-2.6,0.1c-1.6,0-3.9,0.1-6.3,0.3s-4.7,0.5-6.3,0.6c-0.9,0.2-1.7,0.2-2.6,0.2
	c0.8-0.3,1.7-0.5,2.6-0.6c4.2-0.7,8.5-1.1,12.7-1C157.2,292.3,158.1,292.4,158.9,292.6z"/>
<path class="st9" d="M90.5,282.3c0,0,5.9,16.7,8.5,20.9s3.7,9.7,12.1,7.5s12.7-7.7,21.8-15.2s15.1-13.2,15.1-13.2l-6.5-7.8
	l-26.8,12.2l-6.4-14L90.5,282.3z"/>
<path class="st9" d="M171.5,257.2l-18.4,9.8l-15.1,9.5c0,0,7.5,6.6,9.6,6.5s5-3.1,5-3.1c0.2,0.5,0.7,1,1.2,1.2c0.9,0.3,2-0.8,2-0.8
	c0.6,0.2,1.3,0.4,2,0.4c0.9,0,2-3.5,2.5-5.8c0.4-1.1,0.3-2.4-0.4-3.5l0.7-0.4l1,1.8l-1.6,5.6c-0.8,3.1,2.1,2.7,2.1,2.7
	s3.3-5.7,3.6-8.9s-2.9-5.3-2.9-5.3s6.8-5.9,8.5-7S171.5,257.2,171.5,257.2z"/>
<path class="st10" d="M112.7,298.9c-0.3-0.6-0.5-1.2-0.6-1.9c-0.6-3.1,0.1-6.4,1.9-9c0.3-0.6,0.8-1,1.3-1.4
	c-1.2,1.8-2.1,3.8-2.6,5.9C112.3,294.6,112.3,296.8,112.7,298.9z"/>
<path class="st6" d="M101.2,238.4c0,0-11.8,3.5-14.1,16c-1.4,7.4,1.9,31.6,1.9,31.6l22.8-8.5L101.2,238.4z"/>
<path class="st4" d="M105.1,255c0.4,1.1,0.7,2.2,0.9,3.4c0.5,2.2,1.2,5,2,8.2s1.5,6.1,2.1,8.1c0.4,1.1,0.7,2.2,0.9,3.4
	c-0.2-0.3-0.3-0.5-0.4-0.8c-0.2-0.6-0.5-1.4-0.9-2.4c-0.7-2-1.5-4.9-2.2-8.1s-1.4-6.1-1.8-8.2C105.4,257.3,105.2,256.2,105.1,255z"
	/>
<path class="st4" d="M105.8,312c0,0-15.1,17.7-14.8,32c0.2,8.6,2.5,17.1,6.7,24.6l20,1.2c0,0,1.8-9.5,8.9-9.5c1.6,0,27.6,50,27.6,50
	l25.6-11.7c0,0-16.8-44.2-20.9-54.6s-8-15.4-13.5-16.9l-6.1-15.5L105.8,312z"/>
<path class="st5" d="M110,329.1c0,0.1-0.9-0.2-2.5-0.3c-2-0.2-3.9,0.1-5.8,0.7c-1.9,0.6-3.6,1.6-5,3c-1.1,1.1-1.6,1.9-1.7,1.8
	s0.1-0.2,0.3-0.6c0.3-0.5,0.7-1,1.1-1.5c1.4-1.5,3.1-2.6,5.1-3.3c1.9-0.6,4-0.8,6-0.6C108.4,328.5,109.2,328.7,110,329.1z"/>
<path class="st5" d="M134.5,325.4c-0.3-2.3-0.4-4.6-0.3-6.9c-0.1-2.3,0-4.6,0.3-6.9c0.3,2.3,0.3,4.6,0.3,6.9
	C134.8,320.8,134.7,323.1,134.5,325.4z"/>
<path class="st5" d="M116.8,311.6c0,0.3-0.1,0.6-0.3,0.8c-0.3,0.7-0.7,1.4-1.1,2c-2.9,4.3-7.8,6.9-12.9,6.8c-0.8,0-1.5-0.1-2.3-0.2
	c-0.3,0-0.6-0.1-0.8-0.2c0-0.1,1.2,0.1,3.1,0.1c5-0.1,9.7-2.6,12.6-6.6C116.3,312.7,116.8,311.6,116.8,311.6z"/>
<path class="st4" d="M169.6,311.3c5.3,5.7,8.9,12.9,10.3,20.6c2.1,12.4,2.2,28.5-1.3,34.5l-10.1,2.3l-8.9,9L147,446.2l-28.6-3.9
	c0,0-2.7-59.6-1.8-65.2s1.1-7.2,1.1-7.2s-0.6-9.3,6.1-16.1c5.2-4.9,10.6-9.6,16.4-13.8l-0.9-28.3L169.6,311.3z"/>
<path class="st5" d="M175.9,321c-0.3,0.2-0.6,0.3-0.9,0.4c-0.9,0.3-1.8,0.5-2.7,0.6c-3.1,0.4-6.2-0.1-8.9-1.4
	c-0.8-0.4-1.5-0.9-2.2-1.5c-0.6-0.5-1.2-1.1-1.8-1.6c-1-0.9-1.9-1.9-2.8-3c-0.8-0.9-1.3-1.6-1.7-2.1c-0.2-0.3-0.4-0.5-0.6-0.8
	c0.9,0.9,1.7,1.8,2.5,2.7c0.8,0.9,1.7,1.9,2.8,2.9c1.2,1.2,2.5,2.2,3.9,3c2.7,1.3,5.7,1.9,8.6,1.5
	C174.5,321.4,175.9,320.9,175.9,321z"/>
<path class="st5" d="M117.8,369.8c0,0,0-0.3,0.2-1c0.1-0.4,0.2-0.8,0.3-1.2c0.1-0.5,0.3-1.1,0.6-1.6c0.6-1.4,1.6-2.7,2.8-3.7
	c1.7-1.3,3.7-2.2,5.9-2.4h0.1v0.1c5.9,11,15.5,28.7,27,50l-0.3-0.1l25.6-11.7l-0.1,0.3c-1.3-3.3-2.7-6.9-4.1-10.4L161.8,353
	c-2.1-5.5-4.2-10.7-6.1-15.7c-0.9-2.4-2.3-4.6-4.2-6.4c-1.8-1.6-3.9-2.8-6.2-3.4l0,0c-5.5-1.6-11.2-2.3-16.9-2
	c-4.3,0.2-8.6,0.9-12.8,2.1c-2.6,0.8-5.2,1.8-7.7,2.9c-0.8,0.4-1.5,0.8-1.9,1l-0.7,0.3c0,0,0.2-0.1,0.6-0.4s1-0.6,1.9-1
	c2.5-1.2,5-2.2,7.7-3c9.7-3,20.1-3.1,29.8-0.3l0,0c2.4,0.6,4.6,1.8,6.4,3.5c1.9,1.8,3.4,4,4.3,6.5c2,5,4,10.2,6.2,15.7
	c4.3,11,8.9,22.8,13.8,35.2c1.4,3.6,2.8,7.1,4.1,10.4l0.1,0.2l-0.2,0.1l-25.6,11.7l-0.2,0.1l-0.1-0.2
	c-11.4-21.4-20.9-39.1-26.8-50.1l0.1,0.1c-2.1,0.2-4.1,1-5.8,2.3c-1.2,1-2.2,2.2-2.8,3.6c-0.2,0.5-0.4,1-0.6,1.5
	c-0.1,0.4-0.2,0.8-0.3,1.2C117.9,369.5,117.8,369.8,117.8,369.8z"/>
<path class="st5" d="M175.9,332.8c-0.1,0.1-1.2-0.7-3.1-1.5c-1.2-0.5-2.3-0.9-3.6-1.1c-1.5-0.3-3-0.5-4.6-0.5
	c-1.5,0-3.1,0.2-4.6,0.5c-1.2,0.3-2.4,0.6-3.6,1.1c-2,0.8-3.1,1.6-3.1,1.5c0.2-0.2,0.5-0.4,0.8-0.6c0.3-0.2,0.6-0.4,0.9-0.6
	c0.4-0.2,0.8-0.5,1.3-0.7c1.2-0.5,2.4-0.9,3.6-1.2c3.1-0.7,6.3-0.7,9.3,0.1c1.2,0.3,2.5,0.8,3.6,1.3c0.4,0.2,0.9,0.4,1.3,0.7
	c0.3,0.2,0.6,0.4,0.9,0.6C175.4,332.4,175.7,332.6,175.9,332.8z"/>
<g class="st8">
	<path d="M127.5,360.2c0,0,7.6,32.3,15.8,41.4s10.5,10.9,10.5,10.9l0.6-2.2L127.5,360.2z"/>
</g>
<path class="st9" d="M172.1,303.5c0,0,0.8-5,3.3-7.9c2.2-2.3,4.5-4.4,7-6.2h1.3l3.3-7.5l9.3-0.5c0,0-2,18.2-6.5,23.7
	s-9.1,5.2-11,4.7S172.1,303.5,172.1,303.5z"/>
<path class="st4" d="M156.1,233.3l-7.4,36.3c-0.3,1.8,0.8,3.5,2.5,3.8c0.2,0,0.4,0.1,0.6,0.1h50.7c1.5,0,2.8-1.1,3.1-2.5l8.1-36.3
	c0.4-1.7-0.7-3.5-2.5-3.9c-0.2-0.1-0.5-0.1-0.7-0.1h-51.4C157.7,230.7,156.4,231.8,156.1,233.3z"/>
<path class="st5" d="M156.1,233.3c0-0.2,0-0.3,0.1-0.5c0.2-0.5,0.4-0.9,0.8-1.3c0.6-0.6,1.4-0.9,2.2-0.9h3.3l21.1-0.1h14.6h12.4
	c1.6-0.1,3,0.9,3.5,2.4c0.2,0.8,0.1,1.6-0.1,2.3c-0.2,0.7-0.3,1.4-0.5,2.2c-0.3,1.5-0.7,3-1,4.5c-0.7,3-1.4,6.1-2.1,9.2l-4.3,19.3
	c-0.1,0.4-0.2,0.9-0.4,1.3c-0.2,0.4-0.5,0.8-0.8,1.1c-0.7,0.6-1.6,0.9-2.5,0.9h-33.2h-16.7c-0.7,0.1-1.4,0-2-0.3
	c-0.6-0.3-1.1-0.7-1.5-1.3c-0.4-0.6-0.5-1.2-0.5-1.9c0.1-0.6,0.2-1.2,0.3-1.8l1.4-6.8c1.8-8.7,3.2-15.8,4.3-20.6
	c0.5-2.4,0.9-4.3,1.2-5.6c0.1-0.6,0.2-1.1,0.3-1.4C156,233.7,156,233.5,156.1,233.3c0,0,0,0.2-0.1,0.5s-0.1,0.8-0.3,1.5
	c-0.2,1.3-0.6,3.2-1.1,5.6c-1,4.9-2.4,12-4.1,20.7c-0.4,2.2-0.9,4.5-1.4,6.9c-0.1,0.6-0.2,1.2-0.3,1.8c0,1.2,0.7,2.3,1.8,2.8
	c0.6,0.2,1.2,0.3,1.8,0.3h16.7h18.5h14.8c0.8,0,1.6-0.2,2.1-0.8c0.3-0.3,0.5-0.6,0.7-0.9c0.2-0.4,0.3-0.8,0.3-1.2
	c1.5-6.6,2.9-13.1,4.3-19.3c0.7-3.1,1.4-6.2,2.1-9.2c0.3-1.5,0.7-3,1-4.5c0.2-0.7,0.3-1.5,0.5-2.2c0.2-0.7,0.3-1.4,0.1-2.1
	c-0.4-1.3-1.6-2.3-3-2.2h-4.2h-8.1h-14.6l-21.1-0.1h-3.3c-0.8,0-1.6,0.3-2.2,0.8C156.6,232.2,156.3,232.7,156.1,233.3z"/>
<path class="st9" d="M186.2,249.9c0,0,6.1,10.4,6.7,11.8s2.5,3.5,2.6,4.8s1.6,8.8,1.4,11.5c-0.2,2.1-0.8,4.1-1.6,6.1l-8.4-2.1
	c-1.3-1.2-2.4-2.7-3.1-4.3c-0.6-1.7-1.8-3.2-3.2-4.4c-1.1-0.8-5.3-3.5-5.8-4.4c-0.4-0.6-0.4-1.4,0-2c0,0-2-0.9-2.3-2s0-2.7,2.2-1.7
	s10.3,6.8,11.1,6.2s-0.2-2.2-0.2-2.2s-8.6-7.9-9.1-9.2s0.8-3.3,2.8-1.6s8.6,8.4,9.3,8.4s-0.1-2-0.1-2s-3.4-7.3-4-9.3
	S184.5,248.9,186.2,249.9z"/>
<path class="st5" d="M214.2,232.9h-0.2h-0.7l-2.8,0.1l-10.2,0.1l-33.8,0.1h-4.9c-0.7-0.1-1.5,0.2-2,0.7c-0.3,0.2-0.5,0.5-0.6,0.9
	c-0.1,0.3-0.2,0.8-0.3,1.1c-0.7,3-1.3,6-1.9,8.8c-1.2,5.6-2.2,10.6-3.1,14.9c-0.9,4.3-1.7,7.6-2.2,10c-0.3,1.1-0.5,2-0.7,2.7
	l-0.2,0.7c0,0.1,0,0.2-0.1,0.2c0-0.1,0-0.2,0-0.2c0-0.2,0.1-0.4,0.1-0.7l0.6-2.7l2.1-10c0.9-4.2,1.9-9.3,3-14.9
	c0.6-2.8,1.2-5.7,1.9-8.8c0.1-0.4,0.1-0.7,0.3-1.2c0.1-0.4,0.4-0.8,0.7-1.1c0.6-0.6,1.5-0.9,2.4-0.8h4.9l33.8,0.1l10.2,0.1l2.8,0.1
	h0.7C214,232.8,214.1,232.8,214.2,232.9z"/>
<path class="st10" d="M173.4,296.9c0-0.3,0.1-0.6,0.3-0.8c0.3-0.7,0.7-1.4,1.2-2c1.5-2.1,3.7-3.6,6.3-4.3c0.7-0.2,1.5-0.3,2.3-0.4
	l-0.2,0.1c1.1-2.1,2-4.1,2.7-5.4c0.3-0.7,0.7-1.5,1.1-2.2c-0.2,0.8-0.5,1.6-0.8,2.3c-0.6,1.4-1.4,3.3-2.6,5.5l-0.1,0.1h-0.1
	c-0.7,0-1.5,0.2-2.2,0.3c-2.4,0.7-4.5,2.1-6.1,4.1C173.9,295.8,173.5,297,173.4,296.9z"/>
<path class="st10" d="M184.2,272.4c-1.7-0.7-3.3-1.6-4.8-2.6c-1.6-0.9-3.1-1.9-4.5-3.1c1.7,0.7,3.3,1.6,4.8,2.6
	C181.3,270.3,182.8,271.3,184.2,272.4z"/>
<path class="st2" d="M187,241.6c-0.4,0.8-1.4,1.2-2.2,0.8c-0.8-0.4-1.2-1.4-0.8-2.2c0.4-0.8,1.2-1.2,2-0.9
	C186.9,239.7,187.3,240.7,187,241.6z"/>
<path class="st4" d="M112,201.8c-0.2-0.3-0.4-0.6-0.6-1c-0.4-1-0.4-2.1-0.2-3.1c0.3-1.6,1.2-3,2.6-3.8c0.8-0.5,1.7-0.8,2.7-0.9
	c0.5-0.1,1,0,1.5,0.1c0.6,0.1,1.1,0.6,1.2,1.2c0.1,0.3,0,0.6-0.2,0.9c-0.2,0.2-0.4,0.4-0.7,0.6c-0.5,0.2-1,0.3-1.6,0.2
	c-1.6-0.3-2.6-1.8-2.4-3.4c0.1-0.3,0.2-0.7,0.4-1c0.3-0.7,0.9-1.2,1.6-1.5c1-0.4,2.2-0.3,3.1,0.2c0.4,0.2,0.7,0.4,0.9,0.8
	c0,0-0.3-0.3-1-0.6c-0.9-0.4-2-0.5-2.9-0.1c-0.6,0.3-1.1,0.8-1.4,1.4c-0.4,0.7-0.4,1.5-0.1,2.2c0.4,0.8,1.1,1.3,1.9,1.4
	c0.4,0.1,0.9,0,1.2-0.2c0.4-0.1,0.6-0.5,0.6-0.9c-0.1-0.4-0.4-0.7-0.8-0.8c-0.4-0.1-0.9-0.1-1.3-0.1c-0.9,0.1-1.7,0.4-2.4,0.9
	c-1.3,0.8-2.2,2-2.5,3.5c-0.2,1-0.2,2,0.1,3C111.8,201.5,112,201.8,112,201.8z"/>
</svg>
