<?xml version="1.0" encoding="utf-8"?>
<!-- Generator: Adobe Illustrator 16.0.3, SVG Export Plug-In . SVG Version: 6.00 Build 0)  -->
<!DOCTYPE svg PUBLIC "-//W3C//DTD SVG 1.1//EN" "http://www.w3.org/Graphics/SVG/1.1/DTD/svg11.dtd">
<svg version="1.1" id="Layer_1" xmlns="http://www.w3.org/2000/svg" xmlns:xlink="http://www.w3.org/1999/xlink" x="0px" y="0px"
	 width="84px" height="173px" viewBox="327 673.5 84 173" enable-background="new 327 673.5 84 173" xml:space="preserve">
<g>
	<path fill="#FFFFFF" d="M401.53,692.849c0.205,0.113,0.42,0.24,0.514,0.468c0.557,1.124,1.104,2.252,1.667,3.375
		c1.243,0.177,2.486,0.356,3.729,0.541c0.25,0.019,0.517,0.162,0.55,0.436c0.064,0.248-0.137,0.44-0.291,0.601
		c-0.884,0.854-1.765,1.714-2.644,2.572c0.211,1.229,0.421,2.455,0.634,3.682c0.053,0.249,0.029,0.558-0.227,0.686
		c-0.232,0.156-0.495,0.005-0.711-0.1c-1.074-0.573-2.151-1.135-3.229-1.7C401.528,699.89,401.513,696.369,401.53,692.849z"/>
	<path fill="#FFFFFF" d="M400.939,710.548c0.119-0.24,0.273-0.554,0.595-0.525c0.287-0.015,0.437,0.256,0.547,0.476
		c0.541,1.104,1.081,2.206,1.63,3.305c1.245,0.178,2.49,0.357,3.734,0.541c0.248,0.021,0.513,0.164,0.544,0.437
		c0.065,0.278-0.177,0.478-0.345,0.657c-0.869,0.833-1.727,1.677-2.59,2.515c0.209,1.229,0.423,2.457,0.635,3.687
		c0.052,0.247,0.027,0.552-0.227,0.68c-0.233,0.161-0.5,0.005-0.716-0.102c-1.072-0.571-2.149-1.132-3.225-1.698
		c-1.146,0.595-2.28,1.209-3.43,1.795c-0.343,0.231-0.849-0.106-0.753-0.51c0.192-1.289,0.44-2.568,0.651-3.854
		c-0.895-0.87-1.788-1.739-2.682-2.609c-0.182-0.169-0.351-0.422-0.221-0.674c0.096-0.275,0.414-0.313,0.659-0.35
		c1.198-0.169,2.396-0.346,3.593-0.52C399.875,712.716,400.412,711.635,400.939,710.548z"/>
	<path fill="#FFFFFF" d="M385.428,727.071c0.2,0.119,0.42,0.241,0.51,0.47c0.552,1.122,1.108,2.243,1.656,3.367
		c1.249,0.192,2.503,0.363,3.756,0.551c0.247,0.02,0.506,0.17,0.533,0.44c0.064,0.274-0.175,0.47-0.342,0.646
		c-0.869,0.835-1.729,1.681-2.592,2.521c0.208,1.21,0.414,2.42,0.626,3.629c0.054,0.256,0.063,0.584-0.203,0.727
		c-0.233,0.171-0.504,0.02-0.724-0.088c-1.074-0.569-2.15-1.137-3.23-1.7C385.423,734.114,385.404,730.591,385.428,727.071z"/>
	<path fill="#FFFFFF" d="M400.94,727.658c0.119-0.238,0.271-0.548,0.588-0.521c0.284-0.019,0.438,0.248,0.549,0.468
		c0.542,1.105,1.083,2.211,1.634,3.311c1.241,0.179,2.483,0.358,3.724,0.541c0.249,0.02,0.52,0.157,0.553,0.432
		c0.07,0.281-0.172,0.483-0.342,0.662c-0.87,0.833-1.729,1.677-2.591,2.517c0.209,1.229,0.423,2.457,0.635,3.685
		c0.053,0.247,0.027,0.557-0.229,0.684c-0.237,0.16-0.502-0.001-0.721-0.107c-1.07-0.571-2.145-1.13-3.216-1.696
		c-1.147,0.596-2.282,1.211-3.433,1.798c-0.347,0.232-0.854-0.116-0.75-0.521c0.191-1.285,0.439-2.562,0.649-3.845
		c-0.878-0.853-1.754-1.707-2.634-2.558c-0.162-0.169-0.377-0.372-0.297-0.633c0.043-0.273,0.315-0.398,0.563-0.419
		c1.239-0.183,2.479-0.359,3.717-0.541C399.875,729.828,400.413,728.744,400.94,727.658z"/>
	<path fill="#FFFFFF" d="M384.844,743.745c0.115-0.243,0.289-0.545,0.607-0.502c0.271-0.004,0.414,0.255,0.521,0.466
		c0.54,1.104,1.082,2.211,1.631,3.312c1.25,0.182,2.502,0.36,3.752,0.545c0.239,0.023,0.489,0.163,0.525,0.421
		c0.075,0.275-0.157,0.48-0.327,0.655c-0.873,0.839-1.736,1.685-2.603,2.532c0.206,1.204,0.41,2.408,0.623,3.613
		c0.052,0.258,0.073,0.591-0.196,0.742c-0.237,0.177-0.513,0.017-0.736-0.09c-1.072-0.571-2.147-1.132-3.221-1.698
		c-1.063,0.553-2.125,1.109-3.18,1.675c-0.17,0.081-0.342,0.177-0.531,0.197c-0.294-0.013-0.545-0.306-0.475-0.599
		c0.197-1.285,0.439-2.561,0.65-3.844c-0.878-0.848-1.747-1.706-2.627-2.553c-0.17-0.17-0.385-0.377-0.305-0.643
		c0.049-0.287,0.342-0.396,0.597-0.421c1.229-0.177,2.457-0.355,3.687-0.536C383.771,745.925,384.313,744.838,384.844,743.745z"/>
	<path fill="#FFFFFF" d="M400.945,743.753c0.117-0.235,0.274-0.54,0.586-0.511c0.275-0.018,0.433,0.236,0.537,0.451
		c0.543,1.11,1.09,2.219,1.638,3.324c1.21,0.178,2.419,0.357,3.627,0.527c0.235,0.035,0.533,0.083,0.623,0.343
		c0.132,0.267-0.056,0.527-0.245,0.701c-0.888,0.861-1.772,1.722-2.656,2.586c0.206,1.195,0.408,2.391,0.621,3.587
		c0.037,0.246,0.094,0.559-0.141,0.73c-0.212,0.194-0.504,0.104-0.723-0.021c-1.096-0.576-2.19-1.156-3.288-1.73
		c-1.091,0.57-2.181,1.142-3.267,1.719c-0.225,0.121-0.524,0.239-0.741,0.036c-0.254-0.182-0.179-0.515-0.14-0.775
		c0.21-1.183,0.41-2.367,0.614-3.551c-0.882-0.852-1.757-1.71-2.637-2.562c-0.164-0.167-0.375-0.371-0.294-0.631
		c0.043-0.276,0.322-0.396,0.571-0.418c1.235-0.183,2.472-0.358,3.709-0.541C399.877,745.929,400.416,744.844,400.945,743.753z"/>
	<path fill="#FFFFFF" d="M384.846,760.855c0.115-0.243,0.288-0.544,0.604-0.498c0.27-0.005,0.413,0.248,0.519,0.458
		c0.543,1.107,1.084,2.216,1.636,3.317c1.252,0.181,2.501,0.361,3.751,0.546c0.235,0.021,0.485,0.158,0.523,0.414
		c0.079,0.273-0.153,0.481-0.321,0.658c-0.876,0.838-1.739,1.688-2.607,2.531c0.201,1.183,0.402,2.365,0.613,3.546
		c0.031,0.256,0.118,0.579-0.124,0.764c-0.237,0.235-0.562,0.085-0.807-0.047c-1.068-0.569-2.142-1.128-3.21-1.693
		c-1.067,0.554-2.131,1.113-3.19,1.679c-0.166,0.08-0.334,0.175-0.521,0.194c-0.294-0.01-0.55-0.307-0.478-0.6
		c0.195-1.284,0.442-2.562,0.649-3.845c-0.841-0.811-1.671-1.632-2.515-2.439c-0.134-0.135-0.275-0.264-0.375-0.425
		c-0.159-0.286,0.048-0.682,0.372-0.713c1.287-0.211,2.581-0.377,3.87-0.572C383.771,763.037,384.313,761.949,384.846,760.855z"/>
	<path fill="#FFFFFF" d="M400.945,760.865c0.117-0.24,0.282-0.549,0.602-0.509c0.306-0.004,0.446,0.302,0.565,0.535
		c0.526,1.083,1.062,2.161,1.596,3.241c1.299,0.197,2.606,0.358,3.901,0.579c0.4,0.066,0.518,0.632,0.208,0.876
		c-0.911,0.909-1.845,1.794-2.763,2.697c0.206,1.196,0.409,2.396,0.622,3.591c0.036,0.243,0.093,0.551-0.139,0.723
		c-0.206,0.199-0.502,0.111-0.719-0.012c-1.098-0.579-2.195-1.159-3.295-1.735c-1.146,0.594-2.278,1.208-3.427,1.794
		c-0.35,0.24-0.868-0.115-0.755-0.528c0.191-1.282,0.44-2.554,0.647-3.836c-0.918-0.893-1.84-1.782-2.751-2.681
		c-0.331-0.252-0.199-0.846,0.225-0.896c1.288-0.212,2.585-0.378,3.877-0.572C399.876,763.041,400.417,761.956,400.945,760.865z"/>
	<path fill="#FFFFFF" d="M369.323,760.288c0.192,0.12,0.413,0.233,0.503,0.458c0.555,1.128,1.109,2.254,1.664,3.382
		c1.258,0.19,2.52,0.362,3.777,0.555c0.237,0.021,0.479,0.173,0.51,0.427c0.068,0.268-0.16,0.465-0.322,0.638
		c-0.876,0.841-1.742,1.69-2.611,2.535c0.21,1.246,0.431,2.488,0.64,3.733c0.069,0.255-0.021,0.556-0.281,0.662
		c-0.229,0.122-0.462-0.041-0.668-0.128c-1.071-0.573-2.149-1.135-3.226-1.701C369.319,767.329,369.29,763.81,369.323,760.288z"/>
	<path fill="#FFFFFF" d="M368.784,777.884c0.1-0.226,0.287-0.454,0.56-0.416c0.306,0,0.44,0.308,0.558,0.538
		c0.521,1.082,1.062,2.153,1.587,3.234c1.286,0.201,2.581,0.362,3.866,0.572c0.312,0.033,0.519,0.393,0.396,0.68
		c-0.103,0.186-0.265,0.33-0.412,0.48c-0.84,0.8-1.66,1.616-2.495,2.42c0.208,1.282,0.453,2.559,0.649,3.844
		c0.077,0.309-0.208,0.614-0.518,0.601c-0.339-0.092-0.641-0.283-0.949-0.443c-0.9-0.48-1.809-0.948-2.708-1.43
		c-1.169,0.592-2.314,1.235-3.488,1.815c-0.344,0.199-0.809-0.169-0.702-0.549c0.194-1.283,0.442-2.558,0.648-3.838
		c-0.861-0.828-1.706-1.67-2.571-2.494c-0.136-0.146-0.299-0.281-0.361-0.474c-0.067-0.284,0.139-0.584,0.429-0.612
		c1.282-0.207,2.571-0.375,3.854-0.572C367.681,780.122,368.233,779.003,368.784,777.884z"/>
	<path fill="#FFFFFF" d="M384.844,777.972c0.115-0.243,0.288-0.547,0.606-0.504c0.27-0.007,0.413,0.252,0.519,0.462
		c0.541,1.105,1.085,2.21,1.631,3.314c1.281,0.191,2.565,0.361,3.846,0.565c0.318,0.027,0.536,0.39,0.411,0.686
		c-0.089,0.165-0.231,0.295-0.362,0.429c-0.854,0.816-1.697,1.647-2.544,2.473c0.205,1.203,0.41,2.407,0.623,3.611
		c0.053,0.262,0.072,0.6-0.204,0.749c-0.237,0.169-0.508,0.011-0.73-0.097c-1.07-0.57-2.147-1.131-3.219-1.696
		c-1.14,0.589-2.268,1.202-3.41,1.785c-0.351,0.251-0.885-0.095-0.775-0.517c0.198-1.282,0.441-2.559,0.65-3.839
		c-0.932-0.911-1.877-1.809-2.796-2.733c-0.298-0.266-0.112-0.811,0.28-0.847c1.286-0.209,2.579-0.376,3.867-0.573
		C383.771,780.151,384.313,779.064,384.844,777.972z"/>
	<path fill="#FFFFFF" d="M401.068,777.757c0.158-0.395,0.769-0.377,0.92,0.017c0.585,1.149,1.139,2.314,1.718,3.469
		c1.273,0.191,2.55,0.362,3.823,0.562c0.331,0.021,0.568,0.392,0.431,0.699c-0.095,0.165-0.235,0.293-0.366,0.427
		c-0.852,0.818-1.693,1.645-2.539,2.467c0.211,1.278,0.455,2.552,0.65,3.833c0.078,0.319-0.221,0.641-0.541,0.602
		c-0.312-0.091-0.589-0.266-0.875-0.412c-0.922-0.488-1.844-0.97-2.767-1.455c-1.089,0.571-2.179,1.143-3.265,1.719
		c-0.225,0.122-0.524,0.239-0.741,0.037c-0.256-0.18-0.177-0.517-0.139-0.779c0.209-1.18,0.409-2.364,0.613-3.547
		c-0.882-0.854-1.759-1.714-2.642-2.565c-0.197-0.18-0.402-0.45-0.257-0.725c0.101-0.27,0.413-0.303,0.655-0.341
		c1.199-0.169,2.396-0.345,3.593-0.522C399.922,780.084,400.475,778.91,401.068,777.757z"/>
	<path fill="#FFFFFF" d="M353.161,797.546c0.209,0.088,0.447,0.177,0.536,0.408c0.571,1.137,1.125,2.281,1.69,3.421
		c1.292,0.198,2.588,0.359,3.876,0.574c0.409,0.045,0.561,0.619,0.243,0.874c-0.913,0.912-1.849,1.802-2.77,2.705
		c0.212,1.255,0.439,2.505,0.644,3.762c0.103,0.323-0.148,0.676-0.49,0.68c-0.368-0.083-0.682-0.304-1.015-0.47
		c-0.906-0.474-1.805-0.964-2.721-1.419C353.149,804.569,353.136,801.059,353.161,797.546z"/>
	<path fill="#FFFFFF" d="M368.851,797.899c0.145-0.386,0.745-0.401,0.907-0.021c0.6,1.154,1.151,2.335,1.736,3.497
		c1.287,0.197,2.581,0.361,3.865,0.572c0.422,0.038,0.571,0.632,0.244,0.886c-0.91,0.907-1.844,1.796-2.76,2.696
		c0.212,1.293,0.462,2.579,0.654,3.875c0.077,0.416-0.452,0.713-0.784,0.476c-1.138-0.585-2.267-1.19-3.399-1.784
		c-1.068,0.558-2.136,1.117-3.199,1.686c-0.232,0.114-0.522,0.283-0.767,0.102c-0.254-0.145-0.254-0.46-0.197-0.708
		c0.209-1.216,0.42-2.431,0.627-3.646c-0.887-0.865-1.775-1.731-2.664-2.593c-0.181-0.172-0.367-0.415-0.245-0.674
		c0.089-0.295,0.427-0.331,0.686-0.371c1.191-0.166,2.381-0.345,3.572-0.517C367.708,800.218,368.262,799.049,368.851,797.899z"/>
	<path fill="#FFFFFF" d="M384.869,798.054c0.106-0.234,0.287-0.495,0.582-0.454c0.28-0.002,0.419,0.27,0.529,0.486
		c0.535,1.098,1.08,2.192,1.617,3.288c1.277,0.193,2.559,0.362,3.832,0.566c0.307,0.017,0.526,0.337,0.447,0.633
		c-0.078,0.204-0.255,0.347-0.401,0.501c-0.85,0.811-1.683,1.639-2.525,2.455c0.209,1.256,0.438,2.512,0.643,3.769
		c0.103,0.331-0.17,0.695-0.52,0.668c-0.203-0.049-0.386-0.148-0.569-0.242c-1.022-0.552-2.058-1.082-3.084-1.629
		c-1.099,0.574-2.195,1.153-3.292,1.732c-0.225,0.13-0.532,0.216-0.739,0.006c-0.235-0.191-0.152-0.513-0.116-0.765
		c0.21-1.181,0.409-2.361,0.613-3.54c-0.871-0.845-1.738-1.694-2.611-2.538c-0.195-0.187-0.435-0.441-0.296-0.732
		c0.089-0.289,0.419-0.324,0.671-0.363c1.196-0.168,2.389-0.348,3.583-0.518C383.779,800.27,384.327,799.162,384.869,798.054z"/>
	<path fill="#FFFFFF" d="M400.973,798.06c0.101-0.188,0.209-0.425,0.448-0.45c0.292-0.077,0.523,0.155,0.626,0.402
		c0.553,1.119,1.105,2.239,1.655,3.36c1.283,0.201,2.575,0.361,3.856,0.573c0.395,0.026,0.587,0.57,0.298,0.839
		c-0.916,0.933-1.873,1.825-2.802,2.745c0.211,1.248,0.435,2.493,0.641,3.74c0.115,0.341-0.158,0.732-0.526,0.695
		c-0.206-0.05-0.39-0.155-0.575-0.25c-1.019-0.548-2.047-1.077-3.069-1.62c-1.075,0.564-2.15,1.125-3.219,1.697
		c-0.232,0.119-0.531,0.272-0.768,0.075c-0.26-0.167-0.212-0.502-0.167-0.76c0.214-1.193,0.414-2.387,0.62-3.579
		c-0.875-0.851-1.747-1.706-2.626-2.551c-0.189-0.185-0.418-0.44-0.281-0.72c0.096-0.289,0.423-0.328,0.679-0.364
		c1.191-0.167,2.381-0.349,3.573-0.515C399.888,800.275,400.428,799.166,400.973,798.06z"/>
	<path fill="#FFFFFF" d="M352.756,814.992c0.151-0.368,0.733-0.372,0.892-0.009c0.601,1.155,1.154,2.339,1.739,3.504
		c1.258,0.188,2.52,0.361,3.777,0.555c0.242,0.017,0.478,0.175,0.509,0.433c0.062,0.268-0.169,0.462-0.334,0.636
		c-0.873,0.84-1.733,1.689-2.604,2.532c0.213,1.254,0.441,2.506,0.645,3.762c0.099,0.32-0.145,0.672-0.483,0.678
		c-0.233-0.043-0.441-0.162-0.649-0.269c-1.005-0.544-2.025-1.06-3.027-1.604c-1.128,0.569-2.237,1.175-3.358,1.755
		c-0.211,0.12-0.491,0.17-0.683-0.016c-0.243-0.193-0.153-0.526-0.116-0.785c0.208-1.174,0.406-2.349,0.61-3.521
		c-0.885-0.863-1.77-1.729-2.658-2.588c-0.184-0.173-0.374-0.42-0.25-0.684c0.093-0.304,0.441-0.329,0.703-0.371
		c1.186-0.165,2.369-0.342,3.555-0.515C351.606,817.325,352.16,816.147,352.756,814.992z"/>
	<path fill="#FFFFFF" d="M368.857,815.001c0.15-0.379,0.742-0.387,0.9-0.01c0.6,1.155,1.152,2.333,1.736,3.495
		c1.285,0.197,2.578,0.362,3.863,0.572c0.418,0.037,0.575,0.62,0.254,0.879c-0.914,0.911-1.848,1.801-2.768,2.706
		c0.212,1.291,0.461,2.575,0.654,3.869c0.079,0.418-0.452,0.72-0.786,0.478c-1.138-0.584-2.265-1.187-3.395-1.78
		c-1.122,0.577-2.236,1.175-3.355,1.759c-0.21,0.119-0.489,0.162-0.677-0.021c-0.244-0.196-0.151-0.532-0.112-0.794
		c0.209-1.169,0.405-2.34,0.607-3.511c-0.887-0.867-1.775-1.73-2.665-2.594c-0.182-0.173-0.37-0.424-0.239-0.684
		c0.095-0.291,0.431-0.321,0.688-0.362c1.189-0.167,2.376-0.344,3.565-0.516C367.71,817.329,368.264,816.154,368.857,815.001z"/>
	<path fill="#FFFFFF" d="M384.832,815.24c0.114-0.214,0.225-0.5,0.504-0.523c0.29-0.063,0.505,0.173,0.609,0.415
		c0.553,1.117,1.103,2.238,1.654,3.355c1.282,0.194,2.568,0.361,3.848,0.567c0.436,0.029,0.596,0.638,0.255,0.897
		c-0.908,0.904-1.838,1.79-2.752,2.688c0.209,1.256,0.437,2.508,0.642,3.764c0.104,0.331-0.167,0.703-0.521,0.673
		c-0.202-0.046-0.384-0.148-0.565-0.239c-1.023-0.552-2.06-1.083-3.086-1.63c-1.071,0.563-2.144,1.12-3.212,1.691
		c-0.23,0.117-0.522,0.276-0.762,0.09c-0.252-0.148-0.241-0.465-0.188-0.712c0.21-1.211,0.419-2.425,0.627-3.635
		c-0.889-0.868-1.778-1.733-2.67-2.598c-0.181-0.17-0.361-0.418-0.237-0.674c0.094-0.299,0.438-0.329,0.698-0.369
		c1.187-0.166,2.371-0.343,3.556-0.513C383.767,817.406,384.305,816.324,384.832,815.24z"/>
	<path fill="#FFFFFF" d="M400.935,815.245c0.116-0.208,0.217-0.49,0.487-0.524c0.29-0.077,0.521,0.153,0.623,0.399
		c0.555,1.122,1.104,2.245,1.66,3.367c1.282,0.194,2.568,0.359,3.85,0.568c0.396,0.022,0.594,0.573,0.301,0.844
		c-0.917,0.932-1.875,1.822-2.802,2.745c0.206,1.175,0.401,2.352,0.611,3.525c0.04,0.265,0.122,0.608-0.138,0.795
		c-0.232,0.208-0.544,0.071-0.776-0.056c-1.071-0.573-2.152-1.131-3.226-1.701c-1.069,0.56-2.138,1.118-3.203,1.687
		c-0.233,0.117-0.535,0.286-0.775,0.089c-0.271-0.163-0.222-0.508-0.176-0.768c0.214-1.191,0.414-2.385,0.62-3.573
		c-0.875-0.853-1.747-1.706-2.624-2.552c-0.161-0.17-0.376-0.36-0.313-0.62c0.035-0.288,0.323-0.429,0.587-0.444
		c1.231-0.18,2.463-0.358,3.696-0.537C399.874,817.408,400.406,816.328,400.935,815.245z"/>
	<path fill="#FFFFFF" d="M336.658,832.095c0.164-0.372,0.75-0.353,0.898,0.022c0.591,1.152,1.147,2.326,1.728,3.484
		c1.265,0.187,2.53,0.36,3.792,0.555c0.326,0.012,0.579,0.34,0.483,0.658c-0.086,0.18-0.233,0.316-0.372,0.456
		c-0.856,0.822-1.703,1.657-2.555,2.481c0.211,1.252,0.435,2.5,0.642,3.752c0.101,0.319-0.129,0.674-0.469,0.69
		c-0.209-0.027-0.397-0.135-0.583-0.228c-1.039-0.556-2.083-1.101-3.127-1.647c-1.129,0.596-2.256,1.196-3.389,1.782
		c-0.284,0.194-0.711,0.042-0.789-0.295c-0.017-0.221,0.026-0.437,0.062-0.649c0.205-1.133,0.391-2.269,0.59-3.401
		c-0.865-0.842-1.725-1.688-2.595-2.521c-0.191-0.19-0.442-0.433-0.321-0.729c0.072-0.277,0.378-0.348,0.624-0.378
		c1.214-0.175,2.427-0.352,3.641-0.528C335.503,834.433,336.057,833.25,336.658,832.095z"/>
	<path fill="#FFFFFF" d="M352.757,832.104c0.155-0.37,0.737-0.369,0.895-0.001c0.599,1.154,1.151,2.334,1.736,3.497
		c1.257,0.188,2.518,0.36,3.774,0.552c0.242,0.02,0.482,0.178,0.511,0.437c0.062,0.267-0.169,0.461-0.33,0.634
		c-0.875,0.839-1.737,1.689-2.607,2.532c0.211,1.254,0.439,2.504,0.644,3.759c0.102,0.324-0.145,0.68-0.489,0.684
		c-0.314-0.069-0.588-0.25-0.871-0.395c-0.938-0.498-1.878-0.992-2.821-1.48c-1.082,0.574-2.172,1.14-3.253,1.716
		c-0.231,0.13-0.543,0.242-0.763,0.027c-0.25-0.195-0.155-0.531-0.118-0.795c0.208-1.17,0.406-2.345,0.608-3.518
		c-0.89-0.861-1.773-1.728-2.663-2.588c-0.182-0.173-0.368-0.42-0.245-0.68c0.097-0.302,0.445-0.329,0.707-0.371
		c1.186-0.165,2.368-0.343,3.551-0.514C351.606,834.437,352.16,833.258,352.757,832.104z"/>
	<path fill="#FFFFFF" d="M368.729,832.347c0.116-0.217,0.232-0.503,0.516-0.52c0.285-0.053,0.49,0.179,0.595,0.414
		c0.551,1.119,1.101,2.239,1.652,3.358c1.287,0.197,2.579,0.36,3.863,0.571c0.422,0.037,0.579,0.626,0.252,0.883
		c-0.912,0.909-1.848,1.799-2.764,2.702c0.212,1.286,0.46,2.57,0.652,3.86c0.089,0.419-0.446,0.729-0.782,0.487
		c-1.137-0.584-2.264-1.187-3.393-1.782c-1.1,0.564-2.19,1.146-3.283,1.724c-0.213,0.107-0.478,0.227-0.695,0.061
		c-0.249-0.148-0.247-0.464-0.191-0.711c0.21-1.212,0.418-2.428,0.627-3.643c-0.891-0.865-1.779-1.731-2.671-2.597
		c-0.182-0.173-0.36-0.42-0.235-0.676c0.095-0.295,0.433-0.323,0.691-0.363c1.188-0.167,2.375-0.346,3.563-0.517
		C367.663,834.518,368.201,833.434,368.729,832.347z"/>
	<path fill="#FFFFFF" d="M384.957,832.122c0.141-0.38,0.735-0.399,0.899-0.029c0.603,1.156,1.158,2.339,1.741,3.507
		c1.283,0.196,2.57,0.36,3.852,0.568c0.431,0.027,0.594,0.629,0.259,0.89c-0.911,0.909-1.842,1.795-2.759,2.696
		c0.211,1.255,0.438,2.508,0.644,3.764c0.104,0.333-0.17,0.703-0.524,0.672c-0.202-0.049-0.383-0.148-0.565-0.24
		c-1.023-0.553-2.058-1.083-3.085-1.63c-1.071,0.563-2.144,1.123-3.213,1.693c-0.229,0.114-0.518,0.275-0.756,0.091
		c-0.256-0.146-0.244-0.466-0.189-0.714c0.209-1.213,0.419-2.424,0.625-3.638c-0.873-0.849-1.743-1.699-2.619-2.545
		c-0.192-0.184-0.42-0.434-0.29-0.718c0.091-0.299,0.437-0.335,0.697-0.375c1.186-0.166,2.373-0.343,3.56-0.513
		C383.813,834.444,384.367,833.275,384.957,832.122z"/>
	<path fill="#FFFFFF" d="M400.938,832.352c0.114-0.207,0.219-0.49,0.492-0.52c0.288-0.071,0.515,0.16,0.617,0.404
		c0.553,1.12,1.105,2.242,1.657,3.363c1.278,0.193,2.563,0.36,3.84,0.566c0.305,0.021,0.521,0.344,0.438,0.639
		c-0.072,0.174-0.218,0.306-0.346,0.441c-0.866,0.832-1.724,1.672-2.582,2.511c0.214,1.287,0.463,2.569,0.653,3.859
		c0.084,0.383-0.388,0.713-0.723,0.514c-1.162-0.584-2.306-1.209-3.459-1.811c-1.071,0.561-2.142,1.121-3.208,1.691
		c-0.233,0.116-0.534,0.28-0.772,0.087c-0.267-0.168-0.22-0.506-0.174-0.765c0.212-1.192,0.414-2.388,0.62-3.581
		c-0.876-0.85-1.745-1.703-2.624-2.549c-0.193-0.184-0.42-0.443-0.281-0.727c0.094-0.284,0.42-0.321,0.672-0.358
		c1.192-0.167,2.386-0.347,3.578-0.517C399.875,834.521,400.407,833.438,400.938,832.352z"/>
	<path fill="#FEC107" d="M336.239,676.213c0.135-0.268,0.285-0.581,0.6-0.668c0.402-0.146,0.86,0.083,1.018,0.472
		c0.545,1.094,1.081,2.192,1.621,3.288c1.23,0.187,2.464,0.347,3.691,0.545c0.648,0.044,0.941,0.942,0.458,1.367
		c-0.882,0.883-1.787,1.742-2.678,2.616c0.195,1.131,0.385,2.264,0.588,3.395c0.044,0.292,0.112,0.628-0.084,0.884
		c-0.227,0.347-0.716,0.447-1.071,0.242c-1.1-0.566-2.188-1.156-3.287-1.723c-1.004,0.536-2.016,1.056-3.018,1.595
		c-0.264,0.134-0.557,0.304-0.865,0.212c-0.417-0.099-0.69-0.552-0.584-0.968c0.197-1.213,0.418-2.423,0.621-3.636
		c-0.83-0.803-1.649-1.616-2.484-2.415c-0.207-0.204-0.445-0.436-0.437-0.752c-0.017-0.403,0.299-0.775,0.701-0.817
		c1.232-0.201,2.472-0.349,3.703-0.554C335.224,678.262,335.744,677.243,336.239,676.213z"/>
	<path fill="#FEC107" d="M352.333,676.24c0.139-0.268,0.277-0.596,0.596-0.69c0.402-0.156,0.873,0.069,1.033,0.463
		c0.544,1.093,1.081,2.192,1.619,3.287c1.156,0.177,2.313,0.34,3.471,0.507c0.269,0.047,0.58,0.09,0.749,0.333
		c0.262,0.315,0.226,0.816-0.08,1.09c-0.878,0.877-1.778,1.732-2.665,2.602c0.204,1.211,0.425,2.421,0.62,3.633
		c0.099,0.392-0.131,0.824-0.515,0.951c-0.256,0.104-0.532,0.015-0.763-0.107c-1.069-0.558-2.13-1.131-3.205-1.68
		c-1.107,0.586-2.209,1.181-3.327,1.747c-0.524,0.297-1.25-0.2-1.143-0.798c0.183-1.252,0.429-2.496,0.63-3.746
		c-0.885-0.867-1.782-1.725-2.662-2.6c-0.306-0.273-0.344-0.773-0.083-1.09c0.171-0.244,0.483-0.293,0.754-0.336
		c1.159-0.166,2.316-0.326,3.472-0.51C351.326,678.275,351.841,677.263,352.333,676.24z"/>
	<path fill="#FEC107" d="M368.596,675.944c0.247-0.573,1.155-0.584,1.419-0.02c0.57,1.115,1.114,2.244,1.662,3.371
		c1.236,0.206,2.48,0.353,3.716,0.556c0.396,0.045,0.704,0.417,0.689,0.814c0.007,0.284-0.188,0.507-0.378,0.693
		c-0.851,0.822-1.695,1.65-2.544,2.475c0.203,1.213,0.424,2.422,0.621,3.635c0.108,0.419-0.17,0.872-0.589,0.968
		c-0.305,0.089-0.594-0.078-0.854-0.21c-1-0.539-2.015-1.053-3.014-1.597c-1.128,0.567-2.23,1.186-3.36,1.75
		c-0.523,0.292-1.242-0.207-1.133-0.802c0.178-1.252,0.427-2.495,0.629-3.744c-0.836-0.813-1.668-1.629-2.507-2.438
		c-0.199-0.199-0.423-0.427-0.415-0.731c-0.014-0.4,0.299-0.775,0.701-0.815c1.229-0.199,2.465-0.355,3.695-0.548
		C367.49,678.182,368.029,677.056,368.596,675.944z"/>
	<path fill="#FEC107" d="M384.576,676.173c0.128-0.244,0.266-0.526,0.548-0.617c0.358-0.144,0.809,0.005,0.988,0.355
		c0.587,1.101,1.082,2.252,1.679,3.348c0.18,0.093,0.387,0.101,0.584,0.135c1.048,0.148,2.097,0.29,3.141,0.459
		c0.39,0.052,0.686,0.419,0.673,0.809c0.01,0.317-0.231,0.551-0.439,0.758c-0.833,0.799-1.654,1.611-2.481,2.413
		c0.205,1.215,0.423,2.428,0.623,3.645c0.103,0.423-0.187,0.878-0.611,0.965c-0.303,0.078-0.588-0.093-0.85-0.223
		c-1-0.539-2.009-1.059-3.013-1.591c-1.121,0.581-2.229,1.189-3.358,1.755c-0.549,0.291-1.259-0.257-1.119-0.862
		c0.195-1.231,0.422-2.459,0.628-3.691c-0.874-0.85-1.749-1.698-2.62-2.552c-0.301-0.256-0.403-0.718-0.181-1.058
		c0.15-0.282,0.476-0.371,0.77-0.409c1.169-0.166,2.335-0.339,3.502-0.508C383.549,678.259,384.069,677.221,384.576,676.173z"/>
	<path fill="#FEC107" d="M400.799,675.958c0.174-0.391,0.675-0.567,1.06-0.383c0.267,0.108,0.392,0.387,0.518,0.625
		c0.501,1.041,1.019,2.071,1.526,3.106c1.211,0.18,2.422,0.345,3.631,0.532c0.425,0.023,0.781,0.403,0.759,0.831
		c0.01,0.319-0.236,0.552-0.444,0.761c-0.833,0.795-1.651,1.604-2.476,2.407c0.208,1.251,0.447,2.498,0.635,3.751
		c0.098,0.609-0.647,1.093-1.173,0.78c-1.108-0.569-2.204-1.16-3.31-1.737c-1.022,0.539-2.049,1.072-3.066,1.617
		c-0.259,0.132-0.552,0.285-0.848,0.184c-0.407-0.111-0.663-0.559-0.559-0.968c0.198-1.209,0.416-2.419,0.622-3.628
		c-0.893-0.883-1.808-1.741-2.69-2.631c-0.46-0.418-0.185-1.287,0.439-1.347c1.236-0.207,2.481-0.362,3.722-0.552
		C399.699,678.19,400.235,677.066,400.799,675.958z"/>
	<path fill="#FEC107" d="M400.542,692.923c0.215-0.45,0.752-0.7,1.234-0.573c0.355,0.068,0.627,0.345,0.778,0.663
		c0.514,1.045,1.028,2.087,1.541,3.133c1.222,0.19,2.448,0.337,3.665,0.548c0.792,0.152,1.11,1.27,0.521,1.821
		c-0.854,0.854-1.73,1.687-2.592,2.534c0.187,1.064,0.361,2.131,0.555,3.195c0.061,0.358,0.129,0.762-0.088,1.085
		c-0.283,0.5-0.977,0.69-1.478,0.402c-1.055-0.544-2.102-1.104-3.154-1.656c-1.078,0.556-2.143,1.141-3.227,1.686
		c-0.709,0.384-1.662-0.272-1.555-1.069c0.173-1.219,0.416-2.429,0.612-3.644c-0.873-0.867-1.775-1.705-2.633-2.583
		c-0.548-0.571-0.191-1.646,0.586-1.779c1.212-0.207,2.435-0.349,3.648-0.547C399.48,695.065,400.004,693.991,400.542,692.923
		 M401.53,692.849c-0.018,3.52-0.002,7.041-0.008,10.561c1.077,0.564,2.154,1.127,3.229,1.7c0.216,0.104,0.479,0.255,0.711,0.1
		c0.256-0.128,0.279-0.437,0.227-0.686c-0.213-1.228-0.423-2.453-0.634-3.682c0.879-0.858,1.76-1.718,2.644-2.572
		c0.154-0.161,0.355-0.353,0.291-0.601c-0.033-0.274-0.3-0.417-0.55-0.436c-1.242-0.184-2.485-0.363-3.729-0.541
		c-0.563-1.123-1.11-2.25-1.667-3.375C401.95,693.089,401.735,692.962,401.53,692.849z"/>
	<path fill="#FEC107" d="M336.229,693.346c0.14-0.274,0.286-0.6,0.609-0.69c0.402-0.146,0.858,0.083,1.017,0.472
		c0.543,1.092,1.082,2.188,1.62,3.285c1.239,0.195,2.487,0.351,3.728,0.553c0.497,0.063,0.815,0.653,0.604,1.105
		c-0.125,0.239-0.336,0.416-0.523,0.605c-0.783,0.75-1.554,1.514-2.333,2.267c0.201,1.19,0.41,2.379,0.614,3.568
		c0.067,0.321,0.001,0.692-0.283,0.891c-0.28,0.235-0.682,0.198-0.983,0.021c-1.067-0.559-2.133-1.125-3.203-1.683
		c-1.002,0.532-2.01,1.054-3.01,1.589c-0.266,0.135-0.557,0.309-0.867,0.221c-0.418-0.095-0.699-0.549-0.593-0.966
		c0.198-1.215,0.419-2.426,0.623-3.64c-0.901-0.885-1.821-1.754-2.709-2.652c-0.417-0.404-0.178-1.21,0.396-1.311
		c1.204-0.221,2.428-0.341,3.635-0.55c0.194-0.006,0.237-0.223,0.322-0.355C335.333,695.163,335.789,694.259,336.229,693.346z"/>
	<path fill="#FEC107" d="M352.339,693.339c0.137-0.268,0.277-0.586,0.591-0.68c0.398-0.152,0.866,0.068,1.025,0.458
		c0.546,1.095,1.083,2.196,1.624,3.293c1.19,0.187,2.384,0.348,3.575,0.526c0.323,0.029,0.653,0.199,0.764,0.522
		c0.147,0.332,0.008,0.711-0.252,0.942c-0.869,0.849-1.74,1.696-2.612,2.544c0.195,1.129,0.385,2.26,0.585,3.39
		c0.045,0.295,0.115,0.637-0.085,0.894c-0.237,0.349-0.733,0.439-1.089,0.226c-1.091-0.564-2.174-1.148-3.266-1.713
		c-1.109,0.582-2.212,1.178-3.328,1.746c-0.524,0.299-1.253-0.195-1.149-0.794c0.184-1.253,0.429-2.499,0.633-3.749
		c-0.904-0.889-1.828-1.757-2.717-2.659c-0.407-0.405-0.166-1.201,0.401-1.302c1.26-0.229,2.539-0.357,3.799-0.581
		C351.33,695.376,351.848,694.363,352.339,693.339z"/>
	<path fill="#FEC107" d="M368.477,693.276c0.125-0.243,0.264-0.522,0.544-0.61c0.364-0.144,0.817,0.015,0.993,0.368
		c0.583,1.101,1.08,2.247,1.672,3.34c1.238,0.296,2.533,0.356,3.784,0.608c0.574,0.095,0.816,0.896,0.408,1.303
		c-0.892,0.899-1.813,1.771-2.716,2.66c0.202,1.213,0.423,2.425,0.621,3.639c0.106,0.414-0.17,0.865-0.583,0.963
		c-0.248,0.077-0.496-0.022-0.712-0.133c-1.066-0.557-2.121-1.13-3.193-1.671c-1.004,0.546-2.025,1.063-3.031,1.606
		c-0.271,0.141-0.587,0.303-0.897,0.182c-0.393-0.122-0.622-0.553-0.525-0.951c0.195-1.212,0.416-2.423,0.621-3.634
		c-0.835-0.813-1.667-1.628-2.506-2.436c-0.199-0.199-0.422-0.426-0.414-0.729c-0.023-0.426,0.327-0.798,0.746-0.832
		c1.215-0.183,2.433-0.351,3.646-0.534C367.446,695.368,367.968,694.325,368.477,693.276z"/>
	<path fill="#FEC107" d="M384.657,693.133c0.137-0.31,0.444-0.546,0.794-0.517c0.344-0.002,0.61,0.254,0.742,0.55
		c0.531,1.078,1.07,2.153,1.59,3.236c1.239,0.213,2.489,0.357,3.729,0.563c0.393,0.051,0.695,0.423,0.676,0.819
		c0.006,0.312-0.232,0.541-0.437,0.746c-0.833,0.8-1.658,1.611-2.484,2.417c0.205,1.25,0.446,2.495,0.633,3.748
		c0.074,0.472-0.369,0.91-0.834,0.879c-0.259-0.028-0.485-0.167-0.712-0.283c-0.976-0.523-1.959-1.031-2.938-1.549
		c-1.016,0.538-2.038,1.067-3.051,1.61c-0.26,0.132-0.553,0.289-0.851,0.193c-0.4-0.105-0.667-0.535-0.572-0.942
		c0.197-1.222,0.42-2.439,0.625-3.66c-0.84-0.814-1.674-1.635-2.518-2.444c-0.194-0.195-0.413-0.42-0.402-0.716
		c-0.021-0.401,0.292-0.78,0.692-0.821c1.23-0.202,2.468-0.358,3.699-0.547C383.578,695.322,384.114,694.225,384.657,693.133z"/>
	<path fill="#FEC107" d="M400.498,710.116c0.189-0.444,0.668-0.748,1.155-0.675c0.407,0.033,0.738,0.329,0.903,0.689
		c0.513,1.042,1.027,2.084,1.539,3.127c1.219,0.193,2.446,0.336,3.66,0.549c0.795,0.149,1.115,1.267,0.527,1.818
		c-0.854,0.857-1.732,1.689-2.594,2.539c0.197,1.211,0.438,2.417,0.61,3.632c0.117,0.792-0.822,1.454-1.529,1.088
		c-1.094-0.545-2.163-1.134-3.246-1.696c-1.072,0.557-2.133,1.135-3.209,1.68c-0.707,0.397-1.674-0.25-1.572-1.053
		c0.174-1.222,0.416-2.434,0.612-3.652c-0.874-0.869-1.778-1.707-2.637-2.588c-0.546-0.572-0.184-1.647,0.596-1.774
		c1.209-0.207,2.43-0.349,3.641-0.546C399.464,712.205,399.981,711.16,400.498,710.116 M400.939,710.548
		c-0.527,1.087-1.064,2.168-1.599,3.252c-1.197,0.174-2.395,0.351-3.593,0.52c-0.245,0.038-0.563,0.075-0.659,0.35
		c-0.13,0.252,0.039,0.505,0.221,0.674c0.894,0.87,1.787,1.739,2.682,2.609c-0.211,1.286-0.459,2.565-0.651,3.854
		c-0.096,0.404,0.41,0.741,0.753,0.51c1.149-0.586,2.284-1.2,3.43-1.795c1.075,0.566,2.152,1.127,3.225,1.698
		c0.216,0.107,0.482,0.262,0.716,0.102c0.254-0.128,0.278-0.433,0.227-0.68c-0.212-1.23-0.426-2.458-0.635-3.687
		c0.863-0.837,1.721-1.682,2.59-2.515c0.168-0.179,0.41-0.378,0.345-0.657c-0.031-0.272-0.296-0.416-0.544-0.437
		c-1.244-0.184-2.489-0.363-3.734-0.541c-0.549-1.099-1.089-2.201-1.63-3.305c-0.11-0.22-0.26-0.491-0.547-0.476
		C401.213,709.994,401.059,710.308,400.939,710.548z"/>
	<path fill="#FEC107" d="M336.4,710.143c0.265-0.563,1.168-0.542,1.416,0.027c0.567,1.113,1.105,2.241,1.663,3.359
		c1.236,0.189,2.478,0.348,3.712,0.548c0.639,0.06,0.914,0.952,0.432,1.37c-0.881,0.879-1.784,1.738-2.672,2.609
		c0.196,1.138,0.387,2.275,0.59,3.413c0.042,0.288,0.104,0.619-0.088,0.869c-0.23,0.346-0.719,0.445-1.073,0.239
		c-1.098-0.566-2.186-1.151-3.282-1.721c-0.979,0.519-1.963,1.026-2.939,1.552c-0.29,0.144-0.6,0.351-0.939,0.256
		c-0.422-0.095-0.699-0.556-0.59-0.975c0.197-1.211,0.417-2.42,0.621-3.629c-0.901-0.89-1.825-1.757-2.714-2.659
		c-0.41-0.404-0.172-1.201,0.394-1.305c1.256-0.251,2.553-0.313,3.794-0.608C335.318,712.392,335.814,711.244,336.4,710.143z"/>
	<path fill="#FEC107" d="M352.336,710.457c0.138-0.271,0.28-0.594,0.601-0.686c0.401-0.151,0.863,0.076,1.022,0.466
		c0.545,1.094,1.082,2.194,1.622,3.29c1.158,0.171,2.314,0.342,3.473,0.504c0.268,0.042,0.574,0.093,0.743,0.332
		c0.263,0.314,0.229,0.813-0.074,1.089c-0.882,0.876-1.78,1.736-2.668,2.605c0.203,1.21,0.424,2.42,0.621,3.631
		c0.106,0.411-0.155,0.862-0.566,0.969c-0.275,0.091-0.551-0.038-0.79-0.162c-1.041-0.549-2.079-1.105-3.129-1.641
		c-1.076,0.578-2.159,1.144-3.242,1.709c-0.333,0.196-0.793,0.15-1.042-0.158c-0.235-0.239-0.203-0.595-0.149-0.895
		c0.203-1.15,0.4-2.304,0.598-3.456c-0.817-0.788-1.625-1.587-2.445-2.374c-0.219-0.217-0.485-0.457-0.477-0.791
		c-0.017-0.408,0.305-0.783,0.711-0.82c1.227-0.199,2.462-0.349,3.689-0.55C351.328,712.498,351.844,711.481,352.336,710.457z"/>
	<path fill="#FEC107" d="M368.44,710.462c0.137-0.269,0.276-0.588,0.589-0.686c0.393-0.157,0.86,0.053,1.024,0.438
		c0.51,1.011,1.001,2.031,1.501,3.047c0.071,0.111,0.119,0.293,0.288,0.286c1.204,0.205,2.424,0.328,3.625,0.546
		c0.575,0.098,0.822,0.899,0.408,1.306c-0.89,0.9-1.813,1.77-2.714,2.66c0.202,1.209,0.423,2.418,0.62,3.629
		c0.109,0.419-0.167,0.878-0.589,0.974c-0.305,0.09-0.594-0.079-0.855-0.211c-1.005-0.538-2.018-1.061-3.023-1.598
		c-1.118,0.578-2.222,1.183-3.343,1.749c-0.45,0.249-1.075-0.073-1.139-0.58c-0.02-0.263,0.032-0.525,0.076-0.78
		c0.192-1.061,0.368-2.124,0.553-3.184c-0.872-0.851-1.746-1.697-2.615-2.551c-0.286-0.244-0.402-0.67-0.216-1.007
		c0.126-0.289,0.437-0.416,0.731-0.453c1.191-0.176,2.384-0.341,3.575-0.523C367.432,712.503,367.946,711.486,368.44,710.462z"/>
	<path fill="#FEC107" d="M384.581,710.389c0.125-0.241,0.263-0.519,0.542-0.608c0.388-0.161,0.861,0.038,1.028,0.421
		c0.559,1.105,1.092,2.226,1.652,3.331c1.212,0.177,2.428,0.344,3.639,0.532c0.417,0.025,0.761,0.4,0.746,0.819
		c0.011,0.318-0.229,0.553-0.438,0.761c-0.834,0.797-1.656,1.609-2.483,2.415c0.205,1.213,0.423,2.425,0.623,3.638
		c0.104,0.422-0.181,0.878-0.604,0.969c-0.307,0.082-0.595-0.091-0.858-0.223c-1-0.536-2.007-1.059-3.011-1.587
		c-1.118,0.58-2.224,1.185-3.35,1.752c-0.524,0.284-1.233-0.21-1.133-0.802c0.185-1.254,0.429-2.499,0.633-3.75
		c-0.839-0.813-1.672-1.63-2.512-2.44c-0.197-0.197-0.422-0.426-0.408-0.729c-0.021-0.413,0.316-0.784,0.727-0.823
		c1.22-0.186,2.443-0.353,3.664-0.536C383.551,712.481,384.072,711.439,384.581,710.389z"/>
	<path fill="#FEC107" d="M384.443,727.136c0.221-0.449,0.764-0.69,1.244-0.558c0.354,0.073,0.617,0.354,0.767,0.67
		c0.513,1.041,1.025,2.08,1.535,3.122c1.194,0.183,2.396,0.336,3.589,0.531c0.564,0.082,0.98,0.661,0.897,1.224
		c-0.029,0.342-0.276,0.605-0.511,0.832c-0.798,0.769-1.588,1.545-2.381,2.317c0.198,1.212,0.438,2.422,0.61,3.637
		c0.114,0.792-0.828,1.453-1.538,1.081c-1.089-0.544-2.156-1.131-3.238-1.691c-1.073,0.555-2.134,1.134-3.212,1.682
		c-0.708,0.393-1.674-0.259-1.569-1.062c0.176-1.22,0.415-2.431,0.613-3.647c-0.783-0.759-1.559-1.528-2.349-2.281
		c-0.249-0.24-0.517-0.513-0.543-0.881c-0.082-0.583,0.37-1.164,0.957-1.222c1.173-0.18,2.347-0.343,3.521-0.515
		C383.382,729.3,383.894,728.209,384.443,727.136 M385.428,727.071c-0.023,3.521-0.005,7.043-0.01,10.565
		c1.08,0.563,2.156,1.131,3.23,1.7c0.22,0.108,0.49,0.259,0.724,0.088c0.267-0.143,0.257-0.471,0.203-0.727
		c-0.212-1.209-0.418-2.419-0.626-3.629c0.863-0.841,1.723-1.686,2.592-2.521c0.167-0.177,0.406-0.372,0.342-0.646
		c-0.027-0.271-0.286-0.42-0.533-0.44c-1.253-0.188-2.507-0.359-3.756-0.551c-0.548-1.124-1.104-2.245-1.656-3.367
		C385.848,727.312,385.628,727.19,385.428,727.071z"/>
	<path fill="#FEC107" d="M400.542,727.149c0.214-0.451,0.752-0.7,1.234-0.575c0.357,0.067,0.628,0.348,0.778,0.667
		c0.515,1.042,1.029,2.085,1.541,3.129c1.19,0.183,2.383,0.336,3.572,0.528c0.568,0.073,0.989,0.65,0.914,1.212
		c-0.024,0.353-0.278,0.622-0.519,0.854c-0.795,0.765-1.582,1.541-2.374,2.309c0.197,1.215,0.439,2.425,0.612,3.643
		c0.109,0.794-0.84,1.45-1.548,1.074c-1.084-0.546-2.15-1.129-3.229-1.689c-1.073,0.554-2.132,1.134-3.209,1.678
		c-0.713,0.401-1.688-0.26-1.573-1.071c0.177-1.215,0.416-2.423,0.612-3.634c-0.873-0.867-1.774-1.706-2.633-2.583
		c-0.548-0.569-0.193-1.645,0.586-1.778c1.208-0.204,2.424-0.356,3.635-0.538C399.485,729.304,399.997,728.218,400.542,727.149
		 M400.94,727.658c-0.527,1.086-1.065,2.17-1.601,3.255c-1.238,0.182-2.478,0.358-3.717,0.541c-0.247,0.021-0.52,0.146-0.563,0.419
		c-0.08,0.261,0.135,0.464,0.297,0.633c0.88,0.852,1.756,1.706,2.634,2.558c-0.21,1.283-0.458,2.56-0.649,3.845
		c-0.104,0.406,0.403,0.754,0.75,0.521c1.15-0.586,2.285-1.202,3.433-1.798c1.071,0.566,2.146,1.125,3.216,1.696
		c0.219,0.106,0.483,0.267,0.721,0.107c0.256-0.127,0.281-0.437,0.229-0.684c-0.212-1.229-0.426-2.456-0.635-3.685
		c0.862-0.84,1.721-1.684,2.591-2.517c0.17-0.179,0.412-0.381,0.342-0.662c-0.033-0.275-0.304-0.412-0.553-0.432
		c-1.24-0.183-2.482-0.362-3.724-0.541c-0.551-1.1-1.092-2.205-1.634-3.311c-0.11-0.22-0.265-0.486-0.549-0.468
		C401.211,727.109,401.06,727.42,400.94,727.658z"/>
	<path fill="#FEC107" d="M336.49,727.123c0.33-0.439,1.097-0.347,1.321,0.152c0.572,1.115,1.108,2.247,1.667,3.367
		c1.236,0.187,2.478,0.347,3.712,0.548c0.435,0.048,0.746,0.498,0.67,0.923c-0.034,0.254-0.231,0.44-0.401,0.617
		c-0.84,0.81-1.673,1.627-2.51,2.439c0.203,1.216,0.424,2.428,0.623,3.646c0.088,0.382-0.128,0.798-0.5,0.929
		c-0.286,0.125-0.594,0.007-0.849-0.129c-1.039-0.555-2.084-1.1-3.126-1.648c-1.082,0.565-2.16,1.142-3.245,1.706
		c-0.353,0.216-0.848,0.143-1.09-0.201c-0.217-0.259-0.148-0.614-0.098-0.918c0.199-1.126,0.391-2.255,0.585-3.383
		c-0.886-0.869-1.783-1.727-2.664-2.6c-0.432-0.367-0.288-1.158,0.252-1.334c1.279-0.29,2.621-0.324,3.886-0.642
		C335.358,729.462,335.836,728.244,336.49,727.123z"/>
	<path fill="#FEC107" d="M352.5,727.265c0.254-0.561,1.152-0.562,1.409-0.002c0.571,1.115,1.113,2.246,1.667,3.37
		c1.227,0.204,2.462,0.351,3.689,0.551c0.405,0.036,0.725,0.411,0.71,0.815c0.009,0.307-0.216,0.539-0.419,0.739
		c-0.837,0.806-1.667,1.621-2.502,2.432c0.203,1.208,0.424,2.415,0.62,3.626c0.109,0.415-0.155,0.867-0.568,0.973
		c-0.274,0.09-0.547-0.038-0.786-0.161c-1.04-0.549-2.079-1.101-3.123-1.642c-1.005,0.537-2.018,1.059-3.023,1.597
		c-0.264,0.135-0.559,0.303-0.866,0.208c-0.42-0.103-0.686-0.564-0.575-0.979c0.198-1.209,0.418-2.416,0.621-3.624
		c-0.904-0.89-1.831-1.759-2.72-2.664c-0.431-0.43-0.125-1.26,0.48-1.317c1.236-0.202,2.481-0.352,3.718-0.556
		C351.388,729.511,351.929,728.38,352.5,727.265z"/>
	<path fill="#FEC107" d="M368.441,727.572c0.137-0.265,0.275-0.587,0.588-0.684c0.393-0.155,0.86,0.053,1.024,0.439
		c0.508,1.008,0.998,2.024,1.497,3.039c0.074,0.111,0.12,0.3,0.292,0.292c1.205,0.206,2.425,0.328,3.628,0.547
		c0.57,0.098,0.816,0.895,0.407,1.302c-0.89,0.903-1.814,1.772-2.716,2.662c0.202,1.211,0.422,2.419,0.62,3.633
		c0.108,0.417-0.167,0.871-0.585,0.969c-0.279,0.086-0.551-0.053-0.793-0.176c-1.028-0.548-2.061-1.084-3.089-1.629
		c-1.068,0.559-2.134,1.122-3.202,1.682c-0.278,0.161-0.645,0.216-0.922,0.023c-0.3-0.179-0.424-0.548-0.348-0.881
		c0.194-1.21,0.416-2.415,0.618-3.622c-0.837-0.812-1.669-1.628-2.508-2.438c-0.2-0.199-0.424-0.431-0.414-0.735
		c-0.013-0.403,0.307-0.775,0.708-0.812c1.226-0.198,2.46-0.355,3.688-0.546C367.432,729.615,367.946,728.599,368.441,727.572z"/>
	<path fill="#FEC107" d="M384.449,743.231c0.252-0.516,0.934-0.727,1.443-0.474c0.34,0.146,0.515,0.493,0.669,0.81
		c0.467,0.973,0.954,1.935,1.424,2.907c1.19,0.187,2.386,0.341,3.574,0.53c0.564,0.074,0.993,0.643,0.917,1.208
		c-0.021,0.348-0.267,0.617-0.505,0.846c-0.802,0.769-1.59,1.549-2.387,2.32c0.194,1.207,0.433,2.404,0.607,3.612
		c0.137,0.8-0.814,1.487-1.534,1.11c-1.09-0.542-2.158-1.133-3.24-1.691c-0.987,0.52-1.979,1.032-2.963,1.561
		c-0.294,0.155-0.631,0.301-0.97,0.205c-0.559-0.117-0.957-0.71-0.837-1.271c0.188-1.177,0.404-2.348,0.602-3.522
		c-0.805-0.785-1.608-1.57-2.418-2.35c-0.234-0.225-0.459-0.497-0.476-0.836c-0.068-0.577,0.384-1.141,0.963-1.2
		c1.173-0.179,2.349-0.341,3.522-0.516C383.38,745.397,383.898,744.305,384.449,743.231 M384.844,743.745
		c-0.53,1.093-1.073,2.181-1.607,3.272c-1.229,0.181-2.458,0.359-3.687,0.536c-0.255,0.025-0.548,0.134-0.597,0.421
		c-0.08,0.266,0.135,0.473,0.305,0.643c0.88,0.847,1.749,1.705,2.627,2.553c-0.211,1.283-0.453,2.559-0.65,3.844
		c-0.07,0.293,0.181,0.586,0.475,0.599c0.189-0.021,0.361-0.116,0.531-0.197c1.055-0.566,2.117-1.122,3.18-1.675
		c1.073,0.565,2.148,1.127,3.221,1.698c0.224,0.107,0.499,0.268,0.736,0.09c0.27-0.15,0.248-0.484,0.196-0.742
		c-0.213-1.205-0.417-2.409-0.623-3.613c0.866-0.847,1.729-1.693,2.603-2.532c0.17-0.175,0.402-0.38,0.327-0.655
		c-0.036-0.258-0.286-0.397-0.525-0.421c-1.25-0.185-2.502-0.363-3.752-0.545c-0.549-1.101-1.091-2.207-1.631-3.312
		c-0.106-0.21-0.25-0.47-0.521-0.466C385.133,743.199,384.959,743.501,384.844,743.745z"/>
	<path fill="#FEC107" d="M400.506,743.317c0.204-0.472,0.742-0.764,1.248-0.643c0.392,0.068,0.676,0.383,0.833,0.732
		c0.499,1.023,1.01,2.042,1.506,3.069c1.112,0.167,2.226,0.326,3.34,0.486c0.338,0.042,0.701,0.146,0.915,0.436
		c0.358,0.43,0.307,1.122-0.112,1.498c-0.844,0.832-1.698,1.653-2.546,2.483c0.194,1.168,0.41,2.333,0.598,3.502
		c0.128,0.552-0.244,1.146-0.794,1.282c-0.361,0.116-0.726-0.044-1.039-0.21c-0.974-0.522-1.954-1.031-2.932-1.545
		c-0.971,0.512-1.946,1.015-2.914,1.538c-0.313,0.164-0.671,0.331-1.031,0.224c-0.557-0.123-0.943-0.714-0.822-1.273
		c0.189-1.175,0.406-2.345,0.601-3.519c-0.789-0.765-1.571-1.538-2.366-2.298c-0.249-0.239-0.509-0.518-0.528-0.882
		c-0.064-0.555,0.35-1.116,0.909-1.192c1.188-0.19,2.382-0.349,3.573-0.524C399.47,745.43,399.981,744.37,400.506,743.317
		 M400.945,743.753c-0.529,1.091-1.068,2.176-1.604,3.265c-1.237,0.183-2.474,0.358-3.709,0.541
		c-0.249,0.022-0.528,0.142-0.571,0.418c-0.081,0.26,0.13,0.464,0.294,0.631c0.88,0.852,1.755,1.71,2.637,2.562
		c-0.204,1.184-0.404,2.368-0.614,3.551c-0.039,0.26-0.114,0.593,0.14,0.775c0.217,0.203,0.517,0.084,0.741-0.036
		c1.086-0.577,2.176-1.149,3.267-1.719c1.098,0.574,2.192,1.154,3.288,1.73c0.219,0.124,0.511,0.215,0.723,0.021
		c0.234-0.172,0.178-0.484,0.141-0.73c-0.213-1.196-0.415-2.392-0.621-3.587c0.884-0.864,1.769-1.725,2.656-2.586
		c0.189-0.174,0.377-0.434,0.245-0.701c-0.09-0.259-0.388-0.308-0.623-0.343c-1.208-0.17-2.417-0.349-3.627-0.527
		c-0.548-1.104-1.095-2.213-1.638-3.324c-0.104-0.215-0.262-0.468-0.537-0.451C401.22,743.213,401.063,743.518,400.945,743.753z"/>
	<path fill="#FEC107" d="M336.408,743.348c0.268-0.542,1.142-0.526,1.396,0.021c0.579,1.117,1.109,2.261,1.683,3.383
		c1.228,0.179,2.461,0.344,3.688,0.541c0.437,0.042,0.758,0.485,0.689,0.913c-0.028,0.254-0.223,0.446-0.395,0.623
		c-0.844,0.81-1.678,1.632-2.519,2.448c0.203,1.211,0.422,2.423,0.622,3.636c0.101,0.413-0.158,0.856-0.569,0.962
		c-0.305,0.098-0.602-0.065-0.866-0.198c-1.009-0.543-2.025-1.07-3.041-1.603c-1.028,0.545-2.061,1.08-3.088,1.629
		c-0.265,0.143-0.581,0.28-0.878,0.152c-0.384-0.135-0.602-0.572-0.5-0.963c0.2-1.205,0.417-2.411,0.619-3.615
		c-0.886-0.873-1.786-1.73-2.667-2.607c-0.313-0.282-0.336-0.797-0.058-1.11c0.184-0.237,0.498-0.269,0.771-0.316
		c1.142-0.159,2.282-0.332,3.424-0.495C335.289,745.619,335.824,744.47,336.408,743.348z"/>
	<path fill="#FEC107" d="M352.505,743.362c0.208-0.435,0.831-0.549,1.198-0.249c0.187,0.163,0.287,0.403,0.401,0.622
		c0.489,1.008,0.987,2.013,1.489,3.017c1.226,0.178,2.455,0.344,3.678,0.539c0.441,0.038,0.77,0.483,0.7,0.916
		c-0.038,0.289-0.271,0.49-0.463,0.688c-0.823,0.788-1.631,1.59-2.45,2.381c0.202,1.242,0.443,2.479,0.628,3.726
		c0.08,0.421-0.261,0.84-0.675,0.895c-0.282,0.046-0.537-0.108-0.776-0.226c-0.81-0.441-1.635-0.854-2.445-1.296
		c-0.221-0.084-0.451-0.321-0.697-0.234c-1.102,0.544-2.167,1.163-3.272,1.698c-0.53,0.26-1.208-0.256-1.095-0.834
		c0.188-1.248,0.429-2.487,0.632-3.729c-0.874-0.851-1.748-1.7-2.618-2.55c-0.315-0.266-0.409-0.754-0.162-1.096
		c0.17-0.283,0.517-0.341,0.816-0.386c1.008-0.14,2.015-0.293,3.025-0.43c0.192-0.036,0.442-0.041,0.508-0.27
		C351.462,745.489,351.958,744.412,352.505,743.362z"/>
	<path fill="#FEC107" d="M368.606,743.369c0.252-0.552,1.138-0.563,1.399-0.015c0.584,1.121,1.116,2.269,1.687,3.395
		c1.179,0.171,2.359,0.341,3.54,0.515c0.293,0.032,0.608,0.147,0.748,0.433c0.204,0.342,0.084,0.783-0.206,1.034
		c-0.871,0.849-1.743,1.697-2.612,2.545c0.202,1.208,0.42,2.415,0.619,3.624c0.111,0.419-0.159,0.881-0.581,0.979
		c-0.282,0.085-0.557-0.053-0.8-0.177c-1.025-0.548-2.058-1.083-3.085-1.628c-1.091,0.567-2.175,1.146-3.267,1.714
		c-0.338,0.198-0.805,0.138-1.051-0.18c-0.235-0.254-0.173-0.624-0.124-0.933c0.201-1.133,0.394-2.266,0.587-3.399
		c-0.875-0.854-1.755-1.705-2.627-2.561c-0.306-0.264-0.395-0.742-0.156-1.079c0.164-0.28,0.503-0.344,0.799-0.388
		c1.15-0.16,2.299-0.335,3.449-0.497C367.497,745.63,368.029,744.487,368.606,743.369z"/>
	<path fill="#FEC107" d="M368.349,760.333c0.257-0.515,0.944-0.716,1.45-0.458c0.313,0.14,0.484,0.451,0.627,0.743
		c0.479,0.993,0.975,1.979,1.459,2.971c1.195,0.184,2.396,0.337,3.589,0.53c0.554,0.082,0.965,0.64,0.898,1.192
		c-0.019,0.344-0.255,0.616-0.49,0.845c-0.807,0.773-1.601,1.558-2.404,2.335c0.197,1.206,0.435,2.407,0.61,3.616
		c0.13,0.792-0.805,1.473-1.521,1.11c-1.096-0.543-2.168-1.137-3.252-1.698c-1.091,0.557-2.163,1.158-3.262,1.699
		c-0.715,0.362-1.644-0.317-1.519-1.105c0.174-1.212,0.415-2.414,0.609-3.622c-0.872-0.861-1.769-1.698-2.625-2.572
		c-0.545-0.559-0.222-1.623,0.544-1.778c1.219-0.213,2.45-0.362,3.673-0.55C367.278,762.508,367.795,761.41,368.349,760.333
		 M369.323,760.288c-0.033,3.521-0.004,7.041-0.015,10.561c1.076,0.566,2.154,1.128,3.226,1.701c0.206,0.087,0.438,0.25,0.668,0.128
		c0.26-0.106,0.351-0.407,0.281-0.662c-0.209-1.245-0.43-2.487-0.64-3.733c0.869-0.845,1.735-1.694,2.611-2.535
		c0.162-0.173,0.391-0.37,0.322-0.638c-0.031-0.254-0.272-0.406-0.51-0.427c-1.258-0.192-2.52-0.364-3.777-0.555
		c-0.555-1.128-1.109-2.254-1.664-3.382C369.736,760.521,369.516,760.408,369.323,760.288z"/>
	<path fill="#FEC107" d="M384.449,760.345c0.253-0.521,0.942-0.731,1.453-0.472c0.313,0.139,0.484,0.453,0.629,0.745
		c0.479,0.993,0.977,1.979,1.458,2.971c1.189,0.182,2.382,0.339,3.57,0.525c0.517,0.071,0.929,0.554,0.923,1.075
		c0.021,0.363-0.193,0.679-0.447,0.916c-0.819,0.793-1.632,1.591-2.45,2.385c0.186,1.089,0.37,2.178,0.565,3.266
		c0.054,0.332,0.103,0.7-0.089,1c-0.277,0.515-0.986,0.712-1.493,0.416c-1.054-0.541-2.1-1.104-3.151-1.652
		c-0.987,0.521-1.979,1.034-2.964,1.562c-0.295,0.153-0.632,0.3-0.97,0.202c-0.562-0.115-0.957-0.716-0.834-1.28
		c0.189-1.172,0.404-2.34,0.601-3.512c-0.805-0.783-1.606-1.569-2.415-2.348c-0.235-0.227-0.463-0.498-0.479-0.838
		c-0.066-0.561,0.359-1.117,0.921-1.191c1.186-0.188,2.378-0.345,3.564-0.523C383.382,762.512,383.898,761.418,384.449,760.345
		 M384.846,760.855c-0.532,1.094-1.075,2.182-1.609,3.275c-1.289,0.195-2.583,0.361-3.87,0.572
		c-0.324,0.031-0.531,0.427-0.372,0.713c0.1,0.161,0.241,0.29,0.375,0.425c0.844,0.808,1.674,1.629,2.515,2.439
		c-0.207,1.283-0.454,2.561-0.649,3.845c-0.072,0.293,0.184,0.59,0.478,0.6c0.187-0.02,0.354-0.114,0.521-0.194
		c1.06-0.565,2.123-1.125,3.19-1.679c1.068,0.565,2.142,1.124,3.21,1.693c0.245,0.132,0.569,0.282,0.807,0.047
		c0.242-0.185,0.155-0.508,0.124-0.764c-0.211-1.181-0.412-2.363-0.613-3.546c0.868-0.843,1.731-1.693,2.607-2.531
		c0.168-0.177,0.4-0.385,0.321-0.658c-0.038-0.256-0.288-0.393-0.523-0.414c-1.25-0.185-2.499-0.365-3.751-0.546
		c-0.552-1.102-1.093-2.21-1.636-3.317c-0.105-0.21-0.249-0.463-0.519-0.458C385.134,760.312,384.961,760.612,384.846,760.855z"/>
	<path fill="#FEC107" d="M401.068,759.858c0.519-0.242,1.194-0.008,1.438,0.514c0.538,1.066,1.059,2.141,1.586,3.215
		c0.993,0.15,1.988,0.295,2.982,0.434c0.298,0.049,0.604,0.066,0.887,0.187c0.452,0.198,0.708,0.738,0.604,1.22
		c-0.053,0.309-0.283,0.54-0.497,0.752c-0.799,0.765-1.585,1.543-2.38,2.313c0.197,1.21,0.436,2.411,0.61,3.623
		c0.127,0.806-0.838,1.479-1.553,1.09c-1.084-0.543-2.147-1.129-3.225-1.685c-0.839,0.444-1.685,0.881-2.523,1.328
		c-0.35,0.177-0.687,0.409-1.084,0.465c-0.645,0.063-1.261-0.54-1.172-1.19c0.177-1.216,0.416-2.421,0.611-3.632
		c-0.788-0.766-1.573-1.537-2.365-2.298c-0.249-0.242-0.511-0.519-0.528-0.885c-0.064-0.553,0.348-1.108,0.901-1.189
		c1.19-0.188,2.388-0.349,3.581-0.525c0.499-1.003,0.995-2.008,1.486-3.016C400.57,760.285,400.754,759.984,401.068,759.858
		 M400.945,760.865c-0.528,1.091-1.069,2.176-1.604,3.267c-1.292,0.194-2.589,0.36-3.877,0.572c-0.424,0.05-0.556,0.644-0.225,0.896
		c0.911,0.898,1.833,1.788,2.751,2.681c-0.207,1.282-0.456,2.554-0.647,3.836c-0.113,0.413,0.405,0.769,0.755,0.528
		c1.148-0.586,2.28-1.2,3.427-1.794c1.1,0.576,2.197,1.156,3.295,1.735c0.217,0.123,0.513,0.211,0.719,0.012
		c0.231-0.172,0.175-0.479,0.139-0.723c-0.213-1.195-0.416-2.395-0.622-3.591c0.918-0.903,1.852-1.788,2.763-2.697
		c0.31-0.244,0.192-0.81-0.208-0.876c-1.295-0.221-2.603-0.382-3.901-0.579c-0.534-1.08-1.069-2.158-1.596-3.241
		c-0.119-0.232-0.26-0.539-0.565-0.535C401.228,760.316,401.063,760.625,400.945,760.865z"/>
	<path fill="#FEC107" d="M336.412,760.454c0.271-0.536,1.14-0.519,1.392,0.028c0.58,1.116,1.11,2.262,1.684,3.383
		c1.232,0.18,2.466,0.346,3.694,0.541c0.432,0.045,0.748,0.484,0.682,0.908c-0.026,0.262-0.227,0.452-0.4,0.631
		c-0.841,0.812-1.675,1.629-2.513,2.444c0.2,1.199,0.418,2.395,0.615,3.593c0.104,0.391-0.091,0.829-0.474,0.976
		c-0.298,0.138-0.622,0.012-0.888-0.135c-1.032-0.553-2.07-1.093-3.107-1.636c-1.028,0.544-2.062,1.079-3.089,1.628
		c-0.266,0.144-0.586,0.283-0.885,0.147c-0.383-0.139-0.593-0.574-0.491-0.965c0.2-1.203,0.416-2.406,0.619-3.609
		c-0.836-0.81-1.663-1.627-2.503-2.431c-0.205-0.203-0.435-0.441-0.418-0.753c-0.008-0.407,0.321-0.774,0.728-0.805
		c1.219-0.192,2.442-0.357,3.664-0.539C335.289,762.729,335.826,761.578,336.412,760.454z"/>
	<path fill="#FEC107" d="M352.464,760.544c0.162-0.383,0.625-0.593,1.018-0.44c0.28,0.083,0.425,0.356,0.55,0.596
		c0.514,1.056,1.034,2.109,1.557,3.161c1.189,0.173,2.376,0.342,3.563,0.519c0.288,0.031,0.59,0.152,0.724,0.429
		c0.197,0.337,0.09,0.773-0.196,1.021c-0.872,0.854-1.749,1.706-2.623,2.556c0.2,1.242,0.442,2.479,0.627,3.721
		c0.084,0.424-0.254,0.849-0.672,0.902c-0.286,0.05-0.544-0.11-0.789-0.23c-0.859-0.467-1.732-0.906-2.588-1.373
		c-0.195-0.088-0.418-0.271-0.626-0.114c-1.068,0.543-2.111,1.136-3.187,1.662c-0.527,0.262-1.211-0.255-1.096-0.835
		c0.184-1.248,0.428-2.486,0.629-3.732c-0.837-0.81-1.667-1.628-2.507-2.436c-0.206-0.201-0.433-0.441-0.413-0.754
		c-0.006-0.398,0.315-0.756,0.713-0.795c1.223-0.191,2.451-0.356,3.675-0.537C351.376,762.76,351.91,761.646,352.464,760.544z"/>
	<path fill="#FEC107" d="M368.946,776.935c0.517-0.189,1.134,0.068,1.361,0.572c0.532,1.06,1.05,2.13,1.579,3.193
		c1.12,0.168,2.242,0.329,3.364,0.49c0.336,0.04,0.688,0.156,0.894,0.444c0.345,0.425,0.298,1.099-0.107,1.473
		c-0.847,0.838-1.707,1.664-2.56,2.497c0.197,1.205,0.435,2.405,0.611,3.614c0.08,0.55-0.346,1.094-0.885,1.188
		c-0.336,0.079-0.661-0.072-0.95-0.223c-0.977-0.523-1.961-1.034-2.94-1.553c-1.091,0.56-2.162,1.158-3.261,1.701
		c-0.713,0.358-1.64-0.313-1.52-1.103c0.178-1.213,0.415-2.418,0.611-3.628c-0.806-0.78-1.606-1.568-2.415-2.346
		c-0.231-0.225-0.461-0.494-0.478-0.83c-0.068-0.544,0.331-1.1,0.875-1.189c1.2-0.196,2.406-0.351,3.608-0.533
		c0.499-1.014,1-2.025,1.496-3.04C368.377,777.35,368.6,777.038,368.946,776.935 M368.784,777.884
		c-0.551,1.119-1.104,2.238-1.655,3.356c-1.283,0.197-2.573,0.365-3.854,0.572c-0.29,0.028-0.496,0.328-0.429,0.612
		c0.062,0.192,0.225,0.328,0.361,0.474c0.865,0.824,1.71,1.666,2.571,2.494c-0.206,1.28-0.455,2.555-0.648,3.838
		c-0.107,0.38,0.358,0.748,0.702,0.549c1.174-0.58,2.319-1.224,3.488-1.815c0.899,0.481,1.808,0.949,2.708,1.43
		c0.309,0.16,0.61,0.352,0.949,0.443c0.31,0.014,0.595-0.292,0.518-0.601c-0.196-1.285-0.441-2.562-0.649-3.844
		c0.835-0.804,1.655-1.62,2.495-2.42c0.147-0.15,0.31-0.295,0.412-0.48c0.122-0.287-0.085-0.646-0.396-0.68
		c-1.285-0.21-2.58-0.371-3.866-0.572c-0.525-1.081-1.066-2.152-1.587-3.234c-0.118-0.23-0.252-0.538-0.558-0.538
		C369.071,777.43,368.884,777.658,368.784,777.884z"/>
	<path fill="#FEC107" d="M384.971,776.967c0.52-0.239,1.189-0.001,1.432,0.52c0.538,1.066,1.058,2.142,1.583,3.213
		c1.081,0.162,2.163,0.318,3.246,0.472c0.367,0.043,0.775,0.132,1.008,0.449c0.356,0.426,0.313,1.11-0.098,1.487
		c-0.847,0.838-1.706,1.662-2.557,2.496c0.192,1.165,0.407,2.326,0.595,3.49c0.108,0.479-0.141,1.003-0.584,1.214
		c-0.343,0.185-0.762,0.135-1.092-0.052c-1.028-0.541-2.057-1.085-3.087-1.624c-1.095,0.561-2.171,1.166-3.276,1.706
		c-0.713,0.345-1.619-0.33-1.503-1.108c0.179-1.212,0.414-2.416,0.612-3.625c-0.872-0.868-1.779-1.703-2.636-2.586
		c-0.543-0.57-0.19-1.639,0.585-1.771c1.209-0.21,2.429-0.358,3.642-0.542c0.458-0.934,0.924-1.863,1.374-2.799
		C384.393,777.545,384.57,777.127,384.971,776.967 M384.844,777.972c-0.531,1.093-1.073,2.18-1.607,3.269
		c-1.288,0.197-2.581,0.364-3.867,0.573c-0.393,0.036-0.578,0.581-0.28,0.847c0.919,0.925,1.864,1.822,2.796,2.733
		c-0.209,1.28-0.452,2.557-0.65,3.839c-0.109,0.422,0.425,0.768,0.775,0.517c1.143-0.583,2.271-1.196,3.41-1.785
		c1.071,0.565,2.148,1.126,3.219,1.696c0.223,0.107,0.493,0.266,0.73,0.097c0.276-0.149,0.257-0.487,0.204-0.749
		c-0.213-1.204-0.418-2.408-0.623-3.611c0.847-0.825,1.689-1.656,2.544-2.473c0.131-0.134,0.273-0.264,0.362-0.429
		c0.125-0.296-0.093-0.658-0.411-0.686c-1.28-0.204-2.564-0.374-3.846-0.565c-0.546-1.104-1.09-2.209-1.631-3.314
		c-0.105-0.21-0.249-0.469-0.519-0.462C385.132,777.425,384.959,777.729,384.844,777.972z"/>
	<path fill="#FEC107" d="M400.551,777.465c0.248-0.519,0.93-0.737,1.44-0.487c0.34,0.143,0.516,0.486,0.669,0.8
		c0.47,0.977,0.962,1.94,1.428,2.917c1.189,0.194,2.388,0.342,3.579,0.533c0.562,0.075,0.987,0.641,0.915,1.201
		c-0.019,0.326-0.232,0.591-0.457,0.809c-0.816,0.784-1.626,1.577-2.436,2.369c0.196,1.166,0.409,2.33,0.598,3.497
		c0.124,0.538-0.225,1.119-0.754,1.271c-0.344,0.122-0.709,0.004-1.015-0.164c-0.995-0.53-1.995-1.053-2.993-1.579
		c-1.02,0.531-2.034,1.066-3.049,1.604c-0.307,0.169-0.679,0.261-1.014,0.124c-0.499-0.17-0.816-0.724-0.708-1.241
		c0.189-1.174,0.406-2.343,0.601-3.515c-0.859-0.849-1.738-1.677-2.589-2.532c-0.6-0.557-0.266-1.688,0.541-1.827
		c1.206-0.203,2.424-0.358,3.636-0.537C399.487,779.629,400.001,778.537,400.551,777.465 M401.068,777.757
		c-0.594,1.153-1.146,2.327-1.728,3.483c-1.197,0.178-2.394,0.354-3.593,0.522c-0.242,0.038-0.555,0.071-0.655,0.341
		c-0.146,0.274,0.06,0.545,0.257,0.725c0.883,0.852,1.76,1.712,2.642,2.565c-0.204,1.183-0.404,2.367-0.613,3.547
		c-0.038,0.263-0.117,0.6,0.139,0.779c0.217,0.202,0.517,0.085,0.741-0.037c1.086-0.576,2.176-1.147,3.265-1.719
		c0.923,0.485,1.845,0.967,2.767,1.455c0.286,0.146,0.563,0.321,0.875,0.412c0.32,0.039,0.619-0.282,0.541-0.602
		c-0.195-1.281-0.439-2.555-0.65-3.833c0.846-0.822,1.688-1.648,2.539-2.467c0.131-0.134,0.271-0.262,0.366-0.427
		c0.138-0.308-0.1-0.679-0.431-0.699c-1.273-0.199-2.55-0.37-3.823-0.562c-0.579-1.154-1.133-2.319-1.718-3.469
		C401.837,777.38,401.227,777.362,401.068,777.757z"/>
	<path fill="#FEC107" d="M336.362,777.651c0.163-0.389,0.638-0.59,1.03-0.429c0.272,0.087,0.414,0.355,0.536,0.594
		c0.514,1.055,1.032,2.109,1.559,3.159c1.151,0.161,2.3,0.337,3.453,0.498c0.271,0.042,0.579,0.091,0.752,0.33
		c0.278,0.329,0.219,0.85-0.104,1.126c-0.876,0.858-1.756,1.714-2.636,2.569c0.193,1.128,0.384,2.259,0.585,3.387
		c0.04,0.288,0.116,0.619-0.071,0.875c-0.229,0.369-0.746,0.468-1.11,0.246c-1.089-0.564-2.169-1.144-3.258-1.708
		c-1.026,0.544-2.059,1.079-3.083,1.627c-0.215,0.105-0.445,0.234-0.695,0.2c-0.426-0.045-0.779-0.472-0.699-0.902
		c0.189-1.243,0.426-2.48,0.63-3.724c-0.833-0.809-1.659-1.624-2.497-2.427c-0.208-0.206-0.444-0.445-0.423-0.762
		c-0.007-0.401,0.317-0.763,0.717-0.8c1.222-0.193,2.449-0.355,3.672-0.539C335.272,779.868,335.804,778.755,336.362,777.651z"/>
	<path fill="#FEC107" d="M352.508,777.584c0.257-0.547,1.133-0.546,1.394-0.002c0.586,1.122,1.113,2.272,1.694,3.397
		c1.146,0.154,2.286,0.333,3.433,0.491c0.295,0.044,0.639,0.103,0.807,0.383c0.242,0.338,0.158,0.824-0.153,1.088
		c-0.874,0.855-1.751,1.705-2.626,2.558c0.202,1.204,0.42,2.405,0.618,3.61c0.113,0.416-0.142,0.879-0.561,0.989
		c-0.317,0.103-0.624-0.074-0.896-0.214c-0.857-0.464-1.726-0.902-2.581-1.369c-0.195-0.087-0.419-0.273-0.629-0.112
		c-0.987,0.514-1.972,1.038-2.956,1.557c-0.249,0.134-0.547,0.236-0.822,0.116c-0.385-0.141-0.595-0.583-0.488-0.973
		c0.197-1.203,0.416-2.402,0.615-3.605c-0.84-0.808-1.667-1.63-2.508-2.437c-0.208-0.202-0.435-0.445-0.412-0.759
		c-0.002-0.396,0.317-0.754,0.713-0.788c1.223-0.195,2.451-0.358,3.675-0.542C351.392,779.848,351.927,778.704,352.508,777.584z"/>
	<path fill="#FEC107" d="M352.23,797.602c0.243-0.512,0.91-0.739,1.422-0.5c0.318,0.123,0.504,0.428,0.647,0.721
		c0.49,1.008,0.986,2.012,1.485,3.013c1.203,0.185,2.412,0.337,3.612,0.535c0.554,0.093,0.95,0.673,0.866,1.222
		c-0.028,0.34-0.273,0.602-0.506,0.827c-0.798,0.769-1.591,1.544-2.383,2.315c0.195,1.22,0.442,2.431,0.612,3.651
		c0.102,0.771-0.802,1.421-1.503,1.086c-1.101-0.524-2.148-1.159-3.25-1.675c-1.131,0.473-2.177,1.15-3.291,1.671
		c-0.516,0.244-1.179-0.023-1.416-0.534c-0.148-0.282-0.103-0.611-0.055-0.911c0.198-1.095,0.378-2.191,0.57-3.286
		c-0.794-0.773-1.586-1.549-2.385-2.317c-0.231-0.226-0.475-0.486-0.505-0.824c-0.085-0.555,0.314-1.137,0.874-1.225
		c1.199-0.198,2.406-0.353,3.606-0.535C351.167,799.761,351.684,798.673,352.23,797.602 M353.161,797.546
		c-0.025,3.513-0.012,7.023-0.006,10.535c0.916,0.455,1.814,0.945,2.721,1.419c0.333,0.166,0.647,0.387,1.015,0.47
		c0.342-0.004,0.593-0.356,0.49-0.68c-0.205-1.257-0.432-2.507-0.644-3.762c0.921-0.903,1.857-1.793,2.77-2.705
		c0.318-0.255,0.166-0.829-0.243-0.874c-1.288-0.215-2.584-0.376-3.876-0.574c-0.566-1.14-1.12-2.284-1.69-3.421
		C353.608,797.723,353.371,797.634,353.161,797.546z"/>
	<path fill="#FEC107" d="M368.377,797.532c0.383-0.719,1.556-0.681,1.9,0.056c0.552,1.075,1.069,2.167,1.609,3.247
		c1.195,0.183,2.397,0.335,3.592,0.531c0.567,0.081,0.979,0.672,0.888,1.233c-0.03,0.338-0.279,0.598-0.511,0.826
		c-0.798,0.764-1.584,1.541-2.378,2.309c0.197,1.22,0.443,2.433,0.612,3.655c0.1,0.781-0.823,1.428-1.523,1.071
		c-1.093-0.545-2.164-1.129-3.243-1.698c-1.106,0.556-2.181,1.169-3.292,1.71c-0.699,0.334-1.594-0.313-1.5-1.079
		c0.169-1.224,0.417-2.438,0.612-3.657c-0.795-0.775-1.586-1.553-2.389-2.321c-0.258-0.247-0.518-0.552-0.508-0.931
		c-0.037-0.565,0.428-1.09,0.991-1.138c1.164-0.178,2.33-0.339,3.495-0.511C367.289,799.74,367.806,798.622,368.377,797.532
		 M368.851,797.899c-0.589,1.149-1.143,2.318-1.722,3.476c-1.191,0.172-2.381,0.351-3.572,0.517
		c-0.259,0.04-0.597,0.076-0.686,0.371c-0.123,0.259,0.063,0.502,0.245,0.674c0.889,0.861,1.777,1.728,2.664,2.593
		c-0.208,1.215-0.418,2.43-0.627,3.646c-0.057,0.248-0.057,0.563,0.197,0.708c0.245,0.182,0.535,0.013,0.767-0.102
		c1.063-0.568,2.13-1.128,3.199-1.686c1.132,0.594,2.261,1.199,3.399,1.784c0.332,0.237,0.861-0.06,0.784-0.476
		c-0.192-1.296-0.442-2.582-0.654-3.875c0.916-0.9,1.85-1.789,2.76-2.696c0.327-0.254,0.178-0.848-0.244-0.886
		c-1.284-0.211-2.578-0.375-3.865-0.572c-0.585-1.162-1.137-2.343-1.736-3.497C369.596,797.498,368.996,797.514,368.851,797.899z"/>
	<path fill="#FEC107" d="M384.477,797.543c0.377-0.726,1.554-0.7,1.904,0.039c0.556,1.077,1.068,2.175,1.616,3.257
		c1.19,0.174,2.384,0.333,3.573,0.523c0.572,0.077,0.992,0.667,0.901,1.232c-0.029,0.346-0.282,0.606-0.518,0.837
		c-0.795,0.766-1.581,1.537-2.37,2.307c0.195,1.178,0.416,2.353,0.602,3.531c0.123,0.577-0.311,1.178-0.887,1.27
		c-0.329,0.075-0.647-0.071-0.931-0.219c-0.979-0.526-1.967-1.036-2.95-1.558c-1.073,0.557-2.138,1.139-3.219,1.685
		c-0.702,0.385-1.655-0.251-1.563-1.046c0.157-1.194,0.419-2.372,0.588-3.561c0.031-0.137-0.114-0.218-0.181-0.312
		c-0.802-0.788-1.627-1.555-2.413-2.358c-0.564-0.567-0.214-1.66,0.571-1.794c1.206-0.204,2.419-0.359,3.63-0.536
		C383.397,799.751,383.904,798.63,384.477,797.543 M384.869,798.054c-0.542,1.108-1.09,2.216-1.637,3.323
		c-1.194,0.17-2.387,0.35-3.583,0.518c-0.252,0.039-0.582,0.074-0.671,0.363c-0.139,0.291,0.101,0.546,0.296,0.732
		c0.873,0.844,1.74,1.693,2.611,2.538c-0.204,1.179-0.403,2.359-0.613,3.54c-0.036,0.252-0.119,0.573,0.116,0.765
		c0.207,0.21,0.515,0.124,0.739-0.006c1.097-0.579,2.193-1.158,3.292-1.732c1.026,0.547,2.062,1.077,3.084,1.629
		c0.184,0.094,0.366,0.193,0.569,0.242c0.35,0.027,0.622-0.337,0.52-0.668c-0.204-1.257-0.434-2.513-0.643-3.769
		c0.843-0.816,1.676-1.645,2.525-2.455c0.146-0.154,0.323-0.297,0.401-0.501c0.079-0.296-0.141-0.616-0.447-0.633
		c-1.273-0.204-2.555-0.373-3.832-0.566c-0.537-1.096-1.082-2.19-1.617-3.288c-0.11-0.217-0.249-0.488-0.529-0.486
		C385.156,797.559,384.976,797.819,384.869,798.054z"/>
	<path fill="#FEC107" d="M400.54,797.613c0.215-0.447,0.745-0.701,1.228-0.578c0.368,0.067,0.645,0.355,0.795,0.686
		c0.512,1.038,1.023,2.076,1.535,3.114c1.184,0.181,2.373,0.334,3.556,0.523c0.541,0.064,0.965,0.583,0.935,1.126
		c0.005,0.336-0.199,0.625-0.432,0.852c-0.823,0.799-1.645,1.6-2.467,2.402c0.197,1.18,0.418,2.357,0.604,3.542
		c0.108,0.538-0.266,1.105-0.796,1.237c-0.326,0.104-0.665-0.008-0.953-0.163c-1.005-0.534-2.014-1.06-3.019-1.592
		c-1.08,0.557-2.144,1.142-3.229,1.688c-0.703,0.379-1.649-0.263-1.556-1.055c0.175-1.223,0.412-2.434,0.617-3.649
		c-0.866-0.874-1.772-1.709-2.633-2.589c-0.551-0.567-0.2-1.648,0.581-1.781c1.211-0.207,2.431-0.354,3.643-0.543
		C399.481,799.761,399.999,798.68,400.54,797.613 M400.973,798.06c-0.545,1.106-1.085,2.216-1.637,3.319
		c-1.192,0.166-2.382,0.348-3.573,0.515c-0.256,0.036-0.583,0.075-0.679,0.364c-0.137,0.279,0.092,0.535,0.281,0.72
		c0.879,0.845,1.751,1.7,2.626,2.551c-0.206,1.192-0.406,2.386-0.62,3.579c-0.045,0.258-0.093,0.593,0.167,0.76
		c0.236,0.197,0.535,0.044,0.768-0.075c1.068-0.572,2.144-1.133,3.219-1.697c1.022,0.543,2.051,1.072,3.069,1.62
		c0.186,0.095,0.369,0.2,0.575,0.25c0.368,0.037,0.642-0.354,0.526-0.695c-0.206-1.247-0.43-2.492-0.641-3.74
		c0.929-0.92,1.886-1.813,2.802-2.745c0.289-0.269,0.097-0.813-0.298-0.839c-1.281-0.212-2.573-0.372-3.856-0.573
		c-0.55-1.121-1.103-2.241-1.655-3.36c-0.103-0.247-0.334-0.479-0.626-0.402C401.182,797.635,401.073,797.871,400.973,798.06z"/>
	<path fill="#FEC107" d="M336.355,797.794c0.159-0.378,0.604-0.589,0.997-0.452c0.302,0.078,0.458,0.373,0.588,0.632
		c0.506,1.045,1.028,2.086,1.537,3.129c1.122,0.166,2.245,0.331,3.368,0.489c0.307,0.044,0.669,0.083,0.861,0.363
		c0.25,0.317,0.208,0.805-0.092,1.076c-0.879,0.875-1.779,1.732-2.664,2.603c0.201,1.212,0.423,2.419,0.621,3.632
		c0.098,0.392-0.13,0.819-0.512,0.948c-0.283,0.118-0.583-0.005-0.835-0.137c-1.042-0.553-2.084-1.104-3.131-1.646
		c-1.007,0.54-2.025,1.059-3.031,1.602c-0.27,0.14-0.579,0.308-0.89,0.194c-0.391-0.116-0.642-0.544-0.545-0.942
		c0.195-1.219,0.419-2.433,0.623-3.649c-0.881-0.865-1.774-1.719-2.651-2.588c-0.292-0.262-0.359-0.724-0.137-1.047
		c0.143-0.249,0.43-0.342,0.696-0.377c1.19-0.176,2.383-0.338,3.57-0.525C335.265,799.994,335.807,798.892,336.355,797.794z"/>
	<path fill="#FEC107" d="M352.234,814.709c0.246-0.509,0.909-0.733,1.418-0.496c0.316,0.124,0.502,0.423,0.644,0.717
		c0.491,1.008,0.99,2.013,1.487,3.02c1.082,0.154,2.163,0.318,3.247,0.467c0.333,0.049,0.699,0.108,0.934,0.376
		c0.419,0.417,0.405,1.162-0.032,1.561c-0.846,0.839-1.709,1.66-2.558,2.496c0.195,1.217,0.443,2.425,0.612,3.646
		c0.105,0.775-0.804,1.426-1.507,1.087c-1.109-0.541-2.182-1.156-3.288-1.705c-0.932,0.509-1.883,0.986-2.817,1.493
		c-0.327,0.172-0.687,0.371-1.068,0.279c-0.569-0.103-0.991-0.699-0.868-1.272c0.187-1.178,0.405-2.353,0.601-3.527
		c-0.812-0.795-1.626-1.585-2.441-2.376c-0.243-0.232-0.465-0.529-0.454-0.883c-0.035-0.567,0.433-1.088,0.998-1.134
		c1.162-0.176,2.326-0.338,3.489-0.508C351.168,816.871,351.686,815.78,352.234,814.709 M352.756,814.992
		c-0.596,1.155-1.15,2.333-1.733,3.494c-1.186,0.173-2.369,0.35-3.555,0.515c-0.262,0.042-0.61,0.067-0.703,0.371
		c-0.124,0.264,0.066,0.511,0.25,0.684c0.889,0.858,1.773,1.725,2.658,2.588c-0.204,1.172-0.401,2.347-0.61,3.521
		c-0.037,0.259-0.126,0.592,0.116,0.785c0.191,0.186,0.471,0.136,0.683,0.016c1.121-0.58,2.23-1.186,3.358-1.755
		c1.002,0.544,2.022,1.06,3.027,1.604c0.208,0.106,0.416,0.226,0.649,0.269c0.339-0.006,0.583-0.357,0.483-0.678
		c-0.204-1.256-0.432-2.508-0.645-3.762c0.87-0.843,1.731-1.692,2.604-2.532c0.165-0.174,0.396-0.368,0.334-0.636
		c-0.031-0.258-0.267-0.416-0.509-0.433c-1.257-0.193-2.519-0.367-3.777-0.555c-0.585-1.165-1.139-2.349-1.739-3.504
		C353.489,814.62,352.908,814.624,352.756,814.992z"/>
	<path fill="#FEC107" d="M368.338,814.711c0.242-0.507,0.901-0.732,1.41-0.502c0.313,0.119,0.504,0.411,0.645,0.701
		c0.495,1.015,0.995,2.027,1.496,3.039c1.196,0.181,2.397,0.333,3.591,0.529c0.568,0.082,0.98,0.674,0.886,1.236
		c-0.031,0.34-0.279,0.597-0.51,0.824c-0.798,0.765-1.586,1.538-2.378,2.311c0.197,1.175,0.416,2.352,0.602,3.528
		c0.125,0.575-0.303,1.174-0.874,1.271c-0.355,0.084-0.696-0.086-0.999-0.247c-0.959-0.518-1.93-1.013-2.889-1.525
		c-1.102,0.558-2.178,1.168-3.287,1.709c-0.704,0.335-1.603-0.322-1.499-1.094c0.173-1.22,0.417-2.428,0.613-3.643
		c-0.815-0.796-1.631-1.592-2.45-2.385c-0.245-0.229-0.457-0.529-0.447-0.881c-0.031-0.557,0.426-1.071,0.979-1.122
		c1.167-0.181,2.338-0.341,3.507-0.512C367.274,816.872,367.791,815.784,368.338,814.711 M368.857,815.001
		c-0.593,1.153-1.147,2.328-1.73,3.486c-1.188,0.172-2.376,0.349-3.565,0.516c-0.256,0.041-0.592,0.071-0.688,0.362
		c-0.13,0.26,0.057,0.511,0.239,0.684c0.89,0.863,1.778,1.727,2.665,2.594c-0.203,1.171-0.398,2.342-0.607,3.511
		c-0.039,0.262-0.131,0.598,0.112,0.794c0.188,0.184,0.467,0.141,0.677,0.021c1.119-0.584,2.233-1.182,3.355-1.759
		c1.13,0.594,2.257,1.196,3.395,1.78c0.334,0.242,0.865-0.06,0.786-0.478c-0.193-1.294-0.442-2.578-0.654-3.869
		c0.92-0.905,1.854-1.795,2.768-2.706c0.321-0.259,0.164-0.842-0.254-0.879c-1.285-0.21-2.578-0.375-3.863-0.572
		c-0.584-1.162-1.137-2.34-1.736-3.495C369.6,814.614,369.008,814.622,368.857,815.001z"/>
	<path fill="#FEC107" d="M384.439,814.717c0.231-0.482,0.838-0.724,1.339-0.537c0.348,0.101,0.57,0.413,0.718,0.727
		c0.496,1.016,0.997,2.027,1.496,3.041c1.191,0.182,2.389,0.335,3.578,0.528c0.576,0.077,0.996,0.674,0.901,1.242
		c-0.033,0.34-0.282,0.596-0.514,0.824c-0.796,0.763-1.583,1.538-2.374,2.308c0.198,1.176,0.416,2.352,0.602,3.53
		c0.122,0.575-0.306,1.174-0.879,1.27c-0.358,0.084-0.701-0.094-1.009-0.254c-0.955-0.515-1.92-1.01-2.878-1.519
		c-1.075,0.553-2.138,1.135-3.217,1.683c-0.704,0.387-1.659-0.252-1.567-1.048c0.171-1.226,0.415-2.439,0.614-3.661
		c-0.865-0.859-1.76-1.695-2.616-2.563c-0.573-0.573-0.214-1.677,0.585-1.802c1.199-0.199,2.409-0.356,3.613-0.532
		C383.382,816.881,383.892,815.788,384.439,814.717 M384.832,815.24c-0.527,1.084-1.065,2.166-1.6,3.249
		c-1.185,0.17-2.369,0.347-3.556,0.513c-0.261,0.04-0.604,0.07-0.698,0.369c-0.124,0.256,0.057,0.504,0.237,0.674
		c0.892,0.864,1.781,1.729,2.67,2.598c-0.208,1.21-0.417,2.424-0.627,3.635c-0.054,0.247-0.064,0.563,0.188,0.712
		c0.239,0.187,0.531,0.027,0.762-0.09c1.068-0.571,2.141-1.129,3.212-1.691c1.026,0.547,2.063,1.078,3.086,1.63
		c0.182,0.091,0.363,0.193,0.565,0.239c0.354,0.03,0.625-0.342,0.521-0.673c-0.205-1.256-0.433-2.508-0.642-3.764
		c0.914-0.898,1.844-1.784,2.752-2.688c0.341-0.26,0.181-0.868-0.255-0.897c-1.279-0.206-2.565-0.373-3.848-0.567
		c-0.552-1.117-1.102-2.238-1.654-3.355c-0.104-0.242-0.319-0.478-0.609-0.415C385.057,814.74,384.946,815.026,384.832,815.24z"/>
	<path fill="#FEC107" d="M400.534,814.737c0.225-0.487,0.825-0.742,1.333-0.562c0.353,0.097,0.583,0.405,0.73,0.723
		c0.496,1.017,1.001,2.031,1.5,3.048c1.186,0.181,2.377,0.335,3.563,0.524c0.58,0.07,1.009,0.664,0.919,1.238
		c-0.029,0.319-0.252,0.57-0.472,0.788c-0.809,0.782-1.614,1.566-2.419,2.354c0.199,1.177,0.416,2.352,0.603,3.529
		c0.113,0.545-0.259,1.118-0.796,1.249c-0.352,0.115-0.71-0.028-1.017-0.196c-0.98-0.524-1.971-1.035-2.954-1.556
		c-1.08,0.557-2.144,1.143-3.229,1.688c-0.703,0.375-1.647-0.265-1.552-1.056c0.173-1.223,0.41-2.435,0.614-3.651
		c-0.867-0.873-1.773-1.708-2.632-2.587c-0.553-0.572-0.194-1.657,0.592-1.783c1.206-0.207,2.425-0.351,3.635-0.544
		C399.479,816.874,399.999,815.804,400.534,814.737 M400.935,815.245c-0.528,1.083-1.061,2.163-1.598,3.244
		c-1.233,0.179-2.465,0.357-3.696,0.537c-0.264,0.016-0.552,0.156-0.587,0.444c-0.063,0.26,0.152,0.45,0.313,0.62
		c0.877,0.846,1.749,1.699,2.624,2.552c-0.206,1.188-0.406,2.382-0.62,3.573c-0.046,0.26-0.096,0.604,0.176,0.768
		c0.24,0.197,0.542,0.028,0.775-0.089c1.065-0.568,2.134-1.127,3.203-1.687c1.073,0.57,2.154,1.128,3.226,1.701
		c0.232,0.127,0.544,0.264,0.776,0.056c0.26-0.187,0.178-0.53,0.138-0.795c-0.21-1.174-0.405-2.351-0.611-3.525
		c0.927-0.923,1.885-1.813,2.802-2.745c0.293-0.271,0.096-0.821-0.301-0.844c-1.281-0.209-2.567-0.374-3.85-0.568
		c-0.556-1.122-1.105-2.245-1.66-3.367c-0.103-0.246-0.333-0.477-0.623-0.399C401.151,814.755,401.051,815.037,400.935,815.245z"/>
	<path fill="#FEC107" d="M336.804,814.456c0.383-0.153,0.854,0.026,1.027,0.404c0.563,1.107,1.102,2.229,1.653,3.344
		c1.227,0.188,2.46,0.35,3.687,0.543c0.413,0.046,0.737,0.431,0.711,0.845c0.003,0.304-0.224,0.53-0.423,0.731
		c-0.836,0.804-1.664,1.617-2.498,2.427c0.203,1.212,0.427,2.42,0.621,3.635c0.109,0.42-0.172,0.874-0.592,0.977
		c-0.267,0.079-0.533-0.041-0.766-0.16c-1.042-0.552-2.084-1.102-3.131-1.646c-1.082,0.573-2.163,1.144-3.248,1.709
		c-0.351,0.212-0.842,0.135-1.085-0.203c-0.216-0.255-0.165-0.606-0.111-0.908c0.201-1.133,0.392-2.268,0.588-3.402
		c-0.827-0.804-1.647-1.612-2.479-2.411c-0.206-0.206-0.441-0.436-0.441-0.749c-0.021-0.396,0.273-0.775,0.668-0.834
		c1.242-0.205,2.495-0.355,3.737-0.56c0.492-1.028,1.01-2.043,1.504-3.069C336.358,814.863,336.501,814.558,336.804,814.456z"/>
	<path fill="#FEC107" d="M336.139,831.803c0.348-0.731,1.51-0.758,1.893-0.048c0.574,1.088,1.089,2.21,1.647,3.308
		c1.17,0.17,2.342,0.334,3.51,0.514c0.597,0.051,1.062,0.648,0.967,1.241c-0.073,0.562-0.604,0.882-0.961,1.266
		c-0.625,0.642-1.329,1.22-1.905,1.906c0.149,1.213,0.432,2.407,0.591,3.619c0.104,0.807-0.862,1.45-1.57,1.06
		c-1.079-0.544-2.139-1.126-3.213-1.679c-1.084,0.562-2.156,1.151-3.25,1.698c-0.706,0.358-1.635-0.297-1.527-1.082
		c0.171-1.219,0.416-2.429,0.612-3.646c-0.832-0.809-1.663-1.617-2.493-2.425c-0.255-0.244-0.447-0.586-0.401-0.949
		c0.026-0.532,0.482-0.977,1.007-1.018c1.159-0.176,2.319-0.337,3.479-0.51C335.067,833.976,335.585,832.879,336.139,831.803
		 M336.658,832.095c-0.601,1.155-1.154,2.338-1.741,3.505c-1.213,0.177-2.427,0.354-3.641,0.528
		c-0.246,0.03-0.552,0.101-0.624,0.378c-0.121,0.296,0.13,0.538,0.321,0.729c0.87,0.833,1.73,1.68,2.595,2.521
		c-0.2,1.133-0.386,2.269-0.59,3.401c-0.035,0.213-0.079,0.429-0.062,0.649c0.078,0.337,0.505,0.489,0.789,0.295
		c1.133-0.586,2.26-1.187,3.389-1.782c1.044,0.547,2.088,1.092,3.127,1.647c0.186,0.093,0.373,0.2,0.583,0.228
		c0.34-0.017,0.57-0.371,0.469-0.69c-0.208-1.252-0.431-2.5-0.642-3.752c0.852-0.824,1.698-1.659,2.555-2.481
		c0.139-0.14,0.286-0.276,0.372-0.456c0.096-0.318-0.157-0.646-0.483-0.658c-1.262-0.194-2.528-0.368-3.792-0.555
		c-0.58-1.158-1.136-2.332-1.728-3.484C337.408,831.742,336.821,831.723,336.658,832.095z"/>
	<path fill="#FEC107" d="M352.276,831.751c0.37-0.686,1.484-0.685,1.856-0.001c0.577,1.09,1.092,2.211,1.65,3.31
		c1.204,0.184,2.413,0.337,3.613,0.536c0.558,0.094,0.955,0.675,0.865,1.23c-0.031,0.334-0.273,0.59-0.502,0.815
		c-0.799,0.77-1.592,1.544-2.386,2.318c0.196,1.176,0.413,2.35,0.601,3.527c0.122,0.568-0.292,1.165-0.859,1.271
		c-0.327,0.084-0.651-0.055-0.937-0.204c-0.993-0.526-1.985-1.055-2.985-1.565c-1.082,0.57-2.158,1.158-3.252,1.702
		c-0.705,0.349-1.619-0.305-1.515-1.084c0.17-1.22,0.416-2.43,0.612-3.646c-0.793-0.771-1.583-1.548-2.381-2.314
		c-0.232-0.229-0.48-0.49-0.508-0.829c-0.084-0.555,0.317-1.138,0.876-1.223c1.198-0.198,2.404-0.352,3.605-0.535
		C351.185,833.961,351.703,832.84,352.276,831.751 M352.757,832.104c-0.597,1.154-1.151,2.333-1.734,3.496
		c-1.184,0.171-2.366,0.349-3.551,0.514c-0.262,0.042-0.61,0.069-0.707,0.371c-0.123,0.26,0.063,0.507,0.245,0.68
		c0.89,0.86,1.773,1.727,2.663,2.588c-0.203,1.173-0.4,2.348-0.608,3.518c-0.038,0.264-0.132,0.6,0.118,0.795
		c0.219,0.215,0.532,0.103,0.763-0.027c1.082-0.576,2.171-1.142,3.253-1.716c0.943,0.488,1.884,0.982,2.821,1.48
		c0.283,0.145,0.557,0.325,0.871,0.395c0.345-0.004,0.591-0.359,0.489-0.684c-0.205-1.255-0.433-2.505-0.644-3.759
		c0.87-0.843,1.731-1.693,2.607-2.532c0.161-0.173,0.392-0.367,0.33-0.634c-0.029-0.259-0.27-0.417-0.511-0.437
		c-1.256-0.191-2.517-0.363-3.774-0.552c-0.585-1.163-1.138-2.343-1.736-3.497C353.495,831.734,352.912,831.733,352.757,832.104z"/>
	<path fill="#FEC107" d="M368.378,831.755c0.369-0.688,1.481-0.691,1.858-0.011c0.579,1.09,1.093,2.215,1.65,3.315
		c1.198,0.183,2.4,0.335,3.595,0.532c0.564,0.082,0.972,0.667,0.887,1.227c-0.03,0.342-0.278,0.602-0.511,0.832
		c-0.797,0.766-1.586,1.541-2.38,2.31c0.197,1.177,0.415,2.351,0.602,3.529c0.125,0.575-0.303,1.175-0.875,1.272
		c-0.359,0.085-0.703-0.092-1.011-0.252c-0.956-0.516-1.921-1.013-2.88-1.521c-1.098,0.56-2.174,1.166-3.279,1.707
		c-0.701,0.338-1.602-0.313-1.503-1.084c0.171-1.223,0.417-2.434,0.612-3.651c-0.797-0.775-1.589-1.555-2.391-2.323
		c-0.261-0.248-0.518-0.556-0.506-0.935c-0.033-0.559,0.422-1.079,0.979-1.129c1.168-0.182,2.34-0.339,3.509-0.513
		C367.287,833.962,367.808,832.843,368.378,831.755 M368.729,832.347c-0.528,1.087-1.066,2.171-1.601,3.253
		c-1.188,0.171-2.375,0.35-3.563,0.517c-0.258,0.04-0.596,0.068-0.691,0.363c-0.125,0.256,0.053,0.503,0.235,0.676
		c0.892,0.865,1.78,1.731,2.671,2.597c-0.209,1.215-0.417,2.431-0.627,3.643c-0.056,0.247-0.058,0.563,0.191,0.711
		c0.217,0.166,0.482,0.047,0.695-0.061c1.093-0.577,2.183-1.159,3.283-1.724c1.129,0.596,2.256,1.198,3.393,1.782
		c0.336,0.241,0.871-0.068,0.782-0.487c-0.192-1.29-0.44-2.574-0.652-3.86c0.916-0.903,1.852-1.793,2.764-2.702
		c0.327-0.257,0.17-0.846-0.252-0.883c-1.284-0.211-2.576-0.374-3.863-0.571c-0.552-1.119-1.102-2.239-1.652-3.358
		c-0.105-0.235-0.311-0.467-0.595-0.414C368.961,831.844,368.845,832.13,368.729,832.347z"/>
	<path fill="#FEC107" d="M384.438,831.831c0.231-0.478,0.826-0.721,1.326-0.544c0.329,0.093,0.557,0.371,0.699,0.669
		c0.511,1.034,1.019,2.069,1.529,3.103c1.194,0.184,2.395,0.338,3.586,0.531c0.568,0.08,0.983,0.665,0.894,1.229
		c-0.029,0.346-0.281,0.607-0.517,0.839c-0.795,0.764-1.582,1.535-2.37,2.306c0.197,1.18,0.415,2.356,0.602,3.541
		c0.118,0.574-0.316,1.171-0.89,1.261c-0.36,0.079-0.702-0.103-1.01-0.263c-0.952-0.513-1.913-1.006-2.869-1.513
		c-1.073,0.553-2.136,1.137-3.216,1.682c-0.703,0.387-1.658-0.25-1.566-1.046c0.174-1.224,0.411-2.439,0.616-3.658
		c-0.866-0.867-1.768-1.699-2.624-2.576c-0.566-0.573-0.204-1.672,0.591-1.792c1.2-0.201,2.41-0.356,3.614-0.533
		C383.382,833.992,383.892,832.902,384.438,831.831 M384.957,832.122c-0.59,1.153-1.145,2.322-1.725,3.479
		c-1.187,0.17-2.374,0.347-3.56,0.513c-0.261,0.04-0.606,0.076-0.697,0.375c-0.13,0.284,0.098,0.534,0.29,0.718
		c0.876,0.846,1.746,1.696,2.619,2.545c-0.206,1.214-0.416,2.425-0.625,3.638c-0.055,0.248-0.066,0.567,0.189,0.714
		c0.238,0.185,0.527,0.023,0.756-0.091c1.069-0.57,2.142-1.13,3.213-1.693c1.027,0.547,2.062,1.077,3.085,1.63
		c0.183,0.092,0.363,0.191,0.565,0.24c0.354,0.031,0.628-0.339,0.524-0.672c-0.206-1.256-0.433-2.509-0.644-3.764
		c0.917-0.901,1.848-1.787,2.759-2.696c0.335-0.261,0.172-0.862-0.259-0.89c-1.281-0.208-2.568-0.372-3.852-0.568
		c-0.583-1.168-1.139-2.351-1.741-3.507C385.692,831.723,385.098,831.742,384.957,832.122z"/>
	<path fill="#FEC107" d="M400.46,831.985c0.148-0.317,0.389-0.619,0.743-0.707c0.51-0.166,1.096,0.102,1.316,0.586
		c0.533,1.061,1.051,2.131,1.578,3.194c1.188,0.182,2.381,0.336,3.569,0.527c0.575,0.07,0.998,0.659,0.913,1.228
		c-0.027,0.322-0.25,0.578-0.471,0.796c-0.811,0.781-1.614,1.568-2.42,2.354c0.196,1.176,0.415,2.348,0.601,3.526
		c0.116,0.546-0.26,1.123-0.798,1.255c-0.354,0.113-0.713-0.035-1.021-0.201c-0.979-0.523-1.967-1.034-2.946-1.554
		c-1.082,0.556-2.148,1.143-3.235,1.69c-0.705,0.372-1.648-0.275-1.547-1.067c0.173-1.221,0.414-2.432,0.612-3.65
		c-0.871-0.864-1.77-1.703-2.63-2.579c-0.554-0.573-0.194-1.66,0.596-1.783c1.205-0.207,2.42-0.352,3.628-0.541
		C399.452,834.033,399.959,833.011,400.46,831.985 M400.938,832.352c-0.53,1.087-1.063,2.17-1.602,3.25
		c-1.192,0.17-2.386,0.35-3.578,0.517c-0.252,0.037-0.578,0.074-0.672,0.358c-0.139,0.283,0.088,0.543,0.281,0.727
		c0.879,0.846,1.748,1.699,2.624,2.549c-0.206,1.193-0.408,2.389-0.62,3.581c-0.046,0.259-0.093,0.597,0.174,0.765
		c0.238,0.193,0.539,0.029,0.772-0.087c1.066-0.57,2.137-1.131,3.208-1.691c1.153,0.602,2.297,1.227,3.459,1.811
		c0.335,0.199,0.807-0.131,0.723-0.514c-0.19-1.29-0.439-2.572-0.653-3.859c0.858-0.839,1.716-1.679,2.582-2.511
		c0.128-0.136,0.273-0.268,0.346-0.441c0.083-0.295-0.133-0.617-0.438-0.639c-1.277-0.206-2.562-0.373-3.84-0.566
		c-0.552-1.121-1.104-2.243-1.657-3.363c-0.103-0.244-0.329-0.476-0.617-0.404C401.156,831.861,401.052,832.145,400.938,832.352z"/>
</g>
</svg>
