<?xml version="1.0" encoding="UTF-8" ?>
<!DOCTYPE svg PUBLIC "-//W3C//DTD SVG 1.1//EN" "http://www.w3.org/Graphics/SVG/1.1/DTD/svg11.dtd">
<svg width="512pt" height="512pt" viewBox="0 0 512 512" version="1.1" xmlns="http://www.w3.org/2000/svg">
<g id="#ffffffff">
</g>
<g id="#1ebb76ff">
<path fill="#1ebb76" opacity="1.00" d=" M 105.77 0.00 L 330.56 0.00 C 335.41 0.13 338.97 3.65 342.08 6.96 C 376.05 41.00 410.09 74.96 444.06 108.99 C 446.79 111.55 448.15 115.22 447.99 118.93 C 448.02 233.29 447.98 347.64 448.01 462.00 C 448.19 470.95 447.65 480.28 443.39 488.35 C 436.60 502.34 421.71 511.53 406.24 512.00 L 105.05 512.00 C 101.05 511.51 97.03 511.00 93.21 509.69 C 80.40 505.52 69.93 494.85 66.04 481.95 C 63.80 474.86 63.97 467.34 64.00 460.00 C 64.00 321.66 63.99 183.32 64.00 44.99 C 63.86 34.28 67.05 23.35 74.19 15.21 C 81.89 5.86 93.74 0.51 105.77 0.00 M 91.62 27.64 C 87.26 31.86 85.20 37.99 85.35 43.98 C 85.34 185.34 85.34 326.69 85.35 468.05 C 85.18 474.25 87.45 480.59 92.09 484.81 C 96.28 488.90 102.20 490.79 107.99 490.65 C 206.69 490.66 305.39 490.66 404.09 490.65 C 410.54 490.83 417.11 488.32 421.32 483.35 C 425.08 479.23 426.75 473.58 426.65 468.08 C 426.67 354.73 426.64 241.37 426.66 128.01 C 405.40 127.94 384.14 128.09 362.88 127.94 C 350.47 127.87 338.10 122.42 330.20 112.77 C 323.54 105.19 320.21 95.11 320.06 85.10 C 319.91 63.85 320.06 42.59 319.98 21.34 C 249.31 21.36 178.63 21.33 107.96 21.35 C 101.96 21.20 95.83 23.28 91.62 27.64 M 341.36 36.42 C 341.35 52.61 341.31 68.80 341.37 84.98 C 340.91 97.01 351.97 107.49 363.92 106.65 C 379.81 106.66 395.69 106.67 411.58 106.64 C 388.17 83.24 364.76 59.83 341.36 36.42 Z" />
<path fill="#1ebb76" opacity="1.00" d=" M 220.86 182.94 C 225.63 175.43 234.34 171.09 243.12 170.79 C 252.01 170.42 262.07 171.70 268.34 178.70 C 275.48 186.98 276.69 198.50 277.15 209.00 C 277.78 216.77 275.83 224.40 274.01 231.89 C 270.81 243.91 266.97 255.75 263.23 267.62 C 275.96 282.54 289.67 296.69 305.13 308.81 C 307.59 310.47 309.68 314.04 313.13 312.75 C 329.29 310.16 345.90 307.71 362.15 310.99 C 369.48 312.64 377.37 315.86 381.16 322.79 C 384.98 329.82 384.57 338.50 382.13 345.92 C 379.59 353.56 372.68 359.12 364.96 360.96 C 358.19 362.59 350.71 363.62 344.12 360.75 C 329.88 354.43 317.34 345.04 304.88 335.83 C 280.01 340.53 255.35 346.63 231.64 355.58 C 222.56 373.35 211.91 390.55 197.87 404.86 C 189.15 413.80 179.01 421.95 166.89 425.66 C 160.76 427.35 154.21 426.56 148.19 424.77 C 140.58 422.42 133.23 417.57 129.87 410.11 C 126.22 401.85 128.35 391.79 134.19 385.08 C 141.96 375.46 153.27 369.70 164.02 364.06 C 181.30 355.68 198.53 347.21 215.89 339.01 C 225.22 317.26 231.62 294.42 239.34 272.08 C 227.52 255.69 215.15 238.06 213.50 217.28 C 213.36 205.56 214.28 193.03 220.86 182.94 M 238.71 194.73 C 235.22 199.73 235.04 206.13 234.73 212.00 C 234.39 224.73 241.10 236.12 247.49 246.64 C 250.06 237.51 253.14 228.52 255.15 219.24 C 256.54 213.27 255.66 207.11 255.35 201.07 C 254.95 197.69 253.95 193.02 249.94 192.37 C 246.17 191.94 241.32 191.28 238.71 194.73 M 255.45 291.22 C 251.26 303.81 247.16 316.44 242.84 328.99 C 256.22 324.99 269.71 321.40 283.34 318.34 C 278.84 314.26 274.22 310.30 269.78 306.16 C 264.94 301.24 260.26 296.17 255.45 291.22 M 334.87 331.16 C 340.72 334.76 346.29 339.04 352.86 341.28 C 355.88 341.51 358.92 340.96 361.67 339.71 C 362.35 337.99 362.63 336.16 362.73 334.33 C 360.60 332.50 357.87 331.66 355.12 331.39 C 348.40 330.63 341.59 330.44 334.87 331.16 M 170.08 385.07 C 163.89 388.33 157.56 391.62 152.46 396.49 C 150.85 397.93 149.93 399.90 149.25 401.92 C 151.92 403.53 154.80 404.95 157.96 405.17 C 162.43 405.83 166.44 403.23 170.02 400.92 C 181.22 393.11 190.04 382.43 197.87 371.37 C 188.54 375.79 179.15 380.12 170.08 385.07 Z" />
</g>
</svg>
