<?xml version="1.0" encoding="UTF-8" ?>
<!DOCTYPE svg PUBLIC "-//W3C//DTD SVG 1.1//EN" "http://www.w3.org/Graphics/SVG/1.1/DTD/svg11.dtd">
<svg width="512pt" height="512pt" viewBox="0 0 512 512" version="1.1" xmlns="http://www.w3.org/2000/svg">
<g id="#ffffffff">
</g>
<g id="#1ebb76ff">
<path fill="#1ebb76" opacity="1.00" d=" M 222.40 0.00 L 472.60 0.00 C 484.04 1.15 495.09 6.64 502.32 15.68 C 508.12 22.65 511.36 31.52 512.00 40.52 L 512.00 429.52 C 510.95 442.26 504.20 454.44 493.59 461.65 C 488.16 465.54 481.69 467.46 475.42 469.52 C 435.18 482.92 394.95 496.35 354.71 509.75 C 351.33 510.86 347.83 511.55 344.31 512.00 L 338.47 512.00 C 323.04 510.82 308.57 500.95 302.40 486.69 C 296.74 474.58 299.20 460.91 298.67 448.02 C 274.45 447.97 250.22 448.01 225.99 448.00 C 218.53 448.09 211.00 446.95 204.09 444.09 C 185.05 436.61 171.35 417.38 170.76 396.90 C 170.53 383.26 170.76 369.62 170.64 355.98 C 170.66 352.73 170.43 349.18 172.32 346.34 C 174.84 342.15 180.43 340.24 184.98 342.01 C 189.10 343.44 192.00 347.61 191.96 351.97 C 192.12 366.66 191.87 381.36 192.07 396.06 C 192.37 412.24 206.76 426.44 222.93 426.62 C 248.17 426.73 273.42 426.64 298.66 426.66 C 298.69 312.78 298.64 198.91 298.68 85.03 C 298.54 67.47 310.59 50.80 327.19 45.20 C 351.22 37.25 375.16 28.97 399.29 21.32 C 340.84 21.36 282.40 21.30 223.96 21.35 C 211.40 21.21 199.32 29.27 194.55 40.87 C 191.50 47.49 191.99 54.90 192.00 61.98 C 191.96 73.34 192.08 84.70 191.95 96.05 C 192.11 102.18 186.15 107.46 180.08 106.56 C 174.87 106.06 170.59 101.23 170.70 95.99 C 170.62 81.68 170.66 67.37 170.69 53.06 C 170.73 39.55 176.15 26.15 185.57 16.45 C 195.08 6.43 208.60 0.47 222.40 0.00 M 462.47 22.56 C 419.99 36.74 377.50 50.87 335.03 65.06 C 326.11 67.75 319.62 76.66 320.01 86.00 C 319.99 213.67 320.00 341.35 320.01 469.02 C 319.74 478.01 325.86 486.61 334.36 489.48 C 339.04 491.18 344.24 490.90 348.89 489.21 C 390.98 475.19 433.07 461.17 475.16 447.13 C 481.22 445.25 486.48 440.79 488.94 434.90 C 490.92 430.54 490.69 425.66 490.67 421.00 C 490.66 295.00 490.68 169.00 490.66 43.00 C 490.86 34.63 485.64 26.46 477.95 23.16 C 473.12 20.89 467.50 21.18 462.47 22.56 Z" />
<path fill="#1ebb76" opacity="1.00" d=" M 128.05 137.95 C 128.28 132.80 132.80 128.29 137.95 128.07 C 141.13 127.79 144.28 129.17 146.49 131.43 C 173.86 158.74 201.14 186.15 228.54 213.43 C 232.26 216.40 235.81 220.81 234.67 225.90 C 233.97 230.10 230.46 232.77 227.58 235.53 C 200.55 262.52 173.58 289.58 146.52 316.55 C 142.93 320.47 136.43 321.14 132.24 317.81 C 127.22 314.25 126.59 306.26 131.01 301.97 C 153.36 279.48 175.86 257.13 198.25 234.66 C 135.81 234.66 73.38 234.70 10.95 234.64 C 5.36 234.90 0.38 230.22 0.00 224.69 L 0.00 223.24 C 0.40 217.72 5.39 213.11 10.95 213.36 C 73.38 213.30 135.81 213.34 198.24 213.33 C 175.99 191.04 153.69 168.80 131.43 146.52 C 129.16 144.30 127.77 141.15 128.05 137.95 Z" />
</g>
</svg>
