<?xml version="1.0" encoding="UTF-8" ?>
<!DOCTYPE svg PUBLIC "-//W3C//DTD SVG 1.1//EN" "http://www.w3.org/Graphics/SVG/1.1/DTD/svg11.dtd">
<svg width="512pt" height="512pt" viewBox="0 0 512 512" version="1.1" xmlns="http://www.w3.org/2000/svg">
<g id="#ffffffff">
</g>
<g id="#1ebb76ff">
<path fill="#1ebb76" opacity="1.00" d=" M 164.04 26.10 C 199.88 7.98 241.13 0.95 280.97 5.86 C 317.23 10.12 352.20 24.57 380.98 47.01 C 407.40 67.50 428.79 94.46 442.41 125.00 C 446.77 125.09 451.19 124.90 455.50 125.78 C 467.16 128.14 476.90 137.77 479.40 149.41 C 480.49 154.88 480.25 160.52 480.11 166.07 C 480.15 171.01 475.94 175.45 471.02 175.75 C 466.36 176.24 461.64 172.96 460.54 168.39 C 459.48 163.12 461.02 157.59 459.45 152.38 C 457.83 147.72 452.94 144.76 448.07 145.13 C 321.73 145.13 195.40 145.15 69.06 145.12 C 65.00 145.23 60.50 144.49 56.93 146.92 C 53.51 149.01 51.67 153.03 51.82 156.99 C 51.81 191.32 51.82 225.65 51.82 259.98 C 51.61 263.99 53.40 268.10 56.85 270.27 C 60.40 272.75 64.94 272.03 69.01 272.15 C 195.36 272.11 321.70 272.14 448.05 272.13 C 452.26 272.37 456.56 270.31 458.64 266.57 C 462.03 260.91 458.14 253.50 462.05 248.03 C 465.33 243.08 473.15 242.43 477.22 246.76 C 481.10 250.42 480.12 256.19 480.17 260.98 C 480.23 271.57 474.46 281.90 465.45 287.45 C 458.67 291.93 450.34 292.46 442.45 292.16 C 439.60 298.45 436.41 304.58 433.07 310.63 C 458.14 335.65 483.15 360.73 508.23 385.75 C 510.06 387.46 511.38 389.64 512.00 392.09 L 512.00 394.71 C 511.34 399.23 507.79 403.39 503.06 403.72 C 474.13 406.63 445.15 409.12 416.21 411.91 C 413.72 438.63 411.19 465.34 408.71 492.06 C 408.37 495.24 408.38 498.52 407.34 501.57 C 405.15 507.01 397.69 509.44 392.78 506.18 C 389.73 503.96 387.33 501.00 384.62 498.40 C 354.83 468.67 325.11 438.87 295.32 409.15 C 269.42 414.12 242.59 414.13 216.70 409.13 C 186.08 439.71 155.49 470.31 124.90 500.91 C 122.06 503.66 119.31 507.35 115.01 507.62 C 109.44 508.26 103.90 503.69 103.84 497.99 C 101.15 469.30 98.46 440.61 95.78 411.92 C 66.83 409.15 37.87 406.44 8.91 403.72 C 4.18 403.40 0.62 399.24 0.00 394.71 L 0.00 392.28 C 0.51 390.02 1.56 387.90 3.25 386.30 C 28.48 361.09 53.68 335.83 78.91 310.61 C 75.56 304.58 72.37 298.45 69.52 292.16 C 64.93 292.12 60.26 292.36 55.76 291.30 C 42.44 288.28 32.00 275.68 31.86 261.96 C 31.75 226.66 31.81 191.36 31.82 156.06 C 31.72 143.46 40.15 131.44 51.95 127.11 C 57.55 124.83 63.68 125.10 69.60 124.98 C 88.49 82.47 122.56 47.05 164.04 26.10 M 175.00 43.02 C 139.39 60.46 109.63 89.66 91.69 125.05 C 201.23 125.09 310.77 125.07 420.30 125.06 C 409.30 103.46 393.99 84.08 375.52 68.38 C 348.48 45.06 314.42 30.04 278.97 25.77 C 243.61 21.33 206.99 27.28 175.00 43.02 M 91.66 292.15 C 117.94 344.18 170.15 382.23 227.88 390.73 C 256.82 395.16 286.82 392.69 314.58 383.37 C 359.84 368.15 398.39 334.47 420.32 292.15 C 310.77 292.12 201.22 292.13 91.66 292.15 M 32.02 385.84 C 56.52 388.11 81.02 390.41 105.51 392.72 C 110.36 392.94 114.63 397.04 114.90 401.91 C 116.99 423.24 118.90 444.58 120.94 465.92 C 121.28 469.09 121.27 472.32 122.09 475.42 C 146.09 451.41 170.12 427.42 194.10 403.39 C 152.51 390.22 115.52 363.26 90.04 327.86 C 70.64 347.13 51.35 366.51 32.02 385.84 M 317.93 403.38 C 341.98 427.44 365.95 451.58 390.14 475.49 C 392.51 450.97 394.70 426.44 397.08 401.93 C 397.34 397.04 401.64 392.93 406.51 392.71 C 430.99 390.41 455.48 388.12 479.97 385.83 C 460.65 366.47 441.33 347.13 421.96 327.82 C 396.44 363.16 359.54 390.22 317.93 403.38 Z" />
<path fill="#1ebb76" opacity="1.00" d=" M 240.57 44.81 C 286.83 40.24 334.73 56.42 368.40 88.54 C 372.19 92.36 371.88 99.24 367.80 102.74 C 364.16 106.15 357.98 106.15 354.37 102.70 C 341.89 91.21 327.50 81.76 311.81 75.26 C 284.88 63.92 254.44 61.17 225.88 67.27 C 201.64 72.36 178.77 83.88 160.28 100.37 C 157.15 103.63 152.66 106.54 147.96 104.88 C 141.12 103.12 138.46 93.45 143.61 88.55 C 169.80 63.64 204.61 48.11 240.57 44.81 Z" />
<path fill="#1ebb76" opacity="1.00" d=" M 164.31 162.36 C 170.36 159.38 178.29 164.27 178.28 171.03 C 178.44 195.67 178.31 220.32 178.34 244.96 C 178.78 250.30 174.44 255.46 169.05 255.69 C 163.61 256.23 158.37 251.55 158.39 246.07 C 158.28 221.37 158.36 196.66 158.35 171.96 C 158.19 167.94 160.57 163.94 164.31 162.36 Z" />
<path fill="#1ebb76" opacity="1.00" d=" M 226.22 162.33 C 238.42 159.70 251.30 163.72 261.08 171.14 C 265.16 174.09 266.31 180.23 263.54 184.44 C 260.63 189.36 253.36 190.62 248.96 186.99 C 242.99 182.65 234.93 179.82 227.73 182.70 C 224.38 183.81 221.93 188.50 224.72 191.37 C 236.06 197.49 249.86 199.32 259.43 208.48 C 265.68 214.40 268.87 223.53 267.02 232.02 C 265.21 241.27 258.25 248.99 249.71 252.70 C 233.27 259.70 212.67 254.05 201.25 240.54 C 196.70 234.89 200.79 225.53 207.96 224.84 C 212.15 224.05 215.70 226.75 218.42 229.58 C 223.65 234.27 231.06 236.37 237.99 235.48 C 242.34 234.77 247.11 231.80 247.55 227.03 C 247.17 222.98 243.08 220.81 239.78 219.27 C 232.62 216.39 225.38 213.70 218.31 210.61 C 210.88 207.77 205.38 200.75 203.95 192.98 C 202.50 185.53 204.71 177.51 209.67 171.79 C 213.88 166.83 219.90 163.64 226.22 162.33 Z" />
<path fill="#1ebb76" opacity="1.00" d=" M 316.44 162.61 C 328.52 159.97 341.65 162.22 352.01 169.03 C 363.38 176.29 371.35 188.64 373.15 202.03 C 375.30 216.43 370.18 231.63 359.85 241.88 C 350.57 251.30 337.18 256.41 323.99 255.64 C 309.59 254.97 295.83 247.13 287.71 235.26 C 279.85 223.99 277.42 209.19 281.15 195.98 C 285.61 179.48 299.74 166.16 316.44 162.61 M 320.21 182.26 C 306.42 185.27 296.77 200.20 299.97 214.01 C 302.51 228.34 317.98 238.55 332.16 235.12 C 346.37 232.45 356.44 217.08 353.03 202.98 C 350.33 188.50 334.47 178.42 320.21 182.26 Z" />
<path fill="#1ebb76" opacity="1.00" d=" M 466.33 199.42 C 473.03 196.26 481.51 202.74 480.00 210.06 C 479.30 217.20 470.04 221.15 464.39 216.71 C 458.04 212.67 459.34 202.01 466.33 199.42 Z" />
<path fill="#1ebb76" opacity="1.00" d=" M 148.21 312.27 C 151.95 311.17 155.92 312.66 158.56 315.37 C 183.12 337.91 215.65 351.53 248.96 352.97 C 285.75 354.88 323.09 342.09 350.75 317.72 C 353.25 315.62 355.54 312.88 358.89 312.17 C 363.13 311.14 367.86 313.30 369.89 317.16 C 372.01 320.96 371.23 326.10 368.04 329.07 C 347.84 347.96 322.76 361.62 295.89 368.26 C 264.77 376.02 231.36 374.52 201.12 363.78 C 179.75 356.18 159.86 344.20 143.44 328.53 C 138.37 323.49 141.30 313.86 148.21 312.27 Z" />
</g>
</svg>
