<?xml version="1.0" encoding="UTF-8" ?>
<!DOCTYPE svg PUBLIC "-//W3C//DTD SVG 1.1//EN" "http://www.w3.org/Graphics/SVG/1.1/DTD/svg11.dtd">
<svg width="512pt" height="512pt" viewBox="0 0 512 512" version="1.1" xmlns="http://www.w3.org/2000/svg">
<g id="#ffffffff">
</g>
<g id="#1ebb76ff">
<path fill="#1ebb76" opacity="1.00" d=" M 114.52 0.00 L 352.68 0.00 C 355.70 0.60 358.58 2.01 360.57 4.41 C 391.67 39.31 422.76 74.22 453.88 109.11 C 456.14 111.60 458.60 114.39 458.21 118.03 C 458.29 228.01 458.24 337.98 458.24 447.96 C 458.41 463.68 452.59 479.40 441.97 491.03 C 430.56 503.82 413.80 511.59 396.66 512.00 L 114.45 512.00 C 104.77 511.48 95.16 508.95 86.68 504.22 C 71.72 496.06 60.28 481.65 55.94 465.15 C 54.22 458.93 53.71 452.45 53.74 446.02 C 53.77 318.69 53.73 191.37 53.76 64.05 C 53.59 48.57 59.22 33.08 69.55 21.52 C 80.79 8.60 97.43 0.69 114.52 0.00 M 102.01 23.40 C 85.81 29.23 74.63 45.86 74.99 63.03 C 74.89 189.35 74.98 315.67 74.94 441.99 C 74.90 448.89 74.92 455.99 77.33 462.55 C 82.03 476.88 95.18 487.97 110.10 490.16 C 114.72 490.82 119.38 490.93 124.04 490.85 C 213.68 490.84 303.33 490.85 392.98 490.85 C 400.50 490.78 408.20 489.55 414.83 485.82 C 427.27 479.34 435.77 466.10 436.74 452.13 C 437.27 446.77 436.99 441.38 437.05 436.01 C 437.05 333.38 437.07 230.75 437.04 128.12 C 409.37 128.14 381.69 128.11 354.02 128.14 C 351.00 128.07 347.72 127.83 345.35 125.75 C 342.34 123.52 341.19 119.69 341.25 116.08 C 341.25 84.27 341.26 52.45 341.25 20.63 C 268.84 20.61 196.43 20.63 124.02 20.62 C 116.61 20.54 108.99 20.64 102.01 23.40 M 362.41 37.90 C 362.41 61.11 362.39 84.32 362.41 107.53 C 383.00 107.51 403.60 107.56 424.19 107.51 C 403.64 84.27 383.02 61.09 362.41 37.90 Z" />
<path fill="#1ebb76" opacity="1.00" d=" M 125.54 107.66 C 128.60 106.75 131.84 106.99 135.00 106.96 C 163.33 106.98 191.65 106.96 219.98 106.97 C 222.98 107.03 226.26 107.25 228.65 109.31 C 233.54 113.01 233.70 121.10 229.19 125.18 C 226.79 127.60 223.27 128.14 220.02 128.13 C 190.01 128.11 160.01 128.17 130.01 128.10 C 124.97 128.39 119.81 125.02 118.80 119.94 C 117.45 114.89 120.61 109.29 125.54 107.66 Z" />
<path fill="#1ebb76" opacity="1.00" d=" M 128.21 177.31 C 151.81 176.95 175.43 177.26 199.03 177.15 C 258.37 177.19 317.71 177.08 377.05 177.21 C 383.42 176.97 389.08 183.16 387.73 189.52 C 386.99 195.10 381.38 198.75 375.97 198.34 C 293.99 198.33 212.01 198.37 130.03 198.32 C 124.91 198.59 119.75 195.14 118.77 189.99 C 117.18 183.99 122.08 177.61 128.21 177.31 Z" />
<path fill="#1ebb76" opacity="1.00" d=" M 125.22 230.36 C 128.70 229.18 132.43 229.58 136.03 229.53 C 216.02 229.54 296.01 229.52 376.00 229.54 C 379.05 229.58 382.32 230.12 384.61 232.32 C 388.98 236.19 388.94 243.74 384.70 247.68 C 382.41 249.94 379.11 250.71 375.99 250.71 C 294.29 250.73 212.60 250.71 130.90 250.72 C 126.85 250.85 122.40 249.51 120.22 245.84 C 116.51 240.58 119.14 232.44 125.22 230.36 Z" />
<path fill="#1ebb76" opacity="1.00" d=" M 128.37 281.48 C 210.23 281.15 292.11 281.46 373.98 281.32 C 377.71 281.29 381.93 281.47 384.75 284.26 C 389.24 288.38 388.82 296.38 384.02 300.09 C 380.69 302.87 376.09 302.54 372.04 302.54 C 291.37 302.49 210.69 302.55 130.02 302.51 C 124.81 302.78 119.59 299.21 118.71 293.93 C 117.30 287.93 122.26 281.70 128.37 281.48 Z" />
<path fill="#1ebb76" opacity="1.00" d=" M 128.20 333.31 C 152.80 332.94 177.42 333.26 202.03 333.15 C 259.36 333.14 316.69 333.18 374.02 333.13 C 377.99 333.02 382.50 333.50 385.22 336.76 C 389.41 341.14 388.49 349.05 383.42 352.35 C 379.50 355.06 374.46 354.21 369.98 354.35 C 290.01 354.32 210.03 354.38 130.06 354.32 C 124.91 354.61 119.72 351.12 118.75 345.93 C 117.21 339.95 122.09 333.62 128.20 333.31 Z" />
<path fill="#1ebb76" opacity="1.00" d=" M 125.43 384.60 C 128.50 383.65 131.77 383.89 134.94 383.86 C 161.63 383.88 188.31 383.87 215.00 383.87 C 218.33 383.90 221.72 383.62 224.98 384.47 C 230.05 386.02 233.62 391.75 232.13 396.98 C 231.08 402.01 225.92 405.30 220.93 405.01 C 190.61 405.04 160.30 405.07 129.98 405.00 C 125.36 405.15 120.59 402.47 119.13 397.94 C 117.08 392.73 120.15 386.36 125.43 384.60 Z" />
</g>
</svg>
