<?xml version="1.0" encoding="utf-8"?>
<!-- Generator: Adobe Illustrator 24.3.0, SVG Export Plug-In . SVG Version: 6.00 Build 0)  -->
<svg version="1.1" id="Layer_1" xmlns="http://www.w3.org/2000/svg" xmlns:xlink="http://www.w3.org/1999/xlink" x="0px" y="0px"
	 viewBox="0 0 500 500" style="enable-background:new 0 0 500 500;" xml:space="preserve">
<style type="text/css">
	.st0{fill:#E0E0E0;}
	.st1{fill:#FAFAFA;}
	.st2{fill:#FFFFFF;}
	.st3{fill:#EBEBEB;}
	.st4{fill:#263238;}
	.st5{fill:#455A64;}
	.st6{fill:#009EE5;}
	.st7{fill:#AE7461;}
	.st8{fill:#6F4439;}
	.st9{opacity:0.3;}
	.st10{opacity:0.6;}
</style>
<g id="freepik--background-complete--inject-2">
	<rect x="392" y="56.6" class="st0" width="69.1" height="72"/>
	<rect x="387.3" y="56.6" class="st1" width="69.1" height="72"/>
	<path class="st0" d="M456.4,128.6h-69.1v-72h69.1V128.6z M387.4,128.6h69v-72h-69V128.6z"/>
	<rect x="396.6" y="66.3" class="st2" width="50.5" height="52.6"/>
	<path class="st0" d="M396.6,119.3c-0.4,0.5-0.8,1-1.2,1.4c-0.8,0.8-1.9,2-3.2,3.2s-2.4,2.4-3.3,3.2c-0.4,0.5-0.9,0.9-1.5,1.2
		c0.4-0.5,0.8-1,1.2-1.4c0.8-0.8,1.9-2,3.2-3.3s2.4-2.4,3.3-3.2C395.6,120,396.1,119.6,396.6,119.3z"/>
	<path class="st0" d="M447.1,119.2c0.5,0.4,1,0.8,1.5,1.2c0.9,0.8,2,1.9,3.2,3.2s2.4,2.4,3.2,3.3c0.5,0.4,0.9,0.9,1.2,1.5
		c-0.5-0.3-1-0.8-1.5-1.2c-0.9-0.8-2-1.9-3.3-3.2s-2.4-2.4-3.2-3.3C447.9,120.2,447.5,119.7,447.1,119.2z"/>
	<path class="st0" d="M447,66.4c0.4-0.5,0.8-1,1.2-1.4c0.8-0.8,1.9-2,3.2-3.3s2.4-2.4,3.3-3.2c0.4-0.5,0.9-0.9,1.5-1.2
		c-0.4,0.5-0.8,1-1.2,1.4c-0.8,0.8-2,2-3.2,3.3s-2.5,2.4-3.3,3.2C448,65.7,447.5,66.1,447,66.4z"/>
	<path class="st0" d="M396.5,66.6c-0.5-0.3-1-0.8-1.5-1.2c-0.9-0.8-2-1.9-3.2-3.2s-2.4-2.4-3.2-3.3c-0.5-0.4-0.9-0.9-1.2-1.5
		c0.5,0.4,1,0.8,1.4,1.2c0.9,0.8,2,1.9,3.3,3.2s2.4,2.4,3.2,3.3C395.7,65.5,396.1,66,396.5,66.6z"/>
	<path class="st0" d="M447,118.9c0,0,0-0.1,0-0.3s0-0.4,0-0.7c0-0.7,0-1.6,0-2.8c0-2.5,0-6.1-0.1-10.7c0-9.2,0-22.4-0.1-38.1
		l0.2,0.2h-50.4l0,0l0.2-0.2c0,19.3,0,37.4,0,52.7l-0.2-0.2l36.5,0.1h10.2h2.7h0.7c0.1,0,0.2,0,0.2,0h-0.9h-2.7h-10.2l-36.6,0.1
		h-0.2v-0.2c0-15.2,0-33.3,0-52.7v-0.2h0.2h50.4h0.2V66c0,15.8-0.1,29-0.1,38.2c0,4.6,0,8.2-0.1,10.7c0,1.2,0,2.2,0,2.8
		c0,0.3,0,0.5,0,0.7C447.1,118.6,447.1,118.8,447,118.9z"/>
	<rect x="413.5" y="84.2" class="st3" width="16.9" height="16.8"/>
	<rect x="392" y="156.3" class="st0" width="69.1" height="72"/>
	<rect x="387.3" y="156.3" class="st1" width="69.1" height="72"/>
	<path class="st0" d="M456.4,228.3h-69.1v-72h69.1V228.3z M387.4,228.3h69v-72h-69V228.3z"/>
	<rect x="396.6" y="166" class="st2" width="50.5" height="52.6"/>
	<path class="st0" d="M396.6,219c-0.4,0.5-0.8,1-1.2,1.4c-0.8,0.9-1.9,2-3.2,3.2s-2.4,2.4-3.3,3.2c-0.4,0.5-0.9,0.9-1.5,1.2
		c0.4-0.5,0.8-1,1.2-1.4c0.8-0.9,1.9-2,3.2-3.3s2.4-2.4,3.3-3.2C395.6,219.8,396.1,219.3,396.6,219z"/>
	<path class="st0" d="M447.1,218.8c0.5,0.4,1,0.8,1.5,1.2c0.9,0.8,2,1.9,3.2,3.2s2.4,2.4,3.2,3.3c0.5,0.4,0.9,0.9,1.2,1.5
		c-0.5-0.4-1-0.8-1.5-1.2c-0.9-0.8-2-1.9-3.3-3.2s-2.4-2.4-3.2-3.3C447.9,219.8,447.5,219.4,447.1,218.8z"/>
	<path class="st0" d="M447,166.1c0.4-0.5,0.8-1,1.2-1.4c0.8-0.9,1.9-2,3.2-3.3s2.4-2.4,3.3-3.1c0.4-0.5,0.9-0.9,1.5-1.2
		c-0.4,0.5-0.8,1-1.2,1.4c-0.8,0.9-2,2-3.2,3.3s-2.5,2.4-3.3,3.2C448,165.4,447.5,165.8,447,166.1z"/>
	<path class="st0" d="M396.5,166.2c-0.5-0.4-1-0.8-1.5-1.2c-0.9-0.8-2-1.9-3.2-3.2s-2.4-2.4-3.2-3.3c-0.5-0.4-0.9-0.9-1.2-1.5
		c0.5,0.4,1,0.8,1.4,1.2c0.9,0.8,2,1.9,3.3,3.2s2.4,2.4,3.2,3.3C395.7,165.2,396.1,165.7,396.5,166.2z"/>
	<path class="st0" d="M447,218.6c0,0,0-0.1,0-0.3s0-0.4,0-0.7c0-0.7,0-1.6,0-2.8c0-2.5,0-6.1-0.1-10.7c0-9.2,0-22.4-0.1-38.1
		l0.2,0.2h-50.4l0,0l0.2-0.2c0,19.3,0,37.4,0,52.6l-0.2-0.2l36.5,0.1h10.2h2.7l0,0h-2.7h-10.2l-36.6,0.1h-0.2v-0.2
		c0-15.2,0-33.3,0-52.6v-0.2h0.2h50.4h0.2v0.2c0,15.8-0.1,28.9-0.1,38.2c0,4.6,0,8.2-0.1,10.7c0,1.2,0,2.1,0,2.8c0,0.3,0,0.5,0,0.7
		C447.1,218.3,447.1,218.5,447,218.6z"/>
	<rect x="413.5" y="183.9" class="st3" width="16.9" height="16.9"/>
	<rect x="46.2" y="231.2" class="st0" width="54.5" height="56.8"/>
	<rect x="42.5" y="231.2" class="st1" width="54.5" height="56.8"/>
	<path class="st0" d="M97,288H42.5v-56.9H97V288z M42.5,288h54.4v-56.8H42.5L42.5,288z"/>
	<rect x="49.8" y="238.8" class="st2" width="39.8" height="41.5"/>
	<path class="st0" d="M49.8,280.6c-0.3,0.4-0.6,0.8-1,1.1c-0.6,0.7-1.5,1.6-2.5,2.6s-1.9,1.9-2.6,2.5c-0.3,0.4-0.7,0.7-1.2,1
		c0.3-0.4,0.6-0.8,1-1.1c0.6-0.7,1.5-1.6,2.5-2.6s1.9-1.9,2.6-2.5C49,281.2,49.4,280.9,49.8,280.6z"/>
	<path class="st0" d="M89.6,280.5c0.4,0.3,0.8,0.6,1.1,1c0.7,0.6,1.6,1.5,2.6,2.5s1.9,1.9,2.5,2.6c0.4,0.3,0.7,0.7,1,1.1
		c-0.4-0.3-0.8-0.6-1.1-1c-0.7-0.6-1.6-1.5-2.6-2.5s-1.9-1.9-2.5-2.6C90.2,281.3,89.9,280.9,89.6,280.5z"/>
	<path class="st0" d="M89.5,238.9c0.3-0.4,0.6-0.8,1-1.1c0.6-0.7,1.5-1.6,2.5-2.6s1.9-1.9,2.6-2.5c0.3-0.4,0.7-0.7,1.2-1
		c-0.3,0.4-0.6,0.8-1,1.1c-0.6,0.7-1.5,1.6-2.5,2.6s-1.9,1.9-2.6,2.5C90.3,238.3,89.9,238.6,89.5,238.9z"/>
	<path class="st0" d="M49.7,239c-0.4-0.3-0.8-0.6-1.1-1c-0.7-0.6-1.6-1.5-2.6-2.5s-1.9-1.9-2.5-2.6c-0.4-0.3-0.7-0.7-1-1.1
		c0.4,0.3,0.8,0.6,1.1,1c0.7,0.6,1.6,1.5,2.6,2.5s1.9,1.9,2.5,2.6C49.1,238.2,49.4,238.6,49.7,239z"/>
	<path class="st0" d="M89.5,280.3c0-0.1,0-0.1,0-0.2c0-0.1,0-0.3,0-0.6c0-0.5,0-1.3,0-2.2c0-2,0-4.8,0-8.5c0-7.3,0-17.6-0.1-30
		l0.2,0.2l-39.8,0l0,0l0.2-0.2c0,15.2,0,29.5,0,41.5l-0.2-0.1l28.8,0.1h8.1h2.1h-2.1h-8l-28.9,0.1h-0.2v-0.1c0-12,0-26.3,0-41.5
		v-0.2h0.2h39.7h0.2v0.1c0,12.4-0.1,22.8-0.1,30.1c0,3.6,0,6.5,0,8.4c0,1,0,1.7,0,2.2c0,0.2,0,0.4,0,0.6S89.5,280.3,89.5,280.3z"/>
	<rect x="63.1" y="252.9" class="st3" width="13.3" height="13.3"/>
	<path class="st0" d="M454,257.6c-10.7,5.5-18.9,15.1-24.8,25.6s-9.7,22-13.5,33.5l-3.3,59.1c12.5-21.2,22.5-46.1,25.2-70.6
		l-8.3-0.7c5.6-0.9,10.2-4.9,13.2-9.7s4.5-10.3,6-15.7l-10.1,1.5C446.3,275.3,451.9,267,454,257.6z"/>
	<path class="st3" d="M410.5,389.7c0,0-27-32.4-26.7-63.3h10.9c0,0-11.9-7.8-10.9-12.2s1.2-20.9,1.2-20.9l10,2.5
		c0,0-7.5-3.7-8.4-9.7s2.2-33.4,2.2-33.4s12.2,12.8,15.9,25.9s13.6,28.4,10.7,68.4S410.5,389.7,410.5,389.7z"/>
	<path class="st3" d="M424.2,392.7c0,0,29.3-19.5,35.8-44.4l-8.8-2.4c0,0,11.2-3.7,11.5-7.4s3.6-17.1,3.6-17.1l-8.6-0.2
		c0,0,6.8-1.4,8.9-5.9s5.5-27.3,5.5-27.3s-12.6,7.6-18.5,17.4s-17.1,19.9-23.5,52.6S424.2,392.7,424.2,392.7z"/>
	<path class="st0" d="M396.2,281c0,0.1,0.1,0.2,0.1,0.3l0.2,1c0.2,0.9,0.5,2.2,0.9,3.8s0.8,3.7,1.3,6.1s1,5.1,1.6,8.1
		c1.2,6,2.4,13.2,3.6,21.2s2.4,16.8,3.5,26s1.9,18.1,2.5,26.2s1.1,15.3,1.3,21.4c0.1,3,0.2,5.8,0.3,8.2s0.1,4.5,0.1,6.2s0,3,0,3.9v1
		c0,0.1,0,0.2,0,0.4c0-0.1,0-0.2,0-0.4c0-0.3,0-0.6,0-1c0-0.9-0.1-2.2-0.1-3.9s-0.1-3.8-0.2-6.2s-0.2-5.2-0.4-8.2
		c-0.3-6.1-0.8-13.4-1.4-21.4s-1.5-16.9-2.6-26.2s-2.3-18-3.5-26s-2.4-15.2-3.5-21.2c-0.5-3-1.1-5.7-1.5-8.1s-0.9-4.4-1.2-6.1
		s-0.6-2.9-0.8-3.9c-0.1-0.4-0.1-0.8-0.2-1C396.2,281.2,396.2,281.1,396.2,281z"/>
	<path class="st3" d="M406.8,409.5c0,0-24.8-28.1-32.4-45.1l5.8-2.5c-4.2,0.7-8.5-1.1-11.8-3.9s-5.6-6.4-8-9.9l7.6-1.3
		c-7-2-13-6.6-16.7-12.9c9,1.5,17.2,6.4,23.9,12.6c5.3,5.1,10.2,10.7,14.5,16.8c2.2,2.9,4,6,5.6,9.2
		C399.5,381.2,406.8,399.2,406.8,409.5z"/>
	<path class="st0" d="M460.4,304.3c0,0.1-0.1,0.2-0.1,0.3l-0.4,0.8l-1.5,3.1c-1.3,2.7-3.2,6.6-5.5,11.5s-4.9,10.7-7.7,17.2
		s-5.8,13.8-8.7,21.4s-5.6,15-7.9,21.7s-4.3,12.8-5.9,17.9s-2.8,9.3-3.7,12.2c-0.4,1.4-0.8,2.5-1,3.3l-0.3,0.9
		c0,0.1-0.1,0.2-0.1,0.3c0-0.1,0-0.2,0.1-0.3c0.1-0.2,0.1-0.5,0.2-0.9c0.2-0.8,0.5-1.9,0.9-3.3c0.8-2.9,2-7.1,3.5-12.2
		s3.5-11.2,5.8-18s4.9-14.1,7.9-21.7s6-14.9,8.8-21.4s5.5-12.3,7.8-17.2s4.2-8.8,5.6-11.4l1.6-3.1c0.2-0.3,0.3-0.6,0.4-0.8
		S460.4,304.3,460.4,304.3z"/>
	<path class="st0" d="M408.9,421.5c-0.1-0.2-0.1-0.3-0.1-0.5c-0.1-0.4-0.1-0.9-0.2-1.5c-0.2-1.3-0.5-3.2-1-5.5s-1.1-5-1.9-8
		s-1.9-6.2-3.1-9.6s-2.6-6.5-4-9.2s-2.7-5.2-3.9-7.2s-2.2-3.6-2.9-4.7c-0.3-0.5-0.6-0.9-0.8-1.3c-0.1-0.1-0.2-0.3-0.2-0.5
		c0,0,0.1,0.1,0.3,0.4l0.9,1.2c0.8,1.1,1.8,2.7,3,4.7s2.6,4.5,4,7.2s2.8,5.9,4,9.3s2.3,6.6,3.1,9.6s1.4,5.7,1.8,8.1s0.7,4.2,0.8,5.5
		l0.1,1.5C408.8,421.1,408.9,421.3,408.9,421.5z"/>
	<rect x="387.4" y="414.9" class="st0" width="54.2" height="11"/>
	<polygon class="st0" points="392.5,426 398.1,457.6 430.8,457.6 436.6,426 	"/>
	<path class="st3" d="M438.2,426c0,0.1-10.2,0.3-22.9,0.3s-22.9-0.1-22.9-0.3s10.2-0.3,22.9-0.3S438.2,425.8,438.2,426z"/>
	<rect x="32.1" y="50.8" class="st0" width="88" height="142.9"/>
	<rect x="29.2" y="50.8" class="st3" width="88" height="142.9"/>
	<rect x="33" y="53.7" class="st2" width="80.5" height="137.1"/>
	<rect x="48.3" y="71.5" class="st3" width="49.5" height="101.5"/>
	<path class="st0" d="M48.3,137.1c-0.1-9.5,8.6-18.7,18.1-20c4.6-0.6,9.4,0.3,13.7-1.4c7.6-3.1,10-13,17.7-15.9l0.3,73.3H48.3V137.1
		z"/>
</g>
<g id="freepik--Floor--inject-2">
	<path class="st4" d="M472.5,458.1c0,0.1-99.6,0.3-222.5,0.3s-222.5-0.1-222.5-0.3s99.6-0.3,222.5-0.3S472.5,457.9,472.5,458.1z"/>
</g>
<path class="st4" d="M350.8,371.5H149.2c-5.5-0.1-10-4.7-9.9-10.2v-308c-0.1-5.5,4.2-10.1,9.8-10.2c0,0,0.1,0,0.1,0h201.5
	c5.5,0.1,9.9,4.6,9.9,10.1c0,0,0,0.1,0,0.1v308C360.7,366.8,356.3,371.3,350.8,371.5C350.8,371.5,350.8,371.5,350.8,371.5z"/>
<path class="st5" d="M253.9,356.5c0.1,5.2-4,9.5-9.2,9.6c-5.2,0.1-9.5-4-9.6-9.2c-0.1-5.2,4-9.5,9.2-9.6c0.1,0,0.1,0,0.2,0
	C249.6,347.3,253.8,351.4,253.9,356.5C253.9,356.5,253.9,356.5,253.9,356.5z"/>
<path class="st5" d="M272.7,60.3h-45.2c-1.8,0-3.2-1.5-3.1-3.3l0,0c0-1.8,1.4-3.2,3.1-3.3h45.2c1.8,0,3.2,1.5,3.1,3.3l0,0
	C275.8,58.9,274.4,60.3,272.7,60.3z"/>
<rect x="146.1" y="66.4" class="st2" width="207.3" height="274.3"/>
<rect x="146.3" y="66.4" class="st3" width="207.3" height="274.3"/>
<path class="st2" d="M173.6,88.8h152.8c5.4,0,9.9,4.4,9.9,9.9v209.7c0,5.4-4.4,9.9-9.9,9.9H173.6c-5.4,0-9.9-4.4-9.9-9.9V98.7
	C163.7,93.2,168.2,88.8,173.6,88.8z"/>
<path class="st6" d="M219.7,118.4l1-2.2c1,0.6,2.2,1,3.4,1c1.2,0,1.7-0.3,1.7-0.8c0-1.7-6-0.4-6-4.3c0-1.9,1.5-3.4,4.6-3.4
	c1.3,0,2.6,0.3,3.8,0.9l-0.9,2.2c-0.9-0.5-1.9-0.8-2.9-0.8c-1.2,0-1.7,0.4-1.7,1c0,1.6,5.9,0.4,5.9,4.3c0,1.8-1.5,3.4-4.6,3.4
	C222.5,119.6,221,119.2,219.7,118.4z"/>
<path class="st6" d="M229.6,108.8c0-0.9,0.8-1.5,1.6-1.5c0,0,0.1,0,0.1,0c0.8-0.1,1.6,0.5,1.7,1.3c0,0,0,0.1,0,0.1
	c-0.1,1-1,1.6-2,1.5C230.4,110.2,229.7,109.6,229.6,108.8L229.6,108.8z M229.9,111.2h2.8v8.1H230L229.9,111.2z"/>
<path class="st6" d="M243.4,111.2v6.6c0,3.1-1.7,4.5-4.8,4.5c-1.4,0.1-2.8-0.3-4-1.1l1-2c0.8,0.6,1.8,0.9,2.7,0.9
	c1.5,0,2.2-0.7,2.2-2V118c-0.6,0.7-1.5,1-2.4,1c-2.2,0.1-4-1.6-4.1-3.7c-0.1-2.2,1.6-4,3.7-4.1c0.1,0,0.3,0,0.4,0
	c1-0.1,1.9,0.3,2.5,1.1v-1L243.4,111.2z M240.6,115c-0.1-1-0.9-1.7-1.9-1.6c-0.9,0.1-1.6,0.8-1.6,1.6c0.1,1,0.9,1.7,1.9,1.6
	C239.8,116.6,240.5,115.9,240.6,115z"/>
<path class="st6" d="M253.8,114.7v4.6H251v-4.2c0-1.2-0.5-1.7-1.3-1.7s-1.6,0.6-1.6,1.9v3.9h-2.9v-8.1h2.7v0.9c0.7-0.7,1.6-1,2.6-1
	C252.4,111.1,253.8,112.2,253.8,114.7z"/>
<path class="st6" d="M268.5,111.2v8.1h-2.7v-0.9c-0.6,0.7-1.5,1-2.4,1c-2,0-3.4-1.1-3.4-3.7v-4.5h2.8v4.1c0,1.3,0.5,1.8,1.4,1.8
	s1.5-0.6,1.5-1.9v-3.9H268.5z"/>
<path class="st6" d="M279.4,115.3c0.1,2.2-1.5,4-3.7,4.2c-0.1,0-0.2,0-0.3,0c-0.8,0-1.7-0.3-2.3-0.8v3.6h-2.8v-11h2.7v0.8
	c0.6-0.7,1.5-1,2.4-0.9c2.2-0.1,4,1.7,4,3.8C279.4,115,279.4,115.1,279.4,115.3z M276.5,115.3c-0.1-0.9-1-1.6-1.9-1.5
	s-1.6,1-1.5,1.9c0.1,0.9,0.8,1.5,1.7,1.5c0.9,0,1.7-0.8,1.7-1.7C276.6,115.4,276.5,115.3,276.5,115.3z"/>
<path class="st4" d="M183.4,177.9v1.1h2v0.8h-2v1.5h-1v-4.2h3.2v0.8H183.4z"/>
<path class="st4" d="M189.4,178.1v3.2h-0.9v-0.4c-0.3,0.3-0.6,0.4-1,0.4c-0.7,0.1-1.3-0.5-1.4-1.2c0-0.1,0-0.2,0-0.3v-1.8h0.9v1.7
	c0,0.5,0.2,0.8,0.7,0.8s0.7-0.3,0.7-0.9v-1.6L189.4,178.1z"/>
<path class="st4" d="M190.3,176.9h0.9v4.4h-0.9V176.9z"/>
<path class="st4" d="M192.1,176.9h0.9v4.4h-0.9L192.1,176.9z"/>
<path class="st4" d="M199.5,177.1v4.2h-0.8l-2.1-2.6v2.6h-1v-4.2h0.8l2.1,2.6v-2.6H199.5z"/>
<path class="st4" d="M203.3,179.5v1.9h-0.9v-0.4c-0.2,0.3-0.6,0.5-1,0.4c-0.8,0-1.2-0.4-1.2-1s0.4-1,1.4-1h0.7
	c0-0.4-0.2-0.6-0.7-0.6c-0.3,0-0.7,0.1-0.9,0.3l-0.3-0.6c0.4-0.3,0.9-0.4,1.4-0.4C202.7,178,203.3,178.5,203.3,179.5z M202.4,180.3
	V180h-0.6c-0.4,0-0.6,0.2-0.6,0.4s0.2,0.4,0.5,0.4C202,180.8,202.3,180.6,202.4,180.3L202.4,180.3z"/>
<path class="st4" d="M209.6,179.5v1.9h-0.9v-1.7c0-0.5-0.2-0.8-0.6-0.8s-0.7,0.3-0.7,0.9v1.6h-0.9v-1.7c0-0.5-0.2-0.8-0.6-0.8
	s-0.7,0.3-0.7,0.9v1.6h-0.9v-3.2h0.9v0.4c0.3-0.3,0.6-0.4,1-0.4c0.4,0,0.8,0.2,1.1,0.5c0.3-0.3,0.7-0.5,1.2-0.5
	c0.7-0.1,1.3,0.4,1.4,1.1C209.6,179.2,209.6,179.4,209.6,179.5z"/>
<path class="st4" d="M213.6,180h-2.4c0.1,0.4,0.5,0.7,0.9,0.6c0.3,0,0.6-0.1,0.8-0.3l0.5,0.5c-0.3,0.4-0.8,0.6-1.3,0.5
	c-0.9,0.1-1.7-0.6-1.8-1.5c0-0.1,0-0.1,0-0.2c-0.1-0.9,0.6-1.7,1.5-1.7c0.1,0,0.1,0,0.2,0c0.9,0,1.6,0.6,1.7,1.5c0,0.1,0,0.1,0,0.2
	C213.6,179.8,213.6,179.9,213.6,180z M211.2,179.4h1.6c-0.1-0.4-0.4-0.7-0.8-0.7C211.6,178.8,211.2,179,211.2,179.4L211.2,179.4z"/>
<path class="st4" d="M185.7,208.3v0.8h-3.2v-4.2h3.2v0.8h-2.2v0.9h2v0.8h-2v1L185.7,208.3z"/>
<path class="st4" d="M191.9,207.2v1.9H191v-1.7c0-0.5-0.2-0.8-0.6-0.8s-0.7,0.3-0.7,0.8v1.6h-0.9v-1.7c0-0.5-0.2-0.8-0.6-0.8
	s-0.7,0.3-0.7,0.8v1.6h-0.9v-3.2h0.9v0.4c0.3-0.3,0.6-0.4,1-0.4c0.4,0,0.8,0.2,1.1,0.5c0.3-0.3,0.7-0.5,1.2-0.5
	c0.7,0,1.3,0.5,1.3,1.2C191.9,207,191.9,207.1,191.9,207.2z"/>
<path class="st4" d="M195.6,207.2v1.8h-0.9v-0.4c-0.2,0.3-0.6,0.5-1,0.4c-0.8,0-1.2-0.4-1.2-1s0.4-1,1.4-1h0.7
	c0-0.4-0.2-0.6-0.7-0.6c-0.3,0-0.7,0.1-0.9,0.3l-0.3-0.6c0.4-0.3,0.9-0.4,1.4-0.4C195,205.8,195.6,206.2,195.6,207.2z M194.6,208.1
	v-0.3H194c-0.4,0-0.6,0.2-0.6,0.4s0.2,0.4,0.5,0.4C194.3,208.5,194.5,208.3,194.6,208.1z"/>
<path class="st4" d="M196.3,204.9c0-0.3,0.2-0.6,0.5-0.7c0.3,0,0.6,0.2,0.7,0.5c0,0.3-0.2,0.6-0.5,0.7c0,0-0.1,0-0.1,0
	C196.6,205.4,196.3,205.2,196.3,204.9C196.3,204.9,196.3,204.9,196.3,204.9z M196.4,205.9h0.9v3.2h-0.9V205.9z"/>
<path class="st4" d="M198.2,204.6h0.9v4.4h-0.9V204.6z"/>
<path class="st4" d="M204.6,208.2h-2l-0.4,0.9h-1l1.9-4.2h1l1.9,4.2h-1L204.6,208.2z M204.3,207.4l-0.7-1.6l-0.7,1.6H204.3z"/>
<path class="st4" d="M209.6,204.6v4.4h-0.9v-0.4c-0.3,0.3-0.6,0.4-1,0.4c-0.9,0-1.7-0.7-1.7-1.7s0.7-1.7,1.7-1.7
	c0.4,0,0.7,0.1,1,0.4v-1.6L209.6,204.6z M208.7,207.5c0-0.5-0.4-0.8-0.9-0.8s-0.8,0.4-0.8,0.9c0,0.4,0.4,0.8,0.8,0.8
	C208.3,208.4,208.7,208,208.7,207.5C208.7,207.5,208.7,207.5,208.7,207.5L208.7,207.5z"/>
<path class="st4" d="M213.8,204.6v4.4h-0.9v-0.4c-0.3,0.3-0.6,0.4-1,0.4c-0.9,0-1.7-0.7-1.7-1.7s0.7-1.7,1.7-1.7
	c0.4,0,0.7,0.1,1,0.4v-1.6L213.8,204.6z M212.8,207.5c0-0.5-0.4-0.8-0.9-0.8s-0.8,0.4-0.8,0.9c0,0.4,0.4,0.8,0.8,0.8
	C212.5,208.4,212.8,208,212.8,207.5C212.8,207.5,212.8,207.5,212.8,207.5L212.8,207.5z"/>
<path class="st4" d="M216.6,205.8v0.9h-0.2c-0.4,0-0.8,0.3-0.9,0.7c0,0.1,0,0.1,0,0.2v1.5h-0.9v-3.2h0.9v0.4
	C215.8,205.9,216.2,205.8,216.6,205.8z"/>
<path class="st4" d="M220.3,207.7h-2.4c0.1,0.4,0.5,0.7,0.9,0.6c0.3,0,0.6-0.1,0.8-0.3l0.5,0.5c-0.3,0.4-0.8,0.6-1.3,0.5
	c-0.9,0.1-1.7-0.6-1.8-1.5c0-0.1,0-0.1,0-0.2c0-0.9,0.7-1.6,1.6-1.7c0,0,0.1,0,0.1,0c0.9-0.1,1.6,0.6,1.7,1.5c0,0.1,0,0.1,0,0.2
	C220.3,207.6,220.3,207.6,220.3,207.7z M217.8,207.2h1.6c0-0.4-0.4-0.7-0.8-0.7C218.2,206.5,217.9,206.8,217.8,207.2L217.8,207.2z"
	/>
<path class="st4" d="M220.6,208.8l0.3-0.7c0.3,0.2,0.7,0.3,1.1,0.3c0.4,0,0.6-0.1,0.6-0.3c0-0.5-2,0-2-1.3c0-0.6,0.6-1,1.5-1
	c0.4,0,0.9,0.1,1.2,0.3l-0.3,0.7c-0.3-0.2-0.6-0.2-0.9-0.2c-0.4,0-0.6,0.1-0.6,0.3c0,0.6,1.9,0,1.9,1.3c0,0.6-0.6,1-1.5,1
	C221.5,209.1,221,209,220.6,208.8z"/>
<path class="st4" d="M223.8,208.8l0.3-0.7c0.3,0.2,0.7,0.3,1.1,0.3c0.4,0,0.6-0.1,0.6-0.3c0-0.5-2,0-2-1.3c0-0.6,0.6-1,1.5-1
	c0.4,0,0.9,0.1,1.2,0.3l-0.3,0.7c-0.3-0.2-0.6-0.2-0.9-0.2c-0.4,0-0.6,0.1-0.6,0.3c0,0.6,1.9,0,1.9,1.3c0,0.6-0.6,1-1.5,1
	C224.7,209.1,224.2,209,223.8,208.8z"/>
<path class="st4" d="M186.8,233.2c0,0.9-0.7,1.5-1.8,1.5h-0.8v1.2h-1v-4.2h1.8C186.1,231.7,186.8,232.2,186.8,233.2z M185.8,233.2
	c0-0.5-0.3-0.7-0.9-0.7h-0.8v1.5h0.8C185.5,233.9,185.8,233.6,185.8,233.2L185.8,233.2z"/>
<path class="st4" d="M190.2,234v1.8h-0.9v-0.4c-0.2,0.3-0.6,0.5-1,0.4c-0.8,0-1.2-0.4-1.2-1s0.4-1,1.4-1h0.7c0-0.4-0.2-0.6-0.7-0.6
	c-0.3,0-0.7,0.1-0.9,0.3l-0.3-0.7c0.4-0.3,0.9-0.4,1.4-0.4C189.6,232.6,190.2,233.1,190.2,234z M189.3,234.8v-0.3h-0.6
	c-0.4,0-0.6,0.2-0.6,0.4s0.2,0.4,0.5,0.4C188.9,235.3,189.1,235.1,189.3,234.8L189.3,234.8z"/>
<path class="st4" d="M190.7,235.6l0.3-0.7c0.3,0.2,0.7,0.3,1.1,0.3c0.4,0,0.6-0.1,0.6-0.3c0-0.5-2,0-2-1.3c0-0.6,0.6-1,1.5-1
	c0.4,0,0.9,0.1,1.2,0.3l-0.3,0.7c-0.3-0.2-0.6-0.2-0.9-0.2c-0.4,0-0.6,0.1-0.6,0.3c0,0.6,1.9,0,1.9,1.3c0,0.6-0.6,1-1.5,1
	C191.6,235.9,191.2,235.8,190.7,235.6z"/>
<path class="st4" d="M193.9,235.6l0.3-0.7c0.3,0.2,0.7,0.3,1.1,0.3c0.4,0,0.6-0.1,0.6-0.3c0-0.5-1.9,0-1.9-1.3c0-0.6,0.6-1,1.5-1
	c0.4,0,0.9,0.1,1.2,0.3l-0.3,0.7c-0.3-0.2-0.6-0.2-0.9-0.2c-0.4,0-0.6,0.1-0.6,0.3c0,0.6,1.9,0,1.9,1.3c0,0.6-0.6,1-1.5,1
	C194.8,235.9,194.4,235.8,193.9,235.6z"/>
<path class="st4" d="M202.6,232.6l-1.2,3.2h-0.9l-0.7-2l-0.8,2h-0.9l-1.2-3.2h0.9l0.8,2.2l0.8-2.2h0.8l0.8,2.2l0.8-2.2H202.6z"/>
<path class="st4" d="M202.7,234.3c-0.1-1,0.7-1.8,1.7-1.9c1-0.1,1.8,0.7,1.9,1.7c0.1,1-0.7,1.8-1.7,1.9c0,0-0.1,0-0.1,0
	c-0.9,0.1-1.7-0.6-1.8-1.5C202.7,234.3,202.7,234.3,202.7,234.3z M205.2,234.3c0-0.5-0.4-0.8-0.9-0.8s-0.8,0.4-0.8,0.9
	c0,0.4,0.4,0.8,0.8,0.8C204.9,235.2,205.3,234.8,205.2,234.3C205.3,234.3,205.3,234.3,205.2,234.3z"/>
<path class="st4" d="M208.8,232.6v0.9h-0.2c-0.4,0-0.8,0.3-0.9,0.7c0,0.1,0,0.1,0,0.2v1.5h-0.9v-3.2h0.9v0.4
	C208,232.7,208.4,232.6,208.8,232.6z"/>
<path class="st4" d="M212.6,231.4v4.4h-0.9v-0.4c-0.3,0.3-0.6,0.4-1,0.4c-0.9-0.1-1.6-0.9-1.5-1.8c0.1-0.8,0.7-1.5,1.5-1.5
	c0.4,0,0.7,0.1,1,0.4v-1.6H212.6z M211.7,234.3c0-0.5-0.4-0.8-0.9-0.8s-0.8,0.4-0.8,0.9c0,0.4,0.4,0.8,0.8,0.8
	C211.4,235.2,211.7,234.8,211.7,234.3C211.7,234.3,211.7,234.3,211.7,234.3z"/>
<path class="st6" d="M213.6,284.9h79.9c2.6,0,4.8,2.1,4.8,4.8v8.8c0,2.6-2.1,4.8-4.8,4.8h-79.9c-2.6,0-4.8-2.1-4.8-4.8v-8.8
	C208.8,287,210.9,284.9,213.6,284.9z"/>
<path class="st2" d="M224.8,293.6c0-1.4,1.1-2.5,2.5-2.6c0.1,0,0.1,0,0.2,0c0.8,0,1.6,0.3,2.1,0.9l-0.9,0.8
	c-0.3-0.4-0.7-0.6-1.2-0.6c-0.8,0-1.4,0.6-1.4,1.4c0,0.8,0.6,1.4,1.4,1.4c0.5,0,0.9-0.2,1.2-0.6l0.9,0.8c-0.5,0.6-1.3,1-2.1,0.9
	c-1.4,0.1-2.6-1-2.7-2.4C224.8,293.7,224.8,293.7,224.8,293.6z"/>
<path class="st2" d="M232.7,292.2v1.2h-0.3c-0.5,0-0.9,0.3-0.9,0.7c0,0.1,0,0.1,0,0.2v1.7h-1.3v-3.8h1.3v0.5
	C231.8,292.3,232.2,292.1,232.7,292.2z"/>
<path class="st2" d="M237.1,294.5h-2.8c0.1,0.4,0.5,0.7,0.9,0.6c0.3,0,0.6-0.1,0.9-0.3l0.7,0.7c-0.4,0.4-1,0.7-1.6,0.6
	c-1.1,0.1-2.1-0.7-2.2-1.8c0-0.1,0-0.2,0-0.2c0-1.1,0.9-2,2-2c0,0,0.1,0,0.1,0c1-0.1,1.9,0.7,2,1.8c0,0.1,0,0.1,0,0.2
	C237.1,294.2,237.1,294.4,237.1,294.5z M234.3,293.8h1.6c-0.1-0.4-0.5-0.7-0.9-0.7C234.6,293.2,234.4,293.4,234.3,293.8z"/>
<path class="st2" d="M241.2,293.9v2.1h-1.2v-0.5c-0.2,0.4-0.7,0.6-1.1,0.6c-0.9,0-1.4-0.5-1.4-1.2s0.5-1.1,1.7-1.1h0.8
	c0-0.4-0.3-0.6-0.8-0.6c-0.4,0-0.7,0.1-1,0.3l-0.4-0.9c0.5-0.3,1.1-0.4,1.7-0.4C240.5,292.2,241.2,292.7,241.2,293.9z M239.8,294.8
	v-0.3h-0.6c-0.4,0-0.6,0.2-0.6,0.4s0.2,0.4,0.5,0.4C239.5,295.3,239.7,295.1,239.8,294.8z"/>
<path class="st2" d="M244.6,295.9c-0.3,0.2-0.6,0.2-0.9,0.2c-0.7,0.1-1.4-0.4-1.5-1.1c0-0.1,0-0.2,0-0.3v-1.3h-0.6v-1h0.6v-1h1.3v1
	h0.9v1h-0.9v1.3c0,0.2,0.1,0.4,0.4,0.4c0,0,0,0,0,0c0.1,0,0.3,0,0.4-0.1L244.6,295.9z"/>
<path class="st2" d="M248.9,294.5h-2.8c0.1,0.4,0.5,0.7,0.9,0.6c0.3,0,0.6-0.1,0.9-0.3l0.7,0.7c-0.4,0.4-1,0.7-1.6,0.6
	c-1.1,0.1-2.1-0.7-2.2-1.8c0-0.1,0-0.2,0-0.2c0-1.1,0.9-2,2-2c0,0,0.1,0,0.1,0c1-0.1,1.9,0.7,2,1.8c0,0.1,0,0.1,0,0.2
	C248.9,294.2,248.9,294.4,248.9,294.5z M246.1,293.8h1.6c-0.1-0.4-0.4-0.7-0.8-0.6C246.5,293.1,246.2,293.4,246.1,293.8z"/>
<path class="st2" d="M254.9,295.1h-2.1l-0.4,1H251l2.2-4.9h1.4l2.2,4.9h-1.4L254.9,295.1z M254.5,294.1l-0.6-1.6l-0.6,1.6H254.5z"/>
<path class="st2" d="M256.8,294.1c0-1.1,0.9-2,2-2c0.1,0,0.1,0,0.2,0c0.8-0.1,1.5,0.4,1.8,1l-1,0.5c-0.2-0.4-0.8-0.5-1.2-0.3
	c-0.4,0.2-0.5,0.8-0.3,1.2c0.1,0.2,0.4,0.4,0.7,0.4c0.3,0,0.6-0.2,0.8-0.5l1,0.5c-0.3,0.7-1,1.1-1.8,1c-1.1,0.1-2.1-0.7-2.2-1.8
	C256.8,294.2,256.8,294.2,256.8,294.1z"/>
<path class="st2" d="M261,294.1c0-1.1,0.9-2,2-2c0.1,0,0.1,0,0.2,0c0.8-0.1,1.5,0.4,1.8,1l-1,0.5c-0.2-0.4-0.8-0.5-1.2-0.3
	c-0.4,0.2-0.5,0.8-0.3,1.2c0.1,0.2,0.4,0.4,0.7,0.4c0.3,0,0.6-0.2,0.8-0.5l1,0.5c-0.3,0.7-1,1.1-1.8,1c-1.1,0.1-2.1-0.7-2.2-1.8
	C261,294.2,261,294.2,261,294.1z"/>
<path class="st2" d="M265.1,294.1c-0.1-1.2,0.8-2.2,2-2.3c1.2-0.1,2.2,0.8,2.3,2c0.1,1.2-0.8,2.2-2,2.3c0,0-0.1,0-0.1,0
	c-1.1,0.1-2.1-0.7-2.1-1.8C265.1,294.2,265.1,294.2,265.1,294.1z M268.1,294.1c0.1-0.4-0.2-0.9-0.7-0.9s-0.9,0.2-0.9,0.7
	c0,0.1,0,0.2,0,0.3c-0.1,0.4,0.2,0.9,0.7,0.9s0.9-0.2,0.9-0.7C268.1,294.3,268.1,294.2,268.1,294.1z"/>
<path class="st2" d="M274,292.2v3.8h-1.3v-0.4c-0.6,0.6-1.6,0.6-2.3,0c-0.3-0.3-0.5-0.8-0.5-1.3v-2.1h1.3v1.9c0,0.6,0.2,0.8,0.6,0.8
	s0.7-0.3,0.7-0.9v-1.8L274,292.2z"/>
<path class="st2" d="M278.9,293.9v2.1h-1.3v-2c0-0.5-0.2-0.8-0.6-0.8s-0.8,0.3-0.8,0.9v1.9h-1.3v-3.8h1.3v0.4
	c0.3-0.3,0.8-0.5,1.2-0.5c0.8-0.1,1.5,0.6,1.6,1.4C279,293.6,278.9,293.8,278.9,293.9z"/>
<path class="st2" d="M282.4,295.9c-0.3,0.2-0.6,0.2-0.9,0.2c-0.7,0.1-1.4-0.4-1.5-1.1c0-0.1,0-0.2,0-0.3v-1.3h-0.5v-1h0.5v-1h1.3v1
	h0.9v1h-0.9v1.3c0,0.2,0.1,0.4,0.4,0.4c0,0,0,0,0,0c0.1,0,0.3,0,0.4-0.1L282.4,295.9z"/>
<path class="st4" d="M253.8,179.5v-2.4h1v2.3c0,0.8,0.4,1.1,0.9,1.1s0.9-0.3,0.9-1.1v-2.3h1v2.4c0,1-0.9,1.9-1.9,1.9
	S253.8,180.5,253.8,179.5L253.8,179.5L253.8,179.5z"/>
<path class="st4" d="M258.1,181l0.3-0.7c0.3,0.2,0.7,0.3,1.1,0.3c0.4,0,0.6-0.1,0.6-0.3c0-0.5-2,0-2-1.3c0-0.6,0.6-1,1.5-1
	c0.4,0,0.9,0.1,1.2,0.3l-0.3,0.7c-0.3-0.2-0.6-0.2-0.9-0.2c-0.4,0-0.6,0.1-0.6,0.3c0,0.6,2,0,2,1.3c0,0.6-0.6,1-1.5,1
	C259,181.4,258.5,181.2,258.1,181z"/>
<path class="st4" d="M264.8,180h-2.4c0.1,0.4,0.5,0.7,0.9,0.6c0.3,0,0.6-0.1,0.8-0.3l0.5,0.5c-0.3,0.4-0.8,0.6-1.3,0.5
	c-0.9,0.1-1.7-0.6-1.8-1.5c0,0,0-0.1,0-0.1c0-0.9,0.7-1.7,1.6-1.7c0,0,0.1,0,0.1,0c0.9,0,1.6,0.6,1.7,1.5c0,0.1,0,0.1,0,0.2
	C264.8,179.8,264.8,179.9,264.8,180z M262.3,179.4h1.6c0-0.4-0.4-0.7-0.8-0.7C262.7,178.8,262.4,179,262.3,179.4L262.3,179.4z"/>
<path class="st4" d="M267.4,178v0.9h-0.2c-0.4,0-0.8,0.3-0.9,0.7c0,0.1,0,0.1,0,0.2v1.5h-0.9v-3.2h0.9v0.4
	C266.6,178.1,267,178,267.4,178z"/>
<path class="st4" d="M271.3,179.5v1.8h-0.9v-1.7c0-0.5-0.2-0.8-0.6-0.8s-0.8,0.3-0.8,0.9v1.6H268v-3.2h0.9v0.4
	c0.3-0.3,0.7-0.4,1.1-0.4c0.7,0,1.3,0.5,1.3,1.2C271.3,179.3,271.3,179.4,271.3,179.5z"/>
<path class="st4" d="M275,179.5v1.8h-0.9v-0.4c-0.2,0.3-0.6,0.5-1,0.4c-0.8,0-1.2-0.4-1.2-1s0.4-1,1.4-1h0.8c0-0.4-0.2-0.6-0.8-0.6
	c-0.3,0-0.7,0.1-0.9,0.3l-0.3-0.6c0.4-0.3,0.9-0.4,1.4-0.4C274.4,178,275,178.5,275,179.5z M274.1,180.3V180h-0.6
	c-0.4,0-0.6,0.2-0.6,0.4s0.2,0.4,0.5,0.4C273.7,180.8,274,180.6,274.1,180.3L274.1,180.3z"/>
<path class="st4" d="M281.3,179.5v1.8h-0.9v-1.7c0-0.5-0.2-0.8-0.6-0.8s-0.7,0.3-0.7,0.9v1.6h-0.9v-1.7c0-0.5-0.2-0.8-0.6-0.8
	s-0.7,0.3-0.7,0.9v1.6h-0.9v-3.2h0.9v0.4c0.3-0.3,0.6-0.4,1-0.4c0.4,0,0.8,0.2,1.1,0.5c0.3-0.4,0.7-0.6,1.2-0.6
	c0.7,0,1.3,0.5,1.3,1.2C281.3,179.3,281.3,179.4,281.3,179.5z"/>
<path class="st4" d="M285.3,180h-2.4c0.1,0.4,0.5,0.7,0.9,0.6c0.3,0,0.6-0.1,0.8-0.3l0.5,0.5c-0.3,0.4-0.8,0.6-1.3,0.5
	c-0.9,0.1-1.7-0.6-1.8-1.5c0,0,0-0.1,0-0.1c0-0.9,0.7-1.7,1.6-1.7c0,0,0.1,0,0.1,0c0.9,0,1.6,0.6,1.7,1.5c0,0.1,0,0.1,0,0.2
	C285.3,179.8,285.3,179.9,285.3,180z M282.8,179.4h1.6c-0.1-0.4-0.5-0.7-1-0.6C283.2,178.9,282.9,179.1,282.8,179.4z"/>
<path class="st4" d="M183.1,166.4h58.5c0.1,0,0.1-0.1,0.1-0.2c0,0,0-0.1-0.1-0.1h-58.5C183,166.2,183,166.3,183.1,166.4
	C183,166.4,183.1,166.4,183.1,166.4z"/>
<path class="st4" d="M258.9,166.4h58.5c0.1,0,0.1-0.1,0.1-0.2c0,0,0-0.1-0.1-0.1h-58.5C258.9,166.2,258.8,166.3,258.9,166.4
	C258.9,166.4,258.9,166.4,258.9,166.4z"/>
<path class="st4" d="M246.4,165.8c0-1.2,0.8-2.1,2-2.2c1.2,0,2.1,0.8,2.2,2c0,1.2-0.8,2.1-2,2.2c0,0-0.1,0-0.1,0
	C247.4,167.8,246.5,167,246.4,165.8C246.5,165.9,246.4,165.8,246.4,165.8z M250.1,165.8c0-0.8-0.7-1.5-1.5-1.5
	c-0.8,0-1.5,0.7-1.5,1.5s0.7,1.5,1.5,1.5c0,0,0,0,0,0C249.4,167.3,250,166.7,250.1,165.8C250.1,165.9,250.1,165.8,250.1,165.8
	L250.1,165.8z"/>
<path class="st4" d="M253,164.8v0.5h-0.1c-0.5,0-0.9,0.4-0.9,0.8c0,0.1,0,0.1,0,0.2v1.5h-0.5v-3h0.5v0.5
	C252.2,164.9,252.6,164.7,253,164.8z"/>
<path class="st3" d="M185.1,185.9h58.4c1.7,0,3.1,1.4,3.1,3.1v6.4c0,1.7-1.4,3.1-3.1,3.1h-58.4c-1.7,0-3.1-1.4-3.1-3.1v-6.4
	C182,187.4,183.4,185.9,185.1,185.9z"/>
<path class="st3" d="M185.1,212.9h128.6c1.7,0,3.1,1.4,3.1,3.1v6.4c0,1.7-1.4,3.1-3.1,3.1H185.1c-1.7,0-3.1-1.4-3.1-3.1V216
	C182,214.3,183.4,212.9,185.1,212.9z"/>
<path class="st3" d="M185.1,239.9h128.6c1.7,0,3.1,1.4,3.1,3.1v6.4c0,1.7-1.4,3.1-3.1,3.1H185.1c-1.7,0-3.1-1.4-3.1-3.1V243
	C182,241.3,183.4,239.9,185.1,239.9z"/>
<path class="st3" d="M256.4,185.9h57.3c1.7,0,3.1,1.4,3.1,3.1v6.4c0,1.7-1.4,3.1-3.1,3.1h-57.3c-1.7,0-3.1-1.4-3.1-3.1v-6.4
	C253.3,187.4,254.7,185.9,256.4,185.9z"/>
<path class="st6" d="M184.6,259.8h3.3c0.5,0,1,0.4,1,1v3.3c0,0.5-0.4,1-1,1h-3.3c-0.5,0-1-0.4-1-1v-3.3
	C183.6,260.3,184,259.8,184.6,259.8z"/>
<path class="st0" d="M310.8,264.7H194.6c-1.1,0-2-0.9-2-2l0,0c0-1.1,0.9-2,2-2h116.2c1.1,0,1.9,0.9,2,2l0,0
	C312.8,263.9,311.9,264.7,310.8,264.7C310.8,264.7,310.8,264.7,310.8,264.7z"/>
<path class="st0" d="M213.7,272h-18.5c-1.1,0-1.9-0.9-1.9-2l0,0c0-1.1,0.9-1.9,1.9-1.9c0,0,0,0,0,0h18.5c1.1,0,1.9,0.9,1.9,1.9l0,0
	C215.6,271.1,214.8,272,213.7,272z"/>
<path class="st3" d="M187,137.4H313c2.4,0,4.4,2,4.4,4.4v7.9c0,2.4-2,4.4-4.4,4.4H187c-2.4,0-4.4-2-4.4-4.4v-7.9
	C182.6,139.3,184.5,137.4,187,137.4z"/>
<path class="st4" d="M224.5,147l0.2-0.5c0.4,0.3,0.9,0.5,1.4,0.5c0.7,0,1-0.3,1-0.6c0-1-2.5-0.4-2.5-1.9c0-0.6,0.5-1.2,1.6-1.2
	c0.5,0,0.9,0.1,1.4,0.4l-0.2,0.5c-0.3-0.2-0.7-0.3-1.1-0.3c-0.7,0-1,0.3-1,0.7c0,1,2.5,0.4,2.5,1.9c0,0.6-0.5,1.2-1.6,1.2
	C225.5,147.5,224.9,147.4,224.5,147z"/>
<path class="st4" d="M228.4,143.3c0-0.2,0.2-0.4,0.4-0.4c0,0,0,0,0,0c0.2,0,0.4,0.1,0.4,0.3c0,0,0,0,0,0c0,0.2-0.2,0.4-0.4,0.4
	C228.6,143.7,228.4,143.5,228.4,143.3L228.4,143.3z M228.5,144.3h0.6v3.2h-0.6V144.3z"/>
<path class="st4" d="M233.2,144.3v2.7c0.1,0.8-0.4,1.5-1.2,1.6c-0.1,0-0.3,0-0.4,0c-0.5,0-1.1-0.1-1.5-0.5l0.3-0.4
	c0.3,0.3,0.8,0.4,1.2,0.4c0.8,0,1.1-0.4,1.1-1.1v-0.2c-0.3,0.3-0.7,0.5-1.1,0.5c-0.9,0-1.5-0.7-1.5-1.5c0-0.9,0.7-1.5,1.5-1.5
	c0.4,0,0.9,0.2,1.2,0.5v-0.5L233.2,144.3z M232.7,145.8c0.1-0.6-0.4-1.1-1-1.2s-1.1,0.4-1.2,1s0.4,1.1,1,1.2c0,0,0.1,0,0.1,0
	c0.5,0.1,1-0.3,1.1-0.9C232.7,145.9,232.7,145.8,232.7,145.8z"/>
<path class="st4" d="M237.4,145.6v1.8h-0.6v-1.8c0-0.6-0.3-0.9-0.9-0.9c-0.5,0-1,0.4-1,0.9c0,0,0,0.1,0,0.1v1.6h-0.6v-3.2h0.6v0.5
	c0.3-0.3,0.7-0.5,1.1-0.5c0.7,0,1.3,0.5,1.3,1.2C237.4,145.4,237.4,145.5,237.4,145.6z"/>
<path class="st4" d="M243,144.3v3.2h-0.5V147c-0.3,0.3-0.7,0.5-1.1,0.5c-0.7,0.1-1.3-0.4-1.4-1.1c0-0.1,0-0.2,0-0.3v-1.8h0.6v1.8
	c0,0.6,0.3,0.9,0.9,0.9c0.5,0,1-0.4,1-0.9c0,0,0-0.1,0-0.1v-1.6L243,144.3z"/>
<path class="st4" d="M247.4,145.9c0.1,0.8-0.6,1.6-1.4,1.6c-0.1,0-0.1,0-0.2,0c-0.4,0-0.8-0.2-1.1-0.5v1.6h-0.6v-4.3h0.6v0.5
	c0.3-0.4,0.7-0.6,1.1-0.5c0.8,0,1.6,0.6,1.6,1.5C247.4,145.8,247.4,145.8,247.4,145.9z M246.8,145.9c0-0.6-0.5-1-1.1-1
	c-0.6,0-1,0.5-1,1.1c0,0.6,0.5,1,1.1,1c0.6,0,1-0.4,1.1-0.9C246.8,146,246.8,145.9,246.8,145.9z"/>
<path class="st4" d="M254.6,144.3l-1.2,3.2h-0.6l-0.9-2.4l-0.9,2.4h-0.6l-1.2-3.2h0.5l0.9,2.5l1-2.5h0.5l0.9,2.6l1-2.6H254.6z"/>
<path class="st4" d="M255.1,143.3c0-0.2,0.2-0.4,0.4-0.4c0,0,0,0,0,0c0.2,0,0.4,0.2,0.4,0.4c0,0.2-0.2,0.4-0.4,0.4
	C255.3,143.7,255.1,143.5,255.1,143.3z M255.2,144.3h0.6v3.2h-0.6V144.3z"/>
<path class="st4" d="M258.6,147.3c-0.2,0.2-0.4,0.2-0.7,0.2c-0.5,0.1-0.9-0.3-1-0.8c0-0.1,0-0.1,0-0.2v-1.7h-0.5v-0.5h0.6v-0.7h0.6
	v0.7h0.9v0.5h-0.9v1.7c0,0.3,0.1,0.5,0.4,0.5c0,0,0.1,0,0.1,0c0.2,0,0.3,0,0.5-0.1L258.6,147.3z"/>
<path class="st4" d="M262.4,145.6v1.8h-0.6v-1.8c0-0.6-0.3-0.9-0.9-0.9c-0.5,0-1,0.4-1,0.9c0,0,0,0.1,0,0.1v1.6h-0.6V143h0.6v1.7
	c0.3-0.3,0.7-0.5,1.1-0.5c0.7,0,1.3,0.5,1.3,1.1C262.4,145.5,262.4,145.5,262.4,145.6z"/>
<path class="st4" d="M268,145.3h0.6v1.7c-0.5,0.4-1,0.5-1.6,0.5c-1.2,0-2.1-1-2.1-2.2c0-1.2,1-2.1,2.2-2.1c0.6,0,1.1,0.3,1.5,0.6
	l-0.4,0.4c-0.3-0.3-0.8-0.5-1.2-0.5c-0.9-0.1-1.7,0.6-1.7,1.5c-0.1,0.9,0.6,1.7,1.5,1.7c0.1,0,0.2,0,0.3,0c0.4,0,0.7-0.1,1-0.3
	L268,145.3z"/>
<path class="st4" d="M269.4,145.9c0-0.9,0.7-1.7,1.6-1.7c0.9,0,1.7,0.7,1.7,1.6c0,0.9-0.7,1.7-1.6,1.7c0,0,0,0-0.1,0
	C270.1,147.5,269.4,146.8,269.4,145.9C269.4,145.9,269.4,145.9,269.4,145.9z M272.1,145.9c0-0.6-0.5-1-1.1-1c-0.6,0-1,0.5-1,1.1
	c0,0.6,0.5,1,1,1c0.5,0.1,1-0.3,1.1-0.9C272.1,146,272.1,146,272.1,145.9L272.1,145.9z"/>
<path class="st4" d="M273.2,145.9c0-0.9,0.7-1.7,1.6-1.7s1.7,0.7,1.7,1.6c0,0.9-0.7,1.7-1.6,1.7c0,0,0,0,0,0c-0.9,0-1.6-0.6-1.6-1.5
	C273.2,146,273.2,145.9,273.2,145.9z M275.9,145.9c0-0.6-0.5-1-1.1-1c-0.6,0-1,0.5-1,1.1c0,0.6,0.5,1,1.1,1c0.6,0,1-0.4,1.1-0.9
	C275.9,146,275.9,145.9,275.9,145.9z"/>
<path class="st4" d="M280.3,144.3v2.7c0.1,0.8-0.4,1.5-1.2,1.6c-0.1,0-0.3,0-0.4,0c-0.5,0-1.1-0.1-1.5-0.5l0.3-0.4
	c0.3,0.3,0.8,0.4,1.2,0.4c0.8,0,1.1-0.4,1.1-1.1v-0.2c-0.3,0.3-0.7,0.5-1.1,0.5c-0.9,0-1.5-0.7-1.5-1.5c0-0.9,0.7-1.5,1.5-1.5
	c0.4,0,0.9,0.2,1.2,0.5v-0.5L280.3,144.3z M279.8,145.8c-0.1-0.6-0.6-1-1.2-1c-0.5,0.1-0.9,0.5-1,1c0.1,0.6,0.6,1,1.2,1
	C279.3,146.7,279.7,146.3,279.8,145.8z"/>
<path class="st4" d="M281.4,143h0.6v4.4h-0.6L281.4,143z"/>
<path class="st4" d="M286,146.1h-2.6c0.1,0.6,0.6,1,1.1,0.9c0.3,0,0.7-0.1,0.9-0.4l0.3,0.4c-0.6,0.7-1.7,0.7-2.4,0.1
	c-0.3-0.3-0.5-0.7-0.6-1.2c0-0.9,0.6-1.6,1.5-1.6c0,0,0.1,0,0.1,0c0.9,0,1.6,0.6,1.6,1.5c0,0,0,0.1,0,0.1
	C286,145.9,286,146,286,146.1z M283.4,145.6h2c0-0.5-0.5-0.9-1-0.9C283.9,144.7,283.4,145.1,283.4,145.6L283.4,145.6z"/>
<path class="st4" d="M216.6,145.7v0.9h2.3c-0.2,0.8-1.1,1.4-1.9,1.3c-1.2,0.1-2.2-0.9-2.2-2c0,0,0-0.1,0-0.1c0-0.7,0.4-1.4,1-1.8
	c0.9-0.6,2-0.5,2.8,0.3c0.1,0.2,0.4,0.2,0.6,0.1l0,0c0.2-0.1,0.3-0.4,0.2-0.6c0,0,0-0.1-0.1-0.1c-0.6-0.6-1.4-1-2.3-1
	c-1.7-0.1-3.2,1.2-3.3,2.9s1.2,3.2,2.9,3.3c0.1,0,0.2,0,0.4,0c1.5,0.1,2.8-1,2.9-2.5c0-0.1,0-0.1,0-0.2v-0.5L216.6,145.7z"/>
<circle class="st6" cx="331.2" cy="92.6" r="10.5"/>
<rect x="326.3" y="91.5" transform="matrix(0.7071 -0.7071 0.7071 0.7071 31.5247 261.3335)" class="st2" width="9.8" height="2.2"/>
<rect x="330.1" y="87.7" transform="matrix(0.7071 -0.7071 0.7071 0.7071 31.5348 261.332)" class="st2" width="2.2" height="9.8"/>
<path class="st2" d="M101.6,369l-6.5-0.8c-11.4,7.6-26.9,4.6-34.6-6.9c-7.6-11.4-4.6-26.9,6.9-34.6c11.4-7.6,26.9-4.6,34.6,6.9
	c5.8,8.6,5.6,19.9-0.5,28.4l0,0L101.6,369z"/>
<path class="st4" d="M101.6,369c0,0,0-0.2,0-0.5s0-0.8,0-1.4c0-1.2-0.1-2.9-0.1-5.2l0.2,0.1l0,0c0,0-0.1,0-0.1,0c0,0,0,0,0,0
	c0,0,0-0.1,0-0.1c2.3-3.3,3.8-7.1,4.4-11.1c0.3-2.6,0.3-5.3-0.2-7.9c-0.6-2.9-1.6-5.8-3.2-8.3c-1.7-2.8-4-5.3-6.7-7.2
	c-2.9-2.1-6.2-3.5-9.8-4.2c-3.7-0.7-7.6-0.5-11.3,0.5c-3.9,1.1-7.4,3.1-10.3,5.9c-1.5,1.4-2.8,3-3.9,4.7c-0.5,0.9-1,1.7-1.4,2.6
	l-0.6,1.4l-0.3,0.7l-0.2,0.7c-1.2,3.7-1.5,7.5-1,11.4c0.5,3.6,1.8,7,3.8,10c1.9,2.8,4.2,5.1,7,7c2.5,1.7,5.3,2.9,8.2,3.6l2.1,0.4
	c0.7,0.1,1.3,0.1,2,0.2c1.3,0.1,2.5,0.1,3.8-0.1c4-0.4,7.8-1.8,11.2-4h0.1l4.8,0.6l1.3,0.2L101.6,369l-0.4,0l-1.2-0.1l-4.8-0.5h0.1
	c-3.4,2.3-7.2,3.7-11.3,4.1c-1.3,0.1-2.6,0.2-3.9,0.1c-0.7-0.1-1.3-0.1-2-0.2l-2.2-0.4c-3-0.7-5.8-1.9-8.4-3.5
	c-2.8-1.9-5.2-4.3-7.1-7.1c-2.1-3.1-3.4-6.5-3.9-10.2c-0.6-3.9-0.2-7.8,1-11.6l0.2-0.7l0.3-0.7l0.6-1.4c0.4-0.9,1-1.8,1.5-2.7
	c1.1-1.7,2.5-3.3,4-4.8c2.9-2.8,6.5-4.9,10.5-6c3.8-1,7.7-1.2,11.5-0.4c3.6,0.7,7,2.2,9.9,4.3c2.7,2,5,4.5,6.8,7.3
	c1.6,2.6,2.7,5.5,3.2,8.5c0.5,2.6,0.5,5.3,0.2,8c-0.6,4-2.1,7.9-4.5,11.2l-0.1-0.1l0,0c0,0,0.1,0,0.1,0c0,0,0,0,0,0c0,0,0,0,0,0.1
	c0,2.3,0,4,0,5.2c0,0.6,0,1,0,1.3S101.6,369,101.6,369z"/>
<polygon class="st6" points="70.3,349.1 73.4,345.7 79.8,351.1 91.6,338.9 94.7,342 79.6,357.3 "/>
<path class="st4" d="M141.4,292.7c0.6-2,2.2-3.6,4.1-4.2c0.8-0.3,1.7-0.5,2.2-1.1c0.3-0.5,0.4-1.1,0.5-1.7c0.5-1.8,2.4-2.8,4.2-2.3
	c0,0,0.1,0,0.1,0c0.4,0.2,0.8,0.4,1.3,0.4c1.8,0,2.1-3.5,3.9-3.4c-0.5,0.6-0.9,1.3-1,2.1c-0.1,0.8,0.4,1.6,1.1,1.8
	c1.9,0.5,2.9-3.2,4.9-3c1.1,0.1,1.9,1.5,2.9,1.2c0.4-0.1,0.8-0.4,1.1-0.6c1.3-0.7,2.9-0.4,3.7,0.9c0.6,1,0.7,2.6,1.9,2.9
	c0.7,0.1,1.5-0.2,2.1-0.7c0.5,1,0.7,2.1,0.7,3.2c2.3,0.2,4,2.3,3.9,4.6c1.2,0.2,2.4,0.6,3.4,1.2c1.1,0.6,1.6,1.8,1.5,3.1
	c-0.1,0.3-0.1,0.5-0.1,0.8c0.1,0.3,0.2,0.6,0.4,0.8c0.8,0.8,1.5,1.7,2.1,2.7c0.5,1,0.3,2.5-0.8,3c-0.2,0.1-0.6,0.1-0.7,0.4
	c-0.1,0.2-0.1,0.4,0,0.6c0.3,0.8,0.7,1.5,1.2,2.1c0.5,0.6,0.8,1.5,0.7,2.3c-0.1,0.8-1,1.5-1.8,1.2c0.9,1,1.7,2,2.6,3
	c0.5,0.6,1,1.4,0.8,2.1c-0.3,1-1.8,1-2.6,0.5s-1.5-1.4-2.4-2c-0.4-0.2-0.7-0.4-1.1-0.6c-0.2-0.2-0.4-0.5-0.8-0.6
	c-0.6-0.2-1,0.8-0.7,1.4c0.4,0.5,1,0.9,1.6,1.1c0.6,0.3,1.2,0.8,1.2,1.5c0,0.3-0.2,0.6-0.2,0.9c-0.1,1.1,1.6,1.3,2.3,2.2
	c0.4,0.8,0.4,1.6,0,2.4c-0.3,0.9-1.3,2.1-2.1,1.5c-0.3-0.2-0.4-0.6-0.6-0.8c-0.3-0.2-0.7-0.4-1.1-0.5c-1-0.3-1.8-0.9-2.5-1.6
	c1.2,0.6,2.6,1.4,2.6,2.8c-0.1,0.6-0.2,1.1-0.4,1.6c-0.3,1-0.3,2.2-0.6,3.2c-0.2,1.1-1.2,1.9-2.3,2c0.9,1,0.9,2.6-0.1,3.5
	c-0.7,0.6-1.6,0.8-2.5,0.5c-0.3-0.1-0.6-0.2-0.9-0.2c-0.3,0.1-0.6,0.2-0.9,0.5c-1.6,1.2-3.8,1.3-5.6,0.4l0.7-0.7
	c-1.8,0.8-3.8,1.1-5.7,1c-1.9-0.3-3.8-1.8-3.9-3.8c0-0.8,0.3-1.9-0.4-2.4c-0.5-0.3-1.1-0.4-1.7-0.3l-7.3,0.9
	c-1.2,0.2-2.4,0.2-3.5-0.2c-1.1-0.5-1.7-1.8-1.2-2.9c0,0,0,0,0,0c-1-0.7-2.1-1.2-3.3-1.3c-1.3-0.1-2.7,0.2-4,0.1
	c-1.4,0.1-2.6-0.7-3.3-1.9c-0.5-1.2,0.7-3,1.9-2.5c-1.1-1.7-4.3-0.3-5.5-1.9c-0.9-1.4,0.6-3,1-4.6c-0.4-0.4-1.1-0.5-1.6-0.9
	c-0.9-0.8-0.4-2.4,0.4-3.4s1.8-2.1,1.5-3.3s-1.9-2.1-1.8-3.4c0.1-0.7,0.7-1.3,1.5-1.2c-0.2-2.5,4.5-2.8,4.7-5.3
	c0-0.2-0.1-0.4-0.2-0.5c-0.1-0.1-0.2-0.2-0.4-0.3c-0.8-0.3-1.6-0.4-2.4-0.5c-0.8-0.2-1.6-0.7-1.7-1.5s1.2-1.4,1.6-0.7
	c0.4-0.9,1.5-1.3,2.4-0.8c0.1,0.1,0.3,0.1,0.4,0.2c0.3-0.9,1.2-1.4,2.1-1.3c0.9,0.1,1.7,0.5,2.4,1"/>
<path class="st6" d="M162.5,310.9c-2.2-2.6-5.6-3.9-8.9-4.5c-1.4-0.3-2.9-0.3-4.2,0.1c-1.4,0.4-2.4,1.6-2.6,3.1l1.3,2
	c1.5,3.5,5.5,5,8.4,7.5c1.2,1.1,2.5,2.5,4.2,2.4c0.9-0.1,1.7-0.5,2.2-1.2C165.1,317.8,164.6,313.5,162.5,310.9z"/>
<path class="st4" d="M170.8,326.3c0.5-3.6-1.7-7.1-5.2-8.3c0.4-2.2-1.3-4.3-3.4-5.2s-4.4-0.7-6.6-0.6c-3.7-4-9.9-4.4-14.1-0.9
	c-4.2-2.2-9.4,0-12.8,3.2c-0.8,0.9-1.6,1.6-2.6,2.2c-0.8,0.3-1.6,0.6-2.4,0.9c-4.3,1.6-6.8,6.6-6.4,11.3c0.1,0.7,0.2,1.5,0.1,2.2
	c-0.3,0.9-0.7,1.8-1.2,2.7c-0.9,2-0.8,4.2,0.1,6.1c0.8,1.6,2.2,3,2.3,4.8c0.1,0.9-0.2,1.8-0.1,2.7c0.4,2.6,4,3.5,4.8,6
	c0.2,0.5,0.2,1,0.3,1.6c0.2,1.1,0.9,2,1.8,2.7c0.7,0.5,1.5,0.8,2,1.5c0.3,0.6,0.4,1.2,0.6,1.8c0.4,1.5,6.1,5.1,7.7,5.2l34.8-18.3
	c2.4-2,3.2-5.4,2-8.3c-0.2-0.4-0.4-0.9-0.4-1.4c0.1-0.4,0.3-0.8,0.6-1.1c1.6-2.4,0.2-5.6-1.4-8c-0.2-0.3-0.4-0.7-0.6-1.1
	C170.7,327.5,170.7,326.9,170.8,326.3z"/>
<path class="st7" d="M160.9,331.7c-3.7-6.7-10.8-10.9-18.5-10.9c-3.5,0.2-6.9,1.1-10,2.6c-3,1.2-5.5,3.4-7.2,6.1
	c-1.7,1.5-5.2,11.6-1.9,18.8c3.7,7.9,8.7,17.5,12.7,22.7c8.2,10.5,17.8,7.1,17.8,7.1l4.3,8.9l12,10.2l10.7-17.5l2.3-3.8L160.9,331.7
	z"/>
<path class="st8" d="M151.4,360.2c-0.8-1.2-2.5-1.5-3.7-0.7c-0.3,0.2-0.6,0.5-0.8,0.8c-0.6,1-0.2,2.1,0.5,3.2l0,0
	c0.8,0.4,1.5,0.9,2.4,0.6l0.4-0.2c0.6-0.3,1.1-0.9,1.4-1.5C151.9,361.7,151.8,360.8,151.4,360.2z"/>
<path class="st4" d="M132.1,356.2c0.4,0.8,1.4,1.1,2.2,0.7c0.8-0.4,1.2-1.3,0.8-2.1c0,0,0,0,0,0c-0.4-0.8-1.4-1.1-2.2-0.7
	C132,354.4,131.7,355.3,132.1,356.2C132.1,356.1,132.1,356.2,132.1,356.2z"/>
<path class="st4" d="M128.4,351.2c0.3,0.1,1-1.4,2.5-2.2s3.2-0.7,3.2-1c0-0.1-0.3-0.4-1.1-0.5c-0.9-0.1-1.9,0.1-2.7,0.6
	c-0.8,0.4-1.5,1.1-1.9,2C128.2,350.8,128.3,351.2,128.4,351.2z"/>
<path class="st4" d="M144.6,358.7c-1,0.2-1.9,0.5-2.8,1c-0.4,0.2-0.9,0.3-1.1,0.1c-0.3-0.4-0.4-0.9-0.4-1.4
	c-0.2-1.2-0.3-2.4-0.5-3.8c-0.8-5.3-1.5-9.6-1.8-9.6s0.2,4.4,1,9.7c0.2,1.3,0.4,2.5,0.6,3.7c0,0.6,0.2,1.2,0.7,1.7
	c0.3,0.2,0.6,0.3,1,0.2c0.3-0.1,0.5-0.2,0.7-0.3C142.9,359.7,143.8,359.2,144.6,358.7z"/>
<path class="st8" d="M153.8,378.1c5.5-2.9,10-7.3,13.2-12.6c0,0,0.4,10.4-11.8,15.6L153.8,378.1z"/>
<path class="st4" d="M126.3,347.9c0.5,0.2,1.6-0.7,3-1.4c1.4-0.7,2.9-0.9,3-1.5c0-0.2-0.3-0.5-1-0.7c-0.9-0.1-1.9,0-2.8,0.5
	c-0.9,0.4-1.6,1-2.1,1.8C126.1,347.3,126.1,347.8,126.3,347.9z"/>
<path class="st4" d="M149.7,347.1c0.4,0.8,0.1,1.8-0.7,2.2c-0.8,0.5-1.8,0.2-2.2-0.5c0,0,0,0,0,0c-0.4-0.8-0.1-1.8,0.7-2.2
	C148.2,346.1,149.2,346.3,149.7,347.1C149.7,347.1,149.7,347.1,149.7,347.1z"/>
<path class="st4" d="M150.5,339.9c-0.1,0.3-1.7,0-3.3,0.8s-2.4,2.2-2.7,2.1c-0.1,0-0.1-0.5,0.2-1.1c0.4-0.8,1.1-1.5,2-1.9
	c0.8-0.4,1.8-0.6,2.7-0.4C150.2,339.5,150.5,339.8,150.5,339.9z"/>
<path class="st4" d="M147.1,333.6c-0.1,0.5-1.6,0.8-3.1,1.5s-2.6,1.6-3.1,1.4c-0.2-0.1-0.2-0.6,0.2-1.2c0.5-0.8,1.3-1.5,2.2-1.9
	c0.9-0.4,1.9-0.6,2.8-0.5C146.8,333.1,147.2,333.4,147.1,333.6z"/>
<path class="st7" d="M165.1,343.6c-0.5-0.9-0.6-3.4,0.2-4c2.1-1.6,6.2-3.7,9.4,2.1c4.4,7.8-4.4,10.6-4.5,10.4
	S166.7,346.6,165.1,343.6z"/>
<path class="st8" d="M170.8,348c0,0,0.2,0,0.5,0c0.4-0.1,0.7-0.2,1-0.5c0.6-0.8,0.6-2.5-0.1-3.9c-0.3-0.7-0.9-1.3-1.5-1.7
	c-0.4-0.4-1-0.6-1.6-0.5c-0.4,0.1-0.6,0.4-0.6,0.8c0,0.3,0.1,0.4,0.1,0.4s-0.2,0-0.4-0.4c-0.1-0.2-0.1-0.5,0-0.7
	c0.1-0.3,0.4-0.5,0.6-0.6c0.7-0.2,1.5-0.1,2.1,0.4c0.7,0.5,1.3,1.2,1.7,1.9c0.8,1.6,0.9,3.5-0.1,4.5c-0.4,0.4-0.9,0.5-1.4,0.5
	C170.9,348.1,170.7,348,170.8,348z"/>
<path class="st4" d="M121.7,349.3c1.1-1.7,1.2-3.8,0.2-5.6c1.2-0.3,1.5-2.2,1.7-3.5s0.6-2.1,0-3.2c-0.2-0.2-0.2-0.4-0.3-0.7
	c0-0.4,0.3-0.7,0.6-1c1.4-1.5,1.9-3.6,1.4-5.6c2.1-0.2,4.1-0.9,5.9-2.1c2.4,1.2,5.3,0.2,6.5-2.2c0.3-0.6,0.5-1.4,0.5-2.1
	c1.1,0.7,2.4,0.8,3.6,0.5c1.2-0.4,2.3-0.9,3.4-1.6c0.8,2.4,3.3,3.9,5.8,3.5c0.3-0.1,0.7-0.1,1,0c0.3,0.2,0.3,0.6,0.4,0.9
	c0.4,2.2,2.4,3.6,4.6,3.3c0.1,0,0.1,0,0.2,0c-0.6,1.6,0.2,3.3,1.8,3.8c0.2,0.1,0.5,0.1,0.7,0.2c0.4,0,0.9,0,1,0.4c0,0.1,0,0.3,0,0.4
	c-0.2,1.1-0.2,2.2,0.2,3.3c0.4,1.1,1.6,1.6,2.7,1.2c-0.3,0.7-0.3,1.5-0.1,2.3c0.3,0.6,1.1,0.9,1.7,0.6c0.1,0,0.2-0.1,0.3-0.2
	c0.2-0.2,3.7-3.2,3.7-3.5c0.6-4.2-4.1-6-6.3-9.6c-2.4-3.6-5.5-6.6-9.2-8.7c-1.5-1-3.2-1.7-4.9-2.2c-2-0.5-4-0.8-6.1-0.8
	c-2.7-0.3-5.3-0.1-7.9,0.5c-4.8,1.3-8.3,5.3-11.3,9.3c-1.2,1.5-2.1,3.1-2.9,4.9c-0.7,2.1-1.1,4.4-1,6.7c-0.2,3.3,0.3,6.6,1.5,9.6"/>
<path class="st5" d="M118.6,347.5c-0.1-0.4-0.1-0.7,0-1.1c0-0.4,0.1-0.8,0.1-1.3c0-0.6-0.1-1.2-0.4-1.7c-0.3-0.7-0.7-1.3-1.1-1.9
	c-0.5-0.7-0.9-1.5-1.2-2.4c-0.5-1.5-0.5-3.2,0-4.7c0.2-0.6,0.5-1.1,0.7-1.6c0.3-0.5,0.5-1.1,0.6-1.7c0.1-0.6,0-1.3-0.1-1.9
	c-0.3-2.8,0.4-5.7,2-8.1c0.4-0.6,0.9-1.2,1.5-1.8c0.6-0.5,1.2-1,1.9-1.4c0.4-0.2,0.7-0.4,1.1-0.5c0.4-0.1,0.8-0.2,1.2-0.4
	c0.8-0.2,1.5-0.6,2.1-1.1c0.6-0.5,1.2-1.2,1.8-1.7c0.6-0.6,1.3-1.1,2-1.6c0.7-0.5,1.5-0.9,2.3-1.3c0.8-0.4,1.7-0.6,2.5-0.8
	c1.8-0.4,3.7-0.3,5.4,0.4l0.5,0.2h-0.1c2.1-1.8,4.8-2.6,7.5-2.3c2.6,0.2,5,1.4,6.7,3.3l-0.1,0c1.2-0.1,2.4-0.1,3.6,0
	c1.2,0.1,2.3,0.3,3.4,0.8c1,0.5,1.9,1.2,2.5,2.2c0.6,0.9,0.9,2,0.7,3.1l-0.1-0.1c1.6,0.5,3.1,1.6,4,3c0.9,1.3,1.3,2.8,1.3,4.4
	c0,0.4,0,0.7-0.1,1.1c-0.1,0.3-0.1,0.7-0.2,1c0,0.3,0,0.6,0.1,0.9c0.1,0.3,0.3,0.5,0.5,0.8c0.6,0.9,1.1,1.9,1.6,3
	c0.3,0.9,0.5,1.8,0.5,2.7c0,0.7-0.2,1.3-0.5,2c-0.3,0.5-0.6,0.8-0.7,1c-0.1,0.1-0.1,0.3-0.2,0.4c0-0.1,0.1-0.3,0.1-0.4
	c0.1-0.3,0.4-0.6,0.6-1.1c0.3-0.6,0.5-1.3,0.5-1.9c0-0.9-0.2-1.8-0.5-2.6c-0.4-1.1-0.9-2.1-1.6-3c-0.2-0.3-0.3-0.5-0.5-0.8
	c-0.1-0.3-0.2-0.7-0.2-1c0-0.4,0.1-0.7,0.1-1c0.1-0.3,0.1-0.7,0.1-1c0-1.5-0.5-3-1.3-4.2c-0.9-1.4-2.3-2.4-3.9-2.9h-0.1V318
	c0.2-1-0.1-2.1-0.7-2.9c-0.6-0.9-1.4-1.6-2.4-2.1c-1-0.4-2.1-0.7-3.3-0.7c-1.2-0.1-2.3,0-3.5,0.1h-0.1v0c-3.7-3.9-9.7-4.3-13.9-0.9
	l-0.1,0.1h-0.1l-0.5-0.2c-1.7-0.7-3.5-0.8-5.2-0.4c-0.9,0.2-1.7,0.5-2.5,0.8c-0.8,0.4-1.5,0.8-2.2,1.3c-0.7,0.5-1.4,1-2,1.6
	c-0.6,0.6-1.2,1.2-1.8,1.7c-0.3,0.3-0.6,0.5-1,0.7c-0.4,0.2-0.8,0.4-1.2,0.5c-0.4,0.1-0.8,0.2-1.1,0.4c-0.4,0.1-0.7,0.3-1.1,0.5
	c-0.7,0.4-1.3,0.8-1.9,1.3c-0.6,0.5-1.1,1.1-1.5,1.7c-0.8,1.2-1.4,2.5-1.7,3.9c-0.3,1.3-0.4,2.7-0.2,4c0.1,0.6,0.1,1.3,0,1.9
	c-0.1,0.6-0.3,1.2-0.7,1.7c-0.3,0.5-0.5,1-0.7,1.6c-0.2,0.5-0.3,1.1-0.3,1.6c-0.1,1,0,2,0.3,3c0.3,0.8,0.7,1.6,1.2,2.3
	c0.4,0.6,0.8,1.3,1.1,2c0.2,0.6,0.4,1.2,0.3,1.8c0,0.5-0.1,1-0.1,1.3c0,0.3,0,0.5,0,0.8C118.6,347.4,118.6,347.4,118.6,347.5z"/>
<path class="st5" d="M136.9,311.6c-0.2,0-0.5,0-0.8,0c-0.7,0-1.4,0.2-2,0.4c-0.9,0.4-1.8,1-2.4,1.8c-0.7,1-1.2,2.2-1.2,3.4
	c0,0.4,0,0.7,0.1,1.1c0,0.3,0.2,0.6,0.5,0.8l0.3,0.2l-0.4,0.1c-0.9,0.2-1.8,0.8-2.3,1.6c-0.4,0.7-0.6,1.4-0.5,2.2
	c0,0.5,0.2,1,0.4,1.5c0.2,0.3,0.3,0.5,0.3,0.5L129,325c-0.1-0.1-0.2-0.2-0.2-0.4c-0.3-0.5-0.4-1-0.5-1.5c-0.1-0.8,0.1-1.6,0.5-2.3
	c0.5-0.9,1.4-1.5,2.4-1.8v0.2c-0.4-0.2-0.6-0.6-0.7-1c-0.1-0.4-0.1-0.8-0.1-1.2c0-1.3,0.5-2.5,1.3-3.6c0.6-0.8,1.5-1.4,2.5-1.8
	c0.7-0.3,1.3-0.4,2.1-0.4c0.2,0,0.4,0,0.6,0C136.9,311.6,136.9,311.6,136.9,311.6z"/>
<path class="st5" d="M154.6,313.6c0,0.1-0.1,0.3-0.1,0.4c-0.1,0.4-0.3,0.8-0.6,1.1c-0.3,0.5-0.8,1-1.3,1.3c-0.7,0.4-1.5,0.6-2.3,0.5
	l0.2-0.1c0,0.1,0,0.3-0.1,0.5s-0.1,0.3-0.1,0.5c-0.2,0.9-0.7,1.6-1.3,2.3c-0.5,0.5-1.1,1-1.7,1.3c-0.4,0.2-0.9,0.3-1.4,0.4
	c-0.2,0-0.4,0-0.5,0c0.6-0.1,1.3-0.3,1.8-0.6c0.6-0.3,1.2-0.7,1.6-1.3c0.6-0.6,1-1.4,1.2-2.2c0-0.1,0.1-0.3,0.1-0.4s0-0.3,0-0.4
	v-0.1h0.1c0.7,0.1,1.5,0,2.1-0.4c0.5-0.3,0.9-0.7,1.3-1.2C154.4,314.2,154.6,313.6,154.6,313.6z"/>
<path class="st5" d="M162.8,318.7c0,0,0,0,0.1,0.1c0,0.2,0,0.3,0,0.5c-0.1,0.6-0.4,1.1-0.8,1.5c-0.7,0.6-1.5,0.9-2.4,1
	c-0.5,0.1-1,0.2-1.5,0.2c-0.6,0.1-1.2-0.1-1.6-0.4l-0.1-0.1h0.2c-0.4,1-0.9,1.9-1.6,2.7c-0.5,0.7-1.3,1.2-2.1,1.4
	c-0.5,0.2-1.1,0.2-1.7,0.1c-0.2,0-0.3-0.1-0.4-0.1c-0.1,0-0.1-0.1-0.1-0.1s0.2,0.1,0.6,0.1c0.5,0.1,1.1,0,1.6-0.2
	c0.8-0.3,1.5-0.8,2-1.4c0.6-0.8,1.1-1.7,1.5-2.6l0.1-0.2l0.1,0.1l0.1,0.1c0.4,0.3,0.9,0.4,1.4,0.3c0.5,0,1-0.1,1.5-0.2
	c0.8-0.1,1.6-0.4,2.3-0.9c0.4-0.4,0.7-0.9,0.8-1.4C162.8,319.1,162.8,318.9,162.8,318.7z"/>
<path class="st5" d="M155.8,286c0,0-0.1,0.1-0.3,0.3c-0.3,0.3-0.5,0.6-0.6,1c-0.1,0.6-0.1,1.3,0.2,1.8c0.4,0.7,0.9,1.4,1.5,2
	l0.1,0.1l-0.1,0.1c-1,0.5-1.8,1.3-2.3,2.3c-0.6,1.1-0.6,2.4,0,3.6c0.5,1,1.4,1.8,2.6,2l0.4,0.1l-0.3,0.2c-1.1,0.6-1.9,1.7-2.3,2.9
	c-0.2,1-0.1,2.1,0.3,3c0.3,0.6,0.7,1.1,1.2,1.6c0.4,0.3,0.6,0.4,0.6,0.5l-0.2-0.1c-0.2-0.1-0.3-0.2-0.5-0.3
	c-1.4-1.1-2.1-2.9-1.7-4.7c0.3-1.3,1.2-2.5,2.4-3.1v0.2c-1.2-0.2-2.2-1-2.8-2.1c-0.3-0.6-0.5-1.3-0.5-2c0-0.6,0.2-1.3,0.4-1.9
	c0.5-1,1.4-1.9,2.4-2.4v0.2c-0.6-0.6-1.1-1.3-1.5-2.1c-0.3-0.6-0.4-1.3-0.2-1.9c0.1-0.4,0.3-0.8,0.6-1.1c0.1-0.1,0.2-0.1,0.3-0.2
	L155.8,286z"/>
<path class="st5" d="M179.2,295.3c0,0,0,0.1-0.1,0.1c-0.1,0.1-0.2,0.3-0.3,0.4c-0.4,0.5-0.9,0.9-1.4,1.2c-0.8,0.5-1.7,0.9-2.6,1
	c-1.2,0.2-2.4,0.1-3.6-0.3l0.2-0.1c0,1.7-0.9,3.3-2.2,4.4c-1.5,1.1-3.5,1.1-5,0.1l0.2-0.1c0.1,0.6,0,1.3-0.2,1.9
	c-0.2,0.5-0.5,1-0.9,1.4c-0.6,0.7-1.4,1.2-2.3,1.6c-0.5,0.2-1.1,0.4-1.7,0.6c-0.2,0.1-0.4,0.1-0.6,0.1c0.2-0.1,0.4-0.2,0.6-0.2
	c0.4-0.1,0.9-0.3,1.6-0.7c0.8-0.4,1.6-0.9,2.2-1.6c0.8-0.8,1.1-2,1-3.1l-0.1-0.3l0.2,0.2c1.4,1,3.3,1,4.7-0.1c1.3-1,2.1-2.5,2.1-4.1
	v-0.2l0.2,0.1c1.1,0.4,2.3,0.5,3.5,0.3c0.9-0.2,1.8-0.5,2.6-1C178,296.5,178.6,296,179.2,295.3z"/>
<path class="st5" d="M177.2,311.4c0,0,0,0.1,0,0.2c-0.1,0.2-0.2,0.3-0.3,0.4c-0.6,0.4-1.2,0.6-1.9,0.7c-1,0.1-2-0.1-2.9-0.6
	c-1.1-0.6-1.9-1.6-2.3-2.8l0,0h0.2c-0.7,1-1.7,1.8-2.9,2.2c-1,0.3-2,0.4-3,0.3c-0.7-0.1-1.3-0.3-1.9-0.5c-0.2-0.1-0.4-0.2-0.6-0.4
	c0.8,0.3,1.7,0.6,2.6,0.7c1,0.1,1.9,0,2.8-0.3c1.1-0.4,2.1-1.1,2.8-2.1l0.1-0.2l0.1,0.3l0,0c0.7,2.1,2.7,3.5,4.9,3.3
	c0.7,0,1.3-0.2,1.9-0.5C177,311.8,177.1,311.6,177.2,311.4z"/>
<path class="st5" d="M138.8,295.7c0.2,0.9,0.5,1.8,1,2.6c0.5,0.9,1.3,1.6,2.1,2.1c1.1,0.6,2.3,0.9,3.5,0.8c0.7,0,1.4-0.2,2.1-0.5
	l0.1-0.1v0.2c0.2,1,0.6,1.9,1.1,2.7c0.4,0.7,0.9,1.2,1.5,1.8c0.2,0.2,0.5,0.4,0.7,0.5c0.2,0.1,0.4,0.2,0.6,0.1
	c0.1,0,0.2-0.1,0.3-0.3c0-0.1,0-0.1,0-0.1s0,0,0,0.1c0,0.2-0.1,0.3-0.3,0.4c-0.2,0.1-0.5,0.1-0.7-0.1c-0.3-0.1-0.5-0.3-0.8-0.5
	c-0.6-0.5-1.2-1.1-1.6-1.8c-0.6-0.8-1-1.8-1.2-2.8l0.2,0.1c-0.7,0.3-1.4,0.5-2.1,0.5c-2.4,0.2-4.6-1-5.9-3c-0.4-0.6-0.6-1.3-0.7-1.9
	c0-0.2-0.1-0.4-0.1-0.6C138.8,295.8,138.8,295.8,138.8,295.7z"/>
<path class="st4" d="M150.2,358c-0.3,0.1,0.2,1.7-0.8,3.3s-2.9,2-2.8,2.2s0.5,0.2,1.2,0c1-0.3,1.8-0.9,2.4-1.8
	c0.5-0.8,0.7-1.8,0.6-2.8C150.6,358.3,150.3,357.9,150.2,358z"/>
<path class="st6" d="M157.9,386.3c0,0,7.1,46.7,15.6,54.9c9.1,8.8,25.5,13.1,25.5,13.1s21.8,8.6,29.4,6.8l13.7-47
	c-0.5-1.7-2-2.8-3.7-2.8c-1.4,0-5.3,1.8-7.1,1.4c-7.1-1.7-23.7-27.2-23.7-27.2s-15.8-21.8-29.3-19.8c-9.2,1.4-13.1,5.5-16.6,14.8
	C160.9,382.5,159.6,384.5,157.9,386.3L157.9,386.3z"/>
<polygon class="st6" points="157.9,386.3 151.8,417.4 123.3,409.3 118.4,425.9 166.5,447.6 176,408.3 "/>
<path class="st4" d="M222.2,441.2c-0.1,0,2-5.9,4.7-13s5-12.9,5.2-12.8s-2,5.9-4.7,13S222.3,441.2,222.2,441.2z"/>
<path class="st4" d="M221.7,434.7c1.6-5.3,3.5-10.5,5.7-15.5c-0.7,2.7-1.6,5.3-2.6,7.9C223.9,429.6,222.9,432.2,221.7,434.7z"/>
<path class="st4" d="M157.2,395.3c0.3,2.4,0.4,4.9,0.4,7.3c0.1,2,0.2,3.8,0.2,5.1c0.1,0.7,0.1,1.4,0.1,2.1c-0.3-0.7-0.4-1.4-0.4-2.1
	c-0.2-1.3-0.3-3.1-0.4-5.1s-0.1-3.9-0.1-5.2C157,396.7,157,396,157.2,395.3z"/>
<g class="st9">
	<polygon points="141.5,436.4 152.1,431.8 157.9,411.2 154,436.5 146.2,438.5 	"/>
</g>
<g class="st9">
	<path d="M229.9,419.4c-0.8-0.3-1.6-0.1-2.2,0.5c-0.5,0.6-1,1.4-1.2,2.2c-2.1,5.3-4.2,10.6-6.3,15.9c-0.4,0.7-0.5,1.6-0.5,2.4
		c0.1,0.8,0.7,1.6,1.5,1.5s1.1-0.9,1.4-1.5c3-6.7,5.5-13.7,7.6-20.8"/>
</g>
<path class="st7" d="M79.3,413.5c0,0,3.8-5.1,6.1-6.2c1.8-0.9,12.4-2.8,13.7-2.5s24.2,5.3,24.2,5.3l-3,10l-1.5-0.7
	c0,0-4.6,2.3-8.2,1.2c-2.8-1.1-5.5-2.5-8-4.2l-3.2,1.2c0,0,3.5,1.1,3.7,2.5s-1.7,1.6-1.7,1.6l-0.1,0.6c-0.2,1.1-1.3,1.8-2.4,1.6
	c-2-0.4-5-1.1-5.6-1.8c-0.3-0.3-1.7-2.9-1.7-2.9c-2.2-1.5-2.1-3-2-3.9c0.2-1.8,2.2-3.9,2.2-3.9l-3.9-0.2
	C88,411.2,81.8,417.5,79.3,413.5z"/>
<path class="st7" d="M111.5,411.8c-4.7,0-9.1-0.6-12.5,0.2c-0.9,0.2-1.8,0.6-2.5,1.2c-0.7,0.7-0.9,1.7-0.5,2.6
	c0.5,0.7,1.2,1.1,2.1,1.1c0.8,0,1.6-0.1,2.4-0.1c1.9,0.1,3.8,0.6,5.5,1.7c1.7,1,3.4,1.8,5.3,2.3c1.9,0.4,6.3,0,7.6-1.4"/>
<path class="st8" d="M118.9,419.4c0,0-0.1,0.1-0.3,0.3c-0.3,0.3-0.7,0.5-1.1,0.6c-1.4,0.5-3,0.8-4.5,0.8c-1.1,0-2.1-0.2-3.2-0.5
	c-1.1-0.4-2.2-1-3.3-1.5c-1.1-0.6-2.4-1.2-3.6-1.6c-0.6-0.2-1.3-0.3-2-0.4c-0.7,0-1.4,0-2.2,0.1c-0.8,0.1-1.6-0.1-2.3-0.4
	c-0.7-0.4-1.1-1.2-1-2c0.1-0.7,0.5-1.4,1.1-1.9c0.6-0.4,1.2-0.7,1.8-0.9c2.2-0.5,4.5-0.7,6.8-0.5l4.6,0.2c0.6,0,1.1,0,1.7,0.1
	c-0.1,0-0.3,0.1-0.4,0c-0.3,0-0.7,0-1.2,0c-1.1,0-2.6,0-4.6-0.1c-2.2-0.1-4.5,0.1-6.7,0.6c-0.6,0.2-1.2,0.4-1.7,0.8
	c-0.5,0.4-0.8,0.9-0.9,1.6c-0.1,0.6,0.2,1.2,0.8,1.5c0.6,0.3,1.3,0.5,2,0.4c0.7-0.1,1.5-0.1,2.2-0.1c0.7,0,1.4,0.2,2.1,0.4
	c1.3,0.4,2.5,1,3.7,1.7c2.2,1.2,4.3,2.2,6.2,2.1c1.5,0,3-0.2,4.4-0.6C118,419.9,118.5,419.7,118.9,419.4z"/>
<path class="st8" d="M96.6,410.7c0,0.1-0.4,0.3-1.2,0.4c-1,0.2-2,0.3-3,0.3c-1.4,0.1-2.9,0-4.3-0.3c1.4-0.2,2.9-0.3,4.3-0.2
	c1.2,0,2.2-0.1,3-0.1C95.8,410.7,96.2,410.7,96.6,410.7z"/>
<path class="st8" d="M101.7,421.7c-3.6,0.6-7.3-0.4-10.2-2.7c1.6,0.7,3.3,1.4,5,1.9C98.2,421.3,100,421.5,101.7,421.7z"/>
<path class="st8" d="M95.3,416.5c0.8-0.2,1.6-0.1,2.3,0.2c0.8,0.1,1.5,0.4,2.1,0.9c-0.8,0-1.5-0.1-2.2-0.4
	C96.8,417,96,416.8,95.3,416.5z"/>
<path class="st4" d="M48.3,424.3L73.5,412c0.4-0.2,0.9-0.2,1.3,0.1l27.7,17.6c0.6,0.4,0.8,1.3,0.4,1.9c0,0-0.1,0.1-0.1,0.1
	l-14.7,19.5L48.3,424.3z"/>
<polygon class="st2" points="51.5,425.2 85.4,447.6 100.8,430.4 74.1,413.8 "/>
<polygon class="st0" points="64.7,418.5 93.8,438.2 85.4,447.6 51.5,425.2 "/>
<path class="st0" d="M79.6,419.1l-4.5,3.6c-0.3,0.3-0.7,0.2-1-0.1c0,0,0,0,0,0l0,0c-0.3-0.3-0.2-0.7,0.1-1c0,0,0,0,0,0l4.5-3.6
	c0.3-0.3,0.7-0.2,1,0.1c0,0,0,0,0,0l0,0C79.9,418.4,79.9,418.9,79.6,419.1C79.6,419.1,79.6,419.1,79.6,419.1z"/>
<path class="st0" d="M81.6,420.8l-4.4,3.6c-0.3,0.3-0.7,0.2-1-0.1c0,0,0,0,0,0l0,0c-0.3-0.3-0.2-0.7,0.1-1c0,0,0,0,0,0l4.5-3.6
	c0.3-0.3,0.7-0.2,1,0.1c0,0,0,0,0,0l0,0C81.9,420,81.9,420.5,81.6,420.8C81.6,420.7,81.6,420.8,81.6,420.8z"/>
<path class="st0" d="M83.7,422.7l-4.5,3.6c-0.3,0.3-0.7,0.2-0.9,0c0,0,0,0-0.1-0.1l0,0c-0.3-0.3-0.2-0.7,0-0.9c0,0,0,0,0.1-0.1
	l4.4-3.6c0.3-0.3,0.7-0.2,1,0.1c0,0,0,0,0,0l0,0C84.1,422,84.1,422.4,83.7,422.7C83.8,422.7,83.7,422.7,83.7,422.7z"/>
<path class="st0" d="M84.6,425.3l-2.5,2.1c-0.3,0.2-0.7,0.2-1-0.1c0,0,0,0,0,0l0,0c-0.3-0.3-0.2-0.7,0.1-1c0,0,0,0,0,0l2.5-2.1
	c0.3-0.2,0.7-0.2,1,0.1c0,0,0,0,0,0l0,0C85,424.6,84.9,425,84.6,425.3C84.6,425.3,84.6,425.3,84.6,425.3z"/>
<path class="st6" d="M75.8,418.5l-2.9,2.1c-0.3,0.2-0.7,0.2-1-0.1c0,0,0,0,0-0.1l0,0c-0.2-0.3-0.1-0.7,0.2-0.9c0,0,0,0,0,0l3-2.1
	c0.3-0.2,0.7-0.2,1,0.1c0,0,0,0,0,0l0,0C76.2,417.9,76.1,418.3,75.8,418.5C75.8,418.5,75.8,418.5,75.8,418.5z"/>
<path class="st6" d="M91,428.4l-2.5,2.5c-0.3,0.3-0.7,0.3-1,0c0,0,0,0,0,0l0,0c-0.3-0.3-0.3-0.7,0-1c0,0,0,0,0,0l2.5-2.5
	c0.3-0.3,0.7-0.3,1,0c0,0,0,0,0,0l0,0C91.3,427.7,91.3,428.1,91,428.4C91,428.4,91,428.4,91,428.4z"/>
<path class="st4" d="M88.2,451.3L88.2,451.3c-0.7,1-2,1.3-3.1,0.7c0,0,0,0,0,0L48,428.2c-1-0.7-1.3-2-0.7-3.1c0,0,0,0,0,0l0,0
	c0.7-1,2-1.3,3.1-0.7l37.1,23.7C88.5,448.9,88.8,450.2,88.2,451.3C88.2,451.3,88.2,451.3,88.2,451.3z"/>
<path class="st5" d="M373,378.5l1.1-26.4c0,0,27-5.9,27.7-10.7l-51-5.9l-3.4,41.1L373,378.5z"/>
<g class="st10">
	<path class="st2" d="M358.1,353.1c-1-0.4-1.5-1.5-1.3-2.5c0.3-1,1.4-1.6,2.5-1.3c1.1,0.4,1.6,1.6,1.3,2.6c-0.5,1-1.7,1.4-2.7,1"/>
</g>
<path class="st4" d="M350.8,335.5l-0.3,4.1l49.4,3.9c1.1-0.4,1.9-1.4,2.2-2.6L350.8,335.5z"/>
<path class="st4" d="M374.9,352.4c0-0.2-1.2-0.5-2.4-1.4s-1.8-2-2-1.9s0,1.5,1.5,2.6S374.9,352.7,374.9,352.4z"/>
<path class="st4" d="M380.4,350.6c0.1-0.2-1-0.8-1.7-1.9s-0.9-2.3-1.2-2.3s-0.5,1.4,0.5,2.8S380.4,350.9,380.4,350.6z"/>
<path class="st4" d="M384,344.5c-0.2-0.1-0.7,1.1-0.1,2.6s1.7,2,1.8,1.9s-0.5-1-1-2.2S384.2,344.5,384,344.5z"/>
<path class="st4" d="M374,358.4c-0.1-0.2-1.3,0-2.7-0.2s-2.5-0.7-2.6-0.5s0.8,1.2,2.5,1.4S374.1,358.6,374,358.4z"/>
<g class="st9">
	<path d="M373,378.5l1.1-26.4c0,0,27-5.9,27.7-10.7l-51-5.9l-3.4,41.1L373,378.5z"/>
</g>
<path class="st4" d="M377.3,359.2c-0.4,0.8-3.5,77.5-3.5,77.5l-26.4-10.4c-3-6.4-4.4-13.6-3.9-20.7c0.8-11.9,7.8-48.6,7.8-48.6
	L377.3,359.2z"/>
<path class="st5" d="M370.2,380.2l-12.8-23.2c0,0,20.1-19,18.1-23.5L329,354.9l18.4,36.9L370.2,380.2z"/>
<g class="st10">
	<path class="st2" d="M344.3,366.2c-1.1,0.2-2.1-0.5-2.4-1.5c-0.2-1,0.4-2.1,1.4-2.4c1.1-0.2,2.2,0.5,2.5,1.6
		c0.1,1.1-0.7,2.1-1.8,2.3"/>
</g>
<path class="st4" d="M329,354.9l1.9,3.7l44.3-22.2c0.7-0.9,0.9-2.2,0.5-3.3L329,354.9z"/>
<path class="st4" d="M358.3,356.9c-0.1-0.2-1.3,0.2-2.8,0.1s-2.5-0.8-2.7-0.6s0.8,1.3,2.6,1.5S358.5,357.1,358.3,356.9z"/>
<path class="st4" d="M362.1,352.5c-0.1-0.2-1.2-0.1-2.5-0.7s-2-1.5-2.2-1.3s0.3,1.5,1.8,2.1S362.2,352.7,362.1,352.5z"/>
<path class="st4" d="M362,345.4c-0.2,0,0,1.3,1.2,2.3s2.5,0.9,2.5,0.7s-1-0.6-1.9-1.3S362.2,345.3,362,345.4z"/>
<path class="st4" d="M360.6,362.5c-0.2-0.2-1.1,0.7-2.4,1.2s-2.5,0.7-2.5,0.9s1.3,0.6,2.9-0.1S360.9,362.6,360.6,362.5z"/>
<g class="st9">
	<polygon points="367.7,375.6 365.4,371.5 343,383.1 344.9,386.9 	"/>
</g>
<path class="st4" d="M242.1,413.9l7.4-2.4c0,0,13.6-10.9,28.8-9.5c9.7,1.1,19,4,27.6,8.6l15.9,8.7l40.8,10.9L339,375l23.2-9.6
	c0,0,23.2,37.3,30.2,47.8s12.3,21.1,13.1,29.8s-5.7,20.8-23.6,22.8s-94.6-3.1-94.6-3.1l-59-1.7L242.1,413.9z"/>
<path class="st5" d="M242.1,413.9c0,0-0.1,0.3-0.2,0.8s-0.4,1.3-0.7,2.4c-0.6,2.1-1.5,5.2-2.6,9.2c-2.3,8-5.7,19.8-10,34.6l-0.1-0.2
	l42.2,1.2c15.9,0.2,33.5,1.6,52.4,2.5c9.5,0.5,19.3,0.9,29.4,1.2c5,0.1,10.2,0.2,15.4,0.3c2.6,0,5.2,0,7.8-0.1
	c1.3,0,2.6-0.1,3.9-0.2c1.3-0.1,2.6-0.2,3.9-0.4c5.3-0.7,10.4-2.8,14.6-6.2c4.3-3.5,6.9-8.6,7.3-14c0-0.7,0-1.4,0-2
	c-0.1-0.7-0.1-1.4-0.3-2.1c-0.2-1.4-0.5-2.7-0.9-4c-0.8-2.7-1.8-5.3-3-7.9c-2.4-5.2-5.2-10.1-8.4-14.9c-5.5-8.2-10.6-16.5-15.7-24.6
	l-15-24l0.3,0.1l-23.2,9.6l0.1-0.3l23.4,55.4l0.2,0.4l-0.4-0.1l-40.7-10.9l0,0l-12.2-6.7c-2-1.1-3.9-2.2-5.8-3.1s-3.8-1.8-5.7-2.6
	c-6.8-2.8-14.1-4.5-21.5-5c-3.1-0.1-6.2,0.3-9.2,1c-2.6,0.6-5.1,1.5-7.5,2.6c-3.6,1.6-7.1,3.6-10.2,5.9l0,0l-5.6,1.7L242.1,413.9
	l1.8-0.5l5.6-1.8l0,0c3.2-2.4,6.6-4.4,10.2-6c2.4-1.1,5-2,7.5-2.6c3-0.7,6.1-1.1,9.2-1c7.4,0.5,14.7,2.2,21.6,5
	c1.9,0.8,3.8,1.6,5.8,2.5c1.9,1,3.8,2.1,5.8,3.1l12.2,6.7l0,0l40.8,10.9l-0.3,0.3l-23.5-55.4l-0.1-0.2l0.2-0.1l23.2-9.6l0.2-0.1
	l0.1,0.2l15,24c5.1,8.1,10.3,16.4,15.7,24.6c3.2,4.7,6,9.7,8.4,14.9c1.2,2.6,2.2,5.2,3,7.9c0.4,1.4,0.7,2.7,0.9,4.1
	c0.1,0.7,0.2,1.4,0.3,2.1s0.1,1.4,0,2.1c-0.4,5.6-3.1,10.9-7.5,14.4c-4.3,3.4-9.4,5.6-14.8,6.3c-1.3,0.2-2.7,0.4-4,0.4
	c-1.3,0.1-2.6,0.2-4,0.2c-2.6,0.1-5.2,0.1-7.9,0.1c-5.2,0-10.3-0.1-15.4-0.3c-10.1-0.3-19.9-0.8-29.4-1.2
	c-18.9-0.9-36.5-2.4-52.4-2.6l-42.2-1.3h-0.2V461l10.2-34.6l2.7-9.2c0.3-1,0.5-1.8,0.7-2.4S242.1,413.9,242.1,413.9z"/>
<path class="st5" d="M359.7,429.4c0.3,0,0.6,0,0.9,0.1c0.6,0.1,1.5,0.3,2.5,0.6c2.8,0.6,5.5,1.6,8.1,2.8c2.6,1.2,5,3,6.8,5.2
	c0.3,0.4,0.6,0.8,0.9,1.2c0.2,0.3,0.4,0.7,0.6,1c0.2,0.3,0.3,0.6,0.4,0.9c-0.1,0-0.7-1.2-2.2-2.8c-1.9-2.1-4.2-3.8-6.8-5
	c-2.6-1.2-5.3-2.2-8-2.9C361.9,430.2,360.8,429.8,359.7,429.4z"/>
<path class="st7" d="M105.2,446.9c0,0-10.4-5.9-12.5-6.1c-2.9-0.2-15.7,0.3-17.3,0.2c-0.8-0.1-1.6,0.6-1.6,1.4c0,0.3,0.1,0.7,0.3,1
	c0.6,1,2,2.6,6,2.5c2.5-0.2,4.9,0.2,7.2,1c1,0.4,0.7,1.6,0.7,1.6s-5.8,0.3-7.4-0.1c-2.3-0.5-9.9-5.7-9.9-5.7l-3-1.9
	c0,0-1.3,1.5,0.7,4.4c1.4,1.9,2.9,3.7,4.5,5.5c0,0-2.8,1.7-0.4,4.4c0,0-1.8,3.3,2.2,5.2c0.6,1.4,1.5,2.7,2.6,3.7
	c1.2,1,4.3,0.8,6.2,0.9c2.8,0,5.6-0.2,8.4-0.7c2.5-0.5,5-1.2,7.4-2l9.5,0.5l0.9-16.1L105.2,446.9z"/>
<path class="st8" d="M78.8,454c-1.3-0.2-2.5-0.7-3.6-1.4c-1.2-0.5-2.3-1.3-3.2-2.2c1.2,0.5,2.4,1.1,3.4,1.8
	C76.6,452.7,77.7,453.3,78.8,454z"/>
<path class="st8" d="M77.6,457.6c-1.1-0.1-2.1-0.4-3-1c-1-0.4-1.8-1.1-2.5-1.9c0.9,0.4,1.9,0.9,2.7,1.4
	C75.8,456.5,76.7,457,77.6,457.6z"/>
<path class="st8" d="M77.8,461.5c-0.9,0-1.8-0.2-2.6-0.7c-0.9-0.3-1.6-0.9-2.1-1.7c0.8,0.3,1.6,0.7,2.4,1.2
	C76.2,460.6,77,461,77.8,461.5z"/>
<g class="st9">
	<path d="M182.4,447.2c5.3-7,8.1-15.6,9.2-24.4s0.9-17,0.4-25.8C190.3,414.1,187,430.9,182.4,447.2z"/>
</g>
<path class="st6" d="M192.9,387c0.1,0.9,0-1.9,0-1c-0.2,12-7.3,62.9-16.4,72.8c-7,7.6-72.4,4.4-72.4,4.4l0.7-17c0,0,1.8-0.5,13.5-2
	s35.7-7.6,35.7-7.6l8-53.3"/>
<path class="st4" d="M162,383.2c0,0,0,0.3-0.1,1l-0.4,2.8c-0.4,2.5-0.9,6.1-1.6,10.7c-1.4,9.3-3.4,22.6-5.8,38.9v0.1H154
	c-7,1.8-14.7,3.6-22.9,5.4c-4.1,0.9-8.4,1.7-12.8,2.3s-9,1.1-13.5,2l0.2-0.2c-0.2,5.4-0.5,11.2-0.7,17l-0.2-0.3
	c4.6,0.2,9.5,0.4,14.5,0.5c9.4,0.2,18.5,0.3,27.3,0c4.4-0.1,8.7-0.3,13-0.7c4.1-0.3,8.2-0.9,12.3-1.8c1-0.2,1.9-0.5,2.9-0.9
	c0.9-0.3,1.7-0.8,2.4-1.5c1.2-1.5,2.2-3.1,3-4.9c1.5-3.4,2.8-6.9,3.8-10.5c2-6.9,3.4-13.5,4.6-19.5c2.3-12,3.6-21.9,4.4-28.7
	c0.4-3.4,0.6-6.1,0.7-7.9c0-0.5,0-0.9,0.1-1.2l0,0c0,0,0,0,0.1,0s0,0,0,0v0.8c0,0.2,0,0.4-0.1,0.5c0-0.1,0-0.1,0-0.2
	c0,0,0,0.1,0,0.2c0-0.1,0-0.3,0-0.5v-0.8c0,0,0,0,0.1,0l0,0c0,0.3,0,0.7,0,1.2c-0.1,1.8-0.2,4.5-0.6,7.9c-0.7,6.8-2,16.7-4.2,28.8
	c-1.1,6-2.5,12.6-4.5,19.6c-1,3.6-2.3,7.1-3.8,10.6c-0.8,1.8-1.8,3.5-3.1,5c-0.7,0.7-1.6,1.3-2.6,1.6c-0.9,0.4-1.9,0.7-2.9,0.9
	c-4.1,0.9-8.2,1.5-12.4,1.8c-4.2,0.4-8.6,0.6-13,0.7c-8.8,0.2-18,0.2-27.4,0c-5-0.1-9.9-0.3-14.5-0.5h-0.3v-0.2
	c0.2-5.9,0.5-11.6,0.7-17V446h0.2c2.3-0.5,4.6-0.8,6.9-1.1l6.7-0.9c4.4-0.6,8.7-1.4,12.8-2.3c8.2-1.7,15.9-3.6,22.9-5.3l-0.1,0.2
	c2.5-16.2,4.6-29.6,6-38.8c0.7-4.6,1.3-8.2,1.7-10.7c0.2-1.2,0.3-2.1,0.4-2.8S162,383.2,162,383.2z"/>
</svg>
