<?xml version="1.0" encoding="utf-8"?>
<!-- Generator: Adobe Illustrator 24.3.0, SVG Export Plug-In . SVG Version: 6.00 Build 0)  -->
<svg version="1.1" id="Layer_1" xmlns="http://www.w3.org/2000/svg" xmlns:xlink="http://www.w3.org/1999/xlink" x="0px" y="0px"
	 viewBox="0 0 1670.1 479.8" style="enable-background:new 0 0 1670.1 479.8;" xml:space="preserve">
<style type="text/css">
	.st0{fill:#0192CB;}
</style>
<g>
	<g id="_x23_fefefeff">
		<path class="st0" d="M554.6,164.8c16.2-10.5,36.3-13.6,55.3-11.9c13.8,1.3,27,6.8,38,15.1c1.6-4.3,3.2-8.6,4.9-12.9
			c7.3,0,14.6,0,21.9,0c0,21.9,0,43.8,0,65.7c-7.8,0-15.7,0-23.5,0c-0.9-12.4-4.4-25.5-13.6-34.4c-6.9-7-16.9-10.5-26.7-10.4
			c-11.2-0.6-22.4,4.9-29,14c-10.3,14-12.3,32.1-12.2,49c0.2,16.4,2.6,33.9,13.1,47.2c12.7,16.4,40.3,17.1,54.4,2.1
			c8.3-8.7,11.3-20.8,12.2-32.5c8.5,0,17,0,25.4,0c-0.6,16.7-4.4,34.4-15.9,47.2c-10.8,12.1-27,17.8-42.8,19.4
			c-19.6,1.9-40.2-0.1-57.8-9.5c-18.4-9.7-32.1-27.5-37.4-47.6c-4.5-17.3-4.7-35.8-0.4-53.2C525.2,192.8,538,175.8,554.6,164.8z"/>
		<path class="st0" d="M1381.1,157.1c26.2,0,52.5,0,78.7,0c12.2,0,24.3-0.2,36.5,0.9c11.8,1.2,24,3.8,33.6,11.1
			c7.2,5.5,11.7,14,13.3,22.9c1.5,9.1,1.5,18.7-1.9,27.4c-3.7,9.8-11.3,17.9-20.8,22.3c-9.9,4.6-21,5.4-31.7,5.8c-13,0-26,0-39,0
			c-0.1,12.5-0.2,25,0,37.5c0.3,3.9,0.4,9.7,5.1,11c6.9,1.9,14.1,0.7,21.2,1c0,7.1,0,14.2,0,21.2c-31.7,0-63.3,0-95,0
			c0-7.1,0-14.2,0-21.2c6.4-0.3,13.2,1,19.4-1.4c3.7-1.6,3.8-6.4,4.1-9.8c0.1-29.2,0-58.5,0-87.7c-0.1-4.7,0.3-9.4-0.8-14
			c-0.5-2.1-1.8-4.2-4-4.7c-6.1-1.8-12.5-1-18.8-1.1C1381.1,171.3,1381.1,164.2,1381.1,157.1 M1449.8,178.4c0,16.2,0,32.3,0,48.5
			c9.4-0.1,18.9,0.5,28.2-1.1c5.5-1,11.3-3,14.7-7.8c4-6.1,4.5-13.8,3.8-20.8c-0.7-6.4-4.5-12.6-10.5-15.1
			C1474.5,177,1461.8,178.7,1449.8,178.4z"/>
		<path class="st0" d="M742.4,201.8c17.4-2.4,36.1-1.3,51.8,7c13.9,7.3,24.2,21,27.3,36.4c3.5,16.9,2.1,35.6-7.1,50.5
			c-9.1,14.8-25.8,23.6-42.7,25.8c-17.1,2.2-35.4,1.1-50.9-7.2c-14.1-7.4-24.3-21.3-27.3-36.9c-3.2-16.8-1.8-35.4,7.5-50.1
			C710,212.9,725.9,204.2,742.4,201.8 M749.3,222.7c-6,1.8-10.1,7.5-11.5,13.4c-2.8,10.4-2.6,21.3-2.5,32c0.4,7.7,0.9,15.6,3.8,22.8
			c2.3,5.7,7.7,9.7,13.8,10.5c6.7,1,14.5,0.2,19.4-4.9c4.9-5,5.9-12.2,6.8-18.9c1.2-12.2,1.2-24.5-0.7-36.6c-1-6.3-3.3-13-9-16.6
			C763.5,220.9,755.9,220.7,749.3,222.7z"/>
		<path class="st0" d="M1148.5,203.7c20-5.7,42-3.1,60.4,6.5c0.8-2.1,1.7-4.2,2.6-6.4c5.7,0,11.4-0.1,17.2,0.1
			c-0.1,12,0,23.9,0,35.9c-5.8,0-11.5,0-17.2-0.1c-6.2-9.6-16.2-16.7-27.5-18.7c-6.1-1-12.8-1.4-18.3,1.8c-3.4,1.8-5.3,6.2-4,9.8
			c1.4,2.8,4.1,4.5,6.7,6c15.3,7.9,33.4,8,48.3,16.7c6.6,3.9,12.6,9.3,15.6,16.4c4.2,10.3,2.7,22.8-4,31.7
			c-5.6,7.5-14,12.4-22.8,15.4c-21.3,6.8-45.1,3.4-64.4-7.6c-1.2,2.7-2.4,5.5-3.7,8.2c-5.7-0.1-11.3-0.1-16.9,0c-0.1-14,0-28-0.1-42
			c6.3,0,12.7,0,19,0c2.5,6.6,6.5,12.7,12.2,17c8.5,6.6,20,8.7,30.5,6.6c3.5-0.8,7.3-2.5,9-5.9c1.9-3.8,0.4-8.8-3.5-10.7
			c-8.1-3.9-17.1-5.3-25.7-7.8c-8.8-2.6-17.7-5.3-25.9-9.5c-9-4.6-15.7-13.8-16.8-23.9c-0.9-8.3,0.8-17.2,5.9-24
			C1130.7,211.4,1139.4,206.4,1148.5,203.7z"/>
		<path class="st0" d="M1049.8,216.2c5.9-6.5,13.3-12.1,22-13.8c9.3-1.8,20-0.2,27,6.6c6.8,6.7,8.5,17.2,6.4,26.2
			c-1.6,7-7.1,13.2-14.2,15.1c-6.1,1.6-13.2,0.9-18-3.5c-5.4-4.5-7.1-12.6-4.5-19.1c1.9-4.3,6.2-6.8,10.4-8.5
			c-5.2-2.5-11.7-2.2-16.2,1.6c-7.5,6.4-10.3,16.6-10.8,26.1c-0.6,13.3-0.2,26.7-0.3,40.1c0.2,3.8,0,9.2,4.3,10.8
			c5.3,1.7,11.1,0.7,16.6,0.9c0,6.5,0,13,0,19.5c-26.5,0-52.9,0.1-79.4,0c0-6.5,0-13,0-19.5c4.8-0.1,9.9,0.6,14.5-1.1
			c3.6-1.6,3.8-6.2,3.9-9.6c0-17.7,0-35.4,0-53.1c-0.2-3.4-0.3-8.1-4-9.6c-4.6-1.6-9.6-1.1-14.4-1.2c0-6.5,0-13,0-19.5
			c18.9,0,37.8,0,56.6,0C1049.8,208.7,1049.8,212.5,1049.8,216.2z"/>
		<path class="st0" d="M1267.6,216.8c13.9-13.7,34.7-17,53.4-14.6c14.6,1.6,28.9,8.5,37.7,20.4c9.5,12.5,12,28.7,11.6,44
			c-26,0-52.1,0-78.1,0c0.2,9.1,0.6,19.1,6.7,26.4c4.5,5.5,12,7.1,18.8,6.7c6.8-0.2,14-2.9,18-8.7c2.4-3.2,3.3-7.2,4-11.1
			c9.5-0.1,19,0,28.5,0c-2.7,10-7.2,19.7-14.6,27.1c-7.7,7.7-18.1,12.5-28.8,14.2c-16.1,2.6-33.6,1.3-47.9-7.3
			c-13.5-8-23-22.2-25.6-37.8C1247.9,255.4,1251.8,231.8,1267.6,216.8 M1298,228.2c-4.2,5.3-4.9,12.4-5.3,18.9
			c12.3-0.2,24.7,0.4,37,0.2c-0.1-6.1-0.6-12.7-4.1-18C1319.8,220.2,1304.5,219.5,1298,228.2z"/>
		<path class="st0" d="M1570.1,214.4c14.8-12.6,35.7-14.8,54.3-11.8c14.2,2.2,27.8,10,35.8,22.1c8.3,12.2,10.3,27.4,9.9,41.8
			c-26,0-51.9,0-77.9,0c0.2,9.1,0.7,19.1,6.8,26.4c5.2,6.3,14.1,7.4,21.7,6.4c6.1-0.7,12-3.9,15.4-9.1c2.2-3.1,2.9-6.9,3.6-10.5
			c9.5,0,19,0,28.5,0c-2.9,10.1-7.3,20.2-15.1,27.6c-7.6,7.5-17.8,12-28.3,13.7c-19.5,3.3-41.5,0.3-56.5-13.7
			c-13-11.5-18.8-29.3-18.2-46.4C1550.2,243.8,1556.5,225.7,1570.1,214.4 M1597.6,228.8c-3.8,5.3-4.5,12-4.9,18.4
			c12.3-0.2,24.6,0.4,37,0.2c-0.2-5.9-0.6-12.1-3.7-17.3C1620.5,220.1,1604,219.3,1597.6,228.8z"/>
		<path class="st0" d="M833.1,204.9c19,0,37.9,0,56.9,0c0,24.8,0,49.5,0,74.3c0.1,6.6,1.2,14.6,7.4,18.4c7.6,4.1,18.8,2.7,23.9-4.9
			c3.9-5.7,4.6-12.8,4.7-19.6c0-12.7,0-25.4,0-38c-0.1-3-0.2-6.5-2.5-8.7c-3.3-2.2-7.5-1.8-11.3-2.1c0-6.5-0.1-13,0.1-19.5
			c17.9,0.1,35.7,0,53.5,0c0,27.1,0,54.2,0,81.3c0.2,3.9-0.3,9.1,3.5,11.4c4.6,2,9.7,1.1,14.6,1.3c0,6.5,0,13,0,19.5
			c-18.7,0-37.5,0-56.2,0c0-5.8,0-11.7,0-17.5c-8,11-20.2,19.3-34,20.5c-11,0.8-23.2,0.2-32.4-6.6c-8.8-7-10.5-19.1-11.2-29.6
			c-0.4-17,0-34-0.2-51c-0.2-3-0.4-7-3.6-8.5c-4.2-1.7-8.8-1.2-13.2-1.3C833.1,217.8,833.2,211.4,833.1,204.9z"/>
	</g>
	<g id="_x23_0192cbff">
		<path class="st0" d="M109.2,38.8c36.9-24.1,80.6-37.7,124.7-38.7c43.3-1.2,86.8,9.6,124.4,31.1c26.8,15.2,50.5,35.6,69.6,59.7
			c-39,0-78,0-117,0c-1.8,0.1-3.5-0.4-5.1-1.1c-29.6-13.1-63.1-17-94.9-11.2c-28.4,5-55.4,17.9-77.3,36.7
			c-23.7,20.2-41.5,47.4-50.5,77.3c-9.8,32.4-9.2,67.9,1.7,100c9.9,29.3,28.3,55.5,52.3,74.9c22.1,17.9,48.8,29.8,76.8,34.2
			c28.8,4.6,58.8,1.4,85.9-9.2c3.7-1.2,7-3.8,11-3.7c39,0.1,78,0,117,0.1c-22.1,27.9-50.4,50.8-82.4,66.4
			c-37.8,18.7-80.6,26.9-122.7,23.9c-37.5-2.6-74.4-14.3-106.6-33.7c-27.3-16.5-51.2-38.4-70-64.1C24.2,351.5,9.3,316.3,3.3,279.7
			c-7.5-45.1-2-92.3,16.1-134.3C38.1,101.9,69.7,64.4,109.2,38.8z"/>
		<path class="st0" d="M213,149.3c3.3,0.3,6.5,1.2,9.7,2.3c30.5,9.6,61,19.1,91.5,28.7c0,39.5,0,79,0,118.5
			c-26.3,8.3-52.7,16.5-79.1,24.8c-7.4,2.2-14.6,4.9-22.1,6.6C213,269.9,213,209.6,213,149.3z"/>
		<path class="st0" d="M408.9,154.6c6.4-1.7,12.5-4.6,19.1-5.3c0,60.3,0,120.7,0,181c-32.9-9.6-65.4-20.5-98.2-30.5
			c-1-0.5-3.3-0.4-2.9-2.2c-0.1-39.1,0-78.2,0-117.3C354.2,171.7,381.5,163.2,408.9,154.6z"/>
	</g>
	<g id="_x23_313131ff">
	</g>
</g>
</svg>
